<?xml version="1.0" encoding="UTF-8"?>
<!--Generator: Apple Native CoreSVG 175.5-->
<!DOCTYPE svg
PUBLIC "-//W3C//DTD SVG 1.1//EN"
       "http://www.w3.org/Graphics/SVG/1.1/DTD/svg11.dtd">
<svg version="1.1" xmlns="http://www.w3.org/2000/svg" xmlns:xlink="http://www.w3.org/1999/xlink" width="3300" height="2200">
 <!--glyph: "uni1002E5.medium", point size: 100.0, font version: "18.0d9e1", template writer version: "84"-->
 <g id="Notes">
  <rect height="2200" id="artboard" style="fill:white;opacity:1" width="3300" x="0" y="0"/>
  <line style="fill:none;stroke:black;opacity:1;stroke-width:0.5;" x1="263" x2="3036" y1="292" y2="292"/>
  <text style="stroke:none;fill:black;font-family:sans-serif;font-size:13;font-weight:bold;" transform="matrix(1 0 0 1 263 322)">Weight/Scale Variations</text>
  <text style="stroke:none;fill:black;font-family:sans-serif;font-size:13;text-anchor:middle;" transform="matrix(1 0 0 1 559.711 322)">Ultralight</text>
  <text style="stroke:none;fill:black;font-family:sans-serif;font-size:13;text-anchor:middle;" transform="matrix(1 0 0 1 856.422 322)">Thin</text>
  <text style="stroke:none;fill:black;font-family:sans-serif;font-size:13;text-anchor:middle;" transform="matrix(1 0 0 1 1153.13 322)">Light</text>
  <text style="stroke:none;fill:black;font-family:sans-serif;font-size:13;text-anchor:middle;" transform="matrix(1 0 0 1 1449.84 322)">Regular</text>
  <text style="stroke:none;fill:black;font-family:sans-serif;font-size:13;text-anchor:middle;" transform="matrix(1 0 0 1 1746.56 322)">Medium</text>
  <text style="stroke:none;fill:black;font-family:sans-serif;font-size:13;text-anchor:middle;" transform="matrix(1 0 0 1 2043.27 322)">Semibold</text>
  <text style="stroke:none;fill:black;font-family:sans-serif;font-size:13;text-anchor:middle;" transform="matrix(1 0 0 1 2339.98 322)">Bold</text>
  <text style="stroke:none;fill:black;font-family:sans-serif;font-size:13;text-anchor:middle;" transform="matrix(1 0 0 1 2636.69 322)">Heavy</text>
  <text style="stroke:none;fill:black;font-family:sans-serif;font-size:13;text-anchor:middle;" transform="matrix(1 0 0 1 2933.4 322)">Black</text>
  <line style="fill:none;stroke:black;opacity:1;stroke-width:0.5;" x1="263" x2="3036" y1="1903" y2="1903"/>
  <g transform="matrix(1 0 0 1 263 1933)">
   <path d="M9.24805 0.830078Q10.8691 0.830078 12.2949 0.214844Q13.7207-0.400391 14.8096-1.49414Q15.8984-2.58789 16.5186-4.01367Q17.1387-5.43945 17.1387-7.05078Q17.1387-8.66211 16.5186-10.0879Q15.8984-11.5137 14.8047-12.6074Q13.7109-13.7012 12.2852-14.3164Q10.8594-14.9316 9.23828-14.9316Q7.62695-14.9316 6.20117-14.3164Q4.77539-13.7012 3.69141-12.6074Q2.60742-11.5137 1.9873-10.0879Q1.36719-8.66211 1.36719-7.05078Q1.36719-5.43945 1.9873-4.01367Q2.60742-2.58789 3.69629-1.49414Q4.78516-0.400391 6.21094 0.214844Q7.63672 0.830078 9.24805 0.830078ZM9.24805-0.654297Q7.91992-0.654297 6.7627-1.14746Q5.60547-1.64062 4.73145-2.51953Q3.85742-3.39844 3.36426-4.56055Q2.87109-5.72266 2.87109-7.05078Q2.87109-8.37891 3.35938-9.54102Q3.84766-10.7031 4.72168-11.582Q5.5957-12.4609 6.75293-12.9541Q7.91016-13.4473 9.23828-13.4473Q10.5762-13.4473 11.7383-12.9541Q12.9004-12.4609 13.7793-11.582Q14.6582-10.7031 15.1514-9.54102Q15.6445-8.37891 15.6445-7.05078Q15.6445-5.72266 15.1514-4.56055Q14.6582-3.39844 13.7793-2.51953Q12.9004-1.64062 11.7432-1.14746Q10.5859-0.654297 9.24805-0.654297ZM5.6543-7.05078Q5.6543-6.72852 5.85938-6.52832Q6.06445-6.32812 6.40625-6.32812L8.51562-6.32812L8.51562-4.20898Q8.51562-3.88672 8.71094-3.67676Q8.90625-3.4668 9.23828-3.4668Q9.56055-3.4668 9.77051-3.67676Q9.98047-3.88672 9.98047-4.20898L9.98047-6.32812L12.0898-6.32812Q12.4219-6.32812 12.627-6.52832Q12.832-6.72852 12.832-7.05078Q12.832-7.38281 12.627-7.58789Q12.4219-7.79297 12.0898-7.79297L9.98047-7.79297L9.98047-9.90234Q9.98047-10.2344 9.77051-10.4443Q9.56055-10.6543 9.23828-10.6543Q8.90625-10.6543 8.71094-10.4443Q8.51562-10.2344 8.51562-9.90234L8.51562-7.79297L6.40625-7.79297Q6.06445-7.79297 5.85938-7.58789Q5.6543-7.38281 5.6543-7.05078Z"/>
  </g>
  <g transform="matrix(1 0 0 1 281.867 1933)">
   <path d="M11.709 2.91016Q13.75 2.91016 15.5518 2.12891Q17.3535 1.34766 18.7305-0.0292969Q20.1074-1.40625 20.8887-3.20801Q21.6699-5.00977 21.6699-7.05078Q21.6699-9.0918 20.8887-10.8936Q20.1074-12.6953 18.7305-14.0723Q17.3535-15.4492 15.5469-16.2305Q13.7402-17.0117 11.6992-17.0117Q9.6582-17.0117 7.85645-16.2305Q6.05469-15.4492 4.68262-14.0723Q3.31055-12.6953 2.5293-10.8936Q1.74805-9.0918 1.74805-7.05078Q1.74805-5.00977 2.5293-3.20801Q3.31055-1.40625 4.6875-0.0292969Q6.06445 1.34766 7.86621 2.12891Q9.66797 2.91016 11.709 2.91016ZM11.709 1.25Q9.98047 1.25 8.47656 0.605469Q6.97266-0.0390625 5.83496-1.17676Q4.69727-2.31445 4.05762-3.81836Q3.41797-5.32227 3.41797-7.05078Q3.41797-8.7793 4.05762-10.2832Q4.69727-11.7871 5.83008-12.9297Q6.96289-14.0723 8.4668-14.7119Q9.9707-15.3516 11.6992-15.3516Q13.4277-15.3516 14.9365-14.7119Q16.4453-14.0723 17.583-12.9297Q18.7207-11.7871 19.3652-10.2832Q20.0098-8.7793 20.0098-7.05078Q20.0098-5.32227 19.3701-3.81836Q18.7305-2.31445 17.5879-1.17676Q16.4453-0.0390625 14.9414 0.605469Q13.4375 1.25 11.709 1.25ZM7.17773-7.05078Q7.17773-6.69922 7.41211-6.47461Q7.64648-6.25 8.01758-6.25L10.8887-6.25L10.8887-3.36914Q10.8887-2.99805 11.1133-2.76855Q11.3379-2.53906 11.6895-2.53906Q12.0605-2.53906 12.29-2.76855Q12.5195-2.99805 12.5195-3.36914L12.5195-6.25L15.4004-6.25Q15.7715-6.25 16.001-6.47461Q16.2305-6.69922 16.2305-7.05078Q16.2305-7.42188 16.001-7.65137Q15.7715-7.88086 15.4004-7.88086L12.5195-7.88086L12.5195-10.752Q12.5195-11.1328 12.29-11.3623Q12.0605-11.5918 11.6895-11.5918Q11.3379-11.5918 11.1133-11.3574Q10.8887-11.123 10.8887-10.752L10.8887-7.88086L8.01758-7.88086Q7.63672-7.88086 7.40723-7.65137Q7.17773-7.42188 7.17773-7.05078Z"/>
  </g>
  <g transform="matrix(1 0 0 1 305.646 1933)">
   <path d="M14.9707 5.66406Q17.0605 5.66406 18.96 5.01465Q20.8594 4.36523 22.4512 3.19336Q24.043 2.02148 25.2197 0.429688Q26.3965-1.16211 27.0459-3.06641Q27.6953-4.9707 27.6953-7.05078Q27.6953-9.14062 27.0459-11.04Q26.3965-12.9395 25.2197-14.5312Q24.043-16.123 22.4512-17.2998Q20.8594-18.4766 18.9551-19.126Q17.0508-19.7754 14.9609-19.7754Q12.8711-19.7754 10.9717-19.126Q9.07227-18.4766 7.48535-17.2998Q5.89844-16.123 4.72168-14.5312Q3.54492-12.9395 2.90039-11.04Q2.25586-9.14062 2.25586-7.05078Q2.25586-4.9707 2.90527-3.06641Q3.55469-1.16211 4.72656 0.429688Q5.89844 2.02148 7.49023 3.19336Q9.08203 4.36523 10.9814 5.01465Q12.8809 5.66406 14.9707 5.66406ZM14.9707 3.84766Q13.1641 3.84766 11.5283 3.2959Q9.89258 2.74414 8.53516 1.74805Q7.17773 0.751953 6.17676-0.610352Q5.17578-1.97266 4.62891-3.6084Q4.08203-5.24414 4.08203-7.05078Q4.08203-8.86719 4.62891-10.5029Q5.17578-12.1387 6.17188-13.501Q7.16797-14.8633 8.52539-15.8594Q9.88281-16.8555 11.5186-17.4023Q13.1543-17.9492 14.9609-17.9492Q16.7773-17.9492 18.4131-17.4023Q20.0488-16.8555 21.4111-15.8594Q22.7734-14.8633 23.7744-13.501Q24.7754-12.1387 25.3223-10.5029Q25.8691-8.86719 25.8691-7.05078Q25.8691-5.24414 25.3223-3.6084Q24.7754-1.97266 23.7793-0.610352Q22.7832 0.751953 21.4209 1.74805Q20.0586 2.74414 18.4229 3.2959Q16.7871 3.84766 14.9707 3.84766ZM9.19922-7.05078Q9.19922-6.66992 9.45801-6.4209Q9.7168-6.17188 10.1172-6.17188L14.0625-6.17188L14.0625-2.2168Q14.0625-1.81641 14.3115-1.55762Q14.5605-1.29883 14.9512-1.29883Q15.3516-1.29883 15.6104-1.55273Q15.8691-1.80664 15.8691-2.2168L15.8691-6.17188L19.8242-6.17188Q20.2246-6.17188 20.4785-6.4209Q20.7324-6.66992 20.7324-7.05078Q20.7324-7.46094 20.4785-7.71484Q20.2246-7.96875 19.8242-7.96875L15.8691-7.96875L15.8691-11.9141Q15.8691-12.3242 15.6104-12.583Q15.3516-12.8418 14.9512-12.8418Q14.5605-12.8418 14.3115-12.583Q14.0625-12.3242 14.0625-11.9141L14.0625-7.96875L10.1172-7.96875Q9.70703-7.96875 9.45312-7.71484Q9.19922-7.46094 9.19922-7.05078Z"/>
  </g>
  <text style="stroke:none;fill:black;font-family:sans-serif;font-size:13;font-weight:bold;" transform="matrix(1 0 0 1 263 1953)">Design Variations</text>
  <text style="stroke:none;fill:black;font-family:sans-serif;font-size:13;" transform="matrix(1 0 0 1 263 1971)">Symbols are supported in up to nine weights and three scales.</text>
  <text style="stroke:none;fill:black;font-family:sans-serif;font-size:13;" transform="matrix(1 0 0 1 263 1989)">For optimal layout with text and other symbols, vertically align</text>
  <text style="stroke:none;fill:black;font-family:sans-serif;font-size:13;" transform="matrix(1 0 0 1 263 2007)">symbols with the adjacent text.</text>
  <line style="fill:none;stroke:#00AEEF;stroke-width:0.5;opacity:1.0;" x1="776" x2="776" y1="1919" y2="1933"/>
  <g transform="matrix(1 0 0 1 776 1933)">
   <path d="M3.31055 0.15625Q3.70117 0.15625 3.91602-0.00976562Q4.13086-0.175781 4.26758-0.585938L5.52734-4.0332L11.2891-4.0332L12.5488-0.585938Q12.6855-0.175781 12.9004-0.00976562Q13.1152 0.15625 13.4961 0.15625Q13.8867 0.15625 14.1162-0.0585938Q14.3457-0.273438 14.3457-0.644531Q14.3457-0.869141 14.2383-1.17188L9.6582-13.3691Q9.48242-13.8184 9.17969-14.043Q8.87695-14.2676 8.4082-14.2676Q7.5-14.2676 7.17773-13.3789L2.59766-1.16211Q2.49023-0.859375 2.49023-0.634766Q2.49023-0.263672 2.70996-0.0537109Q2.92969 0.15625 3.31055 0.15625ZM6.00586-5.51758L8.37891-12.0898L8.42773-12.0898L10.8008-5.51758Z"/>
  </g>
  <line style="fill:none;stroke:#00AEEF;stroke-width:0.5;opacity:1.0;" x1="793.197" x2="793.197" y1="1919" y2="1933"/>
  <text style="stroke:none;fill:black;font-family:sans-serif;font-size:13;font-weight:bold;" transform="matrix(1 0 0 1 776 1953)">Margins</text>
  <text style="stroke:none;fill:black;font-family:sans-serif;font-size:13;" transform="matrix(1 0 0 1 776 1971)">Leading and trailing margins on the left and right side of each symbol</text>
  <text style="stroke:none;fill:black;font-family:sans-serif;font-size:13;" transform="matrix(1 0 0 1 776 1989)">can be adjusted by modifying the x-location of the margin guidelines.</text>
  <text style="stroke:none;fill:black;font-family:sans-serif;font-size:13;" transform="matrix(1 0 0 1 776 2007)">Modifications are automatically applied proportionally to all</text>
  <text style="stroke:none;fill:black;font-family:sans-serif;font-size:13;" transform="matrix(1 0 0 1 776 2025)">scales and weights.</text>
  <g transform="matrix(1 0 0 1 1289 1933)">
   <path d="M2.8418 1.86523L4.54102 3.57422Q5.18555 4.22852 5.90332 4.17969Q6.62109 4.13086 7.31445 3.35938L18.0078-8.42773L17.041-9.4043L6.42578 2.27539Q6.16211 2.57812 5.89355 2.61719Q5.625 2.65625 5.27344 2.30469L4.10156 1.14258Q3.75 0.791016 3.79395 0.522461Q3.83789 0.253906 4.14062-0.0195312L15.6152-10.8203L14.6387-11.7871L3.04688-0.898438Q2.30469-0.214844 2.25098 0.498047Q2.19727 1.21094 2.8418 1.86523ZM9.25781-16.3281Q8.94531-16.0254 8.90625-15.6348Q8.86719-15.2441 9.04297-14.9512Q9.21875-14.6777 9.55566-14.541Q9.89258-14.4043 10.3809-14.5215Q11.4746-14.7754 12.5977-14.7314Q13.7207-14.6875 14.7949-13.9844L14.209-12.5293Q13.9551-11.9043 14.0674-11.4404Q14.1797-10.9766 14.5801-10.5664L16.875-8.25195Q17.2363-7.88086 17.5781-7.82227Q17.9199-7.76367 18.3398-7.8418L19.4043-8.03711L20.0684-7.36328L20.0293-6.80664Q20-6.43555 20.1221-6.12305Q20.2441-5.81055 20.6055-5.44922L21.3672-4.70703Q21.7285-4.3457 22.1533-4.33105Q22.5781-4.31641 22.9297-4.66797L25.8398-7.58789Q26.1914-7.93945 26.1816-8.35449Q26.1719-8.76953 25.8105-9.13086L25.0391-9.89258Q24.6875-10.2539 24.3799-10.3857Q24.0723-10.5176 23.7109-10.4883L23.1348-10.4395L22.4902-11.0742L22.7344-12.1973Q22.832-12.6172 22.6953-12.9834Q22.5586-13.3496 22.1191-13.7891L19.9219-15.9766Q18.6719-17.2168 17.2607-17.8369Q15.8496-18.457 14.4189-18.4814Q12.9883-18.5059 11.665-17.959Q10.3418-17.4121 9.25781-16.3281ZM10.752-15.957Q11.6602-16.6211 12.7002-16.9043Q13.7402-17.1875 14.8047-17.085Q15.8691-16.9824 16.8701-16.5137Q17.8711-16.0449 18.7012-15.2051L21.1328-12.793Q21.3086-12.6172 21.3525-12.4512Q21.3965-12.2852 21.3379-12.0312L21.0156-10.5469L22.5195-9.0625L23.5059-9.12109Q23.6914-9.13086 23.7891-9.09668Q23.8867-9.0625 24.0332-8.91602L24.6094-8.33984L22.168-5.89844L21.5918-6.47461Q21.4453-6.62109 21.4062-6.71875Q21.3672-6.81641 21.377-7.01172L21.4453-7.98828L19.9512-9.47266L18.4277-9.21875Q18.1836-9.16992 18.042-9.2041Q17.9004-9.23828 17.7148-9.41406L15.7129-11.416Q15.5176-11.5918 15.4932-11.7529Q15.4688-11.9141 15.5859-12.1875L16.4648-14.2773Q15.293-15.3711 13.8281-15.791Q12.3633-16.2109 10.8398-15.7617Q10.7227-15.7324 10.6885-15.8057Q10.6543-15.8789 10.752-15.957Z"/>
  </g>
  <text style="stroke:none;fill:black;font-family:sans-serif;font-size:13;font-weight:bold;" transform="matrix(1 0 0 1 1289 1953)">Exporting</text>
  <text style="stroke:none;fill:black;font-family:sans-serif;font-size:13;" transform="matrix(1 0 0 1 1289 1971)">Symbols should be outlined when exporting to ensure the</text>
  <text style="stroke:none;fill:black;font-family:sans-serif;font-size:13;" transform="matrix(1 0 0 1 1289 1989)">design is preserved when submitting to Xcode.</text>
  <text id="template-version" style="stroke:none;fill:black;font-family:sans-serif;font-size:13;text-anchor:end;" transform="matrix(1 0 0 1 3036 1933)">Template v.2.0</text>
  <text style="stroke:none;fill:black;font-family:sans-serif;font-size:13;text-anchor:end;" transform="matrix(1 0 0 1 3036 1951)">Requires Xcode 12 or greater</text>
  <text id="descriptive-name" style="stroke:none;fill:black;font-family:sans-serif;font-size:13;text-anchor:end;" transform="matrix(1 0 0 1 3036 1969)">Generated from bolt</text>
  <text style="stroke:none;fill:black;font-family:sans-serif;font-size:13;text-anchor:end;" transform="matrix(1 0 0 1 3036 1987)">Typeset at 100 points</text>
  <text style="stroke:none;fill:black;font-family:sans-serif;font-size:13;" transform="matrix(1 0 0 1 263 726)">Small</text>
  <text style="stroke:none;fill:black;font-family:sans-serif;font-size:13;" transform="matrix(1 0 0 1 263 1156)">Medium</text>
  <text style="stroke:none;fill:black;font-family:sans-serif;font-size:13;" transform="matrix(1 0 0 1 263 1586)">Large</text>
 </g>
 <g id="Guides">
  <g id="H-reference" style="fill:#27AAE1;stroke:none;" transform="matrix(1 0 0 1 339 696)">
   <path d="M0.993347 0L3.6377 0L29.3282-67.1326L30.0301-67.1326L30.0301-70.459L28.1227-70.459ZM11.6882-24.4797L46.9818-24.4797L46.2311-26.7288L12.4382-26.7288ZM55.1193 0L57.7637 0L30.6381-70.459L29.4327-70.459L29.4327-67.1326Z"/>
  </g>
  <line id="Baseline-S" style="fill:none;stroke:#27AAE1;opacity:1;stroke-width:0.5;" x1="263" x2="3036" y1="696" y2="696"/>
  <line id="Capline-S" style="fill:none;stroke:#27AAE1;opacity:1;stroke-width:0.5;" x1="263" x2="3036" y1="625.541" y2="625.541"/>
  <g id="H-reference" style="fill:#27AAE1;stroke:none;" transform="matrix(1 0 0 1 339 1126)">
   <path d="M0.993347 0L3.6377 0L29.3282-67.1326L30.0301-67.1326L30.0301-70.459L28.1227-70.459ZM11.6882-24.4797L46.9818-24.4797L46.2311-26.7288L12.4382-26.7288ZM55.1193 0L57.7637 0L30.6381-70.459L29.4327-70.459L29.4327-67.1326Z"/>
  </g>
  <line id="Baseline-M" style="fill:none;stroke:#27AAE1;opacity:1;stroke-width:0.5;" x1="263" x2="3036" y1="1126" y2="1126"/>
  <line id="Capline-M" style="fill:none;stroke:#27AAE1;opacity:1;stroke-width:0.5;" x1="263" x2="3036" y1="1055.54" y2="1055.54"/>
  <g id="H-reference" style="fill:#27AAE1;stroke:none;" transform="matrix(1 0 0 1 339 1556)">
   <path d="M0.993347 0L3.6377 0L29.3282-67.1326L30.0301-67.1326L30.0301-70.459L28.1227-70.459ZM11.6882-24.4797L46.9818-24.4797L46.2311-26.7288L12.4382-26.7288ZM55.1193 0L57.7637 0L30.6381-70.459L29.4327-70.459L29.4327-67.1326Z"/>
  </g>
  <line id="Baseline-L" style="fill:none;stroke:#27AAE1;opacity:1;stroke-width:0.5;" x1="263" x2="3036" y1="1556" y2="1556"/>
  <line id="Capline-L" style="fill:none;stroke:#27AAE1;opacity:1;stroke-width:0.5;" x1="263" x2="3036" y1="1485.54" y2="1485.54"/>
  <line id="left-margin" style="fill:none;stroke:#00AEEF;stroke-width:0.5;opacity:1.0;" x1="1401.75" x2="1401.75" y1="1030.79" y2="1150.12"/>
  <line id="right-margin" style="fill:none;stroke:#00AEEF;stroke-width:0.5;opacity:1.0;" x1="1497.94" x2="1497.94" y1="1030.79" y2="1150.12"/>
 </g>
 <g id="Symbols">
  <g id="Black-L" transform="matrix(1 0 0 1 2866.15 1556)">
   <path d="M52.0216 37.8568L116.274-42.2024Q118.265-44.6711 118.265-47.1737Q118.265-49.6095 116.591-51.1766Q114.918-52.7436 112.416-52.7436L75.1823-52.7436L93.388-103.408Q94.8588-107.597 93.1321-110.147Q91.4055-112.697 88.2977-112.706Q85.1898-112.716 82.4715-109.361L18.2201-29.302Q16.2291-26.8334 16.2291-24.3308Q16.2291-21.8949 17.9028-20.3279Q19.5764-18.7609 22.0779-18.7609L59.3108-18.7609L41.1063 31.9032Q39.6355 36.0923 41.3622 38.6133Q43.0888 41.1344 46.2252 41.1728Q49.3617 41.2112 52.0216 37.8568ZM55.6622 18.3242L79.3947-31.6793L39.2256-31.6793L82.6108-88.5979L78.8697-89.8286L55.158-39.8251L95.3051-39.8251L51.9211 17.0934Z"/>
  </g>
  <g id="Heavy-L" transform="matrix(1 0 0 1 2570.71 1556)">
   <path d="M50.8511 36.3969L113.421-42.0884Q115.312-44.4401 115.312-46.7893Q115.312-49.0547 113.756-50.5229Q112.199-51.9912 109.855-51.9912L72.9725-51.9912L91.346-102.316Q92.7406-106.249 91.1171-108.64Q89.4937-111.03 86.5654-111.039Q83.6372-111.049 81.0993-107.901L18.5351-29.416Q16.6435-27.0643 16.6435-24.7151Q16.6435-22.4498 18.2004-20.9815Q19.7574-19.5132 22.101-19.5132L58.9779-19.5132L40.6101 30.812Q39.2155 34.7445 40.8389 37.1128Q42.4624 39.481 45.4101 39.5127Q48.3578 39.5445 50.8511 36.3969ZM54.464 17.7088L77.527-31.4608L37.6838-31.4608L80.7546-88.0544L77.5064-89.2133L54.4736-40.0436L94.2809-40.0436L51.2159 16.5499Z"/>
  </g>
  <g id="Bold-L" transform="matrix(1 0 0 1 2275.51 1556)">
   <path d="M49.3169 34.606L109.953-42.0171Q111.707-44.2005 111.707-46.3352Q111.707-48.3483 110.322-49.6713Q108.937-50.9943 106.816-50.9943L70.2892-50.9943L88.885-101.061Q90.165-104.626 88.6944-106.787Q87.2239-108.948 84.5595-108.954Q81.895-108.96 79.6098-106.11L18.9865-29.4873Q17.2327-27.3039 17.2327-25.1692Q17.2327-23.1562 18.6176-21.8331Q20.0025-20.5101 22.1242-20.5101L58.6375-20.5101L40.055 29.5565Q38.775 33.1218 40.2456 35.2682Q41.7161 37.4146 44.3885 37.4349Q47.0609 37.4552 49.3169 34.606ZM52.8319 17.2908L75.0576-31.1173L35.6514-31.1173L78.7478-87.7435L76.0992-88.7953L53.9114-40.3871L93.2664-40.3871L50.1836 16.239Z"/>
  </g>
  <g id="Semibold-L" transform="matrix(1 0 0 1 1979.84 1556)">
   <path d="M48.2592 33.3713L107.563-41.9679Q109.222-44.0353 109.222-46.0222Q109.222-47.8613 107.955-49.0842Q106.689-50.3071 104.72-50.3071L68.4393-50.3071L87.1884-100.195Q88.3893-103.508 87.0242-105.51Q85.6591-107.513 83.1765-107.516Q80.6939-107.519 78.5829-104.876L19.2977-29.5365Q17.6389-27.4691 17.6389-25.4823Q17.6389-23.6431 18.9052-22.4202Q20.1716-21.1974 22.1401-21.1974L58.4028-21.1974L39.6723 28.6909Q38.4714 32.0031 39.8365 33.9966Q41.2016 35.99 43.6842 36.0024Q46.1667 36.0148 48.2592 33.3713ZM51.7067 17.0026L73.3552-30.8805L34.2502-30.8805L77.3642-87.5291L75.1291-88.5071L53.5238-40.6239L92.5669-40.6239L49.4719 16.0247Z"/>
  </g>
  <g id="Medium-L" transform="matrix(1 0 0 1 1683.91 1556)">
   <path d="M47.4572 32.4352L105.75-41.9307Q107.337-43.9101 107.337-45.7848Q107.337-47.4921 106.16-48.639Q104.984-49.786 103.132-49.786L67.0366-49.786L85.902-99.5391Q87.043-102.659 85.7578-104.542Q84.4727-106.425 82.128-106.426Q79.7832-106.427 77.8043-103.94L19.5337-29.5738Q17.9469-27.5944 17.9469-25.7196Q17.9469-24.0124 19.1233-22.8654Q20.2997-21.7185 22.1522-21.7185L58.2249-21.7185L39.3821 28.0346Q38.2412 31.1549 39.5263 33.0324Q40.8115 34.9098 43.1501 34.9163Q45.4888 34.9227 47.4572 32.4352ZM50.8535 16.7841L72.0643-30.701L33.1878-30.701L76.3152-87.3666L74.3935-88.2886L53.23-40.8035L92.0366-40.8035L48.9322 15.8622Z"/>
  </g>
  <g id="Regular-L" transform="matrix(1 0 0 1 1388.23 1556)">
   <path d="M46.4111 31.2141L103.386-41.882Q104.879-43.7467 104.879-45.4752Q104.879-47.0104 103.82-48.0584Q102.76-49.1063 101.059-49.1063L65.207-49.1063L84.2241-98.683Q85.2869-101.553 84.106-103.279Q82.9251-105.005 80.7603-105.004Q78.5954-105.003 76.7887-102.719L19.8415-29.6224Q18.3487-27.7577 18.3487-26.0292Q18.3487-24.494 19.4078-23.4461Q20.4669-22.3981 22.168-22.3981L57.9929-22.3981L39.0037 27.1786Q37.9409 30.0485 39.1218 31.7747Q40.3027 33.5009 42.4536 33.4996Q44.6045 33.4982 46.4111 31.2141ZM49.7407 16.4991L70.3807-30.4668L31.802-30.4668L74.9469-87.1546L73.434-88.0036L52.8467-41.0377L91.3449-41.0377L48.2283 15.6502Z"/>
  </g>
  <g id="Light-L" transform="matrix(1 0 0 1 1092.15 1556)">
   <path d="M44.8079 30.0879L101.42-42.2828Q102.722-43.8804 102.722-45.3034Q102.722-46.3996 101.959-47.1995Q101.195-47.9994 99.8187-47.9994L63.6993-47.9994L82.9646-98.4349Q83.8173-100.732 82.9037-102.096Q81.9901-103.459 80.2737-103.429Q78.5572-103.399 77.1133-101.592L20.5475-29.2216Q19.2456-27.624 19.2456-26.2011Q19.2456-25.1049 20.0089-24.3049Q20.7722-23.505 22.1488-23.505L58.2218-23.505L39.0037 26.9304Q38.1509 29.2279 39.0645 30.5915Q39.9782 31.9551 41.671 31.925Q43.3639 31.8949 44.8079 30.0879ZM47.6603 18.4266L67.6705-29.7607L29.6071-29.7607L75.4433-89.2732L74.2738-89.931L54.297-41.7438L92.2799-41.7438L46.4917 17.7688Z"/>
  </g>
  <g id="Thin-L" transform="matrix(1 0 0 1 796.271 1556)">
   <path d="M42.6874 28.5985L98.8198-42.813Q99.8694-44.0573 99.8694-45.076Q99.8694-45.5917 99.4974-46.0636Q99.1253-46.5354 98.1779-46.5354L61.7052-46.5354L81.2987-98.1066Q81.8737-99.6471 81.3136-100.531Q80.7534-101.415 79.6301-101.347Q78.5068-101.279 77.5424-100.103L21.4814-28.6915Q20.4318-27.4472 20.4318-26.4284Q20.4318-25.9127 20.8038-25.4409Q21.1759-24.969 22.1233-24.969L58.5246-24.969L39.0037 26.6022Q38.4287 28.1427 38.9888 29.0266Q39.549 29.9105 40.636 29.8425Q41.7231 29.7744 42.6874 28.5985ZM44.9088 20.9758L64.086-28.8268L26.7042-28.8268L76.0998-92.0752L75.3845-92.4803L56.2152-42.6776L93.5165-42.6776L44.1948 20.5708Z"/>
  </g>
  <g id="Ultralight-L" transform="matrix(1 0 0 1 499.987 1556)">
   <path d="M41.6013 27.8356L97.488-43.0845Q98.4084-44.1479 98.4084-44.9596Q98.4084-45.1779 98.2367-45.4817Q98.065-45.7856 97.3374-45.7856L60.6839-45.7856L80.4455-97.9385Q80.8782-99.0913 80.4991-99.7295Q80.12-100.368 79.3005-100.28Q78.4809-100.193 77.7623-99.3401L21.9597-28.42Q21.0393-27.3566 21.0393-26.5448Q21.0393-26.3265 21.211-26.0227Q21.3827-25.7189 22.1103-25.7189L58.6797-25.7189L39.0037 26.434Q38.571 27.5868 38.9501 28.2251Q39.3291 28.8633 40.1059 28.7758Q40.8827 28.6883 41.6013 27.8356ZM43.4995 22.2815L62.2501-28.3485L25.2174-28.3485L76.436-93.5104L75.9534-93.786L57.1976-43.1559L94.15-43.1559L43.0183 22.0059Z"/>
  </g>
  <g id="Black-M" transform="matrix(1 0 0 1 2880.3 1126)">
   <path d="M41.092 22.4955L92.2684-40.784Q93.8703-42.7609 93.8703-44.7902Q93.8703-46.7644 92.5135-48.0297Q91.1566-49.295 89.127-49.295L59.9417-49.295L73.9359-88.9542Q75.1124-92.3425 73.7222-94.4065Q72.332-96.4704 69.8307-96.4735Q67.3293-96.4765 65.1175-93.7645L13.9408-30.4849Q12.3388-28.5081 12.3388-26.4787Q12.3388-24.5045 13.6957-23.2392Q15.0526-21.9739 17.0822-21.9739L46.2678-21.9739L32.2732 17.6852Q31.0968 21.0736 32.4869 23.109Q33.8771 25.1444 36.4072 25.176Q38.9372 25.2075 41.092 22.4955ZM43.8717 7.05074L62.7484-32.5712L31.4173-32.5712L65.6646-77.3304L62.389-78.3197L43.5179-38.6978L74.8437-38.6978L40.5961 6.06145Z"/>
  </g>
  <g id="Heavy-M" transform="matrix(1 0 0 1 2584.77 1126)">
   <path d="M40.0957 21.1723L89.6604-40.6356Q91.1829-42.5228 91.1829-44.4303Q91.1829-46.2784 89.9128-47.47Q88.6428-48.6616 86.7375-48.6616L57.9206-48.6616L72.0559-87.9103Q73.1773-91.1007 71.8633-93.042Q70.5494-94.9832 68.1822-94.9891Q65.8151-94.9951 63.7461-92.4413L14.1836-30.6334Q12.6611-28.7462 12.6611-26.8386Q12.6611-24.9906 13.9312-23.7989Q15.2013-22.6073 17.1066-22.6073L45.9211-22.6073L31.7882 16.6414Q30.6668 19.8318 31.9807 21.7512Q33.2947 23.6707 35.6825 23.6984Q38.0703 23.7261 40.0957 21.1723ZM42.8923 6.27141L61.1726-32.4227L30.1127-32.4227L63.8043-76.6036L60.9789-77.5404L42.715-38.8463L73.7563-38.8463L40.067 5.33467Z"/>
  </g>
  <g id="Bold-M" transform="matrix(1 0 0 1 2289.38 1126)">
   <path d="M38.9811 19.6922L86.743-40.4695Q88.1766-42.2564 88.1766-44.0277Q88.1766-45.7346 87.0036-46.8439Q85.8306-47.9531 84.0644-47.9531L55.6598-47.9531L69.9528-86.7426Q71.0126-89.7116 69.7839-91.5156Q68.5552-93.3196 66.3382-93.3287Q64.1211-93.3379 62.212-90.9611L14.4552-30.7994Q13.0216-29.0125 13.0216-27.2412Q13.0216-25.5343 14.1946-24.4251Q15.3676-23.3158 17.1338-23.3158L45.5334-23.3158L31.2455 15.4737Q30.1857 18.4426 31.4144 20.2324Q32.6431 22.0221 34.8718 22.0455Q37.1006 22.0689 38.9811 19.6922ZM41.7967 5.39961L59.4098-32.2566L28.6532-32.2566L61.7231-75.7906L59.4015-76.6686L41.817-39.0124L72.5398-39.0124L39.4751 4.52166Z"/>
  </g>
  <g id="Semibold-M" transform="matrix(1 0 0 1 1993.58 1126)">
   <path d="M38.2128 18.6718L84.7318-40.3551Q86.1041-42.0728 86.1041-43.7502Q86.1041-45.3597 84.998-46.4122Q83.892-47.4647 82.2216-47.4647L54.1011-47.4647L68.503-85.9376Q69.5203-88.7539 68.3504-90.4633Q67.1804-92.1727 65.0669-92.1841Q62.9533-92.1954 61.1544-89.9407L14.6425-30.9139Q13.2702-29.1962 13.2702-27.5188Q13.2702-25.9092 14.3762-24.8567Q15.4823-23.8043 17.1526-23.8043L45.2661-23.8043L30.8714 14.6687Q29.8541 17.485 31.024 19.1853Q32.1939 20.8856 34.313 20.906Q36.432 20.9265 38.2128 18.6718ZM41.0414 4.7986L58.1946-32.1421L27.6471-32.1421L60.2884-75.2301L58.314-76.0675L41.1978-39.1269L71.7012-39.1269L39.0671 3.96118Z"/>
  </g>
  <g id="Medium-M" transform="matrix(1 0 0 1 1697.56 1126)">
   <path d="M37.6302 17.8981L83.2068-40.2683Q84.5326-41.9336 84.5326-43.5397Q84.5326-45.0755 83.4773-46.0849Q82.422-47.0943 80.8244-47.0943L52.9193-47.0943L67.4036-85.3272Q68.3887-88.0278 67.2634-89.6654Q66.138-91.303 64.1029-91.3161Q62.0679-91.3292 60.3525-89.167L14.7844-31.0007Q13.4586-29.3354 13.4586-27.7292Q13.4586-26.1934 14.5139-25.184Q15.5692-24.1746 17.1669-24.1746L45.0634-24.1746L30.5878 14.0583Q29.6027 16.7588 30.728 18.3913Q31.8533 20.0238 33.8892 20.042Q35.9251 20.0602 37.6302 17.8981ZM40.4687 4.34289L57.2731-32.0552L26.8842-32.0552L59.2006-74.8051L57.4894-75.6118L40.7284-39.2137L71.0653-39.2137L38.7577 3.53619Z"/>
  </g>
  <g id="Regular-M" transform="matrix(1 0 0 1 1401.75 1126)">
   <path d="M36.8703 16.8889L81.2176-40.1551Q82.4829-41.7519 82.4829-43.2652Q82.4829-44.7048 81.4938-45.658Q80.5047-46.6112 79.0018-46.6112L51.3778-46.6112L65.9697-84.5311Q66.9128-87.0806 65.8456-88.6247Q64.7784-90.1687 62.8456-90.184Q60.9129-90.1993 59.3065-88.1578L14.9696-31.1139Q13.7044-29.517 13.7044-28.0037Q13.7044-26.5642 14.6935-25.611Q15.6826-24.6577 17.1855-24.6577L44.799-24.6577L30.2178 13.2621Q29.2747 15.8117 30.3419 17.3557Q31.4091 18.8998 33.3365 18.9151Q35.2639 18.9303 36.8703 16.8889ZM39.7217 3.74848L56.0712-31.942L25.8891-31.942L57.7816-74.2508L56.4139-75.0174L40.1161-39.327L70.2359-39.327L38.3542 2.98187Z"/>
  </g>
  <g id="Light-M" transform="matrix(1 0 0 1 1105.6 1126)">
   <path d="M35.4329 15.8792L79.4551-40.5144Q80.5493-41.8718 80.5493-43.1111Q80.5493-44.1571 79.8254-44.888Q79.1015-45.6188 77.8896-45.6188L50.0261-45.6188L64.8405-84.3085Q65.5952-86.345 64.7677-87.5639Q63.9401-88.7828 62.4094-88.7723Q60.8787-88.7619 59.5975-87.1482L15.6027-30.7545Q14.5085-29.3971 14.5085-28.1578Q14.5085-27.1118 15.2324-26.381Q15.9563-25.6501 17.1682-25.6501L45.0043-25.6501L30.2178 13.0396Q29.463 15.076 30.2906 16.2949Q31.1181 17.5138 32.6349 17.5034Q34.1517 17.4929 35.4329 15.8792ZM37.8565 5.47655L53.6414-31.3089L23.9213-31.3089L58.2267-76.1502L57.1668-76.7455L41.4163-39.96L71.0742-39.96L36.7971 4.88128Z"/>
  </g>
  <g id="Thin-M" transform="matrix(1 0 0 1 809.64 1126)">
   <path d="M33.5318 14.5439L77.1239-40.9897Q77.9919-42.0304 77.9919-42.9073Q77.9919-43.4328 77.6187-43.8695Q77.2456-44.3063 76.4185-44.3063L48.2383-44.3063L63.347-84.0143Q63.8527-85.372 63.342-86.1608Q62.8314-86.9497 61.8324-86.9052Q60.8334-86.8608 59.9823-85.8128L16.4399-30.2792Q15.572-29.2386 15.572-28.3616Q15.572-27.8361 15.9451-27.3994Q16.3183-26.9627 17.1454-26.9627L45.2758-26.9627L30.2178 12.7453Q29.7121 14.103 30.2227 14.8919Q30.7334 15.6808 31.707 15.6363Q32.6806 15.5918 33.5318 14.5439ZM35.3897 7.76206L50.4278-30.4717L21.3187-30.4717L58.8152-78.6623L58.1626-79.031L43.1361-40.7973L72.1829-40.7973L34.7379 7.3934Z"/>
  </g>
  <g id="Ultralight-M" transform="matrix(1 0 0 1 513.311 1126)">
   <path d="M32.558 13.8599L75.9299-41.2332Q76.682-42.1116 76.682-42.803Q76.682-43.0618 76.4885-43.3479Q76.295-43.634 75.665-43.634L47.3225-43.634L62.582-83.8635Q62.9601-84.8736 62.6118-85.4422Q62.2635-86.0108 61.5369-85.9489Q60.8103-85.887 60.1793-85.1289L16.8688-30.0358Q16.1167-29.1574 16.1167-28.466Q16.1167-28.2071 16.3102-27.921Q16.5037-27.6349 17.1337-27.6349L45.4148-27.6349L30.2178 12.5946Q29.8396 13.6047 30.1879 14.1733Q30.5363 14.7419 31.2317 14.68Q31.9271 14.6181 32.558 13.8599ZM34.1261 8.93269L48.7818-30.0429L19.9856-30.0429L59.1167-79.949L58.6726-80.2016L44.0169-41.2261L72.7508-41.2261L33.6831 8.6801Z"/>
  </g>
  <g id="Black-S" transform="matrix(1 0 0 1 2891.46 696)">
   <path d="M32.4219 10.3516L72.998-39.6484Q74.2676-41.2109 74.2676-42.8223Q74.2676-44.3848 73.1934-45.3857Q72.1191-46.3867 70.5078-46.3867L47.5098-46.3867L58.4473-77.6367Q59.375-80.3223 58.2764-81.958Q57.1777-83.5938 55.2002-83.5938Q53.2227-83.5938 51.4648-81.4453L10.8887-31.4453Q9.61914-29.8828 9.61914-28.2715Q9.61914-26.709 10.6934-25.708Q11.7676-24.707 13.3789-24.707L36.377-24.707L25.4395 6.54297Q24.5117 9.22852 25.6104 10.8398Q26.709 12.4512 28.7109 12.4756Q30.7129 12.5 32.4219 10.3516ZM34.5703-1.75781L49.5117-33.1543L24.9023-33.1543L52.0508-68.5547L49.3652-69.3359L34.4238-37.9395L59.0332-37.9395L31.8848-2.53906Z"/>
  </g>
  <g id="Heavy-S" transform="matrix(1 0 0 1 2595.68 696)">
   <path d="M31.7535 9.34893L70.9928-39.4756Q72.2162-40.992 72.2162-42.5342Q72.2162-44.039 71.1823-45.0054Q70.1485-45.9718 68.6063-45.9718L45.954-45.9718L56.9837-76.7724Q57.8883-79.3542 56.8243-80.9266Q55.7602-82.4989 53.8461-82.5047Q51.9319-82.5105 50.2548-80.4427L11.0154-31.6182Q9.79201-30.1018 9.79201-28.5596Q9.79201-27.0547 10.8259-26.0883Q11.8598-25.1219 13.402-25.1219L36.0543-25.1219L25.0246 5.67863Q24.1199 8.26046 25.1839 9.81417Q26.248 11.3679 28.1808 11.3923Q30.1136 11.4167 31.7535 9.34893ZM33.971-2.6452L48.4745-33.1082L24.038-33.1082L50.4028-67.6904L48.063-68.4486L33.571-37.9856L57.996-37.9856L31.6312-3.4034Z"/>
  </g>
  <g id="Bold-S" transform="matrix(1 0 0 1 2300.02 696)">
   <path d="M31.0059 8.22754L68.75-39.2822Q69.9219-40.7471 69.9219-42.2119Q69.9219-43.6523 68.9331-44.5801Q67.9443-45.5078 66.4795-45.5078L44.2139-45.5078L55.3467-75.8057Q56.2256-78.2715 55.2002-79.7729Q54.1748-81.2744 52.3315-81.2866Q50.4883-81.2988 48.9014-79.3213L11.1572-31.8115Q9.98535-30.3467 9.98535-28.8818Q9.98535-27.4414 10.9741-26.5137Q11.9629-25.5859 13.4277-25.5859L35.6934-25.5859L24.5605 4.71191Q23.6816 7.17773 24.707 8.66699Q25.7324 10.1562 27.5879 10.1807Q29.4434 10.2051 31.0059 8.22754ZM33.3008-3.6377L47.3145-33.0566L23.0713-33.0566L48.5596-66.7236L46.6064-67.4561L32.6172-38.0371L56.8359-38.0371L31.3477-4.37012Z"/>
  </g>
  <g id="Semibold-S" transform="matrix(1 0 0 1 2004.04 696)">
   <path d="M30.4904 7.45439L67.2037-39.1489Q68.34-40.5782 68.34-41.9897Q68.34-43.3857 67.3824-44.2868Q66.4247-45.1879 65.0132-45.1879L43.0142-45.1879L54.2181-75.1392Q55.0792-77.525 54.0805-78.9776Q53.0817-80.4302 51.2874-80.4468Q49.493-80.4635 47.9683-78.5481L11.255-31.9448Q10.1187-30.5155 10.1187-29.104Q10.1187-27.708 11.0763-26.8069Q12.034-25.9059 13.4455-25.9059L35.4445-25.9059L24.2406 4.04541Q23.3795 6.43125 24.3782 7.87607Q25.377 9.3209 27.1791 9.34531Q28.9812 9.36973 30.4904 7.45439ZM32.8387-4.32197L46.5146-33.0211L22.4048-33.0211L47.2888-66.0571L45.6022-66.7718L31.9596-38.0727L56.0361-38.0727L31.1521-5.03662Z"/>
  </g>
  <g id="Medium-S" transform="matrix(1 0 0 1 1707.88 696)">
   <path d="M30.0996 6.86816L66.0312-39.0479Q67.1406-40.4502 67.1406-41.8213Q67.1406-43.1836 66.2065-44.0645Q65.2725-44.9453 63.9014-44.9453L42.1045-44.9453L53.3623-74.6338Q54.21-76.959 53.2314-78.3745Q52.2529-79.79 50.4956-79.8101Q48.7383-79.8301 47.2607-77.9619L11.3291-32.0459Q10.2197-30.6436 10.2197-29.2725Q10.2197-27.9102 11.1538-27.0293Q12.0879-26.1484 13.459-26.1484L35.2559-26.1484L23.998 3.54004Q23.1504 5.86523 24.1289 7.27637Q25.1074 8.6875 26.8691 8.71191Q28.6309 8.73633 30.0996 6.86816ZM32.4883-4.84082L45.9082-32.9941L21.8994-32.9941L46.3252-65.5518L44.8408-66.2529L31.4609-38.0996L55.4297-38.0996L31.0039-5.54199Z"/>
  </g>
  <g id="Regular-S" transform="matrix(1 0 0 1 1411.88 696)">
   <path d="M29.5898 6.10352L64.502-38.916Q65.5762-40.2832 65.5762-41.6016Q65.5762-42.9199 64.6729-43.7744Q63.7695-44.6289 62.4512-44.6289L40.918-44.6289L52.2461-73.9746Q53.0762-76.2207 52.124-77.5879Q51.1719-78.9551 49.4629-78.9795Q47.7539-79.0039 46.3379-77.1973L11.4258-32.1777Q10.3516-30.8105 10.3516-29.4922Q10.3516-28.1738 11.2549-27.3193Q12.1582-26.4648 13.4766-26.4648L35.0098-26.4648L23.6816 2.88086Q22.8516 5.12695 23.8037 6.49414Q24.7559 7.86133 26.4648 7.88574Q28.1738 7.91016 29.5898 6.10352ZM32.0312-5.51758L45.1172-32.959L21.2402-32.959L45.0684-64.8926L43.8477-65.5762L30.8105-38.1348L54.6387-38.1348L30.8105-6.20117Z"/>
  </g>
  <g id="Light-S" transform="matrix(1 0 0 1 1115.67 696)">
   <path d="M28.3183 5.21037L62.9428-39.2339Q63.8657-40.3893 63.8657-41.4653Q63.8657-42.4355 63.1969-43.0932Q62.5282-43.751 61.4672-43.751L39.7222-43.751L51.2472-73.7778Q51.9107-75.5699 51.1705-76.6495Q50.4303-77.729 49.077-77.7307Q47.7236-77.7323 46.5953-76.3041L11.9858-31.8598Q11.0629-30.7045 11.0629-29.6285Q11.0629-28.6583 11.7316-28.0005Q12.4003-27.3427 13.4613-27.3427L35.1913-27.3427L23.6816 2.68402Q23.0181 4.47617 23.7583 5.55573Q24.4985 6.63528 25.8442 6.63694Q27.1899 6.63859 28.3183 5.21037ZM30.3813-3.9889L42.9677-32.399L19.4995-32.399L45.462-66.5728L44.5137-67.1048L31.9608-38.6948L55.3802-38.6948L29.4332-4.52092Z"/>
  </g>
  <g id="Thin-S" transform="matrix(1 0 0 1 819.619 696)">
   <path d="M26.6365 4.02911L60.8806-39.6543Q61.6034-40.5295 61.6034-41.285Q61.6034-41.7947 61.2449-42.1923Q60.8865-42.5899 60.1659-42.5899L38.1407-42.5899L49.926-73.5174Q50.3692-74.7092 49.9093-75.4083Q49.4495-76.1075 48.5666-76.079Q47.6836-76.0506 46.9356-75.1229L12.7264-31.4394Q12.0036-30.5642 12.0036-29.8088Q12.0036-29.299 12.3621-28.9014Q12.7205-28.5038 13.4411-28.5038L35.4315-28.5038L23.6816 2.42369Q23.2384 3.61545 23.6983 4.31459Q24.1581 5.01374 25.0233 4.98529Q25.8886 4.95684 26.6365 4.02911ZM28.199-1.9671L40.1249-31.6583L17.1971-31.6583L45.9827-68.7951L45.3946-69.1266L33.4821-39.4354L56.361-39.4354L27.6115-2.29866Z"/>
  </g>
  <g id="Ultralight-S" transform="matrix(1 0 0 1 523.246 696)">
   <path d="M25.7751 3.42407L59.8244-39.8697Q60.4446-40.6013 60.4446-41.1926Q60.4446-41.4665 60.2451-41.7309Q60.0456-41.9952 59.4994-41.9952L37.3306-41.9952L49.2493-73.3841Q49.5796-74.2683 49.2634-74.7726Q48.9471-75.2769 48.3051-75.2331Q47.6631-75.1892 47.11-74.5178L13.1058-31.2241Q12.4855-30.4924 12.4855-29.9011Q12.4855-29.6272 12.685-29.3629Q12.8845-29.0985 13.4308-29.0985L35.5545-29.0985L23.6816 2.29034Q23.3513 3.17459 23.6675 3.67889Q23.9838 4.1832 24.6029 4.13933Q25.222 4.09546 25.7751 3.42407ZM27.0813-0.931549L38.6688-31.279L16.0179-31.279L46.2494-69.9333L45.8458-70.1622L34.2613-39.8148L56.8634-39.8148L26.6785-1.16043Z"/>
  </g>
 </g>
</svg>
