<?xml version="1.0" encoding="UTF-8"?>
<!--Generator: Apple Native CoreSVG 175.5-->
<!DOCTYPE svg
PUBLIC "-//W3C//DTD SVG 1.1//EN"
       "http://www.w3.org/Graphics/SVG/1.1/DTD/svg11.dtd">
<svg version="1.1" xmlns="http://www.w3.org/2000/svg" xmlns:xlink="http://www.w3.org/1999/xlink" width="3300" height="2200">
 <!--glyph: "uni10042C.medium", point size: 100.0, font version: "18.0d9e1", template writer version: "84"-->
 <g id="Notes">
  <rect height="2200" id="artboard" style="fill:white;opacity:1" width="3300" x="0" y="0"/>
  <line style="fill:none;stroke:black;opacity:1;stroke-width:0.5;" x1="263" x2="3036" y1="292" y2="292"/>
  <text style="stroke:none;fill:black;font-family:sans-serif;font-size:13;font-weight:bold;" transform="matrix(1 0 0 1 263 322)">Weight/Scale Variations</text>
  <text style="stroke:none;fill:black;font-family:sans-serif;font-size:13;text-anchor:middle;" transform="matrix(1 0 0 1 559.711 322)">Ultralight</text>
  <text style="stroke:none;fill:black;font-family:sans-serif;font-size:13;text-anchor:middle;" transform="matrix(1 0 0 1 856.422 322)">Thin</text>
  <text style="stroke:none;fill:black;font-family:sans-serif;font-size:13;text-anchor:middle;" transform="matrix(1 0 0 1 1153.13 322)">Light</text>
  <text style="stroke:none;fill:black;font-family:sans-serif;font-size:13;text-anchor:middle;" transform="matrix(1 0 0 1 1449.84 322)">Regular</text>
  <text style="stroke:none;fill:black;font-family:sans-serif;font-size:13;text-anchor:middle;" transform="matrix(1 0 0 1 1746.56 322)">Medium</text>
  <text style="stroke:none;fill:black;font-family:sans-serif;font-size:13;text-anchor:middle;" transform="matrix(1 0 0 1 2043.27 322)">Semibold</text>
  <text style="stroke:none;fill:black;font-family:sans-serif;font-size:13;text-anchor:middle;" transform="matrix(1 0 0 1 2339.98 322)">Bold</text>
  <text style="stroke:none;fill:black;font-family:sans-serif;font-size:13;text-anchor:middle;" transform="matrix(1 0 0 1 2636.69 322)">Heavy</text>
  <text style="stroke:none;fill:black;font-family:sans-serif;font-size:13;text-anchor:middle;" transform="matrix(1 0 0 1 2933.4 322)">Black</text>
  <line style="fill:none;stroke:black;opacity:1;stroke-width:0.5;" x1="263" x2="3036" y1="1903" y2="1903"/>
  <g transform="matrix(1 0 0 1 263 1933)">
   <path d="M9.24805 0.830078Q10.8691 0.830078 12.2949 0.214844Q13.7207-0.400391 14.8096-1.49414Q15.8984-2.58789 16.5186-4.01367Q17.1387-5.43945 17.1387-7.05078Q17.1387-8.66211 16.5186-10.0879Q15.8984-11.5137 14.8047-12.6074Q13.7109-13.7012 12.2852-14.3164Q10.8594-14.9316 9.23828-14.9316Q7.62695-14.9316 6.20117-14.3164Q4.77539-13.7012 3.69141-12.6074Q2.60742-11.5137 1.9873-10.0879Q1.36719-8.66211 1.36719-7.05078Q1.36719-5.43945 1.9873-4.01367Q2.60742-2.58789 3.69629-1.49414Q4.78516-0.400391 6.21094 0.214844Q7.63672 0.830078 9.24805 0.830078ZM9.24805-0.654297Q7.91992-0.654297 6.7627-1.14746Q5.60547-1.64062 4.73145-2.51953Q3.85742-3.39844 3.36426-4.56055Q2.87109-5.72266 2.87109-7.05078Q2.87109-8.37891 3.35938-9.54102Q3.84766-10.7031 4.72168-11.582Q5.5957-12.4609 6.75293-12.9541Q7.91016-13.4473 9.23828-13.4473Q10.5762-13.4473 11.7383-12.9541Q12.9004-12.4609 13.7793-11.582Q14.6582-10.7031 15.1514-9.54102Q15.6445-8.37891 15.6445-7.05078Q15.6445-5.72266 15.1514-4.56055Q14.6582-3.39844 13.7793-2.51953Q12.9004-1.64062 11.7432-1.14746Q10.5859-0.654297 9.24805-0.654297ZM5.6543-7.05078Q5.6543-6.72852 5.85938-6.52832Q6.06445-6.32812 6.40625-6.32812L8.51562-6.32812L8.51562-4.20898Q8.51562-3.88672 8.71094-3.67676Q8.90625-3.4668 9.23828-3.4668Q9.56055-3.4668 9.77051-3.67676Q9.98047-3.88672 9.98047-4.20898L9.98047-6.32812L12.0898-6.32812Q12.4219-6.32812 12.627-6.52832Q12.832-6.72852 12.832-7.05078Q12.832-7.38281 12.627-7.58789Q12.4219-7.79297 12.0898-7.79297L9.98047-7.79297L9.98047-9.90234Q9.98047-10.2344 9.77051-10.4443Q9.56055-10.6543 9.23828-10.6543Q8.90625-10.6543 8.71094-10.4443Q8.51562-10.2344 8.51562-9.90234L8.51562-7.79297L6.40625-7.79297Q6.06445-7.79297 5.85938-7.58789Q5.6543-7.38281 5.6543-7.05078Z"/>
  </g>
  <g transform="matrix(1 0 0 1 281.867 1933)">
   <path d="M11.709 2.91016Q13.75 2.91016 15.5518 2.12891Q17.3535 1.34766 18.7305-0.0292969Q20.1074-1.40625 20.8887-3.20801Q21.6699-5.00977 21.6699-7.05078Q21.6699-9.0918 20.8887-10.8936Q20.1074-12.6953 18.7305-14.0723Q17.3535-15.4492 15.5469-16.2305Q13.7402-17.0117 11.6992-17.0117Q9.6582-17.0117 7.85645-16.2305Q6.05469-15.4492 4.68262-14.0723Q3.31055-12.6953 2.5293-10.8936Q1.74805-9.0918 1.74805-7.05078Q1.74805-5.00977 2.5293-3.20801Q3.31055-1.40625 4.6875-0.0292969Q6.06445 1.34766 7.86621 2.12891Q9.66797 2.91016 11.709 2.91016ZM11.709 1.25Q9.98047 1.25 8.47656 0.605469Q6.97266-0.0390625 5.83496-1.17676Q4.69727-2.31445 4.05762-3.81836Q3.41797-5.32227 3.41797-7.05078Q3.41797-8.7793 4.05762-10.2832Q4.69727-11.7871 5.83008-12.9297Q6.96289-14.0723 8.4668-14.7119Q9.9707-15.3516 11.6992-15.3516Q13.4277-15.3516 14.9365-14.7119Q16.4453-14.0723 17.583-12.9297Q18.7207-11.7871 19.3652-10.2832Q20.0098-8.7793 20.0098-7.05078Q20.0098-5.32227 19.3701-3.81836Q18.7305-2.31445 17.5879-1.17676Q16.4453-0.0390625 14.9414 0.605469Q13.4375 1.25 11.709 1.25ZM7.17773-7.05078Q7.17773-6.69922 7.41211-6.47461Q7.64648-6.25 8.01758-6.25L10.8887-6.25L10.8887-3.36914Q10.8887-2.99805 11.1133-2.76855Q11.3379-2.53906 11.6895-2.53906Q12.0605-2.53906 12.29-2.76855Q12.5195-2.99805 12.5195-3.36914L12.5195-6.25L15.4004-6.25Q15.7715-6.25 16.001-6.47461Q16.2305-6.69922 16.2305-7.05078Q16.2305-7.42188 16.001-7.65137Q15.7715-7.88086 15.4004-7.88086L12.5195-7.88086L12.5195-10.752Q12.5195-11.1328 12.29-11.3623Q12.0605-11.5918 11.6895-11.5918Q11.3379-11.5918 11.1133-11.3574Q10.8887-11.123 10.8887-10.752L10.8887-7.88086L8.01758-7.88086Q7.63672-7.88086 7.40723-7.65137Q7.17773-7.42188 7.17773-7.05078Z"/>
  </g>
  <g transform="matrix(1 0 0 1 305.646 1933)">
   <path d="M14.9707 5.66406Q17.0605 5.66406 18.96 5.01465Q20.8594 4.36523 22.4512 3.19336Q24.043 2.02148 25.2197 0.429688Q26.3965-1.16211 27.0459-3.06641Q27.6953-4.9707 27.6953-7.05078Q27.6953-9.14062 27.0459-11.04Q26.3965-12.9395 25.2197-14.5312Q24.043-16.123 22.4512-17.2998Q20.8594-18.4766 18.9551-19.126Q17.0508-19.7754 14.9609-19.7754Q12.8711-19.7754 10.9717-19.126Q9.07227-18.4766 7.48535-17.2998Q5.89844-16.123 4.72168-14.5312Q3.54492-12.9395 2.90039-11.04Q2.25586-9.14062 2.25586-7.05078Q2.25586-4.9707 2.90527-3.06641Q3.55469-1.16211 4.72656 0.429688Q5.89844 2.02148 7.49023 3.19336Q9.08203 4.36523 10.9814 5.01465Q12.8809 5.66406 14.9707 5.66406ZM14.9707 3.84766Q13.1641 3.84766 11.5283 3.2959Q9.89258 2.74414 8.53516 1.74805Q7.17773 0.751953 6.17676-0.610352Q5.17578-1.97266 4.62891-3.6084Q4.08203-5.24414 4.08203-7.05078Q4.08203-8.86719 4.62891-10.5029Q5.17578-12.1387 6.17188-13.501Q7.16797-14.8633 8.52539-15.8594Q9.88281-16.8555 11.5186-17.4023Q13.1543-17.9492 14.9609-17.9492Q16.7773-17.9492 18.4131-17.4023Q20.0488-16.8555 21.4111-15.8594Q22.7734-14.8633 23.7744-13.501Q24.7754-12.1387 25.3223-10.5029Q25.8691-8.86719 25.8691-7.05078Q25.8691-5.24414 25.3223-3.6084Q24.7754-1.97266 23.7793-0.610352Q22.7832 0.751953 21.4209 1.74805Q20.0586 2.74414 18.4229 3.2959Q16.7871 3.84766 14.9707 3.84766ZM9.19922-7.05078Q9.19922-6.66992 9.45801-6.4209Q9.7168-6.17188 10.1172-6.17188L14.0625-6.17188L14.0625-2.2168Q14.0625-1.81641 14.3115-1.55762Q14.5605-1.29883 14.9512-1.29883Q15.3516-1.29883 15.6104-1.55273Q15.8691-1.80664 15.8691-2.2168L15.8691-6.17188L19.8242-6.17188Q20.2246-6.17188 20.4785-6.4209Q20.7324-6.66992 20.7324-7.05078Q20.7324-7.46094 20.4785-7.71484Q20.2246-7.96875 19.8242-7.96875L15.8691-7.96875L15.8691-11.9141Q15.8691-12.3242 15.6104-12.583Q15.3516-12.8418 14.9512-12.8418Q14.5605-12.8418 14.3115-12.583Q14.0625-12.3242 14.0625-11.9141L14.0625-7.96875L10.1172-7.96875Q9.70703-7.96875 9.45312-7.71484Q9.19922-7.46094 9.19922-7.05078Z"/>
  </g>
  <text style="stroke:none;fill:black;font-family:sans-serif;font-size:13;font-weight:bold;" transform="matrix(1 0 0 1 263 1953)">Design Variations</text>
  <text style="stroke:none;fill:black;font-family:sans-serif;font-size:13;" transform="matrix(1 0 0 1 263 1971)">Symbols are supported in up to nine weights and three scales.</text>
  <text style="stroke:none;fill:black;font-family:sans-serif;font-size:13;" transform="matrix(1 0 0 1 263 1989)">For optimal layout with text and other symbols, vertically align</text>
  <text style="stroke:none;fill:black;font-family:sans-serif;font-size:13;" transform="matrix(1 0 0 1 263 2007)">symbols with the adjacent text.</text>
  <line style="fill:none;stroke:#00AEEF;stroke-width:0.5;opacity:1.0;" x1="776" x2="776" y1="1919" y2="1933"/>
  <g transform="matrix(1 0 0 1 776 1933)">
   <path d="M3.31055 0.15625Q3.70117 0.15625 3.91602-0.00976562Q4.13086-0.175781 4.26758-0.585938L5.52734-4.0332L11.2891-4.0332L12.5488-0.585938Q12.6855-0.175781 12.9004-0.00976562Q13.1152 0.15625 13.4961 0.15625Q13.8867 0.15625 14.1162-0.0585938Q14.3457-0.273438 14.3457-0.644531Q14.3457-0.869141 14.2383-1.17188L9.6582-13.3691Q9.48242-13.8184 9.17969-14.043Q8.87695-14.2676 8.4082-14.2676Q7.5-14.2676 7.17773-13.3789L2.59766-1.16211Q2.49023-0.859375 2.49023-0.634766Q2.49023-0.263672 2.70996-0.0537109Q2.92969 0.15625 3.31055 0.15625ZM6.00586-5.51758L8.37891-12.0898L8.42773-12.0898L10.8008-5.51758Z"/>
  </g>
  <line style="fill:none;stroke:#00AEEF;stroke-width:0.5;opacity:1.0;" x1="793.197" x2="793.197" y1="1919" y2="1933"/>
  <text style="stroke:none;fill:black;font-family:sans-serif;font-size:13;font-weight:bold;" transform="matrix(1 0 0 1 776 1953)">Margins</text>
  <text style="stroke:none;fill:black;font-family:sans-serif;font-size:13;" transform="matrix(1 0 0 1 776 1971)">Leading and trailing margins on the left and right side of each symbol</text>
  <text style="stroke:none;fill:black;font-family:sans-serif;font-size:13;" transform="matrix(1 0 0 1 776 1989)">can be adjusted by modifying the x-location of the margin guidelines.</text>
  <text style="stroke:none;fill:black;font-family:sans-serif;font-size:13;" transform="matrix(1 0 0 1 776 2007)">Modifications are automatically applied proportionally to all</text>
  <text style="stroke:none;fill:black;font-family:sans-serif;font-size:13;" transform="matrix(1 0 0 1 776 2025)">scales and weights.</text>
  <g transform="matrix(1 0 0 1 1289 1933)">
   <path d="M2.8418 1.86523L4.54102 3.57422Q5.18555 4.22852 5.90332 4.17969Q6.62109 4.13086 7.31445 3.35938L18.0078-8.42773L17.041-9.4043L6.42578 2.27539Q6.16211 2.57812 5.89355 2.61719Q5.625 2.65625 5.27344 2.30469L4.10156 1.14258Q3.75 0.791016 3.79395 0.522461Q3.83789 0.253906 4.14062-0.0195312L15.6152-10.8203L14.6387-11.7871L3.04688-0.898438Q2.30469-0.214844 2.25098 0.498047Q2.19727 1.21094 2.8418 1.86523ZM9.25781-16.3281Q8.94531-16.0254 8.90625-15.6348Q8.86719-15.2441 9.04297-14.9512Q9.21875-14.6777 9.55566-14.541Q9.89258-14.4043 10.3809-14.5215Q11.4746-14.7754 12.5977-14.7314Q13.7207-14.6875 14.7949-13.9844L14.209-12.5293Q13.9551-11.9043 14.0674-11.4404Q14.1797-10.9766 14.5801-10.5664L16.875-8.25195Q17.2363-7.88086 17.5781-7.82227Q17.9199-7.76367 18.3398-7.8418L19.4043-8.03711L20.0684-7.36328L20.0293-6.80664Q20-6.43555 20.1221-6.12305Q20.2441-5.81055 20.6055-5.44922L21.3672-4.70703Q21.7285-4.3457 22.1533-4.33105Q22.5781-4.31641 22.9297-4.66797L25.8398-7.58789Q26.1914-7.93945 26.1816-8.35449Q26.1719-8.76953 25.8105-9.13086L25.0391-9.89258Q24.6875-10.2539 24.3799-10.3857Q24.0723-10.5176 23.7109-10.4883L23.1348-10.4395L22.4902-11.0742L22.7344-12.1973Q22.832-12.6172 22.6953-12.9834Q22.5586-13.3496 22.1191-13.7891L19.9219-15.9766Q18.6719-17.2168 17.2607-17.8369Q15.8496-18.457 14.4189-18.4814Q12.9883-18.5059 11.665-17.959Q10.3418-17.4121 9.25781-16.3281ZM10.752-15.957Q11.6602-16.6211 12.7002-16.9043Q13.7402-17.1875 14.8047-17.085Q15.8691-16.9824 16.8701-16.5137Q17.8711-16.0449 18.7012-15.2051L21.1328-12.793Q21.3086-12.6172 21.3525-12.4512Q21.3965-12.2852 21.3379-12.0312L21.0156-10.5469L22.5195-9.0625L23.5059-9.12109Q23.6914-9.13086 23.7891-9.09668Q23.8867-9.0625 24.0332-8.91602L24.6094-8.33984L22.168-5.89844L21.5918-6.47461Q21.4453-6.62109 21.4062-6.71875Q21.3672-6.81641 21.377-7.01172L21.4453-7.98828L19.9512-9.47266L18.4277-9.21875Q18.1836-9.16992 18.042-9.2041Q17.9004-9.23828 17.7148-9.41406L15.7129-11.416Q15.5176-11.5918 15.4932-11.7529Q15.4688-11.9141 15.5859-12.1875L16.4648-14.2773Q15.293-15.3711 13.8281-15.791Q12.3633-16.2109 10.8398-15.7617Q10.7227-15.7324 10.6885-15.8057Q10.6543-15.8789 10.752-15.957Z"/>
  </g>
  <text style="stroke:none;fill:black;font-family:sans-serif;font-size:13;font-weight:bold;" transform="matrix(1 0 0 1 1289 1953)">Exporting</text>
  <text style="stroke:none;fill:black;font-family:sans-serif;font-size:13;" transform="matrix(1 0 0 1 1289 1971)">Symbols should be outlined when exporting to ensure the</text>
  <text style="stroke:none;fill:black;font-family:sans-serif;font-size:13;" transform="matrix(1 0 0 1 1289 1989)">design is preserved when submitting to Xcode.</text>
  <text id="template-version" style="stroke:none;fill:black;font-family:sans-serif;font-size:13;text-anchor:end;" transform="matrix(1 0 0 1 3036 1933)">Template v.2.0</text>
  <text style="stroke:none;fill:black;font-family:sans-serif;font-size:13;text-anchor:end;" transform="matrix(1 0 0 1 3036 1951)">Requires Xcode 12 or greater</text>
  <text id="descriptive-name" style="stroke:none;fill:black;font-family:sans-serif;font-size:13;text-anchor:end;" transform="matrix(1 0 0 1 3036 1969)">Generated from clock.fill</text>
  <text style="stroke:none;fill:black;font-family:sans-serif;font-size:13;text-anchor:end;" transform="matrix(1 0 0 1 3036 1987)">Typeset at 100 points</text>
  <text style="stroke:none;fill:black;font-family:sans-serif;font-size:13;" transform="matrix(1 0 0 1 263 726)">Small</text>
  <text style="stroke:none;fill:black;font-family:sans-serif;font-size:13;" transform="matrix(1 0 0 1 263 1156)">Medium</text>
  <text style="stroke:none;fill:black;font-family:sans-serif;font-size:13;" transform="matrix(1 0 0 1 263 1586)">Large</text>
 </g>
 <g id="Guides">
  <g id="H-reference" style="fill:#27AAE1;stroke:none;" transform="matrix(1 0 0 1 339 696)">
   <path d="M0.993347 0L3.6377 0L29.3282-67.1326L30.0301-67.1326L30.0301-70.459L28.1227-70.459ZM11.6882-24.4797L46.9818-24.4797L46.2311-26.7288L12.4382-26.7288ZM55.1193 0L57.7637 0L30.6381-70.459L29.4327-70.459L29.4327-67.1326Z"/>
  </g>
  <line id="Baseline-S" style="fill:none;stroke:#27AAE1;opacity:1;stroke-width:0.5;" x1="263" x2="3036" y1="696" y2="696"/>
  <line id="Capline-S" style="fill:none;stroke:#27AAE1;opacity:1;stroke-width:0.5;" x1="263" x2="3036" y1="625.541" y2="625.541"/>
  <g id="H-reference" style="fill:#27AAE1;stroke:none;" transform="matrix(1 0 0 1 339 1126)">
   <path d="M0.993347 0L3.6377 0L29.3282-67.1326L30.0301-67.1326L30.0301-70.459L28.1227-70.459ZM11.6882-24.4797L46.9818-24.4797L46.2311-26.7288L12.4382-26.7288ZM55.1193 0L57.7637 0L30.6381-70.459L29.4327-70.459L29.4327-67.1326Z"/>
  </g>
  <line id="Baseline-M" style="fill:none;stroke:#27AAE1;opacity:1;stroke-width:0.5;" x1="263" x2="3036" y1="1126" y2="1126"/>
  <line id="Capline-M" style="fill:none;stroke:#27AAE1;opacity:1;stroke-width:0.5;" x1="263" x2="3036" y1="1055.54" y2="1055.54"/>
  <g id="H-reference" style="fill:#27AAE1;stroke:none;" transform="matrix(1 0 0 1 339 1556)">
   <path d="M0.993347 0L3.6377 0L29.3282-67.1326L30.0301-67.1326L30.0301-70.459L28.1227-70.459ZM11.6882-24.4797L46.9818-24.4797L46.2311-26.7288L12.4382-26.7288ZM55.1193 0L57.7637 0L30.6381-70.459L29.4327-70.459L29.4327-67.1326Z"/>
  </g>
  <line id="Baseline-L" style="fill:none;stroke:#27AAE1;opacity:1;stroke-width:0.5;" x1="263" x2="3036" y1="1556" y2="1556"/>
  <line id="Capline-L" style="fill:none;stroke:#27AAE1;opacity:1;stroke-width:0.5;" x1="263" x2="3036" y1="1485.54" y2="1485.54"/>
  <line id="left-margin" style="fill:none;stroke:#00AEEF;stroke-width:0.5;opacity:1.0;" x1="1391.32" x2="1391.32" y1="1030.79" y2="1150.12"/>
  <line id="right-margin" style="fill:none;stroke:#00AEEF;stroke-width:0.5;opacity:1.0;" x1="1508.37" x2="1508.37" y1="1030.79" y2="1150.12"/>
 </g>
 <g id="Symbols">
  <g id="Black-L" transform="matrix(1 0 0 1 2854.19 1556)">
   <path d="M51.1637-23.9406Q48.1586-23.9406 46.0946-26.0052Q44.0305-28.0699 44.0305-31.075Q44.0305-34.0777 46.0946-36.1527Q48.1586-38.2278 51.1637-38.2278L72.0429-38.2278L72.0429-68.2017Q72.0429-71.2055 74.1076-73.28Q76.1723-75.3545 79.175-75.3545Q82.1801-75.3545 84.2551-73.28Q86.3302-71.2055 86.3302-68.2017L86.3302-31.075Q86.3302-28.0699 84.2551-26.0052Q82.1801-23.9406 79.175-23.9406ZM79.1958 32.7257Q93.2356 32.7257 105.521 27.4304Q117.806 22.1351 127.174 12.7568Q136.542 3.3785 141.848-8.90689Q147.154-21.1923 147.154-35.2113Q147.154-49.2303 141.848-61.5157Q136.542-73.8011 127.164-83.1794Q117.786-92.5577 105.5-97.853Q93.2148-103.148 79.175-103.148Q65.156-103.148 52.87-97.853Q40.584-92.5577 31.2271-83.1794Q21.8702-73.8011 16.5645-61.5157Q11.2588-49.2303 11.2588-35.2113Q11.2588-21.1923 16.5645-8.90689Q21.8702 3.3785 31.2375 12.7568Q40.6048 22.1351 52.8908 27.4304Q65.1768 32.7257 79.1958 32.7257Z"/>
  </g>
  <g id="Heavy-L" transform="matrix(1 0 0 1 2558.42 1556)">
   <path d="M48.9726-25.0567Q46.2631-25.0567 44.4128-26.9098Q42.5624-28.763 42.5624-31.4724Q42.5624-34.1706 44.4128-36.0389Q46.2631-37.9071 48.9726-37.9071L71.8185-37.9071L71.8185-69.9686Q71.8185-72.6724 73.6717-74.5379Q75.5248-76.4033 78.2231-76.4033Q80.9325-76.4033 82.8008-74.5379Q84.669-72.6724 84.669-69.9686L84.669-31.4724Q84.669-28.763 82.8008-26.9098Q80.9325-25.0567 78.2231-25.0567ZM78.2532 31.7694Q92.0879 31.7694 104.203 26.5469Q116.317 21.3244 125.56 12.0666Q134.803 2.80877 140.04-9.30591Q145.278-21.4206 145.278-35.2251Q145.278-49.0296 140.04-61.1442Q134.803-73.2589 125.545-82.5167Q116.287-91.7745 104.172-96.997Q92.0577-102.22 78.2231-102.22Q64.4186-102.22 52.3011-96.997Q40.1836-91.7745 30.9588-82.5167Q21.7339-73.2589 16.4964-61.1442Q11.2588-49.0296 11.2588-35.2251Q11.2588-21.4206 16.4964-9.30591Q21.7339 2.80877 30.9738 12.0666Q40.2137 21.3244 52.3312 26.5469Q64.4487 31.7694 78.2532 31.7694Z"/>
  </g>
  <g id="Bold-L" transform="matrix(1 0 0 1 2262.89 1556)">
   <path d="M46.2377-26.3802Q43.9045-26.3802 42.3267-27.9646Q40.7489-29.549 40.7489-31.8822Q40.7489-34.189 42.3267-35.7924Q43.9045-37.3958 46.2377-37.3958L71.5568-37.3958L71.5568-72.1138Q71.5568-74.4337 73.1411-76.0306Q74.7255-77.6274 77.0325-77.6274Q79.3657-77.6274 80.9691-76.0306Q82.5726-74.4337 82.5726-72.1138L82.5726-31.8822Q82.5726-29.549 80.9691-27.9646Q79.3657-26.3802 77.0325-26.3802ZM77.0704 30.5711Q90.6514 30.5711 102.551 25.4407Q114.451 20.3104 123.536 11.2061Q132.621 2.10182 137.771-9.79778Q142.92-21.6974 142.92-35.2405Q142.92-48.7836 137.771-60.6832Q132.621-72.5828 123.517-81.6871Q114.413-90.7914 102.513-95.9217Q90.6135-101.052 77.0325-101.052Q63.4894-101.052 51.5831-95.9217Q39.6768-90.7914 30.6171-81.6871Q21.5574-72.5828 16.4081-60.6832Q11.2588-48.7836 11.2588-35.2405Q11.2588-21.6974 16.4081-9.79778Q21.5574 2.10182 30.6361 11.2061Q39.7147 20.3104 51.621 25.4407Q63.5273 30.5711 77.0704 30.5711Z"/>
  </g>
  <g id="Semibold-L" transform="matrix(1 0 0 1 1966.99 1556)">
   <path d="M44.3524-27.2927Q42.2785-27.2927 40.8886-28.6918Q39.4987-30.0908 39.4987-32.1647Q39.4987-34.2016 40.8886-35.6224Q42.2785-37.0433 44.3524-37.0433L71.3763-37.0433L71.3763-73.5927Q71.3763-75.6479 72.7754-77.0596Q74.1745-78.4713 76.2117-78.4713Q78.2856-78.4713 79.7064-77.0596Q81.1273-75.6479 81.1273-73.5927L81.1273-32.1647Q81.1273-30.0908 79.7064-28.6918Q78.2856-27.2927 76.2117-27.2927ZM76.2549 29.745Q89.6611 29.745 101.413 24.6782Q113.164 19.6113 122.141 10.6129Q131.117 1.61445 136.206-10.1369Q141.295-21.8882 141.295-35.2511Q141.295-48.6141 136.206-60.3654Q131.117-72.1167 122.119-81.1151Q113.121-90.1136 101.369-95.1804Q89.6179-100.247 76.2117-100.247Q62.8488-100.247 51.0881-95.1804Q39.3275-90.1136 30.3816-81.1151Q21.4357-72.1167 16.3472-60.3654Q11.2588-48.6141 11.2588-35.2511Q11.2588-21.8882 16.3472-10.1369Q21.4357 1.61445 30.4032 10.6129Q39.3707 19.6113 51.1313 24.6782Q62.892 29.745 76.2549 29.745Z"/>
  </g>
  <g id="Medium-L" transform="matrix(1 0 0 1 1670.9 1556)">
   <path d="M42.9228-27.9845Q41.0456-27.9845 39.7981-29.2431Q38.5507-30.5017 38.5507-32.3789Q38.5507-34.2112 39.7981-35.4936Q41.0456-36.776 42.9228-36.776L71.2395-36.776L71.2395-74.7141Q71.2395-76.5686 72.4981-77.8399Q73.7567-79.1112 75.5893-79.1112Q77.4665-79.1112 78.749-77.8399Q80.0314-76.5686 80.0314-74.7141L80.0314-32.3789Q80.0314-30.5017 78.749-29.2431Q77.4665-27.9845 75.5893-27.9845ZM75.6366 29.1186Q88.9102 29.1186 100.549 24.0999Q112.188 19.0813 121.083 10.1631Q129.977 1.24491 135.02-10.394Q140.062-22.0329 140.062-35.2592Q140.062-48.4855 135.02-60.1244Q129.977-71.7633 121.059-80.6815Q112.141-89.5996 100.502-94.6183Q88.8629-99.637 75.5893-99.637Q62.363-99.637 50.7128-94.6183Q39.0626-89.5996 30.203-80.6815Q21.3434-71.7633 16.3011-60.1244Q11.2588-48.4855 11.2588-35.2592Q11.2588-22.0329 16.3011-10.394Q21.3434 1.24491 30.2266 10.1631Q39.1099 19.0813 50.7601 24.0999Q62.4103 29.1186 75.6366 29.1186Z"/>
  </g>
  <g id="Regular-L" transform="matrix(1 0 0 1 1374.99 1556)">
   <path d="M41.0581-28.8869Q39.4374-28.8869 38.3758-29.9623Q37.3142-31.0376 37.3142-32.6583Q37.3142-34.2237 38.3758-35.3255Q39.4374-36.4274 41.0581-36.4274L71.061-36.4274L71.061-76.1767Q71.061-77.7695 72.1364-78.8576Q73.2117-79.9458 74.7776-79.9458Q76.3983-79.9458 77.5001-78.8576Q78.6019-77.7695 78.6019-76.1767L78.6019-32.6583Q78.6019-31.0376 77.5001-29.9623Q76.3983-28.8869 74.7776-28.8869ZM74.8301 28.3016Q87.9308 28.3016 99.4232 23.3458Q110.916 18.3899 119.703 9.5764Q128.49 0.7629 133.472-10.7293Q138.454-22.2216 138.454-35.2697Q138.454-48.3178 133.472-59.8101Q128.49-71.3023 119.676-80.1158Q110.863-88.9293 99.3707-93.8852Q87.8782-98.841 74.7776-98.841Q61.7295-98.841 50.2233-93.8852Q38.7171-88.9293 29.9701-80.1158Q21.2231-71.3023 16.2409-59.8101Q11.2588-48.3178 11.2588-35.2697Q11.2588-22.2216 16.2409-10.7293Q21.2231 0.7629 29.9963 9.5764Q38.7696 18.3899 50.2758 23.3458Q61.782 28.3016 74.8301 28.3016Z"/>
  </g>
  <g id="Light-L" transform="matrix(1 0 0 1 1079.2 1556)">
   <path d="M39.0351-29.4215Q37.7389-29.4215 36.9159-30.2677Q36.0928-31.1139 36.0928-32.4101Q36.0928-33.6128 36.9159-34.4761Q37.7389-35.3394 39.0351-35.3394L70.9847-35.3394L70.9847-77.3792Q70.9847-78.6282 71.831-79.4683Q72.6772-80.3084 73.8807-80.3084Q75.1769-80.3084 76.0402-79.4683Q76.9034-78.6282 76.9034-77.3792L76.9034-32.4101Q76.9034-31.1139 76.0402-30.2677Q75.1769-29.4215 73.8807-29.4215ZM73.914 27.3855Q86.8428 27.3855 98.1635 22.506Q109.484 17.6264 118.147 8.94647Q126.81 0.266525 131.707-11.0539Q136.603-22.3742 136.603-35.2697Q136.603-48.1652 131.707-59.4856Q126.81-70.8059 118.131-79.4859Q109.451-88.1658 98.1302-93.0454Q86.8095-97.9249 73.8807-97.9249Q60.9852-97.9249 49.6413-93.0454Q38.2974-88.1658 29.6743-79.4859Q21.0512-70.8059 16.155-59.4856Q11.2588-48.1652 11.2588-35.2697Q11.2588-22.3742 16.155-11.0539Q21.0512 0.266525 29.6909 8.94647Q38.3307 17.6264 49.6746 22.506Q61.0185 27.3855 73.914 27.3855Z"/>
  </g>
  <g id="Thin-L" transform="matrix(1 0 0 1 783.716 1556)">
   <path d="M36.3595-30.1284Q35.4925-30.1284 34.985-30.6716Q34.4774-31.2149 34.4774-32.0819Q34.4774-32.8049 34.985-33.3527Q35.4925-33.9004 36.3595-33.9004L70.8838-33.9004L70.8838-78.9695Q70.8838-79.7639 71.427-80.276Q71.9702-80.7881 72.6945-80.7881Q73.5615-80.7881 74.1093-80.276Q74.657-79.7639 74.657-78.9695L74.657-32.0819Q74.657-31.2149 74.1093-30.6716Q73.5615-30.1284 72.6945-30.1284ZM72.7024 26.1739Q85.4038 26.1739 96.4975 21.3953Q107.591 16.6166 116.09 8.11334Q124.589-0.389971 129.372-11.483Q134.155-22.5761 134.155-35.2697Q134.155-47.9633 129.372-59.0564Q124.589-70.1494 116.086-78.6527Q107.583-87.1561 96.4896-91.9347Q85.396-96.7133 72.6945-96.7133Q60.0009-96.7133 48.8716-91.9347Q37.7422-87.1561 29.283-78.6527Q20.8239-70.1494 16.0413-59.0564Q11.2588-47.9633 11.2588-35.2697Q11.2588-22.5761 16.0413-11.483Q20.8239-0.389971 29.287 8.11334Q37.7501 16.6166 48.8794 21.3953Q60.0088 26.1739 72.7024 26.1739Z"/>
  </g>
  <g id="Ultralight-L" transform="matrix(1 0 0 1 487.631 1556)">
   <path d="M34.9891-30.4905Q34.3419-30.4905 33.996-30.8785Q33.65-31.2666 33.65-31.9137Q33.65-32.3911 33.996-32.7773Q34.3419-33.1634 34.9891-33.1634L70.8321-33.1634L70.8321-79.7841Q70.8321-80.3456 71.2201-80.6897Q71.6081-81.0338 72.087-81.0338Q72.7341-81.0338 73.1203-80.6897Q73.5064-80.3456 73.5064-79.7841L73.5064-31.9137Q73.5064-31.2666 73.1203-30.8785Q72.7341-30.4905 72.087-30.4905ZM72.0818 25.5533Q84.6668 25.5533 95.6442 20.8264Q106.622 16.0995 115.036 7.68661Q123.451-0.726225 128.176-11.7029Q132.901-22.6795 132.901-35.2697Q132.901-47.8599 128.176-58.8365Q123.451-69.8132 115.039-78.226Q106.627-86.6389 95.6493-91.3658Q84.672-96.0927 72.087-96.0927Q59.4967-96.0927 48.4773-91.3658Q37.4579-86.6389 29.0827-78.226Q20.7074-69.8132 15.9831-58.8365Q11.2588-47.8599 11.2588-35.2697Q11.2588-22.6795 15.9831-11.7029Q20.7074-0.726225 29.0801 7.68661Q37.4527 16.0995 48.4721 20.8264Q59.4916 25.5533 72.0818 25.5533Z"/>
  </g>
  <g id="Black-M" transform="matrix(1 0 0 1 2871.36 1126)">
   <path d="M41.2477-25.5967Q38.7094-25.5967 36.959-27.347Q35.2085-29.0973 35.2085-31.6356Q35.2085-34.1745 36.959-35.9275Q38.7094-37.6806 41.2477-37.6806L55.9972-37.6806L55.9972-59.4188Q55.9972-61.9573 57.7476-63.7106Q59.4979-65.4638 62.0367-65.4638Q64.575-65.4638 66.3281-63.7106Q68.0812-61.9573 68.0812-59.4188L68.0812-31.6356Q68.0812-29.0973 66.3281-27.347Q64.575-25.5967 62.0367-25.5967ZM62.0422 18.116Q73.0725 18.116 82.714 13.9613Q92.3554 9.8066 99.7039 2.45537Q107.052-4.89586 111.21-14.5373Q115.367-24.1788 115.367-35.2035Q115.367-46.2283 111.21-55.8698Q107.052-65.5112 99.7012-72.8625Q92.3499-80.2137 82.7085-84.3684Q73.067-88.5231 62.0367-88.5231Q51.0119-88.5231 41.3706-84.3684Q31.7293-80.2137 24.3835-72.8625Q17.0376-65.5112 12.8801-55.8698Q8.72266-46.2283 8.72266-35.2035Q8.72266-24.1788 12.8801-14.5373Q17.0376-4.89586 24.3862 2.45537Q31.7348 9.8066 41.3761 13.9613Q51.0174 18.116 62.0422 18.116Z"/>
  </g>
  <g id="Heavy-M" transform="matrix(1 0 0 1 2575.48 1126)">
   <path d="M39.2923-26.6385Q37.0131-26.6385 35.4496-28.2031Q33.886-29.7678 33.886-32.047Q33.886-34.3217 35.4496-35.8946Q37.0131-37.4675 39.2923-37.4675L55.7849-37.4675L55.7849-61.0352Q55.7849-63.3121 57.3496-64.8838Q58.9143-66.4556 61.1889-66.4556Q63.4682-66.4556 65.0411-64.8838Q66.614-63.3121 66.614-61.0352L66.614-32.047Q66.614-29.7678 65.0411-28.2031Q63.4682-26.6385 61.1889-26.6385ZM61.2053 17.2657Q72.0509 17.2657 81.5413 13.1751Q91.0318 9.08448 98.2693 1.83873Q105.507-5.40703 109.606-14.8974Q113.704-24.3879 113.704-35.217Q113.704-46.0462 109.606-55.5366Q105.507-65.027 98.2611-72.2728Q91.0154-79.5185 81.5249-83.6091Q72.0345-87.6997 61.1889-87.6997Q50.3598-87.6997 40.8682-83.6091Q31.3767-79.5185 24.1484-72.2728Q16.9202-65.027 12.8214-55.5366Q8.72266-46.0462 8.72266-35.217Q8.72266-24.3879 12.8214-14.8974Q16.9202-5.40703 24.1566 1.83873Q31.3931 9.08448 40.8846 13.1751Q50.3762 17.2657 61.2053 17.2657Z"/>
  </g>
  <g id="Bold-M" transform="matrix(1 0 0 1 2279.69 1126)">
   <path d="M37.105-27.8038Q35.1156-27.8038 33.7611-29.1609Q32.4067-30.5179 32.4067-32.5073Q32.4067-34.4864 33.7611-35.8577Q35.1156-37.2291 37.105-37.2291L55.5473-37.2291L55.5473-62.8433Q55.5473-64.8275 56.9043-66.1963Q58.2614-67.5651 60.2406-67.5651Q62.23-67.5651 63.6013-66.1963Q64.9727-64.8275 64.9727-62.8433L64.9727-32.5073Q64.9727-30.5179 63.6013-29.1609Q62.23-27.8038 60.2406-27.8038ZM60.2692 16.3144Q70.9081 16.3144 80.2296 12.2955Q89.5511 8.27669 96.6645 1.14892Q103.778-5.97884 107.811-15.3003Q111.844-24.6218 111.844-35.2321Q111.844-45.8424 107.811-55.1639Q103.778-64.4854 96.6502-71.6131Q89.5225-78.7409 80.201-82.7597Q70.8795-86.7786 60.2406-86.7786Q49.6302-86.7786 40.3062-82.7597Q30.9821-78.7409 23.8855-71.6131Q16.789-64.4854 12.7558-55.1639Q8.72266-45.8424 8.72266-35.2321Q8.72266-24.6218 12.7558-15.3003Q16.789-5.97884 23.8998 1.14892Q31.0107 8.27669 40.3348 12.2955Q49.6588 16.3144 60.2692 16.3144Z"/>
  </g>
  <g id="Semibold-M" transform="matrix(1 0 0 1 1983.62 1126)">
   <path d="M35.597-28.6073Q33.8074-28.6073 32.5971-29.8211Q31.3868-31.0349 31.3868-32.8245Q31.3868-34.5999 32.5971-35.8323Q33.8074-37.0647 35.597-37.0647L55.3836-37.0647L55.3836-64.0898Q55.3836-65.8723 56.5974-67.1011Q57.8112-68.33 59.5868-68.33Q61.3764-68.33 62.6088-67.1011Q63.8411-65.8723 63.8411-64.0898L63.8411-32.8245Q63.8411-31.0349 62.6088-29.8211Q61.3764-28.6073 59.5868-28.6073ZM59.6238 15.6586Q70.1202 15.6586 79.3253 11.6892Q88.5303 7.7198 95.5582 0.673376Q102.586-6.37304 106.574-15.578Q110.562-24.783 110.562-35.2425Q110.562-45.702 106.574-54.907Q102.586-64.1119 95.5397-71.1584Q88.4933-78.2048 79.2883-82.1742Q70.0832-86.1436 59.5868-86.1436Q49.1273-86.1436 39.9187-82.1742Q30.7102-78.2048 23.7043-71.1584Q16.6985-64.1119 12.7106-54.907Q8.72266-45.702 8.72266-35.2425Q8.72266-24.783 12.7106-15.578Q16.6985-6.37304 23.7228 0.673376Q30.7471 7.7198 39.9557 11.6892Q49.1643 15.6586 59.6238 15.6586Z"/>
  </g>
  <g id="Medium-M" transform="matrix(1 0 0 1 1687.4 1126)">
   <path d="M34.4536-29.2164Q32.8155-29.2164 31.7145-30.3217Q30.6135-31.427 30.6135-33.0651Q30.6135-34.686 31.7145-35.8131Q32.8155-36.9401 34.4536-36.9401L55.2594-36.9401L55.2594-65.035Q55.2594-66.6644 56.3647-67.7872Q57.47-68.9099 59.091-68.9099Q60.7291-68.9099 61.8562-67.7872Q62.9832-66.6644 62.9832-65.035L62.9832-33.0651Q62.9832-31.427 61.8562-30.3217Q60.7291-29.2164 59.091-29.2164ZM59.1344 15.1614Q69.5228 15.1614 78.6396 11.2295Q87.7563 7.29754 94.7193 0.312797Q101.682-6.67194 105.636-15.7886Q109.59-24.9053 109.59-35.2504Q109.59-45.5955 105.636-54.7121Q101.682-63.8288 94.6976-70.8135Q87.713-77.7983 78.5962-81.7302Q69.4795-85.6621 59.091-85.6621Q48.7459-85.6621 39.6249-81.7302Q30.5039-77.7983 23.5669-70.8135Q16.6298-63.8288 12.6762-54.7121Q8.72266-45.5955 8.72266-35.2504Q8.72266-24.9053 12.6762-15.7886Q16.6298-6.67194 23.5886 0.312797Q30.5473 7.29754 39.6683 11.2295Q48.7893 15.1614 59.1344 15.1614Z"/>
  </g>
  <g id="Regular-M" transform="matrix(1 0 0 1 1391.32 1126)">
   <path d="M32.9623-30.011Q31.5217-30.011 30.5633-30.9747Q29.6049-31.9384 29.6049-33.3789Q29.6049-34.7983 30.5633-35.7879Q31.5217-36.7775 32.9623-36.7775L55.0975-36.7775L55.0975-66.2678Q55.0975-67.6977 56.0611-68.682Q57.0248-69.6664 58.4444-69.6664Q59.8849-69.6664 60.8745-68.682Q61.8641-67.6977 61.8641-66.2678L61.8641-33.3789Q61.8641-31.9384 60.8745-30.9747Q59.8849-30.011 58.4444-30.011ZM58.4961 14.5128Q68.7436 14.5128 77.7452 10.6298Q86.7468 6.74677 93.6251-0.157525Q100.503-7.06182 104.412-16.0633Q108.321-25.0648 108.321-35.2606Q108.321-45.4565 104.412-54.458Q100.503-63.4595 93.5993-70.3638Q86.6951-77.2681 77.6935-81.1511Q68.692-85.0341 58.4444-85.0341Q48.2485-85.0341 39.2417-81.1511Q30.2349-77.2681 23.3876-70.3638Q16.5403-63.4595 12.6315-54.458Q8.72266-45.4565 8.72266-35.2606Q8.72266-25.0648 12.6315-16.0633Q16.5403-7.06182 23.4135-0.157525Q30.2866 6.74677 39.2934 10.6298Q48.3002 14.5128 58.4961 14.5128Z"/>
  </g>
  <g id="Light-M" transform="matrix(1 0 0 1 1095.44 1126)">
   <path d="M31.1485-30.4903Q29.9989-30.4903 29.2544-31.2485Q28.5098-32.0068 28.5098-33.1564Q28.5098-34.2507 29.2544-35.0264Q29.9989-35.8021 31.1485-35.8021L55.029-35.8021L55.029-67.3459Q55.029-68.4676 55.7873-69.2296Q56.5456-69.9916 57.6403-69.9916Q58.7899-69.9916 59.5656-69.2296Q60.3413-68.4676 60.3413-67.3459L60.3413-33.1564Q60.3413-32.0068 59.5656-31.2485Q58.7899-30.4903 57.6403-30.4903ZM57.6747 13.6914Q67.7682 13.6914 76.6158 9.87685Q85.4634 6.06227 92.2305-0.722288Q98.9976-7.50684 102.83-16.3542Q106.662-25.2016 106.662-35.2606Q106.662-45.3197 102.83-54.1671Q98.9976-63.0144 92.2133-69.799Q85.429-76.5836 76.5814-80.3981Q67.7338-84.2127 57.6403-84.2127Q47.5813-84.2127 38.7199-80.3981Q29.8586-76.5836 23.1224-69.799Q16.3862-63.0144 12.5544-54.1671Q8.72266-45.3197 8.72266-35.2606Q8.72266-25.2016 12.5544-16.3542Q16.3862-7.50684 23.1396-0.722288Q29.893 6.06227 38.7544 9.87685Q47.6157 13.6914 57.6747 13.6914Z"/>
  </g>
  <g id="Thin-M" transform="matrix(1 0 0 1 799.828 1126)">
   <path d="M28.7497-31.1241Q27.9849-31.1241 27.5232-31.6107Q27.0616-32.0973 27.0616-32.8621Q27.0616-33.5264 27.5232-34.0192Q27.9849-34.512 28.7497-34.512L54.9385-34.512L54.9385-68.7717Q54.9385-69.4858 55.4251-69.9537Q55.9117-70.4216 56.5768-70.4216Q57.3416-70.4216 57.8345-69.9537Q58.3273-69.4858 58.3273-68.7717L58.3273-32.8621Q58.3273-32.0973 57.8345-31.6107Q57.3416-31.1241 56.5768-31.1241ZM56.5884 12.6051Q66.4781 12.6051 75.1221 8.88105Q83.7661 5.15696 90.3861-1.46923Q97.006-8.09543 100.736-16.739Q104.467-25.3826 104.467-35.2606Q104.467-45.1387 100.736-53.7823Q97.006-62.4259 90.3803-69.0521Q83.7545-75.6782 75.1105-79.4023Q66.4665-83.1264 56.5768-83.1264Q46.6988-83.1264 38.0298-79.4023Q29.3609-75.6782 22.7717-69.0521Q16.1824-62.4259 12.4526-53.7823Q8.72266-45.1387 8.72266-35.2606Q8.72266-25.3826 12.4526-16.739Q16.1824-8.09543 22.7775-1.46923Q29.3725 5.15696 38.0415 8.88105Q46.7104 12.6051 56.5884 12.6051Z"/>
  </g>
  <g id="Ultralight-M" transform="matrix(1 0 0 1 503.679 1126)">
   <path d="M27.521-31.4487Q26.9533-31.4487 26.6365-31.7962Q26.3198-32.1436 26.3198-32.7114Q26.3198-33.1554 26.6365-33.5033Q26.9533-33.8512 27.521-33.8512L54.8922-33.8512L54.8922-69.502Q54.8922-70.0073 55.2396-70.3246Q55.5871-70.6418 56.0321-70.6418Q56.5998-70.6418 56.9478-70.3246Q57.2957-70.0073 57.2957-69.502L57.2957-32.7114Q57.2957-32.1436 56.9478-31.7962Q56.5998-31.4487 56.0321-31.4487ZM56.032 12.0487Q65.8173 12.0487 74.357 8.37101Q82.8968 4.69327 89.4414-1.85181Q95.986-8.39689 99.6642-16.9361Q103.342-25.4753 103.342-35.2606Q103.342-45.046 99.6642-53.5852Q95.986-62.1244 89.4414-68.6695Q82.8968-75.2146 74.3571-78.8923Q65.8174-82.57 56.0321-82.57Q46.2468-82.57 37.6764-78.8923Q29.106-75.2146 22.592-68.6695Q16.0781-62.1244 12.4004-53.5852Q8.72266-45.046 8.72266-35.2606Q8.72266-25.4753 12.4004-16.9361Q16.0781-8.39689 22.592-1.85181Q29.1059 4.69327 37.6763 8.37101Q46.2467 12.0487 56.032 12.0487Z"/>
  </g>
  <g id="Black-S" transform="matrix(1 0 0 1 2884.57 696)">
   <path d="M32.8125-27.3926Q30.7617-27.3926 29.3457-28.8086Q27.9297-30.2246 27.9297-32.2754Q27.9297-34.3262 29.3457-35.7422Q30.7617-37.1582 32.8125-37.1582L43.9453-37.1582L43.9453-53.7598Q43.9453-55.8105 45.3613-57.2266Q46.7773-58.6426 48.8281-58.6426Q50.8789-58.6426 52.2949-57.2266Q53.7109-55.8105 53.7109-53.7598L53.7109-32.2754Q53.7109-30.2246 52.2949-28.8086Q50.8789-27.3926 48.8281-27.3926ZM48.8281 6.78711Q57.5195 6.78711 65.1123 3.51562Q72.7051 0.244141 78.4912-5.54199Q84.2773-11.3281 87.5488-18.9209Q90.8203-26.5137 90.8203-35.2051Q90.8203-43.8965 87.5488-51.4893Q84.2773-59.082 78.4912-64.8682Q72.7051-70.6543 65.1123-73.9258Q57.5195-77.1973 48.8281-77.1973Q40.1367-77.1973 32.5439-73.9258Q24.9512-70.6543 19.165-64.8682Q13.3789-59.082 10.1074-51.4893Q6.83594-43.8965 6.83594-35.2051Q6.83594-26.5137 10.1074-18.9209Q13.3789-11.3281 19.165-5.54199Q24.9512 0.244141 32.5439 3.51562Q40.1367 6.78711 48.8281 6.78711Z"/>
  </g>
  <g id="Heavy-S" transform="matrix(1 0 0 1 2588.47 696)">
   <path d="M31.3719-28.2223Q29.5056-28.2223 28.2221-29.5058Q26.9386-30.7893 26.9386-32.6557Q26.9386-34.5221 28.2221-35.8113Q29.5056-37.1006 31.3719-37.1006L43.7724-37.1006L43.7724-55.0044Q43.7724-56.8708 45.0559-58.16Q46.3394-59.4493 48.2058-59.4493Q50.0722-59.4493 51.3614-58.16Q52.6507-56.8708 52.6507-55.0044L52.6507-32.6557Q52.6507-30.7893 51.3614-29.5058Q50.0722-28.2223 48.2058-28.2223ZM48.2173 6.16479Q56.7704 6.16479 64.2537 2.9394Q71.737-0.285985 77.4425-5.99721Q83.1479-11.7084 86.3791-19.1917Q89.6102-26.675 89.6102-35.2166Q89.6102-43.7582 86.3791-51.2415Q83.1479-58.7248 77.4367-64.436Q71.7255-70.1472 64.2422-73.3726Q56.7589-76.598 48.2058-76.598Q39.6642-76.598 32.1809-73.3726Q24.6976-70.1472 18.9979-64.436Q13.2982-58.7248 10.0671-51.2415Q6.83594-43.7582 6.83594-35.2166Q6.83594-26.675 10.0671-19.1917Q13.2982-11.7084 19.0037-5.99721Q24.7092-0.285985 32.1924 2.9394Q39.6757 6.16479 48.2173 6.16479Z"/>
  </g>
  <g id="Bold-S" transform="matrix(1 0 0 1 2292.43 696)">
   <path d="M29.7607-29.1504Q28.1006-29.1504 26.9653-30.2856Q25.8301-31.4209 25.8301-33.0811Q25.8301-34.7412 26.9653-35.8887Q28.1006-37.0361 29.7607-37.0361L43.5791-37.0361L43.5791-56.3965Q43.5791-58.0566 44.7144-59.2041Q45.8496-60.3516 47.5098-60.3516Q49.1699-60.3516 50.3174-59.2041Q51.4648-58.0566 51.4648-56.3965L51.4648-33.0811Q51.4648-31.4209 50.3174-30.2856Q49.1699-29.1504 47.5098-29.1504ZM47.5342 5.46875Q55.9326 5.46875 63.2935 2.29492Q70.6543-0.878906 76.2695-6.50635Q81.8848-12.1338 85.0708-19.4946Q88.2568-26.8555 88.2568-35.2295Q88.2568-43.6035 85.0708-50.9644Q81.8848-58.3252 76.2573-63.9526Q70.6299-69.5801 63.269-72.7539Q55.9082-75.9277 47.5098-75.9277Q39.1357-75.9277 31.7749-72.7539Q24.4141-69.5801 18.811-63.9526Q13.208-58.3252 10.022-50.9644Q6.83594-43.6035 6.83594-35.2295Q6.83594-26.8555 10.022-19.4946Q13.208-12.1338 18.8232-6.50635Q24.4385-0.878906 31.7993 2.29492Q39.1602 5.46875 47.5342 5.46875Z"/>
  </g>
  <g id="Semibold-S" transform="matrix(1 0 0 1 1996.19 696)">
   <path d="M28.6499-29.7902Q27.1319-29.7902 26.0989-30.8233Q25.0658-31.8563 25.0658-33.3743Q25.0658-34.8923 26.0989-35.942Q27.1319-36.9917 28.6499-36.9917L43.4458-36.9917L43.4458-57.3563Q43.4458-58.8742 44.4789-59.9239Q45.5119-60.9736 47.0299-60.9736Q48.5479-60.9736 49.5976-59.9239Q50.6473-58.8742 50.6473-57.3563L50.6473-33.3743Q50.6473-31.8563 49.5976-30.8233Q48.5479-29.7902 47.0299-29.7902ZM47.0632 4.98887Q55.355 4.98887 62.6314 1.85059Q69.9078-1.2877 75.4608-6.85737Q81.0139-12.4271 84.1688-19.7035Q87.3237-26.9799 87.3237-35.2384Q87.3237-43.4969 84.1688-50.7733Q81.0139-58.0497 75.4442-63.6194Q69.8745-69.1891 62.5981-72.3273Q55.3217-75.4656 47.0299-75.4656Q38.7714-75.4656 31.495-72.3273Q24.2186-69.1891 18.6822-63.6194Q13.1458-58.0497 9.99087-50.7733Q6.83594-43.4969 6.83594-35.2384Q6.83594-26.9799 9.99087-19.7035Q13.1458-12.4271 18.6988-6.85737Q24.2519-1.2877 31.5283 1.85059Q38.8047 4.98887 47.0632 4.98887Z"/>
  </g>
  <g id="Medium-S" transform="matrix(1 0 0 1 1699.83 696)">
   <path d="M27.8076-30.2754Q26.3975-30.2754 25.4419-31.231Q24.4863-32.1865 24.4863-33.5967Q24.4863-35.0068 25.4419-35.9824Q26.3975-36.958 27.8076-36.958L43.3447-36.958L43.3447-58.084Q43.3447-59.4941 44.3003-60.4697Q45.2559-61.4453 46.666-61.4453Q48.0762-61.4453 49.0518-60.4697Q50.0273-59.4941 50.0273-58.084L50.0273-33.5967Q50.0273-32.1865 49.0518-31.231Q48.0762-30.2754 46.666-30.2754ZM46.7061 4.625Q54.917 4.625 62.1294 1.51367Q69.3418-1.59766 74.8477-7.12354Q80.3535-12.6494 83.4849-19.8618Q86.6162-27.0742 86.6162-35.2451Q86.6162-43.416 83.4849-50.6284Q80.3535-57.8408 74.8276-63.3667Q69.3018-68.8926 62.0894-72.0039Q54.877-75.1152 46.666-75.1152Q38.4951-75.1152 31.2827-72.0039Q24.0703-68.8926 18.5845-63.3667Q13.0986-57.8408 9.96729-50.6284Q6.83594-43.416 6.83594-35.2451Q6.83594-27.0742 9.96729-19.8618Q13.0986-12.6494 18.6045-7.12354Q24.1104-1.59766 31.3228 1.51367Q38.5352 4.625 46.7061 4.625Z"/>
  </g>
  <g id="Regular-S" transform="matrix(1 0 0 1 1403.58 696)">
   <path d="M26.709-30.9082Q25.4395-30.9082 24.585-31.7627Q23.7305-32.6172 23.7305-33.8867Q23.7305-35.1562 24.585-36.0352Q25.4395-36.9141 26.709-36.9141L43.2129-36.9141L43.2129-59.0332Q43.2129-60.3027 44.0674-61.1816Q44.9219-62.0605 46.1914-62.0605Q47.4609-62.0605 48.3398-61.1816Q49.2188-60.3027 49.2188-59.0332L49.2188-33.8867Q49.2188-32.6172 48.3398-31.7627Q47.4609-30.9082 46.1914-30.9082ZM46.2402 4.15039Q54.3457 4.15039 61.4746 1.07422Q68.6035-2.00195 74.0479-7.4707Q79.4922-12.9395 82.5928-20.0684Q85.6934-27.1973 85.6934-35.2539Q85.6934-43.3105 82.5928-50.4395Q79.4922-57.5684 74.0234-63.0371Q68.5547-68.5059 61.4258-71.582Q54.2969-74.6582 46.1914-74.6582Q38.1348-74.6582 31.0059-71.582Q23.877-68.5059 18.457-63.0371Q13.0371-57.5684 9.93652-50.4395Q6.83594-43.3105 6.83594-35.2539Q6.83594-27.1973 9.93652-20.0684Q13.0371-12.9395 18.4814-7.4707Q23.9258-2.00195 31.0547 1.07422Q38.1836 4.15039 46.2402 4.15039Z"/>
  </g>
  <g id="Light-S" transform="matrix(1 0 0 1 1107.6 696)">
   <path d="M25.1045-31.3321Q24.0924-31.3321 23.4271-32.0049Q22.7618-32.6777 22.7618-33.6899Q22.7618-34.6718 23.4271-35.3615Q24.0924-36.0512 25.1045-36.0512L43.1524-36.0512L43.1524-59.9869Q43.1524-60.9838 43.8251-61.666Q44.4979-62.3482 45.4801-62.3482Q46.4923-62.3482 47.182-61.666Q47.8717-60.9838 47.8717-59.9869L47.8717-33.6899Q47.8717-32.6777 47.182-32.0049Q46.4923-31.3321 45.4801-31.3321ZM45.5137 3.42382Q53.4828 3.42382 60.4755 0.408173Q67.4683-2.60747 72.8142-7.9703Q78.1601-13.3331 81.1927-20.3257Q84.2252-27.3183 84.2252-35.2539Q84.2252-43.1895 81.1927-50.1821Q78.1601-57.1747 72.7974-62.5375Q67.4347-67.9003 60.442-70.916Q53.4492-73.9316 45.4801-73.9316Q37.5445-73.9316 30.5443-70.916Q23.5441-67.9003 18.2224-62.5375Q12.9008-57.1747 9.86837-50.1821Q6.83594-43.1895 6.83594-35.2539Q6.83594-27.3183 9.86837-20.3257Q12.9008-13.3331 18.2392-7.9703Q23.5776-2.60747 30.5779 0.408173Q37.5781 3.42382 45.5137 3.42382Z"/>
  </g>
  <g id="Thin-S" transform="matrix(1 0 0 1 811.863 696)">
   <path d="M22.9825-31.8928Q22.3107-31.8928 21.8957-32.3253Q21.4806-32.7578 21.4806-33.4295Q21.4806-34.031 21.8957-34.4705Q22.3107-34.9099 22.9825-34.9099L43.0723-34.9099L43.0723-61.2482Q43.0723-61.8845 43.5048-62.3066Q43.9372-62.7286 44.5393-62.7286Q45.2111-62.7286 45.6506-62.3066Q46.09-61.8845 46.09-61.2482L46.09-33.4295Q46.09-32.7578 45.6506-32.3253Q45.2111-31.8928 44.5393-31.8928ZM44.5527 2.46287Q52.3416 2.46287 59.1542-0.472727Q65.9668-3.40832 71.1825-8.63106Q76.3983-13.8538 79.3409-20.6661Q82.2835-27.4784 82.2835-35.2539Q82.2835-43.0294 79.3409-49.8417Q76.3983-56.654 71.1759-61.8768Q65.9534-67.0995 59.1408-70.0351Q52.3282-72.9707 44.5393-72.9707Q36.7638-72.9707 29.9338-70.0351Q23.1038-67.0995 17.9121-61.8768Q12.7205-56.654 9.77823-49.8417Q6.83594-43.0294 6.83594-35.2539Q6.83594-27.4784 9.77823-20.6661Q12.7205-13.8538 17.9188-8.63106Q23.1172-3.40832 29.9472-0.472727Q36.7772 2.46287 44.5527 2.46287Z"/>
  </g>
  <g id="Ultralight-S" transform="matrix(1 0 0 1 515.649 696)">
   <path d="M21.8956-32.18Q21.3982-32.18 21.1113-32.4894Q20.8244-32.7988 20.8244-33.2962Q20.8244-33.7029 21.1113-34.0141Q21.3982-34.3254 21.8956-34.3254L43.0313-34.3254L43.0313-61.8942Q43.0313-62.3459 43.3407-62.6347Q43.6501-62.9234 44.0575-62.9234Q44.5549-62.9234 44.8662-62.6347Q45.1775-62.3459 45.1775-61.8942L45.1775-33.2962Q45.1775-32.7988 44.8662-32.4894Q44.5549-32.18 44.0575-32.18ZM44.0605 1.97067Q51.757 1.97067 58.4774-0.92392Q65.1978-3.81851 70.3468-8.9695Q75.4959-14.1205 78.3924-20.8405Q81.2889-27.5604 81.2889-35.2539Q81.2889-42.9474 78.3924-49.6674Q75.4959-56.3873 70.3453-61.5383Q65.1947-66.6893 58.4743-69.5839Q51.754-72.4785 44.0575-72.4785Q36.364-72.4785 29.6211-69.5839Q22.8783-66.6893 17.7532-61.5383Q12.6282-56.3873 9.73206-49.6674Q6.83594-42.9474 6.83594-35.2539Q6.83594-27.5604 9.73206-20.8405Q12.6282-14.1205 17.7547-8.9695Q22.8813-3.81851 29.6242-0.92392Q36.367 1.97067 44.0605 1.97067Z"/>
  </g>
 </g>
</svg>
