<?xml version="1.0" encoding="UTF-8"?>
<!--Generator: Apple Native CoreSVG 175.5-->
<!DOCTYPE svg
PUBLIC "-//W3C//DTD SVG 1.1//EN"
       "http://www.w3.org/Graphics/SVG/1.1/DTD/svg11.dtd">
<svg version="1.1" xmlns="http://www.w3.org/2000/svg" xmlns:xlink="http://www.w3.org/1999/xlink" width="3300" height="2200">
 <!--glyph: "uni100973.medium", point size: 100.0, font version: "18.0d9e1", template writer version: "84"-->
 <g id="Notes">
  <rect height="2200" id="artboard" style="fill:white;opacity:1" width="3300" x="0" y="0"/>
  <line style="fill:none;stroke:black;opacity:1;stroke-width:0.5;" x1="263" x2="3036" y1="292" y2="292"/>
  <text style="stroke:none;fill:black;font-family:sans-serif;font-size:13;font-weight:bold;" transform="matrix(1 0 0 1 263 322)">Weight/Scale Variations</text>
  <text style="stroke:none;fill:black;font-family:sans-serif;font-size:13;text-anchor:middle;" transform="matrix(1 0 0 1 559.711 322)">Ultralight</text>
  <text style="stroke:none;fill:black;font-family:sans-serif;font-size:13;text-anchor:middle;" transform="matrix(1 0 0 1 856.422 322)">Thin</text>
  <text style="stroke:none;fill:black;font-family:sans-serif;font-size:13;text-anchor:middle;" transform="matrix(1 0 0 1 1153.13 322)">Light</text>
  <text style="stroke:none;fill:black;font-family:sans-serif;font-size:13;text-anchor:middle;" transform="matrix(1 0 0 1 1449.84 322)">Regular</text>
  <text style="stroke:none;fill:black;font-family:sans-serif;font-size:13;text-anchor:middle;" transform="matrix(1 0 0 1 1746.56 322)">Medium</text>
  <text style="stroke:none;fill:black;font-family:sans-serif;font-size:13;text-anchor:middle;" transform="matrix(1 0 0 1 2043.27 322)">Semibold</text>
  <text style="stroke:none;fill:black;font-family:sans-serif;font-size:13;text-anchor:middle;" transform="matrix(1 0 0 1 2339.98 322)">Bold</text>
  <text style="stroke:none;fill:black;font-family:sans-serif;font-size:13;text-anchor:middle;" transform="matrix(1 0 0 1 2636.69 322)">Heavy</text>
  <text style="stroke:none;fill:black;font-family:sans-serif;font-size:13;text-anchor:middle;" transform="matrix(1 0 0 1 2933.4 322)">Black</text>
  <line style="fill:none;stroke:black;opacity:1;stroke-width:0.5;" x1="263" x2="3036" y1="1903" y2="1903"/>
  <g transform="matrix(1 0 0 1 263 1933)">
   <path d="M9.24805 0.830078Q10.8691 0.830078 12.2949 0.214844Q13.7207-0.400391 14.8096-1.49414Q15.8984-2.58789 16.5186-4.01367Q17.1387-5.43945 17.1387-7.05078Q17.1387-8.66211 16.5186-10.0879Q15.8984-11.5137 14.8047-12.6074Q13.7109-13.7012 12.2852-14.3164Q10.8594-14.9316 9.23828-14.9316Q7.62695-14.9316 6.20117-14.3164Q4.77539-13.7012 3.69141-12.6074Q2.60742-11.5137 1.9873-10.0879Q1.36719-8.66211 1.36719-7.05078Q1.36719-5.43945 1.9873-4.01367Q2.60742-2.58789 3.69629-1.49414Q4.78516-0.400391 6.21094 0.214844Q7.63672 0.830078 9.24805 0.830078ZM9.24805-0.654297Q7.91992-0.654297 6.7627-1.14746Q5.60547-1.64062 4.73145-2.51953Q3.85742-3.39844 3.36426-4.56055Q2.87109-5.72266 2.87109-7.05078Q2.87109-8.37891 3.35938-9.54102Q3.84766-10.7031 4.72168-11.582Q5.5957-12.4609 6.75293-12.9541Q7.91016-13.4473 9.23828-13.4473Q10.5762-13.4473 11.7383-12.9541Q12.9004-12.4609 13.7793-11.582Q14.6582-10.7031 15.1514-9.54102Q15.6445-8.37891 15.6445-7.05078Q15.6445-5.72266 15.1514-4.56055Q14.6582-3.39844 13.7793-2.51953Q12.9004-1.64062 11.7432-1.14746Q10.5859-0.654297 9.24805-0.654297ZM5.6543-7.05078Q5.6543-6.72852 5.85938-6.52832Q6.06445-6.32812 6.40625-6.32812L8.51562-6.32812L8.51562-4.20898Q8.51562-3.88672 8.71094-3.67676Q8.90625-3.4668 9.23828-3.4668Q9.56055-3.4668 9.77051-3.67676Q9.98047-3.88672 9.98047-4.20898L9.98047-6.32812L12.0898-6.32812Q12.4219-6.32812 12.627-6.52832Q12.832-6.72852 12.832-7.05078Q12.832-7.38281 12.627-7.58789Q12.4219-7.79297 12.0898-7.79297L9.98047-7.79297L9.98047-9.90234Q9.98047-10.2344 9.77051-10.4443Q9.56055-10.6543 9.23828-10.6543Q8.90625-10.6543 8.71094-10.4443Q8.51562-10.2344 8.51562-9.90234L8.51562-7.79297L6.40625-7.79297Q6.06445-7.79297 5.85938-7.58789Q5.6543-7.38281 5.6543-7.05078Z"/>
  </g>
  <g transform="matrix(1 0 0 1 281.867 1933)">
   <path d="M11.709 2.91016Q13.75 2.91016 15.5518 2.12891Q17.3535 1.34766 18.7305-0.0292969Q20.1074-1.40625 20.8887-3.20801Q21.6699-5.00977 21.6699-7.05078Q21.6699-9.0918 20.8887-10.8936Q20.1074-12.6953 18.7305-14.0723Q17.3535-15.4492 15.5469-16.2305Q13.7402-17.0117 11.6992-17.0117Q9.6582-17.0117 7.85645-16.2305Q6.05469-15.4492 4.68262-14.0723Q3.31055-12.6953 2.5293-10.8936Q1.74805-9.0918 1.74805-7.05078Q1.74805-5.00977 2.5293-3.20801Q3.31055-1.40625 4.6875-0.0292969Q6.06445 1.34766 7.86621 2.12891Q9.66797 2.91016 11.709 2.91016ZM11.709 1.25Q9.98047 1.25 8.47656 0.605469Q6.97266-0.0390625 5.83496-1.17676Q4.69727-2.31445 4.05762-3.81836Q3.41797-5.32227 3.41797-7.05078Q3.41797-8.7793 4.05762-10.2832Q4.69727-11.7871 5.83008-12.9297Q6.96289-14.0723 8.4668-14.7119Q9.9707-15.3516 11.6992-15.3516Q13.4277-15.3516 14.9365-14.7119Q16.4453-14.0723 17.583-12.9297Q18.7207-11.7871 19.3652-10.2832Q20.0098-8.7793 20.0098-7.05078Q20.0098-5.32227 19.3701-3.81836Q18.7305-2.31445 17.5879-1.17676Q16.4453-0.0390625 14.9414 0.605469Q13.4375 1.25 11.709 1.25ZM7.17773-7.05078Q7.17773-6.69922 7.41211-6.47461Q7.64648-6.25 8.01758-6.25L10.8887-6.25L10.8887-3.36914Q10.8887-2.99805 11.1133-2.76855Q11.3379-2.53906 11.6895-2.53906Q12.0605-2.53906 12.29-2.76855Q12.5195-2.99805 12.5195-3.36914L12.5195-6.25L15.4004-6.25Q15.7715-6.25 16.001-6.47461Q16.2305-6.69922 16.2305-7.05078Q16.2305-7.42188 16.001-7.65137Q15.7715-7.88086 15.4004-7.88086L12.5195-7.88086L12.5195-10.752Q12.5195-11.1328 12.29-11.3623Q12.0605-11.5918 11.6895-11.5918Q11.3379-11.5918 11.1133-11.3574Q10.8887-11.123 10.8887-10.752L10.8887-7.88086L8.01758-7.88086Q7.63672-7.88086 7.40723-7.65137Q7.17773-7.42188 7.17773-7.05078Z"/>
  </g>
  <g transform="matrix(1 0 0 1 305.646 1933)">
   <path d="M14.9707 5.66406Q17.0605 5.66406 18.96 5.01465Q20.8594 4.36523 22.4512 3.19336Q24.043 2.02148 25.2197 0.429688Q26.3965-1.16211 27.0459-3.06641Q27.6953-4.9707 27.6953-7.05078Q27.6953-9.14062 27.0459-11.04Q26.3965-12.9395 25.2197-14.5312Q24.043-16.123 22.4512-17.2998Q20.8594-18.4766 18.9551-19.126Q17.0508-19.7754 14.9609-19.7754Q12.8711-19.7754 10.9717-19.126Q9.07227-18.4766 7.48535-17.2998Q5.89844-16.123 4.72168-14.5312Q3.54492-12.9395 2.90039-11.04Q2.25586-9.14062 2.25586-7.05078Q2.25586-4.9707 2.90527-3.06641Q3.55469-1.16211 4.72656 0.429688Q5.89844 2.02148 7.49023 3.19336Q9.08203 4.36523 10.9814 5.01465Q12.8809 5.66406 14.9707 5.66406ZM14.9707 3.84766Q13.1641 3.84766 11.5283 3.2959Q9.89258 2.74414 8.53516 1.74805Q7.17773 0.751953 6.17676-0.610352Q5.17578-1.97266 4.62891-3.6084Q4.08203-5.24414 4.08203-7.05078Q4.08203-8.86719 4.62891-10.5029Q5.17578-12.1387 6.17188-13.501Q7.16797-14.8633 8.52539-15.8594Q9.88281-16.8555 11.5186-17.4023Q13.1543-17.9492 14.9609-17.9492Q16.7773-17.9492 18.4131-17.4023Q20.0488-16.8555 21.4111-15.8594Q22.7734-14.8633 23.7744-13.501Q24.7754-12.1387 25.3223-10.5029Q25.8691-8.86719 25.8691-7.05078Q25.8691-5.24414 25.3223-3.6084Q24.7754-1.97266 23.7793-0.610352Q22.7832 0.751953 21.4209 1.74805Q20.0586 2.74414 18.4229 3.2959Q16.7871 3.84766 14.9707 3.84766ZM9.19922-7.05078Q9.19922-6.66992 9.45801-6.4209Q9.7168-6.17188 10.1172-6.17188L14.0625-6.17188L14.0625-2.2168Q14.0625-1.81641 14.3115-1.55762Q14.5605-1.29883 14.9512-1.29883Q15.3516-1.29883 15.6104-1.55273Q15.8691-1.80664 15.8691-2.2168L15.8691-6.17188L19.8242-6.17188Q20.2246-6.17188 20.4785-6.4209Q20.7324-6.66992 20.7324-7.05078Q20.7324-7.46094 20.4785-7.71484Q20.2246-7.96875 19.8242-7.96875L15.8691-7.96875L15.8691-11.9141Q15.8691-12.3242 15.6104-12.583Q15.3516-12.8418 14.9512-12.8418Q14.5605-12.8418 14.3115-12.583Q14.0625-12.3242 14.0625-11.9141L14.0625-7.96875L10.1172-7.96875Q9.70703-7.96875 9.45312-7.71484Q9.19922-7.46094 9.19922-7.05078Z"/>
  </g>
  <text style="stroke:none;fill:black;font-family:sans-serif;font-size:13;font-weight:bold;" transform="matrix(1 0 0 1 263 1953)">Design Variations</text>
  <text style="stroke:none;fill:black;font-family:sans-serif;font-size:13;" transform="matrix(1 0 0 1 263 1971)">Symbols are supported in up to nine weights and three scales.</text>
  <text style="stroke:none;fill:black;font-family:sans-serif;font-size:13;" transform="matrix(1 0 0 1 263 1989)">For optimal layout with text and other symbols, vertically align</text>
  <text style="stroke:none;fill:black;font-family:sans-serif;font-size:13;" transform="matrix(1 0 0 1 263 2007)">symbols with the adjacent text.</text>
  <line style="fill:none;stroke:#00AEEF;stroke-width:0.5;opacity:1.0;" x1="776" x2="776" y1="1919" y2="1933"/>
  <g transform="matrix(1 0 0 1 776 1933)">
   <path d="M3.31055 0.15625Q3.70117 0.15625 3.91602-0.00976562Q4.13086-0.175781 4.26758-0.585938L5.52734-4.0332L11.2891-4.0332L12.5488-0.585938Q12.6855-0.175781 12.9004-0.00976562Q13.1152 0.15625 13.4961 0.15625Q13.8867 0.15625 14.1162-0.0585938Q14.3457-0.273438 14.3457-0.644531Q14.3457-0.869141 14.2383-1.17188L9.6582-13.3691Q9.48242-13.8184 9.17969-14.043Q8.87695-14.2676 8.4082-14.2676Q7.5-14.2676 7.17773-13.3789L2.59766-1.16211Q2.49023-0.859375 2.49023-0.634766Q2.49023-0.263672 2.70996-0.0537109Q2.92969 0.15625 3.31055 0.15625ZM6.00586-5.51758L8.37891-12.0898L8.42773-12.0898L10.8008-5.51758Z"/>
  </g>
  <line style="fill:none;stroke:#00AEEF;stroke-width:0.5;opacity:1.0;" x1="793.197" x2="793.197" y1="1919" y2="1933"/>
  <text style="stroke:none;fill:black;font-family:sans-serif;font-size:13;font-weight:bold;" transform="matrix(1 0 0 1 776 1953)">Margins</text>
  <text style="stroke:none;fill:black;font-family:sans-serif;font-size:13;" transform="matrix(1 0 0 1 776 1971)">Leading and trailing margins on the left and right side of each symbol</text>
  <text style="stroke:none;fill:black;font-family:sans-serif;font-size:13;" transform="matrix(1 0 0 1 776 1989)">can be adjusted by modifying the x-location of the margin guidelines.</text>
  <text style="stroke:none;fill:black;font-family:sans-serif;font-size:13;" transform="matrix(1 0 0 1 776 2007)">Modifications are automatically applied proportionally to all</text>
  <text style="stroke:none;fill:black;font-family:sans-serif;font-size:13;" transform="matrix(1 0 0 1 776 2025)">scales and weights.</text>
  <g transform="matrix(1 0 0 1 1289 1933)">
   <path d="M2.8418 1.86523L4.54102 3.57422Q5.18555 4.22852 5.90332 4.17969Q6.62109 4.13086 7.31445 3.35938L18.0078-8.42773L17.041-9.4043L6.42578 2.27539Q6.16211 2.57812 5.89355 2.61719Q5.625 2.65625 5.27344 2.30469L4.10156 1.14258Q3.75 0.791016 3.79395 0.522461Q3.83789 0.253906 4.14062-0.0195312L15.6152-10.8203L14.6387-11.7871L3.04688-0.898438Q2.30469-0.214844 2.25098 0.498047Q2.19727 1.21094 2.8418 1.86523ZM9.25781-16.3281Q8.94531-16.0254 8.90625-15.6348Q8.86719-15.2441 9.04297-14.9512Q9.21875-14.6777 9.55566-14.541Q9.89258-14.4043 10.3809-14.5215Q11.4746-14.7754 12.5977-14.7314Q13.7207-14.6875 14.7949-13.9844L14.209-12.5293Q13.9551-11.9043 14.0674-11.4404Q14.1797-10.9766 14.5801-10.5664L16.875-8.25195Q17.2363-7.88086 17.5781-7.82227Q17.9199-7.76367 18.3398-7.8418L19.4043-8.03711L20.0684-7.36328L20.0293-6.80664Q20-6.43555 20.1221-6.12305Q20.2441-5.81055 20.6055-5.44922L21.3672-4.70703Q21.7285-4.3457 22.1533-4.33105Q22.5781-4.31641 22.9297-4.66797L25.8398-7.58789Q26.1914-7.93945 26.1816-8.35449Q26.1719-8.76953 25.8105-9.13086L25.0391-9.89258Q24.6875-10.2539 24.3799-10.3857Q24.0723-10.5176 23.7109-10.4883L23.1348-10.4395L22.4902-11.0742L22.7344-12.1973Q22.832-12.6172 22.6953-12.9834Q22.5586-13.3496 22.1191-13.7891L19.9219-15.9766Q18.6719-17.2168 17.2607-17.8369Q15.8496-18.457 14.4189-18.4814Q12.9883-18.5059 11.665-17.959Q10.3418-17.4121 9.25781-16.3281ZM10.752-15.957Q11.6602-16.6211 12.7002-16.9043Q13.7402-17.1875 14.8047-17.085Q15.8691-16.9824 16.8701-16.5137Q17.8711-16.0449 18.7012-15.2051L21.1328-12.793Q21.3086-12.6172 21.3525-12.4512Q21.3965-12.2852 21.3379-12.0312L21.0156-10.5469L22.5195-9.0625L23.5059-9.12109Q23.6914-9.13086 23.7891-9.09668Q23.8867-9.0625 24.0332-8.91602L24.6094-8.33984L22.168-5.89844L21.5918-6.47461Q21.4453-6.62109 21.4062-6.71875Q21.3672-6.81641 21.377-7.01172L21.4453-7.98828L19.9512-9.47266L18.4277-9.21875Q18.1836-9.16992 18.042-9.2041Q17.9004-9.23828 17.7148-9.41406L15.7129-11.416Q15.5176-11.5918 15.4932-11.7529Q15.4688-11.9141 15.5859-12.1875L16.4648-14.2773Q15.293-15.3711 13.8281-15.791Q12.3633-16.2109 10.8398-15.7617Q10.7227-15.7324 10.6885-15.8057Q10.6543-15.8789 10.752-15.957Z"/>
  </g>
  <text style="stroke:none;fill:black;font-family:sans-serif;font-size:13;font-weight:bold;" transform="matrix(1 0 0 1 1289 1953)">Exporting</text>
  <text style="stroke:none;fill:black;font-family:sans-serif;font-size:13;" transform="matrix(1 0 0 1 1289 1971)">Symbols should be outlined when exporting to ensure the</text>
  <text style="stroke:none;fill:black;font-family:sans-serif;font-size:13;" transform="matrix(1 0 0 1 1289 1989)">design is preserved when submitting to Xcode.</text>
  <text id="template-version" style="stroke:none;fill:black;font-family:sans-serif;font-size:13;text-anchor:end;" transform="matrix(1 0 0 1 3036 1933)">Template v.2.0</text>
  <text style="stroke:none;fill:black;font-family:sans-serif;font-size:13;text-anchor:end;" transform="matrix(1 0 0 1 3036 1951)">Requires Xcode 12 or greater</text>
  <text id="descriptive-name" style="stroke:none;fill:black;font-family:sans-serif;font-size:13;text-anchor:end;" transform="matrix(1 0 0 1 3036 1969)">Generated from leaf.fill</text>
  <text style="stroke:none;fill:black;font-family:sans-serif;font-size:13;text-anchor:end;" transform="matrix(1 0 0 1 3036 1987)">Typeset at 100 points</text>
  <text style="stroke:none;fill:black;font-family:sans-serif;font-size:13;" transform="matrix(1 0 0 1 263 726)">Small</text>
  <text style="stroke:none;fill:black;font-family:sans-serif;font-size:13;" transform="matrix(1 0 0 1 263 1156)">Medium</text>
  <text style="stroke:none;fill:black;font-family:sans-serif;font-size:13;" transform="matrix(1 0 0 1 263 1586)">Large</text>
 </g>
 <g id="Guides">
  <g id="H-reference" style="fill:#27AAE1;stroke:none;" transform="matrix(1 0 0 1 339 696)">
   <path d="M0.993347 0L3.6377 0L29.3282-67.1326L30.0301-67.1326L30.0301-70.459L28.1227-70.459ZM11.6882-24.4797L46.9818-24.4797L46.2311-26.7288L12.4382-26.7288ZM55.1193 0L57.7637 0L30.6381-70.459L29.4327-70.459L29.4327-67.1326Z"/>
  </g>
  <line id="Baseline-S" style="fill:none;stroke:#27AAE1;opacity:1;stroke-width:0.5;" x1="263" x2="3036" y1="696" y2="696"/>
  <line id="Capline-S" style="fill:none;stroke:#27AAE1;opacity:1;stroke-width:0.5;" x1="263" x2="3036" y1="625.541" y2="625.541"/>
  <g id="H-reference" style="fill:#27AAE1;stroke:none;" transform="matrix(1 0 0 1 339 1126)">
   <path d="M0.993347 0L3.6377 0L29.3282-67.1326L30.0301-67.1326L30.0301-70.459L28.1227-70.459ZM11.6882-24.4797L46.9818-24.4797L46.2311-26.7288L12.4382-26.7288ZM55.1193 0L57.7637 0L30.6381-70.459L29.4327-70.459L29.4327-67.1326Z"/>
  </g>
  <line id="Baseline-M" style="fill:none;stroke:#27AAE1;opacity:1;stroke-width:0.5;" x1="263" x2="3036" y1="1126" y2="1126"/>
  <line id="Capline-M" style="fill:none;stroke:#27AAE1;opacity:1;stroke-width:0.5;" x1="263" x2="3036" y1="1055.54" y2="1055.54"/>
  <g id="H-reference" style="fill:#27AAE1;stroke:none;" transform="matrix(1 0 0 1 339 1556)">
   <path d="M0.993347 0L3.6377 0L29.3282-67.1326L30.0301-67.1326L30.0301-70.459L28.1227-70.459ZM11.6882-24.4797L46.9818-24.4797L46.2311-26.7288L12.4382-26.7288ZM55.1193 0L57.7637 0L30.6381-70.459L29.4327-70.459L29.4327-67.1326Z"/>
  </g>
  <line id="Baseline-L" style="fill:none;stroke:#27AAE1;opacity:1;stroke-width:0.5;" x1="263" x2="3036" y1="1556" y2="1556"/>
  <line id="Capline-L" style="fill:none;stroke:#27AAE1;opacity:1;stroke-width:0.5;" x1="263" x2="3036" y1="1485.54" y2="1485.54"/>
  <line id="left-margin" style="fill:none;stroke:#00AEEF;stroke-width:0.5;opacity:1.0;" x1="1388.41" x2="1388.41" y1="1030.79" y2="1150.12"/>
  <line id="right-margin" style="fill:none;stroke:#00AEEF;stroke-width:0.5;opacity:1.0;" x1="1511.28" x2="1511.28" y1="1030.79" y2="1150.12"/>
 </g>
 <g id="Symbols">
  <g id="Black-L" transform="matrix(1 0 0 1 2849.61 1556)">
   <path d="M13.2997-89.962Q12.2018-85.1117 11.7303-79.1018Q11.2588-73.0919 11.2588-68.5276Q11.2588-49.8883 16.6217-34.7288Q21.9846-19.5693 31.9763-8.70288Q41.9679 2.16355 55.9195 8.01378Q69.8711 13.864 86.989 13.864Q98.8584 13.864 107.389 10.8848Q115.919 7.90567 121.625 3.62182Q127.33-0.66202 130.668-4.63628Q134.006-8.61055 135.49-10.5412L121.082-12.0968Q126.364-6.53115 129.491-1.35048Q132.619 3.8302 134.727 9.45818Q136.834 15.0862 139.027 22.2005Q139.867 24.8003 141.692 26.1328Q143.517 27.4653 145.903 27.4653Q150.255 27.4653 153.287 24.1505Q156.318 20.8358 156.318 15.937Q156.318 12.4818 154.117 8.01718Q151.915 3.55252 148.582-1.01218Q145.249-5.57687 141.783-9.50862Q138.318-13.4404 135.712-15.8286Q128.258-22.7234 119.862-26.3945Q111.466-30.0656 102.848-31.8849Q94.2301-33.7041 86.0987-34.9521Q77.9673-36.2 71.0422-38.1115Q64.1171-40.023 59.0282-43.8786Q53.9394-47.7342 51.4856-54.9356Q51.0931-56.1548 51.9602-56.5814Q52.8273-57.008 53.6132-56.1624Q59.1342-49.9406 65.332-46.9801Q71.5297-44.0196 78.1969-42.9383Q84.8642-41.8571 91.7947-41.4208Q98.7252-40.9844 105.75-39.9802Q112.774-38.9759 119.725-36.0922Q126.676-33.2085 133.377-27.1097Q136.008-24.776 138.679-25.5198Q141.35-26.2636 141.844-29.077Q142.086-30.4281 142.235-32.4404Q142.385-34.4527 142.385-36.822Q142.385-52.5223 135.651-63.5202Q128.916-74.518 116.533-80.3166Q104.15-86.1152 87.2278-86.1152Q79.1714-86.1152 70.2808-84.6334Q61.3902-83.1516 54.2828-83.1516Q49.4509-83.1516 44.3079-83.6529Q39.1648-84.1542 34.0958-86.2645Q29.0267-88.3748 24.2998-93.0868Q21.29-96.1026 17.8194-95.2059Q14.3488-94.3091 13.2997-89.962Z"/>
  </g>
  <g id="Heavy-L" transform="matrix(1 0 0 1 2554.06 1556)">
   <path d="M13.25-89.3667Q12.188-84.5179 11.7234-78.5811Q11.2588-72.6443 11.2588-68.1793Q11.2588-49.782 16.5354-34.8169Q21.812-19.8518 31.6263-9.11802Q41.4406 1.61578 55.1583 7.39738Q68.8761 13.179 85.7082 13.179Q97.1468 13.179 105.449 10.3281Q113.751 7.47714 119.353 3.3497Q124.956-0.777746 128.24-4.66055Q131.525-8.54335 132.929-10.5569L120.172-11.7424Q125.157-6.47954 128.192-1.44392Q131.227 3.59171 133.329 9.15379Q135.43 14.7159 137.608 21.7256Q138.416 24.2338 140.145 25.4654Q141.874 26.697 144.082 26.697Q148.222 26.697 151.111 23.5333Q153.999 20.3696 153.999 15.6446Q153.999 12.2269 151.847 7.83142Q149.695 3.43593 146.439-1.06451Q143.183-5.56495 139.785-9.43715Q136.388-13.3093 133.822-15.6749Q126.514-22.4375 118.27-26.0584Q110.026-29.6793 101.548-31.501Q93.0698-33.3228 85.0468-34.5894Q77.0238-35.856 70.1599-37.7935Q63.2961-39.7309 58.2055-43.5832Q53.115-47.4354 50.5768-54.57Q50.1253-55.8906 51.0963-56.4278Q52.0673-56.9649 53.0286-55.9534Q58.5137-49.9328 64.6369-47.0683Q70.7602-44.2037 77.3251-43.1522Q83.89-42.1007 90.732-41.6393Q97.574-41.1779 104.526-40.1166Q111.477-39.0552 118.396-36.1191Q125.316-33.183 132.043-27.0385Q134.414-24.9419 136.811-25.6314Q139.208-26.3209 139.653-28.8597Q139.894-30.219 140.037-32.2379Q140.18-34.2569 140.18-36.5743Q140.18-52.1809 133.487-62.9444Q126.795-73.7079 114.601-79.3079Q102.407-84.9079 85.9382-84.9079Q78.0176-84.9079 69.3002-83.4954Q60.5828-82.0828 53.525-82.0828Q48.601-82.0828 43.3912-82.6197Q38.1814-83.1566 33.0891-85.3047Q27.9969-87.4528 23.3363-92.2057Q20.6044-94.9657 17.4112-94.1927Q14.218-93.4197 13.25-89.3667Z"/>
  </g>
  <g id="Bold-L" transform="matrix(1 0 0 1 2258.83 1556)">
   <path d="M13.181-88.7408Q12.1726-83.8697 11.7157-78.0214Q11.2588-72.1731 11.2588-67.8458Q11.2588-49.7408 16.4241-35.0065Q21.5894-20.2722 31.1772-9.69616Q40.765 0.879896 54.1797 6.58071Q67.5944 12.2815 84.0506 12.2815Q94.8547 12.2815 102.843 9.61422Q110.831 6.94692 116.317 3.02656Q121.804-0.893802 125.064-4.7024Q128.325-8.51099 129.674-10.7513L118.946-11.4236Q123.576-6.50747 126.482-1.66354Q129.387 3.18038 131.47 8.65804Q133.552 14.1357 135.73 21.0818Q136.499 23.4823 138.116 24.5984Q139.734 25.7144 141.733 25.7144Q145.628 25.7144 148.336 22.7278Q151.043 19.7411 151.043 15.2239Q151.043 11.8374 148.96 7.51522Q146.877 3.19308 143.724-1.23414Q140.572-5.66135 137.266-9.46425Q133.961-13.2672 131.449-15.6021Q124.325-22.2033 116.284-25.7627Q108.243-29.3221 99.9567-31.144Q91.6701-32.9658 83.7965-34.248Q75.9229-35.5301 69.1396-37.4872Q62.3562-39.4443 57.2544-43.2741Q52.1527-47.1039 49.4772-54.1315Q48.949-55.5603 50.0282-56.2171Q51.1075-56.8739 52.2541-55.6847Q57.6856-49.9028 63.7055-47.1536Q69.7253-44.4044 76.1598-43.3875Q82.5942-42.3706 89.3211-41.8784Q96.048-41.3863 102.907-40.2558Q109.767-39.1252 116.648-36.1239Q123.529-33.1225 130.294-26.924Q132.343-25.1195 134.409-25.7362Q136.475-26.3529 136.858-28.5684Q137.099-29.9503 137.235-31.9807Q137.37-34.0111 137.37-36.2893Q137.37-51.7509 130.746-62.2187Q124.122-72.6865 112.166-78.0444Q100.21-83.4022 84.2654-83.4022Q76.5288-83.4022 68.0601-82.0966Q59.5913-80.7909 52.6024-80.7909Q47.511-80.7909 42.1944-81.385Q36.8778-81.9792 31.7624-84.1883Q26.6469-86.3974 22.1004-91.204Q19.7143-93.6563 16.8743-93.0258Q14.0343-92.3953 13.181-88.7408Z"/>
  </g>
  <g id="Semibold-L" transform="matrix(1 0 0 1 1963.13 1556)">
   <path d="M13.1335-88.3094Q12.162-83.4228 11.7104-77.6355Q11.2588-71.8482 11.2588-67.616Q11.2588-49.7124 16.3473-35.1372Q21.4359-20.562 30.8676-10.0947Q40.2993 0.372579 53.5051 6.01771Q66.7108 11.6628 82.9079 11.6628Q93.2745 11.6628 101.046 9.12211Q108.818 6.58138 114.225 2.80379Q119.631-0.97381 122.875-4.73125Q126.119-8.48869 127.429-10.8852L118.1-11.2039Q122.487-6.52672 125.303-1.81495Q128.118 2.89682 130.188 8.31627Q132.257 13.7357 134.434 20.638Q135.177 22.9643 136.717 24.0006Q138.258 25.037 140.114 25.037Q143.839 25.037 146.422 22.1724Q149.006 19.3078 149.006 14.9338Q149.006 11.5688 146.97 7.29723Q144.934 3.02566 141.853-1.35107Q138.772-5.7278 135.53-9.48294Q132.288-13.2381 129.813-15.5519Q122.816-22.0418 114.915-25.5589Q107.014-29.0759 98.8597-30.8978Q90.7052-32.7197 82.9346-34.0126Q75.1639-35.3055 68.4361-37.2761Q61.7083-39.2467 56.5988-43.061Q51.4892-46.8753 48.7192-53.8292Q48.138-55.3325 49.2919-56.0718Q50.4457-56.8112 51.7202-55.4995Q57.1148-49.882 63.0634-47.2124Q69.0119-44.5427 75.3564-43.5497Q81.7009-42.5566 88.3485-42.0433Q94.996-41.53 101.792-40.3517Q108.588-39.1735 115.442-36.1271Q122.297-33.0808 129.088-26.8451Q130.915-25.2419 132.753-25.8084Q134.591-26.3749 134.932-28.3676Q135.173-29.7651 135.303-31.8034Q135.433-33.8417 135.433-36.0928Q135.433-51.4544 128.856-61.7184Q122.28-71.9824 110.488-77.1733Q98.6961-82.3642 83.1122-82.3642Q75.5025-82.3642 67.2051-81.1322Q58.9078-79.9002 51.9663-79.9002Q46.7596-79.9002 41.3694-80.5338Q35.9792-81.1675 30.8477-83.4186Q25.7162-85.6698 21.2484-90.5134Q19.1007-92.7537 16.5042-92.2214Q13.9077-91.689 13.1335-88.3094Z"/>
  </g>
  <g id="Medium-L" transform="matrix(1 0 0 1 1667.2 1556)">
   <path d="M13.0974-87.9822Q12.1539-83.084 11.7064-77.3429Q11.2588-71.6018 11.2588-67.4417Q11.2588-49.6908 16.2892-35.2363Q21.3195-20.7818 30.6329-10.3969Q39.9462-0.0120895 52.9935 5.59082Q66.0408 11.1937 82.0415 11.1937Q92.0763 11.1937 99.6838 8.74897Q107.291 6.30422 112.638 2.63487Q117.984-1.03448 121.215-4.75312Q124.446-8.47177 125.728-10.9868L117.459-11.0372Q121.661-6.54132 124.408-1.92975Q127.156 2.68181 129.216 8.05713Q131.275 13.4324 133.452 20.3015Q134.175 22.5714 135.657 23.5474Q137.139 24.5234 138.887 24.5234Q142.483 24.5234 144.972 21.7513Q147.461 18.9793 147.461 14.7138Q147.461 11.3652 145.461 7.13194Q143.461 2.89871 140.434-1.43974Q137.407-5.77819 134.213-9.4971Q131.019-13.216 128.573-15.5138Q121.672-21.9194 113.877-25.4043Q106.082-28.8892 98.028-30.7111Q89.9736-32.5331 82.281-33.8341Q74.5884-35.1351 67.9027-37.116Q61.2171-39.0969 56.1016-42.8994Q50.9862-46.702 48.1444-53.6Q47.5232-55.1598 48.7336-55.9617Q49.944-56.7636 51.3154-55.3591Q56.682-49.8663 62.5765-47.2569Q68.471-44.6476 74.7473-43.6726Q81.0235-42.6977 87.611-42.1683Q94.1984-41.6389 100.946-40.4245Q107.694-39.2101 114.528-36.1296Q121.362-33.0491 128.174-26.7853Q129.832-25.3347 131.497-25.8631Q133.163-26.3916 133.471-28.2154Q133.712-29.6247 133.838-31.669Q133.964-33.7132 133.964-35.9438Q133.964-51.2297 127.423-61.3391Q120.883-71.4485 109.215-76.5128Q97.5479-81.5771 82.2378-81.5771Q74.7243-81.5771 66.5569-80.401Q58.3895-79.2249 51.4841-79.2249Q46.1898-79.2249 40.7438-79.8884Q35.2977-80.552 30.1541-82.835Q25.0105-85.1181 20.6024-89.9898Q18.6354-92.0693 16.2235-91.6114Q13.8117-91.1536 13.0974-87.9822Z"/>
  </g>
  <g id="Regular-L" transform="matrix(1 0 0 1 1371.49 1556)">
   <path d="M13.0504-87.5555Q12.1434-82.6421 11.7011-76.9613Q11.2588-71.2805 11.2588-67.2143Q11.2588-49.6627 16.2133-35.3655Q21.1678-21.0684 30.3267-10.7911Q39.4856-0.513831 52.3262 5.034Q65.1669 10.5818 80.9113 10.5818Q90.5135 10.5818 97.9068 8.26226Q105.3 5.9427 110.568 2.41455Q115.835-1.1136 119.049-4.78166Q122.264-8.44971 123.508-11.1193L116.623-10.8199Q120.583-6.56036 123.242-2.0795Q125.901 2.40137 127.948 7.71912Q129.995 13.0369 132.171 19.8626Q132.868 22.059 134.273 22.9562Q135.679 23.8534 137.286 23.8534Q140.713 23.8534 143.079 21.2021Q145.445 18.5507 145.445 14.427Q145.445 11.0996 143.493 6.91635Q141.54 2.73314 138.583-1.55539Q135.627-5.84392 132.496-9.51558Q129.364-13.1873 126.954-15.4641Q120.179-21.7597 112.523-25.2027Q104.867-28.6457 96.9431-30.4677Q89.0192-32.2897 81.4285-33.6013Q73.8378-34.9129 67.207-36.9072Q60.5763-38.9014 55.4532-42.6887Q50.33-46.476 47.3946-53.3011Q46.7211-54.9346 48.0053-55.8181Q49.2895-56.7016 50.7873-55.1759Q56.1174-49.8458 61.9414-47.3151Q67.7654-44.7844 73.9527-43.833Q80.14-42.8817 86.649-42.3313Q93.158-41.781 99.8428-40.5194Q106.528-39.2578 113.336-36.1328Q120.144-33.0079 126.982-26.7072Q128.419-25.4557 129.859-25.9346Q131.299-26.4134 131.566-28.0168Q131.807-29.4415 131.928-31.4936Q132.048-33.5457 132.048-35.7495Q132.048-50.9364 125.554-60.8443Q119.06-70.7521 107.555-75.6513Q96.0503-80.5505 81.0973-80.5505Q73.7092-80.5505 65.7113-79.4473Q57.7135-78.344 50.855-78.344Q45.4467-78.344 39.9278-79.0466Q34.409-79.7492 29.2495-82.0738Q24.0901-84.3985 19.7598-89.3068Q18.0285-91.1766 15.8575-90.8158Q13.6864-90.4551 13.0504-87.5555Z"/>
  </g>
  <g id="Light-L" transform="matrix(1 0 0 1 1076.07 1556)">
   <path d="M12.9548-87.8418Q12.1434-82.7566 11.7011-77.1235Q11.2588-71.4905 11.2588-67.6151Q11.2588-50.2161 16.1083-36.0144Q20.9577-21.8126 29.9162-11.6022Q38.8748-1.39179 51.4196 4.1275Q63.9644 9.6468 79.308 9.6468Q87.8226 9.6468 94.796 7.61342Q101.769 5.58004 107.037 2.28099Q112.304-1.01805 115.767-4.88651Q119.229-8.75497 120.722-12.3788L115.134-11.3733Q118.942-7.17121 121.41-2.90022Q123.878 1.37078 125.839 6.61222Q127.8 11.8537 130.091 19.0609Q130.768 21.2192 132.145 22.0973Q133.523 22.9754 135.072 22.9754Q138.423 22.9754 140.646 20.3814Q142.869 17.7873 142.869 13.759Q142.869 10.3553 141.012 6.14341Q139.154 1.9315 136.322-2.34741Q133.489-6.62632 130.473-10.2789Q127.456-13.9315 125.103-16.1702Q118.481-22.3706 111.063-25.7754Q103.646-29.1802 95.9697-30.9831Q88.2939-32.7861 80.9036-34.0594Q73.5133-35.3326 66.9685-37.2602Q60.4236-39.1878 55.2337-42.8415Q50.0437-46.4952 46.803-53.0911Q46.0532-54.6864 47.2801-55.5414Q48.5071-56.3963 49.9286-54.9277Q55.1631-49.6932 60.844-47.2197Q66.5248-44.7462 72.5976-43.8043Q78.6705-42.8625 85.0649-42.293Q91.4594-41.7236 98.068-40.4238Q104.677-39.1241 111.466-35.9515Q118.255-32.7789 125.15-26.459Q126.358-25.3983 127.626-25.7914Q128.895-26.1845 129.123-27.6733Q129.364-29.1933 129.485-31.2741Q129.605-33.3549 129.605-35.6921Q129.605-50.593 123.264-60.2623Q116.923-69.9315 105.609-74.6876Q94.2944-79.4436 79.4558-79.4436Q72.297-79.4436 64.6904-78.5502Q57.0838-77.6569 50.3205-77.6569Q44.4542-77.6569 38.7064-78.4835Q32.9586-79.3102 27.8183-81.7684Q22.6779-84.2266 18.6337-89.1924Q17.1506-90.9095 15.2849-90.5773Q13.4193-90.2451 12.9548-87.8418Z"/>
  </g>
  <g id="Thin-L" transform="matrix(1 0 0 1 781.062 1556)">
   <path d="M12.8285-88.2206Q12.1434-82.908 11.7011-77.3381Q11.2588-71.7683 11.2588-68.1452Q11.2588-50.9481 15.9694-36.8725Q20.68-22.797 29.3734-12.675Q38.0669-2.55295 50.2205 2.92859Q62.3741 8.41014 77.1875 8.41014Q84.2636 8.41014 90.6816 6.75527Q97.0997 5.10039 102.367 2.10436Q107.635-0.89167 111.425-5.02519Q115.215-9.15871 117.036-14.0446L113.165-12.1053Q116.771-7.9791 118.987-3.98568Q121.203 0.00774261 123.05 5.14825Q124.897 10.2888 127.339 18.0007Q127.992 20.1085 129.331 20.9614Q130.67 21.8143 132.144 21.8143Q135.394 21.8143 137.428 19.2959Q139.461 16.7775 139.461 12.8756Q139.461 9.371 137.73 5.12113Q135.999 0.871264 133.331-3.39492Q130.662-7.6611 127.797-11.2885Q124.931-14.9158 122.655-17.1041Q116.234-23.1785 109.132-26.5328Q102.03-29.8872 94.6824-31.6649Q87.3346-33.4426 80.2093-34.6652Q73.0841-35.8878 66.6529-37.7271Q60.2218-39.5665 54.9434-43.0436Q49.665-46.5206 46.0206-52.8133Q45.1698-54.3582 46.3211-55.1754Q47.4723-55.9926 48.7929-54.5994Q53.901-49.4913 59.3925-47.0935Q64.884-44.6958 70.8054-43.7664Q76.7268-42.837 82.9699-42.2423Q89.213-41.6477 95.7207-40.2974Q102.228-38.9472 108.992-35.7117Q115.756-32.4761 122.726-26.1308Q123.632-25.3224 124.673-25.602Q125.714-25.8817 125.892-27.2191Q126.133-28.8651 126.254-30.9838Q126.375-33.1025 126.375-35.6162Q126.375-50.1388 120.235-59.4926Q114.096-68.8463 103.034-73.413Q91.9721-77.9796 77.2849-77.9796Q70.4293-77.9796 63.3401-77.3638Q56.2508-76.748 49.6135-76.748Q43.1417-76.748 37.0911-77.7388Q31.0405-78.7296 25.9253-81.3644Q20.8102-83.9993 17.1442-89.041Q15.9894-90.5562 14.5277-90.2617Q13.066-89.9673 12.8285-88.2206Z"/>
  </g>
  <g id="Ultralight-L" transform="matrix(1 0 0 1 485.224 1556)">
   <path d="M12.7637-88.4145Q12.1434-82.9855 11.7011-77.448Q11.2588-71.9106 11.2588-68.4168Q11.2588-51.323 15.8982-37.3121Q20.5377-23.3011 29.0954-13.2244Q37.6531-3.1477 49.6063 2.31452Q61.5595 7.77673 76.1015 7.77673Q82.4407 7.77673 88.5743 6.31572Q94.7079 4.85472 99.9754 2.01389Q105.243-0.826939 109.201-5.09622Q113.16-9.3655 115.149-14.8979L112.156-12.4802Q115.659-8.39291 117.746-4.54165Q119.832-0.690397 121.621 4.39841Q123.41 9.48722 125.93 17.4577Q126.57 19.5397 127.889 20.3796Q129.209 21.2195 130.644 21.2195Q133.843 21.2195 135.78 18.7399Q137.716 16.2603 137.716 12.4232Q137.716 8.86684 136.049 4.59753Q134.383 0.328218 131.799-3.93145Q129.214-8.19112 126.427-11.8055Q123.639-15.42 121.401-17.5824Q115.084-23.5923 108.143-26.9208Q101.203-30.2493 94.023-32.014Q86.8433-33.7788 79.8538-34.9755Q72.8643-36.1721 66.4913-37.9663Q60.1184-39.7605 54.7947-43.1471Q49.471-46.5337 45.6198-52.671Q44.7173-54.19 45.8298-54.9879Q46.9423-55.7858 48.2112-54.4313Q53.2546-49.3879 58.6491-47.0289Q64.0436-44.6699 69.8875-43.747Q75.7313-42.824 81.8969-42.2164Q88.0624-41.6088 94.5184-40.2327Q100.974-38.8566 107.725-35.5888Q114.476-32.321 121.485-25.9627Q122.236-25.2835 123.161-25.505Q124.085-25.7266 124.237-26.9865Q124.479-28.6969 124.599-30.8351Q124.72-32.9733 124.72-35.5773Q124.72-49.9062 118.684-59.0983Q112.648-68.2904 101.715-72.7601Q90.7826-77.2298 76.1729-77.2298Q69.4727-77.2298 62.6484-76.7562Q55.8242-76.2825 49.2514-76.2825Q42.4694-76.2825 36.2637-77.3574Q30.058-78.4322 24.9558-81.1575Q19.8536-83.8829 16.3814-88.9634Q15.3947-90.3753 14.1399-90.1001Q12.8851-89.825 12.7637-88.4145Z"/>
  </g>
  <g id="Black-M" transform="matrix(1 0 0 1 2867.66 1126)">
   <path d="M10.3336-78.1835Q9.4651-74.4011 9.09388-69.6887Q8.72266-64.9763 8.72266-61.3806Q8.72266-46.7526 12.9375-34.8538Q17.1523-22.9549 25.0185-14.4313Q32.8847-5.90771 43.8545-1.32018Q54.8243 3.26735 68.2775 3.26735Q77.6962 3.26735 84.4442 0.887813Q91.1921-1.49172 95.7013-4.91397Q100.211-8.33622 102.875-11.521Q105.54-14.7058 106.793-16.2595L94.3871-17.6871Q98.714-13.1228 101.191-9.01289Q103.668-4.90298 105.294-0.496441Q106.92 3.91009 108.648 9.56355Q109.323 11.6512 110.816 12.7677Q112.309 13.8841 114.303 13.8841Q117.845 13.8841 120.298 11.194Q122.75 8.5038 122.75 4.57218Q122.75 1.85274 121.015-1.66956Q119.279-5.19185 116.648-8.78223Q114.016-12.3726 111.289-15.4673Q108.561-18.562 106.515-20.4265Q100.635-25.869 94.0328-28.7511Q87.4302-31.6333 80.6666-33.038Q73.9029-34.4427 67.5372-35.3883Q61.1714-36.3338 55.7653-37.7835Q50.3591-39.2331 46.409-42.205Q42.4588-45.1768 40.589-50.7824Q40.3253-51.6346 40.9-51.8662Q41.4747-52.0979 41.9226-51.5932Q46.2178-46.6128 51.0641-44.2444Q55.9103-41.8761 61.1481-41.0141Q66.3859-40.1521 71.8158-39.8331Q77.2458-39.514 82.74-38.7799Q88.2343-38.0457 93.6447-35.8501Q99.055-33.6545 104.231-28.9663Q106.461-26.9804 108.743-27.5917Q111.024-28.203 111.445-30.6031Q111.632-31.6557 111.754-33.2129Q111.876-34.77 111.876-36.6683Q111.876-48.8738 106.643-57.5634Q101.41-66.2531 91.6799-70.8967Q81.9499-75.5403 68.465-75.5403Q62.1377-75.5403 55.1539-74.3613Q48.1701-73.1822 42.634-73.1822Q38.9077-73.1822 34.9495-73.5568Q30.9914-73.9313 27.0866-75.5519Q23.1819-77.1724 19.5017-80.7957Q16.9645-83.3314 14.0786-82.5341Q11.1928-81.7369 10.3336-78.1835Z"/>
  </g>
  <g id="Heavy-M" transform="matrix(1 0 0 1 2571.97 1126)">
   <path d="M10.2938-77.5751Q9.45163-73.8101 9.08714-69.1647Q8.72266-64.5193 8.72266-61.0031Q8.72266-46.5976 12.8628-34.88Q17.0029-23.1624 24.7143-14.7623Q32.4256-6.3622 43.1941-1.83913Q53.9626 2.68394 67.1734 2.68394Q76.2712 2.68394 82.8349 0.403383Q89.3986-1.87718 93.8067-5.16767Q98.2148-8.45816 100.805-11.5351Q103.396-14.6119 104.547-16.1587L93.6351-17.2897Q97.6856-13.016 100.09-9.02852Q102.494-5.04104 104.122-0.691894Q105.75 3.65726 107.453 9.17318Q108.098 11.1749 109.5 12.1945Q110.902 13.2141 112.727 13.2141Q116.07 13.2141 118.395 10.6663Q120.721 8.11855 120.721 4.34795Q120.721 1.67218 119.025-1.77985Q117.329-5.23188 114.762-8.76033Q112.194-12.2888 109.522-15.327Q106.85-18.3652 104.839-20.2111Q99.0872-25.5332 92.611-28.3697Q86.1347-31.2063 79.4852-32.6152Q72.8356-34.0241 66.5573-34.9915Q60.279-35.9589 54.9248-37.44Q49.5706-38.9211 45.625-41.902Q41.6793-44.883 39.7551-50.4444Q39.4408-51.3993 40.1224-51.7416Q40.8039-52.0839 41.4302-51.4117Q45.6992-46.6193 50.4858-44.3395Q55.2725-42.0597 60.4209-41.2259Q65.5692-40.3921 70.9232-40.0503Q76.2771-39.7085 81.7072-38.922Q87.1374-38.1356 92.5183-35.8932Q97.8991-33.6508 103.096-28.9196Q105.094-27.1479 107.123-27.714Q109.153-28.2801 109.528-30.4224Q109.715-31.4742 109.83-33.0352Q109.946-34.5963 109.946-36.4315Q109.946-48.5718 104.74-57.0543Q99.5335-65.5368 89.9706-69.9995Q80.4076-74.4623 67.3557-74.4623Q61.1401-74.4623 54.2895-73.3315Q47.4389-72.2008 41.9425-72.2008Q38.1684-72.2008 34.1661-72.5987Q30.1638-72.9967 26.2346-74.6419Q22.3055-76.287 18.6636-79.9449Q16.3753-82.2446 13.7324-81.5657Q11.0896-80.8868 10.2938-77.5751Z"/>
  </g>
  <g id="Bold-M" transform="matrix(1 0 0 1 2276.39 1126)">
   <path d="M10.2494-76.8945Q9.43656-73.149 9.07961-68.5786Q8.72266-64.0082 8.72266-60.5808Q8.72266-46.4243 12.7792-34.9095Q16.8358-23.3946 24.3739-15.1326Q31.912-6.87061 42.4553-2.41965Q52.9985 2.03132 65.9382 2.03132Q74.6771 2.03132 81.0347-0.138523Q87.3923-2.30836 91.6873-5.45147Q95.9824-8.59458 98.4893-11.5508Q100.996-14.507 102.034-16.046L92.794-16.845Q96.5352-12.8965 98.8579-9.046Q101.181-5.19549 102.811-0.910537Q104.442 3.37442 106.116 8.73651Q106.729 10.6421 108.028 11.5533Q109.327 12.4645 110.963 12.4645Q114.083 12.4645 116.267 10.076Q118.451 7.68759 118.451 4.09712Q118.451 1.47021 116.799-1.90322Q115.148-5.27665 112.652-8.73583Q110.155-12.195 107.546-15.1701Q104.936-18.1452 102.963-19.9703Q97.3555-25.1574 91.0205-27.9431Q84.6855-30.7287 78.1636-32.1423Q71.6416-33.5559 65.4612-34.5477Q59.2808-35.5394 53.9847-37.0558Q48.6885-38.5721 44.748-41.5632Q40.8074-44.5542 38.8224-50.0662Q38.4513-51.136 39.2525-51.6021Q40.0536-52.0683 40.8795-51.2087Q45.119-46.6266 49.839-44.4458Q54.559-42.265 59.6073-41.4628Q64.6556-40.6605 69.9246-40.2933Q75.1935-39.926 80.5519-39.081Q85.9103-38.2361 91.2582-35.9414Q96.6061-33.6466 101.826-28.8674Q103.564-27.3352 105.311-27.8508Q107.059-28.3664 107.383-30.2202Q107.57-31.2712 107.678-32.8365Q107.786-34.4019 107.786-36.1667Q107.786-48.2339 102.61-56.4847Q97.4345-64.7355 88.0584-68.9959Q78.6824-73.2563 66.1149-73.2563Q60.024-73.2563 53.3225-72.1796Q46.621-71.1029 41.169-71.1029Q37.3413-71.1029 33.2896-71.527Q29.238-71.9511 25.2815-73.6238Q21.3251-75.2966 17.7261-78.9932Q15.7161-81.0288 13.3452-80.4823Q10.9742-79.9358 10.2494-76.8945Z"/>
  </g>
  <g id="Semibold-M" transform="matrix(1 0 0 1 1980.46 1126)">
   <path d="M10.2187-76.4253Q9.42616-72.6932 9.07441-68.1745Q8.72266-63.6558 8.72266-60.2897Q8.72266-46.3049 12.7216-34.9297Q16.7206-23.5546 24.1392-15.3879Q31.5579-7.22111 41.9459-2.81985Q52.3339 1.5814 65.0868 1.5814Q73.5782 1.5814 79.7937-0.512109Q86.0091-2.60562 90.2263-5.64712Q94.4434-8.68862 96.8928-11.5616Q99.3422-14.4346 100.302-15.9683L92.2141-16.5385Q95.7421-12.8141 98.0088-9.05806Q100.275-5.30197 101.907-1.06127Q103.54 3.17943 105.194 8.43546Q105.784 10.2747 107.013 11.1112Q108.242 11.9477 109.747 11.9477Q112.714 11.9477 114.8 9.6691Q116.886 7.39049 116.886 3.92419Q116.886 1.33097 115.265-1.98827Q113.644-5.30751 111.197-8.71893Q108.75-12.1304 106.183-15.0619Q103.617-17.9934 101.671-19.8042Q96.1616-24.8984 89.924-27.6489Q83.6864-30.3994 77.2525-31.8163Q70.8185-33.2331 64.7055-34.2417Q58.5926-35.2503 53.3365-36.7909Q48.0804-38.3315 44.1434-41.3296Q40.2063-44.3276 38.1793-49.8055Q37.7692-50.9545 38.6528-51.506Q39.5363-52.0576 40.4998-51.0687Q44.7191-46.6316 49.3931-44.519Q54.0671-42.4065 59.0464-41.6261Q64.0258-40.8456 69.2361-40.4608Q74.4465-40.0759 79.7555-39.1907Q85.0644-38.3055 90.3895-35.9746Q95.7146-33.6438 100.951-28.8313Q102.509-27.4644 104.062-27.9451Q105.615-28.4259 105.905-30.0808Q106.092-31.1312 106.194-32.6995Q106.297-34.2678 106.297-35.9841Q106.297-48.001 101.142-56.0921Q95.9875-64.1831 86.7402-68.304Q77.493-72.425 65.2595-72.425Q59.2546-72.425 52.6559-71.3855Q46.0572-70.3461 40.6358-70.3461Q36.7712-70.3461 32.6854-70.7882Q28.5997-71.2303 24.6245-72.922Q20.6492-74.6138 17.0798-78.3371Q15.2617-80.1907 13.0782-79.7355Q10.8947-79.2802 10.2187-76.4253Z"/>
  </g>
  <g id="Medium-M" transform="matrix(1 0 0 1 1684.34 1126)">
   <path d="M10.1955-76.0695Q9.41829-72.3476 9.07047-67.8681Q8.72266-63.3886 8.72266-60.069Q8.72266-46.2143 12.6779-34.9451Q16.6332-23.6759 23.9613-15.5814Q31.2894-7.48687 41.5597-3.1233Q51.83 1.24026 64.4411 1.24026Q72.7449 1.24026 78.8526-0.795378Q84.9604-2.83101 89.1184-5.79547Q93.2764-8.75993 95.6822-11.5698Q98.0881-14.3797 98.988-15.9094L91.7745-16.3061Q95.1408-12.7517 97.3649-9.06719Q99.589-5.3827 101.222-1.17556Q102.855 3.03159 104.495 8.2072Q105.068 9.9962 106.244 10.776Q107.419 11.5559 108.825 11.5559Q111.676 11.5559 113.687 9.36055Q115.699 7.16521 115.699 3.79308Q115.699 1.22539 114.101-2.05276Q112.504-5.33091 110.094-8.70613Q107.684-12.0813 105.15-14.9799Q102.616-17.8784 100.69-19.6783Q95.2564-24.702 89.0926-27.4259Q82.9289-30.1498 76.5616-31.569Q70.1943-32.9883 64.1326-34.0097Q58.0708-35.031 52.8451-36.5901Q47.6194-38.1491 43.6849-41.1524Q39.7505-44.1558 37.6917-49.6078Q37.252-50.8168 38.1981-51.4331Q39.1441-52.0494 40.2119-50.9626Q44.4158-46.6354 49.055-44.5746Q53.6942-42.5138 58.6212-41.7499Q63.5482-40.9859 68.7141-40.5878Q73.8801-40.1896 79.1515-39.2738Q84.423-38.358 89.7309-35.9998Q95.0387-33.6416 100.288-28.804Q101.709-27.5623 103.115-28.0166Q104.521-28.471 104.784-29.9751Q104.971-31.0251 105.069-32.5957Q105.168-34.1662 105.168-35.8456Q105.168-47.8244 100.029-55.7943Q94.8903-63.7643 85.7407-67.7794Q76.5911-71.7946 64.6108-71.7946Q58.6713-71.7946 52.1504-70.7834Q45.6296-69.7722 40.2315-69.7722Q36.3389-69.7722 32.2273-70.228Q28.1158-70.6838 24.1263-72.3899Q20.1368-74.096 16.5897-77.8396Q14.9172-79.5552 12.8758-79.1692Q10.8343-78.7831 10.1955-76.0695Z"/>
  </g>
  <g id="Regular-M" transform="matrix(1 0 0 1 1388.41 1126)">
   <path d="M10.1651-75.6055Q9.40801-71.8968 9.06533-67.4684Q8.72266-63.04 8.72266-59.7811Q8.72266-46.0961 12.6209-34.9652Q16.5192-23.8342 23.7292-15.8339Q30.9393-7.83351 41.056-3.51911Q51.1727 0.795287 63.599 0.795287Q71.6581 0.795287 77.6252-1.16486Q83.5924-3.125 87.6734-5.98897Q91.7543-8.85294 94.1033-11.5805Q96.4522-14.3081 97.2748-15.8325L91.201-16.0029Q94.3564-12.6702 96.5251-9.07911Q98.6937-5.48801 100.328-1.32463Q101.963 2.83874 103.584 7.90946Q104.134 9.6329 105.24 10.3389Q106.346 11.0448 107.622 11.0448Q110.322 11.0448 112.236 8.95809Q114.151 6.87138 114.151 3.62205Q114.151 1.08768 112.584-2.13688Q111.016-5.36144 108.655-8.68942Q106.294-12.0174 103.803-14.8729Q101.311-17.7283 99.4118-19.5141Q94.0756-24.4458 88.0082-27.135Q81.9408-29.8241 75.6605-31.2466Q69.3803-32.669 63.3852-33.707Q57.3901-34.745 52.204-36.3281Q47.018-37.9111 43.087-40.9214Q39.156-43.9316 37.0557-49.35Q36.5774-50.6373 37.605-51.338Q38.6325-52.0388 39.8364-50.8242Q44.0203-46.6403 48.614-44.6471Q53.2077-42.6538 58.0665-41.9114Q62.9253-41.169 68.0333-40.7534Q73.1413-40.3379 78.3638-39.3822Q83.5864-38.4266 88.8717-36.0327Q94.1571-33.6388 99.4222-28.7684Q100.666-27.69 101.88-28.1099Q103.093-28.5298 103.321-29.8372Q103.508-30.8867 103.602-32.4602Q103.695-34.0337 103.695-35.665Q103.695-47.594 98.5772-55.406Q93.4591-63.2179 84.437-67.0951Q75.4148-70.9723 63.7648-70.9723Q57.9103-70.9723 51.4911-69.998Q45.072-69.0237 39.7041-69.0237Q35.775-69.0237 31.6298-69.4973Q27.4845-69.9709 23.4764-71.6958Q19.4683-73.4207 15.9505-77.1907Q14.4678-78.7263 12.6117-78.4305Q10.7557-78.1348 10.1651-75.6055Z"/>
  </g>
  <g id="Light-M" transform="matrix(1 0 0 1 1092.85 1126)">
   <path d="M10.0795-75.8622Q9.40801-71.9994 9.06533-67.6139Q8.72266-63.2283 8.72266-60.1404Q8.72266-46.5923 12.5268-35.5469Q16.3309-24.5014 23.3613-16.561Q30.3916-8.62064 40.2431-4.33183Q50.0947-0.0430174 62.1616-0.0430174Q69.2455-0.0430174 74.8362-1.74658Q80.4269-3.45015 84.5079-6.10871Q88.5888-8.76726 91.1601-11.6745Q93.7314-14.5818 94.7765-16.9618L89.8662-16.4991Q92.8848-13.2179 94.8824-9.81493Q96.88-6.41198 98.4376-2.31703Q99.9953 1.77793 101.719 7.19075Q102.252 8.87998 103.332 9.56883Q104.412 10.2577 105.638 10.2577Q108.268 10.2577 110.055 8.22228Q111.841 6.18688 111.841 3.02322Q111.841 0.420426 110.359-2.82986Q108.878-6.08015 106.628-9.39951Q104.378-12.7189 101.989-15.5572Q99.6004-18.3956 97.7521-20.1471Q92.5528-24.9935 86.6993-27.6484Q80.8458-30.3034 74.7879-31.7087Q68.73-33.1141 62.9146-34.1177Q57.0992-35.1214 51.9902-36.6446Q46.8811-38.1679 42.8902-41.0584Q38.8992-43.9489 36.5253-49.1617Q35.9786-50.4148 36.9548-51.0899Q37.931-51.7651 39.0665-50.6017Q43.1647-46.5035 47.6301-44.5615Q52.0954-42.6196 56.8516-41.8857Q61.6077-41.1517 66.6131-40.7191Q71.6185-40.2864 76.7726-39.2966Q81.9267-38.3067 87.195-35.8701Q92.4632-33.4335 97.7795-28.5458Q98.8184-27.6386 99.8779-27.9815Q100.937-28.3245 101.131-29.5293Q101.318-30.6642 101.412-32.2634Q101.505-33.8626 101.505-35.6136Q101.505-47.2861 96.524-54.8842Q91.5428-62.4823 82.6917-66.2311Q73.8406-69.9799 62.2932-69.9799Q56.6442-69.9799 50.5758-69.1938Q44.5073-68.4076 39.2249-68.4076Q34.8852-68.4076 30.5347-68.9925Q26.1842-69.5773 22.1932-71.422Q18.2022-73.2666 14.9408-77.0881Q13.6806-78.4868 12.0984-78.2166Q10.5162-77.9465 10.0795-75.8622Z"/>
  </g>
  <g id="Thin-M" transform="matrix(1 0 0 1 797.668 1126)">
   <path d="M9.96617-76.2017Q9.40801-72.1352 9.06533-67.8063Q8.72266-63.4774 8.72266-60.6157Q8.72266-47.2486 12.4023-36.3163Q16.0819-25.3839 22.8746-17.5228Q29.6673-9.66169 39.1681-5.40672Q48.6688-1.15174 60.2605-1.15174Q66.0547-1.15174 71.1475-2.51596Q76.2403-3.88018 80.3213-6.26707Q84.4022-8.65396 87.2676-11.7989Q90.133-14.9438 91.4724-18.4553L88.1008-17.1554Q90.9384-13.9422 92.7098-10.7881Q94.4812-7.63401 95.9369-3.62955Q97.3927 0.37491 99.252 6.2402Q99.7629 7.88418 100.809 8.5504Q101.855 9.21663 103.013 9.21663Q105.553 9.21663 107.169 7.2491Q108.786 5.28157 108.786 2.23122Q108.786-0.462068 107.417-3.74638Q106.049-7.0307 103.946-10.3387Q101.843-13.6466 99.5901-16.4623Q97.3373-19.2781 95.5571-20.9844Q90.5388-25.7178 84.9682-28.3275Q79.3975-30.9372 73.6337-32.3199Q67.8699-33.7027 62.2922-34.6609Q56.7144-35.6191 51.7073-37.0632Q46.7001-38.5074 42.6299-41.2395Q38.5597-43.9717 35.8238-48.9127Q35.1866-50.1205 36.0949-50.7618Q37.0033-51.4031 38.0483-50.3074Q42.0332-46.3225 46.3288-44.4484Q50.6243-42.5744 55.2448-41.8516Q59.8652-41.1289 64.7348-40.6736Q69.6044-40.2184 74.6681-39.1833Q79.7317-38.1481 84.9773-35.6551Q90.223-33.162 95.607-28.2516Q96.3744-27.5705 97.2303-27.8118Q98.0862-28.053 98.2348-29.1221Q98.4218-30.3699 98.5152-32.0032Q98.6087-33.6364 98.6087-35.5455Q98.6087-46.8789 93.8084-54.1941Q89.0082-61.5093 80.3833-65.0884Q71.7585-68.6674 60.3468-68.6674Q54.9697-68.6674 49.3652-68.1301Q43.7606-67.5928 38.591-67.5928Q33.7084-67.5928 29.0865-68.3248Q24.4645-69.0568 20.4961-71.0598Q16.5277-73.0628 13.6055-76.9523Q12.6396-78.1701 11.4195-77.9337Q10.1995-77.6974 9.96617-76.2017Z"/>
  </g>
  <g id="Ultralight-M" transform="matrix(1 0 0 1 501.739 1126)">
   <path d="M9.90813-76.3756Q9.40801-72.2047 9.06533-67.9048Q8.72266-63.6049 8.72266-60.8591Q8.72266-47.5847 12.3385-36.7103Q15.9543-25.836 22.6253-18.0154Q29.2963-10.1949 38.6174-5.95727Q47.9385-1.71963 59.2867-1.71963Q64.4203-1.71963 69.2581-2.91003Q74.0959-4.10044 78.1769-6.34818Q82.2579-8.59592 85.2739-11.8625Q88.2899-15.1292 89.78-19.2203L87.1966-17.4915Q89.9415-14.3132 91.597-11.2866Q93.2525-8.25993 94.6561-4.30182Q96.0597-0.343708 97.9885 5.75333Q98.4879 7.37413 99.5163 8.02877Q100.545 8.68341 101.668 8.68341Q104.162 8.68341 105.692 6.75064Q107.221 4.81788 107.221 1.82556Q107.221-0.914077 105.91-4.21582Q104.6-7.51757 102.572-10.8197Q100.545-14.1218 98.3615-16.9259Q96.1782-19.7301 94.4328-21.4132Q89.5072-26.0888 84.0815-28.6753Q78.6557-31.2618 73.0426-32.633Q67.4294-34.0041 61.9734-34.9391Q56.5173-35.874 51.5624-37.2776Q46.6074-38.6813 42.4966-41.3323Q38.3858-43.9834 35.4645-48.7851Q34.7809-49.9698 35.6545-50.5937Q36.5281-51.2177 37.5268-50.1567Q41.4536-46.2298 45.6622-44.3905Q49.8709-42.5512 54.4218-41.8342Q58.9726-41.1172 63.7728-40.6504Q68.5729-40.1835 73.5902-39.1252Q78.6074-38.0669 83.8415-35.5449Q89.0755-33.023 94.4942-28.1008Q95.1225-27.5357 95.8741-27.7248Q96.6258-27.914 96.7513-28.9135Q96.9382-30.2192 97.0316-31.8699Q97.1251-33.5205 97.1251-35.5107Q97.1251-46.6703 92.4176-53.8406Q87.71-61.0109 79.201-64.503Q70.692-67.9952 59.3499-67.9952Q54.1121-67.9952 48.7451-67.5853Q43.3781-67.1755 38.2664-67.1755Q33.1057-67.1755 28.3447-67.9828Q23.5837-68.7902 19.6269-70.8743Q15.6701-72.9584 12.9215-76.8828Q12.1064-78.0078 11.0718-77.7888Q10.0372-77.5699 9.90813-76.3756Z"/>
  </g>
  <g id="Black-S" transform="matrix(1 0 0 1 2881.64 696)">
   <path d="M8.10547-69.0918Q7.42188-66.1133 7.12891-62.4023Q6.83594-58.6914 6.83594-55.8594Q6.83594-44.3359 10.1562-34.9609Q13.4766-25.5859 19.6777-18.8721Q25.8789-12.1582 34.5215-8.54492Q43.1641-4.93164 53.7598-4.93164Q61.1816-4.93164 66.5039-6.81152Q71.8262-8.69141 75.3906-11.4014Q78.9551-14.1113 81.0791-16.6504Q83.2031-19.1895 84.2285-20.459L74.1211-21.6309Q77.5879-17.9688 79.541-14.7217Q81.4941-11.4746 82.7637-8.00781Q84.0332-4.54102 85.4004-0.0488281Q85.9375 1.61133 87.1338 2.51465Q88.3301 3.41797 89.9414 3.41797Q92.7734 3.41797 94.7266 1.26953Q96.6797-0.878906 96.6797-4.00391Q96.6797-6.15234 95.3125-8.93555Q93.9453-11.7188 91.8701-14.5508Q89.7949-17.3828 87.6465-19.8242Q85.498-22.2656 83.8867-23.7305Q79.248-28.0273 74.0479-30.2979Q68.8477-32.5684 63.5254-33.667Q58.2031-34.7656 53.1982-35.498Q48.1934-36.2305 43.9453-37.3535Q39.6973-38.4766 36.5967-40.7959Q33.4961-43.1152 32.0312-47.5098Q31.8359-48.1445 32.251-48.291Q32.666-48.4375 32.959-48.0957Q36.3281-44.1406 40.1367-42.2607Q43.9453-40.3809 48.0713-39.6973Q52.1973-39.0137 56.4697-38.7695Q60.7422-38.5254 65.0635-37.9639Q69.3848-37.4023 73.6328-35.6934Q77.8809-33.9844 81.9336-30.3223Q83.7402-28.7109 85.5957-29.1992Q87.4512-29.6875 87.793-31.6406Q87.9395-32.4707 88.0371-33.6914Q88.1348-34.9121 88.1348-36.4258Q88.1348-45.9961 84.0332-52.8564Q79.9316-59.7168 72.2656-63.4033Q64.5996-67.0898 53.9062-67.0898Q48.9258-67.0898 43.4326-66.1621Q37.9395-65.2344 33.5938-65.2344Q30.6641-65.2344 27.5635-65.5273Q24.4629-65.8203 21.4111-67.0898Q18.3594-68.3594 15.4785-71.1914Q13.4277-73.2422 11.1084-72.583Q8.78906-71.9238 8.10547-69.0918Z"/>
  </g>
  <g id="Heavy-S" transform="matrix(1 0 0 1 2585.65 696)">
   <path d="M8.08242-68.5386Q7.41035-65.5947 7.12314-61.9356Q6.83594-58.2765 6.83594-55.4906Q6.83594-44.14 10.1044-34.9091Q13.3728-25.6781 19.4645-19.0622Q25.5562-12.4463 34.0605-8.88489Q42.5648-5.32347 52.9992-5.32347Q60.2712-5.32347 65.484-7.1515Q70.6968-8.97952 74.1748-11.603Q77.6528-14.2266 79.6846-16.6504Q81.7165-19.0742 82.6266-20.2285L73.6486-21.2275Q76.8964-17.8074 78.8092-14.641Q80.722-11.4746 82.0031-8.04815Q83.2841-4.62169 84.6167-0.290842Q85.1308 1.30017 86.2522 2.12282Q87.3735 2.94547 88.8466 2.94547Q91.5173 2.94547 93.3782 0.912273Q95.2391-1.12092 95.2391-4.11915Q95.2391-6.22149 93.895-8.94131Q92.5509-11.6611 90.516-14.4413Q88.4811-17.2215 86.3673-19.6168Q84.2534-22.0121 82.6651-23.4654Q78.1186-27.6701 72.9991-29.906Q67.8796-32.142 62.6265-33.2463Q57.3734-34.3507 52.4203-35.1062Q47.4673-35.8617 43.2538-37.0193Q39.0404-38.1769 35.9513-40.5193Q32.8622-42.8617 31.3859-47.2447Q31.156-47.9717 31.669-48.2161Q32.182-48.4605 32.6363-47.9689Q35.9939-44.1637 39.7679-42.3529Q43.542-40.5422 47.6045-39.8817Q51.6671-39.2211 55.8877-38.9597Q60.1083-38.6983 64.3835-38.0964Q68.6587-37.4945 72.8837-35.751Q77.1087-34.0074 81.173-30.3107Q82.8068-28.8608 84.4663-29.3202Q86.1259-29.7797 86.4331-31.5254Q86.5796-32.3439 86.6715-33.5646Q86.7634-34.7853 86.7634-36.2299Q86.7634-45.7771 82.6676-52.4877Q78.5718-59.1982 71.0267-62.7464Q63.4817-66.2947 53.1456-66.2947Q48.2343-66.2947 42.8103-65.3842Q37.3863-64.4738 33.0636-64.4738Q30.1455-64.4738 27.0334-64.7725Q23.9212-65.0712 20.8464-66.3465Q17.7716-67.6218 14.8908-70.4769Q13.0244-72.3433 10.8779-71.7821Q8.73144-71.2208 8.08242-68.5386Z"/>
  </g>
  <g id="Bold-S" transform="matrix(1 0 0 1 2289.75 696)">
   <path d="M8.05664-67.9199Q7.39746-65.0146 7.1167-61.4136Q6.83594-57.8125 6.83594-55.0781Q6.83594-43.9209 10.0464-34.8511Q13.2568-25.7812 19.2261-19.2749Q25.1953-12.7686 33.5449-9.26514Q41.8945-5.76172 52.1484-5.76172Q59.2529-5.76172 64.3433-7.53174Q69.4336-9.30176 72.8149-11.8286Q76.1963-14.3555 78.125-16.6504Q80.0537-18.9453 80.835-19.9707L73.1201-20.7764Q76.123-17.627 77.9907-14.5508Q79.8584-11.4746 81.1523-8.09326Q82.4463-4.71191 83.7402-0.561523Q84.2285 0.952148 85.2661 1.68457Q86.3037 2.41699 87.6221 2.41699Q90.1123 2.41699 91.8701 0.512695Q93.6279-1.3916 93.6279-4.24805Q93.6279-6.29883 92.3096-8.94775Q90.9912-11.5967 89.0015-14.3188Q87.0117-17.041 84.9365-19.3848Q82.8613-21.7285 81.2988-23.1689Q76.8555-27.2705 71.8262-29.4678Q66.7969-31.665 61.6211-32.7759Q56.4453-33.8867 51.5503-34.668Q46.6553-35.4492 42.4805-36.6455Q38.3057-37.8418 35.2295-40.21Q32.1533-42.5781 30.6641-46.9482Q30.3955-47.7783 31.0181-48.1323Q31.6406-48.4863 32.2754-47.8271Q35.6201-44.1895 39.3555-42.4561Q43.0908-40.7227 47.0825-40.0879Q51.0742-39.4531 55.2368-39.1724Q59.3994-38.8916 63.623-38.2446Q67.8467-37.5977 72.0459-35.8154Q76.2451-34.0332 80.3223-30.2979Q81.7627-29.0283 83.2031-29.4556Q84.6436-29.8828 84.9121-31.3965Q85.0586-32.2021 85.144-33.4229Q85.2295-34.6436 85.2295-36.0107Q85.2295-45.5322 81.1401-52.0752Q77.0508-58.6182 69.6411-62.0117Q62.2314-65.4053 52.2949-65.4053Q47.4609-65.4053 42.1143-64.5142Q36.7676-63.623 32.4707-63.623Q29.5654-63.623 26.4404-63.9282Q23.3154-64.2334 20.2148-65.5151Q17.1143-66.7969 14.2334-69.6777Q12.5732-71.3379 10.6201-70.8862Q8.66699-70.4346 8.05664-67.9199Z"/>
  </g>
  <g id="Semibold-S" transform="matrix(1 0 0 1 1993.59 696)">
   <path d="M8.03887-67.4934Q7.38857-64.6147 7.11226-61.0537Q6.83594-57.4926 6.83594-54.7938Q6.83594-43.7698 10.0064-34.8111Q13.1769-25.8523 19.0617-19.4215Q24.9465-12.9907 33.1895-9.52729Q41.4324-6.06387 51.5619-6.06387Q58.5509-6.06387 63.5568-7.7939Q68.5627-9.52393 71.8774-11.9841Q75.1921-14.4443 77.0497-16.6504Q78.9073-18.8564 79.5997-19.793L72.7558-20.4653Q75.5898-17.5025 77.4264-14.4886Q79.263-11.4746 80.5658-8.12437Q81.8687-4.77412 83.1359-0.748145Q83.6064 0.712207 84.5863 1.38242Q85.5661 2.05264 86.7778 2.05264Q89.1437 2.05264 90.8304 0.237207Q92.5171-1.57822 92.5171-4.33691Q92.5171-6.35215 91.2165-8.9522Q89.9159-11.5522 87.9573-14.2344Q85.9986-16.9166 83.9501-19.2248Q81.9016-21.533 80.3568-22.9646Q75.9846-26.995 71.0175-29.1656Q66.0504-31.3362 60.9279-32.4515Q55.8055-33.5668 50.9504-34.3658Q46.0954-35.1648 41.9473-36.3878Q37.7991-37.6107 34.7318-39.9967Q31.6646-42.3826 30.1664-46.7438Q29.8712-47.645 30.5693-48.0746Q31.2674-48.5041 32.0266-47.7294Q35.3624-44.2072 39.0711-42.5271Q42.7798-40.8471 46.7226-40.2301Q50.6654-39.6131 54.788-39.319Q58.9106-39.0249 63.0987-38.3468Q67.2868-37.6688 71.4683-35.8599Q75.6497-34.051 79.7357-30.289Q81.0429-29.1438 82.3322-29.5489Q83.6216-29.9539 83.8635-31.3076Q84.01-32.1044 84.091-33.3251Q84.172-34.5458 84.172-35.8597Q84.172-45.3634 80.0871-51.7908Q76.0021-58.2183 68.6858-61.5052Q61.3694-64.7921 51.7084-64.7921Q46.9277-64.7921 41.6344-63.9143Q36.341-63.0365 32.0619-63.0365Q29.1655-63.0365 26.0316-63.3461Q22.8978-63.6558 19.7794-64.9419Q16.661-66.2281 13.7802-69.1268Q12.2622-70.6447 10.4424-70.2686Q8.62256-69.8925 8.03887-67.4934Z"/>
  </g>
  <g id="Medium-S" transform="matrix(1 0 0 1 1697.3 696)">
   <path d="M8.02539-67.1699Q7.38184-64.3115 7.10889-60.7808Q6.83594-57.25 6.83594-54.5781Q6.83594-43.6553 9.97607-34.7808Q13.1162-25.9062 18.937-19.5327Q24.7578-13.1592 32.9199-9.72607Q41.082-6.29297 51.1172-6.29297Q58.0186-6.29297 62.9604-7.99268Q67.9023-9.69238 71.1665-12.1021Q74.4307-14.5117 76.2344-16.6504Q78.0381-18.7891 78.6631-19.6582L72.4795-20.2295Q75.1855-17.4082 76.9985-14.4414Q78.8115-11.4746 80.1211-8.14795Q81.4307-4.82129 82.6777-0.889648Q83.1348 0.530273 84.0708 1.15332Q85.0068 1.77637 86.1377 1.77637Q88.4092 1.77637 90.042 0.0283203Q91.6748-1.71973 91.6748-4.4043Q91.6748-6.39258 90.3877-8.95557Q89.1006-11.5186 87.1655-14.1704Q85.2305-16.8223 83.2021-19.1035Q81.1738-21.3848 79.6426-22.8096Q75.3242-26.7861 70.4043-28.9365Q65.4844-31.0869 60.4023-32.2056Q55.3203-33.3242 50.4956-34.1367Q45.6709-34.9492 41.543-36.1924Q37.415-37.4355 34.3545-39.835Q31.2939-42.2344 29.7891-46.5889Q29.4736-47.5439 30.229-48.0308Q30.9844-48.5176 31.8379-47.6553Q35.167-44.2207 38.8555-42.5811Q42.5439-40.9414 46.4497-40.3379Q50.3555-39.7344 54.4478-39.4302Q58.54-39.126 62.7012-38.4243Q66.8623-37.7227 71.0303-35.8936Q75.1982-34.0645 79.291-30.2822Q80.4971-29.2314 81.6719-29.6196Q82.8467-30.0078 83.0684-31.2402Q83.2148-32.0303 83.2925-33.251Q83.3701-34.4717 83.3701-35.7451Q83.3701-45.2354 79.2886-51.5752Q75.207-57.915 67.9614-61.1211Q60.7158-64.3271 51.2637-64.3271Q46.5234-64.3271 41.2705-63.4595Q36.0176-62.5918 31.752-62.5918Q28.8623-62.5918 25.7217-62.9048Q22.5811-63.2178 19.4492-64.5073Q16.3174-65.7969 13.4365-68.709Q12.0264-70.1191 10.3076-69.8003Q8.58887-69.4814 8.02539-67.1699Z"/>
  </g>
  <g id="Regular-S" transform="matrix(1 0 0 1 1401.14 696)">
   <path d="M8.00781-66.748Q7.37305-63.916 7.10449-60.4248Q6.83594-56.9336 6.83594-54.2969Q6.83594-43.5059 9.93652-34.7412Q13.0371-25.9766 18.7744-19.6777Q24.5117-13.3789 32.5684-9.98535Q40.625-6.5918 50.5371-6.5918Q57.3242-6.5918 62.1826-8.25195Q67.041-9.91211 70.2393-12.2559Q73.4375-14.5996 75.1709-16.6504Q76.9043-18.7012 77.4414-19.4824L72.1191-19.9219Q74.6582-17.2852 76.4404-14.3799Q78.2227-11.4746 79.541-8.17871Q80.8594-4.88281 82.0801-1.07422Q82.5195 0.292969 83.3984 0.854492Q84.2773 1.41602 85.3027 1.41602Q87.4512 1.41602 89.0137-0.244141Q90.5762-1.9043 90.5762-4.49219Q90.5762-6.44531 89.3066-8.95996Q88.0371-11.4746 86.1328-14.0869Q84.2285-16.6992 82.2266-18.9453Q80.2246-21.1914 78.7109-22.6074Q74.4629-26.5137 69.6045-28.6377Q64.7461-30.7617 59.7168-31.8848Q54.6875-33.0078 49.9023-33.8379Q45.1172-34.668 41.0156-35.9375Q36.9141-37.207 33.8623-39.624Q30.8105-42.041 29.2969-46.3867Q28.9551-47.4121 29.7852-47.9736Q30.6152-48.5352 31.5918-47.5586Q34.9121-44.2383 38.5742-42.6514Q42.2363-41.0645 46.0938-40.4785Q49.9512-39.8926 54.0039-39.5752Q58.0566-39.2578 62.1826-38.5254Q66.3086-37.793 70.459-35.9375Q74.6094-34.082 78.7109-30.2734Q79.7852-29.3457 80.8105-29.7119Q81.8359-30.0781 82.0312-31.1523Q82.1777-31.9336 82.251-33.1543Q82.3242-34.375 82.3242-35.5957Q82.3242-45.0684 78.2471-51.2939Q74.1699-57.5195 67.0166-60.6201Q59.8633-63.7207 50.6836-63.7207Q45.9961-63.7207 40.7959-62.8662Q35.5957-62.0117 31.3477-62.0117Q28.4668-62.0117 25.3174-62.3291Q22.168-62.6465 19.0186-63.9404Q15.8691-65.2344 12.9883-68.1641Q11.7188-69.4336 10.1318-69.1895Q8.54492-68.9453 8.00781-66.748Z"/>
  </g>
  <g id="Light-S" transform="matrix(1 0 0 1 1105.45 696)">
   <path d="M7.93203-66.9751Q7.37305-64.0068 7.10449-60.5535Q6.83594-57.1002 6.83594-54.6148Q6.83594-43.9448 9.85324-35.2558Q12.8705-26.5668 18.4489-20.321Q24.0273-14.0752 31.8493-10.7043Q39.6713-7.33337 49.2655-7.33337Q55.19-7.33337 59.7154-8.76656Q64.2408-10.1997 67.439-12.3618Q70.6373-14.5238 72.5674-16.7336Q74.4975-18.9433 75.2314-20.4814L70.9384-20.3608Q73.3564-17.7696 74.9873-15.0308Q76.6182-12.292 77.8684-9.0566Q79.1186-5.82123 80.4301-1.71Q80.8545-0.373077 81.7107 0.173314Q82.5668 0.719706 83.547 0.719706Q85.6349 0.719706 87.0838-0.895055Q88.5328-2.50982 88.5328-5.02192Q88.5328-7.03557 87.3389-9.57298Q86.145-12.1104 84.3391-14.7151Q82.5333-17.3197 80.6221-19.5507Q78.7109-21.7817 77.2428-23.1674Q73.1158-26.9981 68.4466-29.0919Q63.7774-31.1857 58.9448-32.2936Q54.1122-33.4015 49.486-34.2012Q44.8598-35.0009 40.8264-36.2175Q36.793-37.4341 33.6882-39.7452Q30.5834-42.0563 28.8277-46.2201Q28.4253-47.2153 29.21-47.7542Q29.9947-48.2931 30.9107-47.3618Q34.1553-44.1172 37.7038-42.5757Q41.2524-41.0342 45.019-40.4558Q48.7857-39.8773 52.7476-39.5448Q56.7095-39.2123 60.775-38.4496Q64.8404-37.6869 68.9757-35.7937Q73.111-33.9005 77.2578-30.0766Q78.1504-29.3002 79.0396-29.5984Q79.9288-29.8965 80.0939-30.88Q80.2404-31.7368 80.3136-32.9802Q80.3869-34.2237 80.3869-35.5502Q80.3869-44.796 76.4308-50.8324Q72.4747-56.8687 65.4727-59.8558Q58.4707-62.8428 49.3818-62.8428Q44.8761-62.8428 39.9862-62.1548Q35.0962-61.4667 30.9237-61.4667Q27.6797-61.4667 24.3487-61.8825Q21.0177-62.2983 17.8834-63.6982Q14.7491-65.0981 12.0951-68.0733Q11.0224-69.2218 9.67776-69.0002Q8.33308-68.7787 7.93203-66.9751Z"/>
  </g>
  <g id="Thin-S" transform="matrix(1 0 0 1 810.089 696)">
   <path d="M7.83179-67.2755Q7.37305-64.1269 7.10449-60.7237Q6.83594-57.3205 6.83594-55.0352Q6.83594-44.5253 9.74308-35.9364Q12.6502-27.3475 18.0184-21.1718Q23.3865-14.9961 30.8983-11.6552Q38.41-8.31417 47.5838-8.31417Q52.3674-8.31417 56.4523-9.44716Q60.5372-10.5801 63.7355-12.5019Q66.9337-14.4236 69.124-16.8435Q71.3143-19.2635 72.3085-21.8025L69.3767-20.9414Q71.6346-18.4104 73.0654-15.8917Q74.4962-13.373 75.6562-10.2177Q76.8163-7.06236 78.2479-2.55088Q78.6525-1.25398 79.4785-0.727598Q80.3045-0.201219 81.2248-0.201219Q83.2327-0.201219 84.5314-1.75594Q85.8302-3.31067 85.8302-5.72254Q85.8302-7.81624 84.7364-10.3838Q83.6426-12.9513 81.9669-15.5459Q80.2912-18.1404 78.5001-20.3514Q76.709-22.5623 75.301-23.9081Q71.3341-27.6389 66.9152-29.6926Q62.4963-31.7464 57.9238-32.8343Q53.3514-33.9222 48.9354-34.6817Q44.5194-35.4411 40.5762-36.5878Q36.6329-37.7345 33.458-39.9055Q30.2831-42.0765 28.2071-45.9998Q27.7247-46.9549 28.4494-47.4639Q29.174-47.9728 30.01-47.1014Q33.1543-43.9571 36.5527-42.4756Q39.9511-40.9942 43.5976-40.4257Q47.2442-39.8571 51.086-39.5046Q54.9279-39.1521 58.9133-38.3494Q62.8987-37.5467 67.0139-35.6035Q71.1292-33.6603 75.3359-29.8163Q75.9884-29.24 76.6975-29.4482Q77.4066-29.6564 77.5316-30.5197Q77.6781-31.4764 77.7513-32.75Q77.8245-34.0236 77.8245-35.49Q77.8245-44.4358 74.0286-50.2219Q70.2326-56.008 63.4307-58.8449Q56.6288-61.6817 47.66-61.6817Q43.3948-61.6817 38.9152-61.2138Q34.4356-60.7459 30.363-60.7459Q26.6387-60.7459 23.0675-61.2919Q19.4964-61.8379 16.3821-63.3778Q13.2679-64.9178 10.9139-67.9532Q10.1015-68.9416 9.07721-68.75Q8.0529-68.5584 7.83179-67.2755Z"/>
  </g>
  <g id="Ultralight-S" transform="matrix(1 0 0 1 514.07 696)">
   <path d="M7.78046-67.4294Q7.37305-64.1884 7.10449-60.8109Q6.83594-57.4333 6.83594-55.2505Q6.83594-44.8227 9.68666-36.285Q12.5374-27.7473 17.7979-21.6076Q23.0583-15.4678 30.4111-12.1422Q37.764-8.81653 46.7224-8.81653Q50.9216-8.81653 54.781-9.79576Q58.6403-10.775 61.8385-12.5736Q65.0368-14.3723 67.3603-16.8999Q69.6838-19.4275 70.8115-22.4792L68.5768-21.2387Q70.7527-18.7386 72.081-16.3326Q73.4093-13.9267 74.5232-10.8124Q75.6371-7.69806 77.1301-2.98157Q77.5246-1.70517 78.3352-1.18904Q79.1458-0.672913 80.0354-0.672913Q82.0023-0.672913 83.2241-2.19688Q84.446-3.72086 84.446-6.08139Q84.446-8.21609 83.4034-10.799Q82.3608-13.382 80.7518-15.9714Q79.1428-18.5608 77.4132-20.7615Q75.6836-22.9622 74.3065-24.2874Q70.4216-27.9671 66.1308-30.0003Q61.8401-32.0335 57.4009-33.1112Q52.9617-34.1888 48.6534-34.9277Q44.3451-35.6667 40.448-36.7775Q36.5509-37.8883 33.3401-39.9876Q30.1292-42.0868 27.8893-45.887Q27.3659-46.8216 28.0598-47.3152Q28.7537-47.8088 29.5486-46.9681Q32.6416-43.8751 35.9631-42.4244Q39.2845-40.9737 42.8696-40.4102Q46.4546-39.8468 50.235-39.484Q54.0154-39.1212 57.9597-38.298Q61.9041-37.4748 66.0091-35.5061Q70.1141-33.5373 74.3515-29.6829Q74.881-29.2091 75.4978-29.3713Q76.1147-29.5334 76.2192-30.3352Q76.3657-31.3431 76.4389-32.6321Q76.5121-33.9211 76.5121-35.4591Q76.5121-44.2513 72.7982-49.9092Q69.0842-55.5672 62.3848-58.3271Q55.6854-61.087 46.7781-61.087Q42.6361-61.087 38.3667-60.7319Q34.0973-60.3767 30.0758-60.3767Q26.1055-60.3767 22.4113-60.9894Q18.7172-61.602 15.6132-63.2137Q12.5092-64.8254 10.3088-67.8917Q9.62982-68.7981 8.76961-68.6218Q7.90939-68.4456 7.78046-67.4294Z"/>
  </g>
 </g>
</svg>
