<?xml version="1.0" encoding="UTF-8"?>
<!--Generator: Apple Native CoreSVG 175.5-->
<!DOCTYPE svg
PUBLIC "-//W3C//DTD SVG 1.1//EN"
       "http://www.w3.org/Graphics/SVG/1.1/DTD/svg11.dtd">
<svg version="1.1" xmlns="http://www.w3.org/2000/svg" xmlns:xlink="http://www.w3.org/1999/xlink" width="3300" height="2200">
 <!--glyph: "uni100972.medium", point size: 100.0, font version: "18.0d9e1", template writer version: "84"-->
 <g id="Notes">
  <rect height="2200" id="artboard" style="fill:white;opacity:1" width="3300" x="0" y="0"/>
  <line style="fill:none;stroke:black;opacity:1;stroke-width:0.5;" x1="263" x2="3036" y1="292" y2="292"/>
  <text style="stroke:none;fill:black;font-family:sans-serif;font-size:13;font-weight:bold;" transform="matrix(1 0 0 1 263 322)">Weight/Scale Variations</text>
  <text style="stroke:none;fill:black;font-family:sans-serif;font-size:13;text-anchor:middle;" transform="matrix(1 0 0 1 559.711 322)">Ultralight</text>
  <text style="stroke:none;fill:black;font-family:sans-serif;font-size:13;text-anchor:middle;" transform="matrix(1 0 0 1 856.422 322)">Thin</text>
  <text style="stroke:none;fill:black;font-family:sans-serif;font-size:13;text-anchor:middle;" transform="matrix(1 0 0 1 1153.13 322)">Light</text>
  <text style="stroke:none;fill:black;font-family:sans-serif;font-size:13;text-anchor:middle;" transform="matrix(1 0 0 1 1449.84 322)">Regular</text>
  <text style="stroke:none;fill:black;font-family:sans-serif;font-size:13;text-anchor:middle;" transform="matrix(1 0 0 1 1746.56 322)">Medium</text>
  <text style="stroke:none;fill:black;font-family:sans-serif;font-size:13;text-anchor:middle;" transform="matrix(1 0 0 1 2043.27 322)">Semibold</text>
  <text style="stroke:none;fill:black;font-family:sans-serif;font-size:13;text-anchor:middle;" transform="matrix(1 0 0 1 2339.98 322)">Bold</text>
  <text style="stroke:none;fill:black;font-family:sans-serif;font-size:13;text-anchor:middle;" transform="matrix(1 0 0 1 2636.69 322)">Heavy</text>
  <text style="stroke:none;fill:black;font-family:sans-serif;font-size:13;text-anchor:middle;" transform="matrix(1 0 0 1 2933.4 322)">Black</text>
  <line style="fill:none;stroke:black;opacity:1;stroke-width:0.5;" x1="263" x2="3036" y1="1903" y2="1903"/>
  <g transform="matrix(1 0 0 1 263 1933)">
   <path d="M9.24805 0.830078Q10.8691 0.830078 12.2949 0.214844Q13.7207-0.400391 14.8096-1.49414Q15.8984-2.58789 16.5186-4.01367Q17.1387-5.43945 17.1387-7.05078Q17.1387-8.66211 16.5186-10.0879Q15.8984-11.5137 14.8047-12.6074Q13.7109-13.7012 12.2852-14.3164Q10.8594-14.9316 9.23828-14.9316Q7.62695-14.9316 6.20117-14.3164Q4.77539-13.7012 3.69141-12.6074Q2.60742-11.5137 1.9873-10.0879Q1.36719-8.66211 1.36719-7.05078Q1.36719-5.43945 1.9873-4.01367Q2.60742-2.58789 3.69629-1.49414Q4.78516-0.400391 6.21094 0.214844Q7.63672 0.830078 9.24805 0.830078ZM9.24805-0.654297Q7.91992-0.654297 6.7627-1.14746Q5.60547-1.64062 4.73145-2.51953Q3.85742-3.39844 3.36426-4.56055Q2.87109-5.72266 2.87109-7.05078Q2.87109-8.37891 3.35938-9.54102Q3.84766-10.7031 4.72168-11.582Q5.5957-12.4609 6.75293-12.9541Q7.91016-13.4473 9.23828-13.4473Q10.5762-13.4473 11.7383-12.9541Q12.9004-12.4609 13.7793-11.582Q14.6582-10.7031 15.1514-9.54102Q15.6445-8.37891 15.6445-7.05078Q15.6445-5.72266 15.1514-4.56055Q14.6582-3.39844 13.7793-2.51953Q12.9004-1.64062 11.7432-1.14746Q10.5859-0.654297 9.24805-0.654297ZM5.6543-7.05078Q5.6543-6.72852 5.85938-6.52832Q6.06445-6.32812 6.40625-6.32812L8.51562-6.32812L8.51562-4.20898Q8.51562-3.88672 8.71094-3.67676Q8.90625-3.4668 9.23828-3.4668Q9.56055-3.4668 9.77051-3.67676Q9.98047-3.88672 9.98047-4.20898L9.98047-6.32812L12.0898-6.32812Q12.4219-6.32812 12.627-6.52832Q12.832-6.72852 12.832-7.05078Q12.832-7.38281 12.627-7.58789Q12.4219-7.79297 12.0898-7.79297L9.98047-7.79297L9.98047-9.90234Q9.98047-10.2344 9.77051-10.4443Q9.56055-10.6543 9.23828-10.6543Q8.90625-10.6543 8.71094-10.4443Q8.51562-10.2344 8.51562-9.90234L8.51562-7.79297L6.40625-7.79297Q6.06445-7.79297 5.85938-7.58789Q5.6543-7.38281 5.6543-7.05078Z"/>
  </g>
  <g transform="matrix(1 0 0 1 281.867 1933)">
   <path d="M11.709 2.91016Q13.75 2.91016 15.5518 2.12891Q17.3535 1.34766 18.7305-0.0292969Q20.1074-1.40625 20.8887-3.20801Q21.6699-5.00977 21.6699-7.05078Q21.6699-9.0918 20.8887-10.8936Q20.1074-12.6953 18.7305-14.0723Q17.3535-15.4492 15.5469-16.2305Q13.7402-17.0117 11.6992-17.0117Q9.6582-17.0117 7.85645-16.2305Q6.05469-15.4492 4.68262-14.0723Q3.31055-12.6953 2.5293-10.8936Q1.74805-9.0918 1.74805-7.05078Q1.74805-5.00977 2.5293-3.20801Q3.31055-1.40625 4.6875-0.0292969Q6.06445 1.34766 7.86621 2.12891Q9.66797 2.91016 11.709 2.91016ZM11.709 1.25Q9.98047 1.25 8.47656 0.605469Q6.97266-0.0390625 5.83496-1.17676Q4.69727-2.31445 4.05762-3.81836Q3.41797-5.32227 3.41797-7.05078Q3.41797-8.7793 4.05762-10.2832Q4.69727-11.7871 5.83008-12.9297Q6.96289-14.0723 8.4668-14.7119Q9.9707-15.3516 11.6992-15.3516Q13.4277-15.3516 14.9365-14.7119Q16.4453-14.0723 17.583-12.9297Q18.7207-11.7871 19.3652-10.2832Q20.0098-8.7793 20.0098-7.05078Q20.0098-5.32227 19.3701-3.81836Q18.7305-2.31445 17.5879-1.17676Q16.4453-0.0390625 14.9414 0.605469Q13.4375 1.25 11.709 1.25ZM7.17773-7.05078Q7.17773-6.69922 7.41211-6.47461Q7.64648-6.25 8.01758-6.25L10.8887-6.25L10.8887-3.36914Q10.8887-2.99805 11.1133-2.76855Q11.3379-2.53906 11.6895-2.53906Q12.0605-2.53906 12.29-2.76855Q12.5195-2.99805 12.5195-3.36914L12.5195-6.25L15.4004-6.25Q15.7715-6.25 16.001-6.47461Q16.2305-6.69922 16.2305-7.05078Q16.2305-7.42188 16.001-7.65137Q15.7715-7.88086 15.4004-7.88086L12.5195-7.88086L12.5195-10.752Q12.5195-11.1328 12.29-11.3623Q12.0605-11.5918 11.6895-11.5918Q11.3379-11.5918 11.1133-11.3574Q10.8887-11.123 10.8887-10.752L10.8887-7.88086L8.01758-7.88086Q7.63672-7.88086 7.40723-7.65137Q7.17773-7.42188 7.17773-7.05078Z"/>
  </g>
  <g transform="matrix(1 0 0 1 305.646 1933)">
   <path d="M14.9707 5.66406Q17.0605 5.66406 18.96 5.01465Q20.8594 4.36523 22.4512 3.19336Q24.043 2.02148 25.2197 0.429688Q26.3965-1.16211 27.0459-3.06641Q27.6953-4.9707 27.6953-7.05078Q27.6953-9.14062 27.0459-11.04Q26.3965-12.9395 25.2197-14.5312Q24.043-16.123 22.4512-17.2998Q20.8594-18.4766 18.9551-19.126Q17.0508-19.7754 14.9609-19.7754Q12.8711-19.7754 10.9717-19.126Q9.07227-18.4766 7.48535-17.2998Q5.89844-16.123 4.72168-14.5312Q3.54492-12.9395 2.90039-11.04Q2.25586-9.14062 2.25586-7.05078Q2.25586-4.9707 2.90527-3.06641Q3.55469-1.16211 4.72656 0.429688Q5.89844 2.02148 7.49023 3.19336Q9.08203 4.36523 10.9814 5.01465Q12.8809 5.66406 14.9707 5.66406ZM14.9707 3.84766Q13.1641 3.84766 11.5283 3.2959Q9.89258 2.74414 8.53516 1.74805Q7.17773 0.751953 6.17676-0.610352Q5.17578-1.97266 4.62891-3.6084Q4.08203-5.24414 4.08203-7.05078Q4.08203-8.86719 4.62891-10.5029Q5.17578-12.1387 6.17188-13.501Q7.16797-14.8633 8.52539-15.8594Q9.88281-16.8555 11.5186-17.4023Q13.1543-17.9492 14.9609-17.9492Q16.7773-17.9492 18.4131-17.4023Q20.0488-16.8555 21.4111-15.8594Q22.7734-14.8633 23.7744-13.501Q24.7754-12.1387 25.3223-10.5029Q25.8691-8.86719 25.8691-7.05078Q25.8691-5.24414 25.3223-3.6084Q24.7754-1.97266 23.7793-0.610352Q22.7832 0.751953 21.4209 1.74805Q20.0586 2.74414 18.4229 3.2959Q16.7871 3.84766 14.9707 3.84766ZM9.19922-7.05078Q9.19922-6.66992 9.45801-6.4209Q9.7168-6.17188 10.1172-6.17188L14.0625-6.17188L14.0625-2.2168Q14.0625-1.81641 14.3115-1.55762Q14.5605-1.29883 14.9512-1.29883Q15.3516-1.29883 15.6104-1.55273Q15.8691-1.80664 15.8691-2.2168L15.8691-6.17188L19.8242-6.17188Q20.2246-6.17188 20.4785-6.4209Q20.7324-6.66992 20.7324-7.05078Q20.7324-7.46094 20.4785-7.71484Q20.2246-7.96875 19.8242-7.96875L15.8691-7.96875L15.8691-11.9141Q15.8691-12.3242 15.6104-12.583Q15.3516-12.8418 14.9512-12.8418Q14.5605-12.8418 14.3115-12.583Q14.0625-12.3242 14.0625-11.9141L14.0625-7.96875L10.1172-7.96875Q9.70703-7.96875 9.45312-7.71484Q9.19922-7.46094 9.19922-7.05078Z"/>
  </g>
  <text style="stroke:none;fill:black;font-family:sans-serif;font-size:13;font-weight:bold;" transform="matrix(1 0 0 1 263 1953)">Design Variations</text>
  <text style="stroke:none;fill:black;font-family:sans-serif;font-size:13;" transform="matrix(1 0 0 1 263 1971)">Symbols are supported in up to nine weights and three scales.</text>
  <text style="stroke:none;fill:black;font-family:sans-serif;font-size:13;" transform="matrix(1 0 0 1 263 1989)">For optimal layout with text and other symbols, vertically align</text>
  <text style="stroke:none;fill:black;font-family:sans-serif;font-size:13;" transform="matrix(1 0 0 1 263 2007)">symbols with the adjacent text.</text>
  <line style="fill:none;stroke:#00AEEF;stroke-width:0.5;opacity:1.0;" x1="776" x2="776" y1="1919" y2="1933"/>
  <g transform="matrix(1 0 0 1 776 1933)">
   <path d="M3.31055 0.15625Q3.70117 0.15625 3.91602-0.00976562Q4.13086-0.175781 4.26758-0.585938L5.52734-4.0332L11.2891-4.0332L12.5488-0.585938Q12.6855-0.175781 12.9004-0.00976562Q13.1152 0.15625 13.4961 0.15625Q13.8867 0.15625 14.1162-0.0585938Q14.3457-0.273438 14.3457-0.644531Q14.3457-0.869141 14.2383-1.17188L9.6582-13.3691Q9.48242-13.8184 9.17969-14.043Q8.87695-14.2676 8.4082-14.2676Q7.5-14.2676 7.17773-13.3789L2.59766-1.16211Q2.49023-0.859375 2.49023-0.634766Q2.49023-0.263672 2.70996-0.0537109Q2.92969 0.15625 3.31055 0.15625ZM6.00586-5.51758L8.37891-12.0898L8.42773-12.0898L10.8008-5.51758Z"/>
  </g>
  <line style="fill:none;stroke:#00AEEF;stroke-width:0.5;opacity:1.0;" x1="793.197" x2="793.197" y1="1919" y2="1933"/>
  <text style="stroke:none;fill:black;font-family:sans-serif;font-size:13;font-weight:bold;" transform="matrix(1 0 0 1 776 1953)">Margins</text>
  <text style="stroke:none;fill:black;font-family:sans-serif;font-size:13;" transform="matrix(1 0 0 1 776 1971)">Leading and trailing margins on the left and right side of each symbol</text>
  <text style="stroke:none;fill:black;font-family:sans-serif;font-size:13;" transform="matrix(1 0 0 1 776 1989)">can be adjusted by modifying the x-location of the margin guidelines.</text>
  <text style="stroke:none;fill:black;font-family:sans-serif;font-size:13;" transform="matrix(1 0 0 1 776 2007)">Modifications are automatically applied proportionally to all</text>
  <text style="stroke:none;fill:black;font-family:sans-serif;font-size:13;" transform="matrix(1 0 0 1 776 2025)">scales and weights.</text>
  <g transform="matrix(1 0 0 1 1289 1933)">
   <path d="M2.8418 1.86523L4.54102 3.57422Q5.18555 4.22852 5.90332 4.17969Q6.62109 4.13086 7.31445 3.35938L18.0078-8.42773L17.041-9.4043L6.42578 2.27539Q6.16211 2.57812 5.89355 2.61719Q5.625 2.65625 5.27344 2.30469L4.10156 1.14258Q3.75 0.791016 3.79395 0.522461Q3.83789 0.253906 4.14062-0.0195312L15.6152-10.8203L14.6387-11.7871L3.04688-0.898438Q2.30469-0.214844 2.25098 0.498047Q2.19727 1.21094 2.8418 1.86523ZM9.25781-16.3281Q8.94531-16.0254 8.90625-15.6348Q8.86719-15.2441 9.04297-14.9512Q9.21875-14.6777 9.55566-14.541Q9.89258-14.4043 10.3809-14.5215Q11.4746-14.7754 12.5977-14.7314Q13.7207-14.6875 14.7949-13.9844L14.209-12.5293Q13.9551-11.9043 14.0674-11.4404Q14.1797-10.9766 14.5801-10.5664L16.875-8.25195Q17.2363-7.88086 17.5781-7.82227Q17.9199-7.76367 18.3398-7.8418L19.4043-8.03711L20.0684-7.36328L20.0293-6.80664Q20-6.43555 20.1221-6.12305Q20.2441-5.81055 20.6055-5.44922L21.3672-4.70703Q21.7285-4.3457 22.1533-4.33105Q22.5781-4.31641 22.9297-4.66797L25.8398-7.58789Q26.1914-7.93945 26.1816-8.35449Q26.1719-8.76953 25.8105-9.13086L25.0391-9.89258Q24.6875-10.2539 24.3799-10.3857Q24.0723-10.5176 23.7109-10.4883L23.1348-10.4395L22.4902-11.0742L22.7344-12.1973Q22.832-12.6172 22.6953-12.9834Q22.5586-13.3496 22.1191-13.7891L19.9219-15.9766Q18.6719-17.2168 17.2607-17.8369Q15.8496-18.457 14.4189-18.4814Q12.9883-18.5059 11.665-17.959Q10.3418-17.4121 9.25781-16.3281ZM10.752-15.957Q11.6602-16.6211 12.7002-16.9043Q13.7402-17.1875 14.8047-17.085Q15.8691-16.9824 16.8701-16.5137Q17.8711-16.0449 18.7012-15.2051L21.1328-12.793Q21.3086-12.6172 21.3525-12.4512Q21.3965-12.2852 21.3379-12.0312L21.0156-10.5469L22.5195-9.0625L23.5059-9.12109Q23.6914-9.13086 23.7891-9.09668Q23.8867-9.0625 24.0332-8.91602L24.6094-8.33984L22.168-5.89844L21.5918-6.47461Q21.4453-6.62109 21.4062-6.71875Q21.3672-6.81641 21.377-7.01172L21.4453-7.98828L19.9512-9.47266L18.4277-9.21875Q18.1836-9.16992 18.042-9.2041Q17.9004-9.23828 17.7148-9.41406L15.7129-11.416Q15.5176-11.5918 15.4932-11.7529Q15.4688-11.9141 15.5859-12.1875L16.4648-14.2773Q15.293-15.3711 13.8281-15.791Q12.3633-16.2109 10.8398-15.7617Q10.7227-15.7324 10.6885-15.8057Q10.6543-15.8789 10.752-15.957Z"/>
  </g>
  <text style="stroke:none;fill:black;font-family:sans-serif;font-size:13;font-weight:bold;" transform="matrix(1 0 0 1 1289 1953)">Exporting</text>
  <text style="stroke:none;fill:black;font-family:sans-serif;font-size:13;" transform="matrix(1 0 0 1 1289 1971)">Symbols should be outlined when exporting to ensure the</text>
  <text style="stroke:none;fill:black;font-family:sans-serif;font-size:13;" transform="matrix(1 0 0 1 1289 1989)">design is preserved when submitting to Xcode.</text>
  <text id="template-version" style="stroke:none;fill:black;font-family:sans-serif;font-size:13;text-anchor:end;" transform="matrix(1 0 0 1 3036 1933)">Template v.2.0</text>
  <text style="stroke:none;fill:black;font-family:sans-serif;font-size:13;text-anchor:end;" transform="matrix(1 0 0 1 3036 1951)">Requires Xcode 12 or greater</text>
  <text id="descriptive-name" style="stroke:none;fill:black;font-family:sans-serif;font-size:13;text-anchor:end;" transform="matrix(1 0 0 1 3036 1969)">Generated from leaf</text>
  <text style="stroke:none;fill:black;font-family:sans-serif;font-size:13;text-anchor:end;" transform="matrix(1 0 0 1 3036 1987)">Typeset at 100 points</text>
  <text style="stroke:none;fill:black;font-family:sans-serif;font-size:13;" transform="matrix(1 0 0 1 263 726)">Small</text>
  <text style="stroke:none;fill:black;font-family:sans-serif;font-size:13;" transform="matrix(1 0 0 1 263 1156)">Medium</text>
  <text style="stroke:none;fill:black;font-family:sans-serif;font-size:13;" transform="matrix(1 0 0 1 263 1586)">Large</text>
 </g>
 <g id="Guides">
  <g id="H-reference" style="fill:#27AAE1;stroke:none;" transform="matrix(1 0 0 1 339 696)">
   <path d="M0.993347 0L3.6377 0L29.3282-67.1326L30.0301-67.1326L30.0301-70.459L28.1227-70.459ZM11.6882-24.4797L46.9818-24.4797L46.2311-26.7288L12.4382-26.7288ZM55.1193 0L57.7637 0L30.6381-70.459L29.4327-70.459L29.4327-67.1326Z"/>
  </g>
  <line id="Baseline-S" style="fill:none;stroke:#27AAE1;opacity:1;stroke-width:0.5;" x1="263" x2="3036" y1="696" y2="696"/>
  <line id="Capline-S" style="fill:none;stroke:#27AAE1;opacity:1;stroke-width:0.5;" x1="263" x2="3036" y1="625.541" y2="625.541"/>
  <g id="H-reference" style="fill:#27AAE1;stroke:none;" transform="matrix(1 0 0 1 339 1126)">
   <path d="M0.993347 0L3.6377 0L29.3282-67.1326L30.0301-67.1326L30.0301-70.459L28.1227-70.459ZM11.6882-24.4797L46.9818-24.4797L46.2311-26.7288L12.4382-26.7288ZM55.1193 0L57.7637 0L30.6381-70.459L29.4327-70.459L29.4327-67.1326Z"/>
  </g>
  <line id="Baseline-M" style="fill:none;stroke:#27AAE1;opacity:1;stroke-width:0.5;" x1="263" x2="3036" y1="1126" y2="1126"/>
  <line id="Capline-M" style="fill:none;stroke:#27AAE1;opacity:1;stroke-width:0.5;" x1="263" x2="3036" y1="1055.54" y2="1055.54"/>
  <g id="H-reference" style="fill:#27AAE1;stroke:none;" transform="matrix(1 0 0 1 339 1556)">
   <path d="M0.993347 0L3.6377 0L29.3282-67.1326L30.0301-67.1326L30.0301-70.459L28.1227-70.459ZM11.6882-24.4797L46.9818-24.4797L46.2311-26.7288L12.4382-26.7288ZM55.1193 0L57.7637 0L30.6381-70.459L29.4327-70.459L29.4327-67.1326Z"/>
  </g>
  <line id="Baseline-L" style="fill:none;stroke:#27AAE1;opacity:1;stroke-width:0.5;" x1="263" x2="3036" y1="1556" y2="1556"/>
  <line id="Capline-L" style="fill:none;stroke:#27AAE1;opacity:1;stroke-width:0.5;" x1="263" x2="3036" y1="1485.54" y2="1485.54"/>
  <line id="left-margin" style="fill:none;stroke:#00AEEF;stroke-width:0.5;opacity:1.0;" x1="1389.39" x2="1389.39" y1="1030.79" y2="1150.12"/>
  <line id="right-margin" style="fill:none;stroke:#00AEEF;stroke-width:0.5;opacity:1.0;" x1="1510.3" x2="1510.3" y1="1030.79" y2="1150.12"/>
 </g>
 <g id="Symbols">
  <g id="Black-L" transform="matrix(1 0 0 1 2851.41 1556)">
   <path d="M11.2588-66.5531Q11.2588-48.0913 16.6241-33.0237Q21.9894-17.956 31.9384-7.15213Q41.8875 3.65172 55.7703 9.45933Q69.653 15.2669 86.7256 15.2669Q102.945 15.2669 115.503 8.69496Q128.06 2.12296 135.205-9.39942Q142.35-20.9218 142.35-35.8326Q142.35-50.2401 135.175-61.4512Q128-72.6624 115.503-79.0735Q103.005-85.4847 86.9669-85.4847Q78.9009-85.4847 70.9795-84.0371Q63.0582-82.5896 54.7989-82.5896Q47.8953-82.5896 42.5221-84.8243Q37.1488-87.059 32.738-92.056Q29.6506-95.7172 25.5505-96.3772Q21.4504-97.0371 17.9726-94.8723Q14.4948-92.7074 13.3045-87.7842Q12.5015-84.5555 12.041-80.2416Q11.5805-75.9278 11.4196-72.114Q11.2588-68.3003 11.2588-66.5531ZM28.7162-66.5531Q28.7162-67.499 28.7326-68.5671Q28.749-69.6351 28.8406-70.4667Q28.8894-72.5654 30.6837-71.6085Q35.7901-68.55 42.1406-66.8515Q48.4911-65.153 54.7989-65.153Q60.1174-65.153 64.9254-65.7049Q69.7334-66.2568 73.9152-66.8198Q77.6353-67.3619 80.8193-67.705Q84.0033-68.0481 86.9669-68.0481Q98.1901-68.0481 106.733-63.9242Q115.276-59.8004 120.084-52.5447Q124.892-45.289 124.892-35.8326Q124.892-25.8133 120.095-18.236Q115.297-10.6586 106.714-6.41412Q98.1317-2.16963 86.7256-2.16963Q68.9055-2.16963 55.8888-10.0038Q42.8721-17.838 35.7942-32.2912Q28.7162-46.7445 28.7162-66.5531ZM48.7953-49.1543Q50.4482-44.0743 54.9108-40.0331Q59.3734-35.9919 66.0503-33.0453Q72.7272-30.0986 80.9889-28.2374Q90.2732-26.1757 96.5262-24.2373Q102.779-22.2988 106.988-20.1879Q111.197-18.077 114.195-15.5298Q117.193-12.9826 119.93-9.72421Q125.234-3.32848 127.367 4.66227Q129.499 12.653 132.454 22.0837Q133.411 25.0924 135.616 26.7753Q137.821 28.4582 140.792 28.4582Q145.727 28.4582 149.226 24.5866Q152.725 20.7149 152.725 15.4698Q152.725 11.552 150.572 6.18558Q148.42 0.819175 144.588-5.75784Q140.757-12.3349 135.574-19.7805Q129.204-28.9527 117.191-34.014Q105.179-39.0753 85.9909-41.8328Q74.5795-43.4158 67.3798-46.0067Q60.1802-48.5976 56.1205-53.3888Q54.4213-55.31 52.3483-55.2126Q50.2753-55.1152 49.0914-53.486Q47.9075-51.8569 48.7953-49.1543Z"/>
  </g>
  <g id="Heavy-L" transform="matrix(1 0 0 1 2555.7 1556)">
   <path d="M11.2588-66.5531Q11.2588-48.3009 16.5466-33.4224Q21.8344-18.5439 31.6445-7.87431Q41.4546 2.79525 55.1597 8.52536Q68.8649 14.2555 85.7141 14.2555Q101.665 14.2555 113.99 7.82025Q126.315 1.38502 133.326-9.90957Q140.336-21.2042 140.336-35.8326Q140.336-49.9484 133.3-60.9364Q126.265-71.9244 113.99-78.1988Q101.715-84.4732 85.9554-84.4732Q77.9898-84.4732 70.0684-83.0256Q62.1471-81.5781 53.7874-81.5781Q46.7679-81.5781 41.1733-83.8782Q35.5786-86.1783 30.9705-91.3908Q28.1985-94.682 24.4673-95.3359Q20.7361-95.9898 17.5564-94.0579Q14.3768-92.1261 13.2725-87.5427Q12.4739-84.3641 12.0272-80.1026Q11.5805-75.8412 11.4196-72.0638Q11.2588-68.2865 11.2588-66.5531ZM26.7027-66.5531Q26.7027-68.0759 26.7458-69.686Q26.7889-71.2962 26.949-72.5524Q27.043-74.4775 28.6598-73.51Q33.8463-69.9839 40.5174-68.0742Q47.1886-66.1644 53.7874-66.1644Q59.0514-66.1644 63.816-66.7095Q68.5807-67.2545 72.7625-67.8175Q76.4921-68.3502 79.7169-68.7049Q82.9417-69.0596 85.9554-69.0596Q97.4522-69.0596 106.225-64.7989Q114.998-60.5383 119.945-53.0549Q124.892-45.5714 124.892-35.8326Q124.892-25.5309 119.96-17.7258Q115.028-9.92066 106.218-5.53941Q97.4076-1.15816 85.7141-1.15816Q67.6117-1.15816 54.3603-9.136Q41.1089-17.1138 33.9058-31.7949Q26.7027-46.4759 26.7027-66.5531ZM48.6017-49.806Q50.3107-44.5145 54.7504-40.5133Q59.19-36.5121 65.7735-33.6586Q72.3571-30.8051 80.512-28.9284Q89.4571-26.9069 95.6373-24.9847Q101.817-23.0625 106.098-20.9116Q110.379-18.7608 113.529-16.1013Q116.678-13.4418 119.547-9.97591Q124.796-3.59856 126.947 4.31096Q129.098 12.2205 132.044 21.6363Q132.946 24.4569 134.965 25.9563Q136.985 27.4556 139.638 27.4556Q144.225 27.4556 147.47 23.845Q150.716 20.2345 150.716 15.2877Q150.716 11.265 148.416 5.76302Q146.117 0.260997 142.277-6.16407Q138.436-12.5891 133.703-19.3178Q127.295-28.2904 115.502-33.3462Q103.709-38.4019 85.0469-41.1775Q74.1109-42.7751 66.8024-45.4708Q59.4939-48.1664 55.13-53.4929Q53.6083-55.2602 51.7631-55.181Q49.9178-55.1018 48.8707-53.6455Q47.8236-52.1892 48.6017-49.806Z"/>
  </g>
  <g id="Bold-L" transform="matrix(1 0 0 1 2260.24 1556)">
   <path d="M11.2588-66.5531Q11.2588-48.5621 16.4505-33.9179Q21.6423-19.2738 31.2795-8.77318Q40.9168 1.72743 54.3992 7.36148Q67.8816 12.9955 84.4542 12.9955Q100.067 12.9955 112.104 6.72934Q124.141 0.463151 130.982-10.5472Q137.824-21.5575 137.824-35.8326Q137.824-49.5872 130.961-60.2949Q124.098-71.0026 112.104-77.1079Q100.11-83.2132 84.6954-83.2132Q76.8528-83.2132 68.9315-81.7657Q61.0101-80.3181 52.5275-80.3181Q45.3248-80.3181 39.461-82.7101Q33.5972-85.102 28.7657-90.5611Q26.3707-93.4062 23.1004-94.0413Q19.83-94.6763 17.0267-93.0251Q14.2233-91.374 13.2339-87.243Q12.4431-84.1258 12.0118-79.9297Q11.5805-75.7336 11.4196-72.0023Q11.2588-68.2711 11.2588-66.5531ZM24.1906-66.5531Q24.1906-68.8203 24.2757-71.0729Q24.3608-73.3256 24.6054-75.097Q24.7607-76.8814 26.2218-75.854Q31.538-71.7216 38.5826-69.573Q45.6272-67.4244 52.5275-67.4244Q57.7224-67.4244 62.4332-67.9617Q67.144-68.4991 71.3258-69.062Q75.0633-69.5868 78.3417-69.9532Q81.6202-70.3195 84.6954-70.3195Q96.5303-70.3195 105.591-65.8899Q114.652-61.4602 119.772-53.6925Q124.892-45.9247 124.892-35.8326Q124.892-25.1776 119.791-17.0882Q114.69-8.9988 105.596-4.4485Q96.5011 0.101793 84.4542 0.101793Q65.9984 0.101793 52.4551-8.0528Q38.9117-16.2074 31.5512-31.1727Q24.1906-46.138 24.1906-66.5531ZM48.3262-50.5458Q50.0819-45.0898 54.4612-41.1535Q58.8404-37.2171 65.3422-34.4491Q71.844-31.6811 80.0321-29.7441Q88.5175-27.7837 94.572-25.877Q100.626-23.9703 104.973-21.7547Q109.32-19.539 112.647-16.7151Q115.973-13.8912 119.011-10.1343Q124.124-3.84717 126.291 3.88049Q128.458 11.6081 131.395 21.0234Q132.236 23.6283 134.043 24.9196Q135.85 26.2108 138.142 26.2108Q142.328 26.2108 145.27 22.9044Q148.211 19.5981 148.211 14.9902Q148.211 10.837 145.743 5.18459Q143.274-0.467781 139.422-6.69345Q135.57-12.9191 131.353-18.7789Q124.846-27.4907 113.345-32.5201Q101.844-37.5496 83.9534-40.3482Q73.3779-42.0209 65.9611-44.8471Q58.5442-47.6734 53.8559-53.5638Q52.5569-55.1241 50.9959-55.068Q49.435-55.0118 48.5569-53.7744Q47.6789-52.537 48.3262-50.5458Z"/>
  </g>
  <g id="Semibold-L" transform="matrix(1 0 0 1 1964.39 1556)">
   <path d="M11.2588-66.5531Q11.2588-48.7421 16.3843-34.2596Q21.5098-19.777 31.0279-9.39285Q40.546 0.99129 53.8748 6.5591Q67.2036 12.1269 83.5856 12.1269Q98.9657 12.1269 110.804 5.97727Q122.642-0.172381 129.367-10.9867Q136.092-21.8011 136.092-35.8326Q136.092-49.3382 129.349-59.8526Q122.605-70.367 110.804-76.3558Q99.0026-82.3446 83.8268-82.3446Q76.069-82.3446 68.1476-80.8971Q60.2263-79.4495 51.6589-79.4495Q44.33-79.4495 38.2806-81.9048Q32.2313-84.3601 27.2457-89.9891Q25.1106-92.5268 22.158-93.1487Q19.2054-93.7707 16.6615-92.3131Q14.1175-90.8555 13.2074-87.0364Q12.4218-83.9616 12.0011-79.8105Q11.5805-75.6595 11.4196-71.96Q11.2588-68.2604 11.2588-66.5531ZM22.4588-66.5531Q22.4588-69.3335 22.5728-72.029Q22.6868-74.7246 22.9898-76.8512Q23.1874-78.5386 24.5411-77.4699Q29.9467-72.9196 37.2487-70.6063Q44.5508-68.293 51.6589-68.293Q56.8062-68.293 61.4799-68.825Q66.1536-69.357 70.3354-69.92Q74.0782-70.4394 77.3937-70.8138Q80.7092-71.1881 83.8268-71.1881Q95.8948-71.1881 105.154-66.6419Q114.414-62.0957 119.653-54.132Q124.892-46.1683 124.892-35.8326Q124.892-24.9341 119.675-16.6487Q114.457-8.36326 105.167-3.69643Q95.8762 0.970398 83.5856 0.970398Q64.8863 0.970398 51.1416-7.30604Q37.3969-15.5825 29.9279-30.7438Q22.4588-45.9051 22.4588-66.5531ZM48.1363-51.0557Q49.9242-45.4865 54.2618-41.5948Q58.5993-37.7032 65.0448-34.9941Q71.4903-32.285 79.7013-30.3064Q87.8697-28.3882 93.8375-26.4922Q99.8054-24.5962 104.198-22.3359Q108.59-20.0756 112.039-17.1383Q115.487-14.2011 118.641-10.2436Q123.66-4.01856 125.838 3.58372Q128.016 11.186 130.948 20.6009Q131.746 23.0571 133.407 24.2049Q135.069 25.3527 137.11 25.3527Q141.021 25.3527 143.753 22.256Q146.485 19.1593 146.485 14.7852Q146.485 10.5419 143.899 4.78583Q141.314-0.970197 137.454-7.05839Q133.594-13.1466 129.732-18.4074Q123.158-26.9394 111.858-31.9507Q100.557-36.962 83.1996-39.7764Q72.8726-41.5009 65.3811-44.4172Q57.8895-47.3335 52.9776-53.6127Q51.8321-55.0304 50.4671-54.99Q49.1021-54.9497 48.3406-53.8632Q47.5791-52.7767 48.1363-51.0557Z"/>
  </g>
  <g id="Medium-L" transform="matrix(1 0 0 1 1668.34 1556)">
   <path d="M11.2588-66.5531Q11.2588-48.8786 16.3341-34.5186Q21.4094-20.1585 30.8371-9.86271Q40.2649 0.433114 53.4773 5.95071Q66.6896 11.4683 82.927 11.4683Q98.1305 11.4683 109.818 5.40702Q121.506-0.654267 128.142-11.32Q134.779-21.9857 134.779-35.8326Q134.779-49.1494 128.126-59.5173Q121.472-69.8851 109.818-75.7856Q98.1633-81.686 83.1682-81.686Q75.4747-81.686 67.5533-80.2385Q59.6319-78.7909 51.0003-78.7909Q43.5756-78.7909 37.3856-81.2942Q31.1956-83.7975 26.0932-89.5554Q24.1551-91.8599 21.4435-92.472Q18.7318-93.0841 16.3846-91.7733Q14.0373-90.4624 13.1872-86.8797Q12.4057-83.8371 11.9931-79.7202Q11.5805-75.6032 11.4196-71.9278Q11.2588-68.2524 11.2588-66.5531ZM21.1457-66.5531Q21.1457-69.7226 21.2816-72.754Q21.4175-75.7855 21.7647-78.1813Q21.9944-79.7952 23.2667-78.6951Q28.7401-73.828 36.2373-71.3898Q43.7346-68.9516 51.0003-68.9516Q56.1115-68.9516 60.757-69.4796Q65.4026-70.0076 69.5844-70.5705Q73.3314-71.0858 76.6749-71.4663Q80.0185-71.8467 83.1682-71.8467Q95.4129-71.8467 104.823-67.2122Q114.233-62.5776 119.563-54.4653Q124.892-46.353 124.892-35.8326Q124.892-24.7494 119.587-16.3154Q114.281-7.88138 104.842-3.12618Q95.4024 1.62901 82.927 1.62901Q64.043 1.62901 50.1457-6.73982Q36.2484-15.1087 28.697-30.4186Q21.1457-45.7284 21.1457-66.5531ZM47.9924-51.4424Q49.8047-45.7872 54.1106-41.9295Q58.4165-38.0717 64.8193-35.4073Q71.2221-32.7429 79.4504-30.7328Q87.3785-28.8465 93.2807-26.9586Q99.1828-25.0708 103.61-22.7766Q108.037-20.4824 111.578-17.4592Q115.119-14.436 118.361-10.3264Q123.309-4.14851 125.495 3.3587Q127.681 10.8659 130.609 20.2805Q131.374 22.624 132.925 23.663Q134.476 24.7021 136.328 24.7021Q140.029 24.7021 142.602 21.7643Q145.176 18.8266 145.176 14.6297Q145.176 10.3181 142.501 4.48347Q139.827-1.35115 135.961-7.33511Q132.095-13.3191 128.504-18.1257Q121.878-26.5214 110.73-31.5189Q99.582-36.5165 82.628-39.3429Q72.4895-41.1067 64.9413-44.0912Q57.3931-47.0757 52.3116-53.6498Q51.2825-54.9592 50.0661-54.931Q48.8497-54.9027 48.1766-53.9306Q47.5034-52.9585 47.9924-51.4424Z"/>
  </g>
  <g id="Regular-L" transform="matrix(1 0 0 1 1372.48 1556)">
   <path d="M11.2588-66.5531Q11.2588-49.0567 16.2686-34.8565Q21.2784-20.6562 30.5883-10.4756Q39.8983-0.294941 52.9587 5.15715Q66.0191 10.6092 82.0679 10.6092Q97.041 10.6092 108.532 4.66321Q120.023-1.28281 126.545-11.7547Q133.066-22.2266 133.066-35.8326Q133.066-48.9031 126.531-59.0799Q119.995-69.2566 108.532-75.0418Q97.0685-80.827 82.3092-80.827Q74.6994-80.827 66.7781-79.3794Q58.8567-77.9319 50.1412-77.9319Q42.5917-77.9319 36.2182-80.4978Q29.8446-83.0637 24.5899-88.9896Q22.9089-90.99 20.5115-91.5893Q18.114-92.1885 16.0234-91.0691Q13.9327-89.9496 13.161-86.6754Q12.3847-83.6747 11.9826-79.6023Q11.5805-75.5299 11.4196-71.8859Q11.2588-68.2419 11.2588-66.5531ZM19.433-66.5531Q19.433-70.2301 19.5975-73.6996Q19.762-77.1692 20.1668-79.9163Q20.4383-81.4343 21.6044-80.2933Q27.1662-75.0128 34.9181-72.4118Q42.6699-69.8107 50.1412-69.8107Q55.2054-69.8107 59.8142-70.3334Q64.423-70.8561 68.6049-71.4191Q72.3572-71.929 75.7373-72.3174Q79.1175-72.7058 82.3092-72.7058Q94.7843-72.7058 104.391-67.956Q113.997-63.2062 119.445-54.9Q124.892-46.5939 124.892-35.8326Q124.892-24.5085 119.471-15.8806Q114.05-7.25283 104.417-2.38238Q94.7843 2.48807 82.0679 2.48807Q62.943 2.48807 48.8466-6.00128Q34.7503-14.4906 27.0916-29.9943Q19.433-45.4981 19.433-66.5531ZM47.8045-51.9468Q49.6487-46.1795 53.9134-42.366Q58.1781-38.5525 64.5252-35.9463Q70.8722-33.3402 79.1232-31.289Q86.7379-29.4444 92.5543-27.567Q98.3708-25.6897 102.843-23.3514Q107.315-21.013 110.976-17.8777Q114.638-14.7424 117.996-10.4344Q122.851-4.31802 125.047 3.06519Q127.244 10.4484 130.166 19.8626Q130.89 22.059 132.296 22.9562Q133.702 23.8534 135.308 23.8534Q138.736 23.8534 141.102 21.123Q143.468 18.3927 143.468 14.427Q143.468 10.0262 140.678 4.08909Q137.889-1.84804 134.015-7.69604Q130.141-13.544 126.901-17.7582Q120.209-25.9761 109.259-30.9557Q98.3099-35.9353 81.8825-38.7774Q71.9897-40.5925 64.3677-43.666Q56.7456-46.7396 51.443-53.6981Q50.5657-54.8665 49.5431-54.8539Q48.5205-54.8413 47.9626-54.0184Q47.4047-53.1955 47.8045-51.9468Z"/>
  </g>
  <g id="Light-L" transform="matrix(1 0 0 1 1076.69 1556)">
   <path d="M11.2588-66.5531Q11.2588-49.2475 16.2017-35.2095Q21.1446-21.1715 30.3307-11.1244Q39.5167-1.07734 52.4053 4.30789Q65.2938 9.69313 81.1518 9.69313Q95.8578 9.69313 107.149 3.86158Q118.439-1.96998 124.827-12.2319Q131.215-22.4937 131.215-35.8326Q131.215-48.6549 124.804-58.6122Q118.392-68.5694 107.148-74.2401Q95.9042-79.9109 81.3931-79.9109Q73.8597-79.9109 65.9383-78.4633Q58.0169-77.0157 49.2251-77.0157Q41.294-77.0157 34.7677-79.7152Q28.2414-82.4147 22.9677-88.3788Q21.4586-90.1503 19.4045-90.6636Q17.3505-91.1769 15.5653-90.2006Q13.7801-89.2243 13.1417-86.4653Q12.3847-83.5028 11.9826-79.4782Q11.5805-75.4536 11.4196-71.8477Q11.2588-68.2419 11.2588-66.5531ZM17.5818-66.5531Q17.5818-70.9362 17.8321-74.6634Q18.0824-78.3905 18.5446-81.424Q18.8924-83.3236 20.3638-81.8391Q26.212-75.9671 34.0688-73.347Q41.9257-70.7268 49.2251-70.7268Q54.2322-70.7268 58.8027-71.2495Q63.3732-71.7723 67.555-72.3352Q71.2884-72.864 74.7258-73.243Q78.1632-73.6219 81.3931-73.6219Q94.0972-73.6219 103.923-68.7576Q113.749-63.8933 119.321-55.3772Q124.892-46.861 124.892-35.8326Q124.892-24.2414 119.338-15.4035Q113.783-6.56567 103.94-1.58074Q94.0972 3.40418 81.1518 3.40418Q61.7598 3.40418 47.4534-5.19964Q33.147-13.8035 25.3644-29.5172Q17.5818-45.231 17.5818-66.5531ZM47.3848-52.0231Q49.1142-46.7711 53.1309-43.1008Q57.1476-39.4304 63.6568-36.6907Q70.1661-33.951 79.5048-31.5942Q86.5471-29.8641 92.0487-27.9677Q97.5502-26.0713 101.917-23.5899Q106.284-21.1086 110.003-17.6966Q113.722-14.2845 117.232-9.55646Q121.553-3.93644 123.711 2.79793Q125.87 9.53229 128.811 19.0609Q129.535 21.2192 130.913 22.0973Q132.29 22.9754 133.839 22.9754Q137.19 22.9754 139.413 20.331Q141.636 17.6866 141.636 13.759Q141.636 9.26274 138.808 3.33523Q135.98-2.59229 132.097-8.23042Q128.214-13.8685 125.069-17.6056Q117.976-25.5564 107.351-30.3928Q96.7258-35.2292 81.6154-38.0903Q70.5009-40.3253 62.9744-43.4943Q55.4479-46.6633 50.2597-53.3736Q49.554-54.2938 48.7415-54.3003Q47.9289-54.3068 47.4855-53.6652Q47.0421-53.0237 47.3848-52.0231Z"/>
  </g>
  <g id="Thin-L" transform="matrix(1 0 0 1 781.187 1556)">
   <path d="M11.2588-66.5531Q11.2588-49.4999 16.1133-35.6764Q20.9678-21.853 29.9899-11.9826Q39.012-2.11213 51.6733 3.18468Q64.3345 8.4815 79.9402 8.4815Q94.2929 8.4815 105.319 2.80134Q116.344-2.87881 122.556-12.8629Q128.767-22.847 128.767-35.8326Q128.767-48.3267 122.519-57.9936Q116.272-67.6606 105.318-73.1799Q94.3643-78.6992 80.1814-78.6992Q72.749-78.6992 64.8276-77.2517Q56.9062-75.8041 48.0135-75.8041Q39.5777-75.8041 32.8493-78.6802Q26.1209-81.5563 20.8222-87.5709Q19.5404-89.0396 17.9406-89.4392Q16.3407-89.8389 14.9595-89.0519Q13.5782-88.265 13.1163-86.1875Q12.3847-83.2755 11.9826-79.3141Q11.5805-75.3527 11.4196-71.7973Q11.2588-68.2419 11.2588-66.5531ZM15.1335-66.5531Q15.1335-71.87 15.4973-75.938Q15.861-80.0059 16.3992-83.4181Q16.8478-85.8223 18.723-83.8837Q24.9499-77.2292 32.9456-74.5838Q40.9414-71.9384 48.0135-71.9384Q52.9451-71.9384 57.4649-72.4612Q61.9847-72.9839 66.1665-73.5468Q69.8749-74.1007 73.388-74.4671Q76.9011-74.8335 80.1814-74.8335Q93.1884-74.8335 103.305-69.8178Q113.421-64.8022 119.157-56.0082Q124.892-47.2143 124.892-35.8326Q124.892-23.8881 119.161-14.7725Q113.43-5.65683 103.309-0.520508Q93.1884 4.61582 79.9402 4.61582Q60.1949 4.61582 45.6107-4.1394Q31.0265-12.8946 23.08-28.8862Q15.1335-44.8777 15.1335-66.5531ZM46.8297-52.124Q48.4072-47.5536 52.0959-44.0726Q55.7845-40.5916 62.5084-37.6753Q69.2323-34.7589 80.0095-31.998Q86.2948-30.4192 91.3799-28.4976Q96.465-26.576 100.693-23.9055Q104.921-21.2349 108.716-17.4569Q112.51-13.6789 116.222-8.39529Q119.837-3.43177 121.945 2.44444Q124.052 8.32066 127.019 18.0007Q127.743 20.1085 129.083 20.9614Q130.423 21.8143 131.895 21.8143Q135.146 21.8143 137.179 19.2835Q139.212 16.7527 139.212 12.8756Q139.212 8.25298 136.334 2.33819Q133.456-3.57661 129.56-8.93717Q125.664-14.2977 122.646-17.4037Q115.022-25.0012 104.827-29.6483Q94.6308-34.2954 81.2621-37.1814Q68.5319-39.9721 61.1317-43.2672Q53.7316-46.5623 48.6948-52.9445Q48.216-53.5363 47.6812-53.5681Q47.1465-53.5998 46.8544-53.1981Q46.5624-52.7964 46.8297-52.124Z"/>
  </g>
  <g id="Ultralight-L" transform="matrix(1 0 0 1 485.096 1556)">
   <path d="M11.2588-66.5531Q11.2588-49.6291 16.068-35.9156Q20.8772-22.2021 29.8154-12.4221Q38.7535-2.64214 51.2983 2.60938Q63.8432 7.8609 79.3196 7.8609Q93.4914 7.8609 104.381 2.2583Q115.271-3.34431 121.392-13.1861Q127.513-23.028 127.513-35.8326Q127.513-48.1586 121.349-57.6768Q115.186-67.1951 104.381-72.6369Q93.5756-78.0786 79.5608-78.0786Q72.1801-78.0786 64.2587-76.6311Q56.3373-75.1835 47.3929-75.1835Q38.6986-75.1835 31.8667-78.1501Q25.0348-81.1167 19.7233-87.1571Q18.5579-88.4707 17.1907-88.8121Q15.8235-89.1535 14.6492-88.4636Q13.4748-87.7737 13.1033-86.0453Q12.3847-83.1591 11.9826-79.23Q11.5805-75.301 11.4196-71.7714Q11.2588-68.2419 11.2588-66.5531ZM13.8795-66.5531Q13.8795-72.3484 14.3014-76.5908Q14.7232-80.8333 15.3002-84.4394Q15.8006-87.1022 17.8826-84.9309Q24.3034-77.8757 32.3703-75.2173Q40.4372-72.559 47.3929-72.559Q52.2858-72.559 56.7797-73.0817Q61.2735-73.6045 65.4554-74.1674Q69.1509-74.7341 72.7028-75.0941Q76.2547-75.4541 79.5608-75.4541Q92.7229-75.4541 102.988-70.3609Q113.253-65.2676 119.073-56.3314Q124.892-47.3952 124.892-35.8326Q124.892-23.7071 119.071-14.4492Q113.249-5.19133 102.986 0.0225385Q92.7229 5.23641 79.3196 5.23641Q59.3933 5.23641 44.6669-3.59636Q29.9404-12.4291 21.91-28.5629Q13.8795-44.6967 13.8795-66.5531ZM46.5453-52.1757Q48.0451-47.9543 51.5657-44.5703Q55.0864-41.1863 61.9202-38.1795Q68.754-35.1727 80.268-32.2048Q86.1655-30.7036 91.0373-28.769Q95.9091-26.8345 100.066-24.0671Q104.223-21.2997 108.056-17.3342Q111.89-13.3688 115.705-7.80055Q118.958-3.17328 121.04 2.26339Q123.122 7.70006 126.101 17.4577Q126.825 19.5397 128.145 20.3796Q129.466 21.2195 130.899 21.2195Q134.098 21.2195 136.035 18.747Q137.971 16.2744 137.971 12.4232Q137.971 7.73578 135.067 1.82751Q132.163-4.08077 128.261-9.29916Q124.359-14.5176 121.405-17.3003Q113.51-24.7169 103.534-29.267Q93.5578-33.8171 81.0812-36.7159Q67.5233-39.7911 60.1879-43.1509Q52.8525-46.5106 47.8933-52.7246Q47.5307-53.1484 47.1382-53.1931Q46.7457-53.2377 46.5312-52.9588Q46.3168-52.6799 46.5453-52.1757Z"/>
  </g>
  <g id="Black-M" transform="matrix(1 0 0 1 2869.14 1126)">
   <path d="M8.72266-59.4972Q8.72266-45.0398 12.9369-33.2257Q17.1512-21.4115 24.9618-12.944Q32.7723-4.47651 43.6573 0.0804341Q54.5422 4.63738 67.9351 4.63738Q80.6957 4.63738 90.5971-0.556242Q100.499-5.74987 106.131-14.8441Q111.764-23.9383 111.764-35.6968Q111.764-47.076 106.103-55.9237Q100.442-64.7714 90.5972-69.8404Q80.7526-74.9095 68.1221-74.9095Q61.7971-74.9095 55.6601-73.788Q49.5231-72.6665 43.2002-72.6665Q37.8995-72.6665 33.9063-74.3598Q29.913-76.053 26.6629-79.7442Q24.0231-82.8677 20.576-83.3726Q17.1289-83.8775 14.2197-82.0195Q11.3105-80.1614 10.3324-76.125Q9.70911-73.5856 9.34049-70.2049Q8.97188-66.8242 8.84727-63.8434Q8.72266-60.8627 8.72266-59.4972ZM23.7273-59.4972Q23.7273-59.8299 23.7287-60.2264Q23.73-60.6229 23.75-60.941Q23.7593-62.7678 25.3432-61.989Q29.2694-59.9413 33.928-58.8043Q38.5867-57.6673 43.2002-57.6673Q47.3598-57.6673 51.1168-58.1008Q54.8738-58.5344 58.1136-58.9705Q60.9851-59.4011 63.4246-59.6557Q65.864-59.9103 68.1221-59.9103Q76.6131-59.9103 83.0638-56.8174Q89.5145-53.7245 93.1368-48.2705Q96.7592-42.8166 96.7592-35.6968Q96.7592-28.1408 93.1396-22.4377Q89.52-16.7345 83.038-13.5482Q76.556-10.3618 67.9351-10.3618Q54.3356-10.3618 44.4243-16.3233Q34.513-22.2848 29.1201-33.3151Q23.7273-44.3453 23.7273-59.4972ZM37.9133-45.4678Q39.1301-41.7838 42.5735-38.6379Q46.017-35.492 51.2921-33.111Q56.5673-30.73 63.207-29.26Q70.6139-27.6436 75.4783-26.1252Q80.3428-24.6069 83.5272-22.9865Q86.7116-21.3661 88.9123-19.4516Q91.1131-17.5372 93.141-15.1342Q97.2248-10.2306 98.8557-4.05795Q100.487 2.11473 102.786 9.44936Q103.576 11.9367 105.44 13.3957Q107.304 14.8548 109.869 14.8548Q113.982 14.8548 116.891 11.6425Q119.801 8.43023 119.801 4.11541Q119.801 1.15725 118.254-2.88247Q116.707-6.9222 113.745-12.1198Q110.783-17.3175 106.395-23.6374Q101.438-30.8789 91.986-34.7855Q82.5344-38.6921 67.3958-40.8154Q57.9809-42.0863 52.5095-44.0164Q47.0381-45.9465 44.17-49.1648Q42.7242-50.752 40.9508-50.6634Q39.1774-50.5749 38.1582-49.1887Q37.139-47.8025 37.9133-45.4678Z"/>
  </g>
  <g id="Heavy-M" transform="matrix(1 0 0 1 2573.32 1126)">
   <path d="M8.72266-59.4972Q8.72266-45.2271 12.8673-33.5829Q17.012-21.9387 24.6982-13.5902Q32.3843-5.24159 43.1115-0.754239Q53.8387 3.73312 67.0309 3.73312Q79.5536 3.73312 89.2462-1.33737Q98.9389-6.40787 104.453-15.2988Q109.966-24.1896 109.966-35.6968Q109.966-46.8137 104.43-55.4635Q98.893-64.1134 89.2462-69.0593Q79.5994-74.0052 67.2178-74.0052Q60.9839-74.0052 54.8469-72.8837Q48.7099-71.7622 42.2959-71.7622Q36.9172-71.7622 32.7216-73.5071Q28.5259-75.2519 25.0846-79.1504Q22.7373-81.9332 19.6192-82.4401Q16.5011-82.947 13.8551-81.3035Q11.2092-79.66 10.3029-75.9082Q9.68217-73.4143 9.32702-70.0805Q8.97188-66.7466 8.84727-63.7979Q8.72266-60.8492 8.72266-59.4972ZM21.9297-59.4972Q21.9297-60.3287 21.9493-61.2314Q21.9689-62.134 22.0504-62.8408Q22.0969-64.4628 23.4792-63.7053Q27.4572-61.255 32.4196-59.9133Q37.3821-58.5716 42.2959-58.5716Q46.4075-58.5716 50.1256-58.9984Q53.8438-59.4252 57.0836-59.8613Q59.9661-60.281 62.4402-60.5478Q64.9142-60.8145 67.2178-60.8145Q75.9551-60.8145 82.6104-57.5985Q89.2656-54.3825 93.0124-48.7252Q96.7592-43.068 96.7592-35.6968Q96.7592-27.8895 93.0206-21.983Q89.2821-16.0765 82.5968-12.767Q75.9115-9.45753 67.0309-9.45753Q53.18-9.45753 43.0586-15.5489Q32.9372-21.6403 27.4335-32.8738Q21.9297-44.1074 21.9297-59.4972ZM37.7628-46.0979Q39.045-42.1595 42.4889-39.0396Q45.9328-35.9196 51.1017-33.6419Q56.2706-31.3643 62.7056-29.9073Q69.8338-28.3197 74.656-26.819Q79.4783-25.3183 82.7429-23.672Q86.0076-22.0257 88.3507-20.027Q90.6939-18.0283 92.8366-15.4613Q96.9162-10.5298 98.5689-4.37673Q100.222 1.7764 102.511 9.08594Q103.246 11.393 104.931 12.6743Q106.616 13.9556 108.877 13.9556Q112.657 13.9556 115.331 10.9907Q118.006 8.02572 118.006 3.99898Q118.006 0.947173 116.319-3.22601Q114.632-7.3992 111.662-12.4677Q108.693-17.5361 104.735-23.1992Q99.7774-30.2702 90.5108-34.1846Q81.2442-38.0989 66.4977-40.2382Q57.6601-41.4846 52.0735-43.5083Q46.4869-45.5321 43.3108-49.2965Q42.0227-50.7561 40.4526-50.6836Q38.8825-50.6111 37.9865-49.3772Q37.0904-48.1432 37.7628-46.0979Z"/>
  </g>
  <g id="Bold-M" transform="matrix(1 0 0 1 2277.62 1126)">
   <path d="M8.72266-59.4972Q8.72266-45.4366 12.7895-33.9825Q16.8563-22.5284 24.4033-14.3129Q31.9503-6.09745 42.501-1.68794Q53.0517 2.72156 66.0193 2.72156Q78.2759 2.72156 87.735-2.21118Q97.1941-7.14393 102.575-15.8074Q107.955-24.4708 107.955-35.6968Q107.955-46.5202 102.558-54.9488Q97.1604-63.3774 87.735-68.1855Q78.3095-72.9936 66.2062-72.9936Q60.0742-72.9936 53.9372-71.8722Q47.8002-70.7507 41.2844-70.7507Q35.8183-70.7507 31.3963-72.5532Q26.9743-74.3558 23.3191-78.486Q21.299-80.8879 18.5489-81.397Q15.7988-81.906 13.4473-80.5026Q11.0959-79.0991 10.2699-75.6657Q9.65202-73.2228 9.31195-69.9413Q8.97188-66.6598 8.84727-63.747Q8.72266-60.8341 8.72266-59.4972ZM19.9189-59.4972Q19.9189-60.8867 19.9588-62.3556Q19.9988-63.8244 20.1492-64.966Q20.2373-66.3587 21.394-65.6252Q25.43-62.7244 30.7322-61.1538Q36.0345-59.5831 41.2844-59.5831Q45.3421-59.5831 49.0169-60.0024Q52.6916-60.4216 55.9315-60.8578Q58.8261-61.2652 61.3389-61.5457Q63.8517-61.8261 66.2062-61.8261Q75.2191-61.8261 82.1032-58.4723Q88.9873-55.1185 92.8732-49.2339Q96.7592-43.3492 96.7592-35.6968Q96.7592-27.6083 92.8876-21.4744Q89.0159-15.3404 82.1032-11.8932Q75.1905-8.44598 66.0193-8.44598Q51.8872-8.44598 41.5309-14.6826Q31.1745-20.9193 25.5467-32.3803Q19.9189-43.8412 19.9189-59.4972ZM37.5943-46.8027Q38.9498-42.5798 42.3942-39.4888Q45.8387-36.3978 50.8887-34.2358Q55.9387-32.0738 62.1448-30.6313Q68.961-29.076 73.7361-27.595Q78.5112-26.114 81.8656-24.4388Q85.22-22.7635 87.7225-20.6706Q90.225-18.5777 92.4961-15.8271Q96.571-10.8646 98.2481-4.73332Q99.9253 1.39793 102.202 8.67941Q102.877 10.7848 104.362 11.8673Q105.847 12.9498 107.768 12.9498Q111.174 12.9498 113.586 10.2615Q115.998 7.57321 115.998 3.86873Q115.998 0.712167 114.155-3.61031Q112.311-7.93279 109.333-12.8568Q106.354-17.7807 102.878-22.7091Q97.9204-29.5893 88.8606-33.5123Q79.8009-37.4354 65.4929-39.5926Q57.3014-40.8114 51.5859-42.9399Q45.8704-45.0684 42.3496-49.4438Q41.238-50.7607 39.8954-50.7061Q38.5527-50.6516 37.7944-49.588Q37.036-48.5245 37.5943-46.8027Z"/>
  </g>
  <g id="Semibold-M" transform="matrix(1 0 0 1 1981.6 1126)">
   <path d="M8.72266-59.4972Q8.72266-45.581 12.7358-34.258Q16.749-22.935 24.2-14.8112Q31.6511-6.68747 42.0801-2.33163Q52.5091 2.02421 65.322 2.02421Q77.3951 2.02421 86.6932-2.81358Q95.9913-7.65137 101.28-16.158Q106.569-24.6647 106.569-35.6968Q106.569-46.3179 101.268-54.5939Q95.966-62.8699 86.6931-67.5831Q77.4203-72.2963 65.5089-72.2963Q59.4471-72.2963 53.3101-71.1748Q47.1731-70.0533 40.587-70.0533Q35.0607-70.0533 30.4827-71.8956Q25.9046-73.7379 22.1019-78.028Q20.3075-80.1672 17.8111-80.6778Q15.3147-81.1884 13.1662-79.9504Q11.0177-78.7124 10.2471-75.4986Q9.63124-73.0907 9.30156-69.8453Q8.97188-66.6 8.84727-63.7118Q8.72266-60.8237 8.72266-59.4972ZM18.5326-59.4972Q18.5326-61.2714 18.5866-63.1306Q18.6406-64.9898 18.8386-66.4311Q18.9553-67.6658 19.9565-66.9488Q24.0325-63.7375 29.569-62.009Q35.1055-60.2805 40.587-60.2805Q44.6077-60.2805 48.2525-60.6945Q51.8973-61.1086 55.1372-61.5447Q58.0403-61.9438 60.5798-62.2336Q63.1193-62.5234 65.5089-62.5234Q74.7116-62.5234 81.7535-59.0747Q88.7954-55.626 92.7773-49.5845Q96.7592-43.543 96.7592-35.6968Q96.7592-27.4144 92.7958-21.1237Q88.8325-14.833 81.763-11.2908Q74.6935-7.74862 65.322-7.74862Q50.996-7.74862 40.4777-14.0854Q29.9594-20.4223 24.246-32.04Q18.5326-43.6578 18.5326-59.4972ZM37.4782-47.2886Q38.8842-42.8696 42.329-39.7985Q45.7737-36.7275 50.7418-34.6453Q55.7099-32.563 61.7582-31.1305Q68.3594-29.5973 73.1019-28.13Q77.8445-26.6626 81.2608-24.9674Q84.6771-23.2722 87.2894-21.1143Q89.9017-18.9565 92.2613-16.0793Q96.333-11.0953 98.027-4.97916Q99.721 1.13702 101.989 8.39915Q102.623 10.3655 103.969 11.3109Q105.316 12.2564 107.003 12.2564Q110.152 12.2564 112.383 9.75882Q114.613 7.26126 114.613 3.77894Q114.613 0.550155 112.662-3.87524Q110.711-8.30064 107.726-13.125Q104.741-17.9493 101.597-22.3712Q96.6401-29.1199 87.723-33.0489Q78.8059-36.978 64.8003-39.1475Q57.054-40.3474 51.2497-42.5481Q45.4453-44.7488 41.687-49.5454Q40.697-50.7639 39.5112-50.7217Q38.3253-50.6795 37.6619-49.7334Q36.9986-48.7873 37.4782-47.2886Z"/>
  </g>
  <g id="Medium-M" transform="matrix(1 0 0 1 1685.41 1126)">
   <path d="M8.72266-59.4972Q8.72266-45.6905 12.6951-34.4669Q16.6676-23.2432 24.0459-15.189Q31.4242-7.13484 41.761-2.8197Q52.0977 1.49544 64.7932 1.49544Q76.7272 1.49544 85.9032-3.27035Q95.0793-8.03613 100.299-16.4239Q105.518-24.8117 105.518-35.6968Q105.518-46.1645 100.289-54.3248Q95.0604-62.4852 85.9032-67.1263Q76.746-71.7675 64.9801-71.7675Q58.9716-71.7675 52.8346-70.646Q46.6976-69.5245 40.0582-69.5245Q34.4863-69.5245 29.7899-71.397Q25.0935-73.2695 21.179-77.6808Q19.5556-79.6208 17.2516-80.1326Q14.9476-80.6443 12.953-79.5318Q10.9585-78.4192 10.2299-75.3718Q9.61548-72.9906 9.29368-69.7726Q8.97188-66.5546 8.84727-63.6852Q8.72266-60.8158 8.72266-59.4972ZM17.4815-59.4972Q17.4815-61.5631 17.5461-63.7182Q17.6108-65.8734 17.8448-67.542Q17.9832-68.6569 18.8665-67.9523Q22.9728-64.5056 28.6869-62.6574Q34.4011-60.8092 40.0582-60.8092Q44.0508-60.8092 47.6729-61.2194Q51.295-61.6295 54.5349-62.0656Q57.4444-62.4582 60.0041-62.7552Q62.5639-63.0522 64.9801-63.0522Q74.3269-63.0522 81.4884-59.5315Q88.6499-56.0107 92.7045-49.8504Q96.7592-43.69 96.7592-35.6968Q96.7592-27.2674 92.7263-20.8578Q88.6934-14.4482 81.505-10.834Q74.3166-7.21985 64.7932-7.21985Q50.3203-7.21985 39.6791-13.6326Q29.0379-20.0454 23.2597-31.782Q17.4815-43.5187 17.4815-59.4972ZM37.3902-47.657Q38.8344-43.0892 42.2795-40.0334Q45.7245-36.9775 50.6304-34.9557Q55.5363-32.9339 61.465-31.509Q67.9032-29.9927 72.6211-28.5356Q77.3389-27.0786 80.8022-25.3682Q84.2654-23.6579 86.961-21.4508Q89.6566-19.2437 92.0833-16.2706Q96.1525-11.2703 97.8593-5.16556Q99.5661 0.939183 101.828 8.18664Q102.43 10.0476 103.672 10.8891Q104.914 11.7306 106.423 11.7306Q109.376 11.7306 111.47 9.37766Q113.564 7.02472 113.564 3.71086Q113.564 0.427311 111.531-4.07613Q109.498-8.57957 106.508-13.3284Q103.519-18.0772 100.626-22.1149Q95.6694-28.764 86.8604-32.6975Q78.0515-36.6311 64.2751-38.81Q56.8665-39.9956 50.9948-42.251Q45.1231-44.5064 41.1846-49.6224Q40.2869-50.7663 39.2199-50.7335Q38.1529-50.7006 37.5615-49.8436Q36.9702-48.9866 37.3902-47.657Z"/>
  </g>
  <g id="Regular-M" transform="matrix(1 0 0 1 1389.39 1126)">
   <path d="M8.72266-59.4972Q8.72266-45.8333 12.642-34.7393Q16.5614-23.6453 23.8449-15.6819Q31.1283-7.71838 41.3447-3.45632Q51.5611 0.805746 64.1035 0.805746Q75.856 0.805746 84.8729-3.86612Q93.8897-8.538 99.0183-16.7707Q104.147-25.0034 104.147-35.6968Q104.147-45.9645 99.013-53.9739Q93.8791-61.9833 84.8728-66.5306Q75.8665-71.0778 64.2904-71.0778Q58.3514-71.0778 52.2143-69.9563Q46.0773-68.8348 39.3685-68.8348Q33.7371-68.8348 28.8863-70.7467Q24.0355-72.6585 19.9753-77.2278Q18.575-78.9081 16.5219-79.4213Q14.4687-79.9346 12.675-78.9857Q10.8812-78.0368 10.2073-75.2064Q9.59492-72.86 9.2834-69.6777Q8.97188-66.4954 8.84727-63.6505Q8.72266-60.8056 8.72266-59.4972ZM16.1104-59.4972Q16.1104-61.9436 16.189-64.4847Q16.2676-67.0259 16.5485-68.991Q16.7153-69.9497 17.4448-69.2614Q21.5906-65.5075 27.5365-63.5032Q33.4823-61.4989 39.3685-61.4989Q43.3245-61.4989 46.917-61.9039Q50.5095-62.3089 53.7493-62.745Q56.6672-63.1293 59.2533-63.4356Q61.8394-63.7419 64.2904-63.7419Q73.825-63.7419 81.1425-60.1273Q88.4601-56.5126 92.6096-50.1972Q96.7592-43.8817 96.7592-35.6968Q96.7592-27.0757 92.6355-20.511Q88.5119-13.9464 81.1684-10.2383Q73.825-6.53016 64.1035-6.53016Q49.4388-6.53016 38.6375-13.042Q27.8361-19.5538 21.9733-31.4455Q16.1104-43.3372 16.1104-59.4972ZM37.2754-48.1376Q38.7695-43.3758 42.2149-40.3397Q45.6603-37.3036 50.4852-35.3607Q55.31-33.4177 61.0826-32.0026Q67.3082-30.5083 71.9939-29.0648Q76.6796-27.6212 80.204-25.8911Q83.7285-24.1609 86.5327-21.8896Q89.3369-19.6182 91.8512-16.52Q95.9172-11.4985 97.6406-5.40869Q99.364 0.681137 101.617 7.90946Q102.178 9.6329 103.284 10.3389Q104.39 11.0448 105.666 11.0448Q108.365 11.0448 110.28 8.8805Q112.195 6.71619 112.195 3.62205Q112.195 0.26708 110.055-4.33815Q107.916-8.94338 104.92-13.5937Q101.924-18.2439 99.3599-21.7808Q94.4032-28.2997 85.7353-32.2392Q77.0674-36.1787 63.59-38.3698Q56.6219-39.5366 50.6623-41.8635Q44.7027-44.1903 40.5293-49.7228Q39.7518-50.7694 38.8399-50.7488Q37.928-50.7282 37.4306-49.9874Q36.9331-49.2465 37.2754-48.1376Z"/>
  </g>
  <g id="Light-M" transform="matrix(1 0 0 1 1093.5 1126)">
   <path d="M8.72266-59.4972Q8.72266-46.0044 12.5821-35.0558Q16.4415-24.1073 23.6139-16.2636Q30.7862-8.41984 40.8485-4.21772Q50.9108-0.0155969 63.2822-0.0155969Q74.7952-0.0155969 83.6324-4.58484Q92.4695-9.15407 97.4784-17.1985Q102.487-25.2429 102.487-35.6968Q102.487-45.7419 97.4645-53.5546Q92.4417-61.3672 83.6321-65.8118Q74.8226-70.2565 63.4691-70.2565Q57.5984-70.2565 51.4614-69.135Q45.3244-68.0135 38.5472-68.0135Q32.5736-68.0135 27.5859-70.0451Q22.5981-72.0766 18.5209-76.6802Q17.2747-78.1552 15.5295-78.5914Q13.7842-79.0275 12.2643-78.207Q10.7444-77.3865 10.1901-75.0181Q9.59492-72.7059 9.2834-69.5664Q8.97188-66.427 8.84727-63.6163Q8.72266-60.8056 8.72266-59.4972ZM14.4508-59.4972Q14.4508-62.5766 14.6062-65.3488Q14.7617-68.1209 15.0941-70.3428Q15.3293-71.6435 16.3325-70.6473Q20.7351-66.3631 26.7751-64.3417Q32.8151-62.3203 38.5472-62.3203Q42.452-62.3203 46.0101-62.7253Q49.5682-63.1302 52.8081-63.5664Q55.709-63.9676 58.3464-64.2654Q60.9839-64.5633 63.4691-64.5633Q73.2089-64.5633 80.7232-60.846Q88.2375-57.1287 92.4984-50.625Q96.7592-44.1212 96.7592-35.6968Q96.7592-26.8362 92.5158-20.0832Q88.2724-13.3303 80.7407-9.51956Q73.2089-5.70882 63.2822-5.70882Q48.378-5.70882 37.3884-12.3233Q26.3987-18.9377 20.4247-31.0177Q14.4508-43.0977 14.4508-59.4972ZM36.8991-48.206Q38.2903-43.9062 41.5133-40.9985Q44.7364-38.0908 49.7067-36.028Q54.677-33.9653 61.4247-32.2763Q67.1371-30.8846 71.5405-29.424Q75.9439-27.9633 79.3742-26.105Q82.8045-24.2466 85.66-21.7272Q88.5156-19.2077 91.1667-15.7329Q94.7537-11.1564 96.4429-5.64831Q98.1322-0.140206 100.403 7.19075Q100.963 8.87998 102.043 9.56883Q103.124 10.2577 104.349 10.2577Q106.98 10.2577 108.766 8.17042Q110.552 6.08315 110.552 3.02322Q110.552-0.417421 108.378-5.01402Q106.205-9.61063 103.2-14.0728Q100.196-18.5349 97.7172-21.6439Q92.4011-27.9234 84.0242-31.7345Q75.6473-35.5457 63.3506-37.7537Q55.2871-39.2971 49.4132-41.7095Q43.5393-44.1219 39.4685-49.4319Q38.8448-50.256 38.1212-50.2525Q37.3976-50.249 37.0028-49.6707Q36.608-49.0924 36.8991-48.206Z"/>
  </g>
  <g id="Thin-M" transform="matrix(1 0 0 1 797.871 1126)">
   <path d="M8.72266-59.4972Q8.72266-46.2306 12.5028-35.4745Q16.283-24.7183 23.3084-17.033Q30.3337-9.34758 40.1923-5.22474Q50.0508-1.10189 62.1959-1.10189Q73.3922-1.10189 81.9917-5.53539Q90.5912-9.96889 95.4418-17.7643Q100.292-25.5596 100.292-35.6968Q100.292-45.4476 95.4164-53Q90.5405-60.5524 81.9913-64.8613Q73.442-69.1702 62.3828-69.1702Q56.6026-69.1702 50.4656-68.0487Q44.3286-66.9272 37.4609-66.9272Q31.0349-66.9272 25.8659-69.1171Q20.697-71.3071 16.5973-75.9558Q15.5549-77.1594 14.2169-77.4937Q12.8789-77.8279 11.7212-77.1772Q10.5634-76.5265 10.1673-74.7691Q9.59492-72.5021 9.2834-69.4193Q8.97188-66.3365 8.84727-63.571Q8.72266-60.8056 8.72266-59.4972ZM12.2557-59.4972Q12.2557-63.4139 12.5129-66.4915Q12.7701-69.5692 13.1706-72.1306Q13.4963-73.8838 14.8615-72.4804Q19.6035-67.4946 25.768-65.4506Q31.9326-63.4066 37.4609-63.4066Q41.298-63.4066 44.8107-63.8116Q48.3234-64.2165 51.5632-64.6527Q54.4417-65.0764 57.147-65.3629Q59.8523-65.6495 62.3828-65.6495Q72.3941-65.6495 80.1687-61.7965Q87.9433-57.9435 92.3512-51.1907Q96.7592-44.4379 96.7592-35.6968Q96.7592-26.5195 92.3574-19.5175Q87.9557-12.5155 80.1749-8.56901Q72.3941-4.62252 62.1959-4.62252Q46.975-4.62252 35.7363-11.3727Q24.4976-18.1229 18.3767-30.452Q12.2557-42.781 12.2557-59.4972ZM36.4013-48.2965Q37.6565-44.6077 40.5854-41.8698Q43.5143-39.1318 48.677-36.9107Q53.8398-34.6897 61.8772-32.6383Q66.9109-31.3823 70.9409-29.8991Q74.9709-28.4158 78.2767-26.3878Q81.5825-24.3599 84.5059-21.5123Q87.4293-18.6648 90.2614-14.6918Q93.215-10.704 94.8589-5.96522Q96.5029-1.2265 98.7957 6.2402Q99.3565 7.88418 100.403 8.5504Q101.449 9.21663 102.606 9.21663Q105.146 9.21663 106.763 7.23127Q108.379 5.24591 108.379 2.23122Q108.379-1.32273 106.161-5.90793Q103.942-10.4931 100.926-14.7064Q97.9105-18.9197 95.5447-21.4629Q89.7533-27.4257 81.7611-31.067Q73.769-34.7084 63.0338-36.9389Q53.5217-38.9804 47.7611-41.5059Q42.0005-44.0314 38.0654-49.0471Q37.6452-49.5769 37.1707-49.596Q36.6961-49.6152 36.437-49.2519Q36.1779-48.8886 36.4013-48.2965Z"/>
  </g>
  <g id="Ultralight-M" transform="matrix(1 0 0 1 501.716 1126)">
   <path d="M8.72266-59.4972Q8.72266-46.3465 12.4622-35.6889Q16.2018-25.0313 23.1519-17.427Q30.102-9.82277 39.8561-5.74052Q49.6103-1.65828 61.6395-1.65828Q72.6736-1.65828 81.1514-6.02226Q89.6292-10.3862 94.3986-18.054Q99.168-25.7219 99.168-35.6968Q99.168-45.2969 94.3674-52.716Q89.5668-60.1351 81.1509-64.3744Q72.7349-68.6138 61.8264-68.6138Q56.0926-68.6138 49.9556-67.4923Q43.8186-66.3708 36.9045-66.3708Q30.2467-66.3708 24.985-68.6419Q19.7233-70.9129 15.6121-75.5849Q14.6741-76.6493 13.5447-76.9314Q12.4152-77.2135 11.443-76.6497Q10.4707-76.0859 10.1556-74.6415Q9.59492-72.3977 9.2834-69.3439Q8.97188-66.2901 8.84727-63.5479Q8.72266-60.8056 8.72266-59.4972ZM11.1315-59.4972Q11.1315-63.8427 11.4407-67.0768Q11.75-70.311 12.1854-73.0463Q12.5574-75.0312 14.108-73.4192Q19.0239-68.0742 25.2522-66.0186Q31.4806-63.963 36.9045-63.963Q40.7069-63.963 44.1964-64.368Q47.6858-64.7729 50.9256-65.2091Q53.7926-65.6442 56.5327-65.9251Q59.2728-66.2059 61.8264-66.2059Q71.9768-66.2059 79.8846-62.2834Q87.7925-58.3608 92.2758-51.4805Q96.7592-44.6002 96.7592-35.6968Q96.7592-26.3573 92.2763-19.2277Q87.7935-12.0981 79.8851-8.08214Q71.9768-4.06613 61.6395-4.06613Q46.2564-4.06613 34.8901-10.8858Q23.5238-17.7056 17.3277-30.1622Q11.1315-42.6188 11.1315-59.4972ZM36.1464-48.3429Q37.3318-44.967 40.1101-42.316Q42.8884-39.665 48.1497-37.3628Q53.4109-35.0607 62.109-32.8237Q66.795-31.6373 70.6338-30.1424Q74.4726-28.6475 77.7146-26.5327Q80.9566-24.4179 83.9147-21.4023Q86.8729-18.3867 89.7977-14.1586Q92.4268-10.4722 94.0476-6.12755Q95.6684-1.78289 97.9727 5.75333Q98.5335 7.37413 99.5624 8.02877Q100.591 8.68341 101.714 8.68341Q104.208 8.68341 105.737 6.75024Q107.267 4.81707 107.267 1.82556Q107.267-1.78642 105.025-6.36578Q102.782-10.9451 99.7612-15.0309Q96.7399-19.1168 94.4319-21.3702Q88.3971-27.1707 80.602-30.7252Q72.8069-34.2796 62.8716-36.5216Q52.6175-38.8182 46.9149-41.4016Q41.2124-43.9851 37.3468-48.85Q37.0308-49.2291 36.6838-49.2598Q36.3368-49.2905 36.1472-49.0374Q35.9577-48.7842 36.1464-48.3429Z"/>
  </g>
  <g id="Black-S" transform="matrix(1 0 0 1 2882.81 696)">
   <path d="M6.83594-54.248Q6.83594-42.8711 10.1562-33.5693Q13.4766-24.2676 19.6289-17.6025Q25.7812-10.9375 34.3506-7.34863Q42.9199-3.75977 53.4668-3.75977Q63.5254-3.75977 71.3379-7.86133Q79.1504-11.9629 83.5938-19.1406Q88.0371-26.3184 88.0371-35.5957Q88.0371-44.5801 83.5693-51.5625Q79.1016-58.5449 71.3379-62.5488Q63.5742-66.5527 53.6133-66.5527Q48.6328-66.5527 43.8232-65.6738Q39.0137-64.7949 34.082-64.7949Q29.9316-64.7949 26.8555-66.1133Q23.7793-67.4316 21.2891-70.2637Q19.1406-72.8027 16.3574-73.1934Q13.5742-73.584 11.2305-72.0703Q8.88672-70.5566 8.10547-67.334Q7.61719-65.332 7.32422-62.6709Q7.03125-60.0098 6.93359-57.666Q6.83594-55.3223 6.83594-54.248ZM19.043-54.248Q19.043-54.3945 19.043-54.5654Q19.043-54.7363 19.043-54.8828Q19.043-56.3965 20.3613-55.7617Q23.4375-54.248 27.002-53.418Q30.5664-52.5879 34.082-52.5879Q37.3535-52.5879 40.3076-52.9297Q43.2617-53.2715 45.8008-53.6133Q48.0469-53.9551 49.9512-54.1504Q51.8555-54.3457 53.6133-54.3457Q60.2051-54.3457 65.21-51.9531Q70.2148-49.5605 73.0225-45.3369Q75.8301-41.1133 75.8301-35.5957Q75.8301-29.7363 73.0225-25.3174Q70.2148-20.8984 65.1855-18.4326Q60.1562-15.9668 53.4668-15.9668Q42.8711-15.9668 35.1562-20.6055Q27.4414-25.2441 23.2422-33.8379Q19.043-42.4316 19.043-54.248ZM29.7363-43.0664Q30.6641-40.2832 33.3496-37.8174Q36.0352-35.3516 40.21-33.4473Q44.3848-31.543 49.707-30.3711Q55.5664-29.1016 59.375-27.9053Q63.1836-26.709 65.6494-25.4395Q68.1152-24.1699 69.7998-22.6807Q71.4844-21.1914 73.0469-19.3359Q76.2207-15.5273 77.4902-10.7178Q78.7598-5.9082 80.5664-0.146484Q81.2012 1.85547 82.7148 3.05176Q84.2285 4.24805 86.3281 4.24805Q89.6484 4.24805 91.9922 1.66016Q94.3359-0.927734 94.3359-4.39453Q94.3359-6.68945 93.1641-9.81445Q91.9922-12.9395 89.6729-17.041Q87.3535-21.1426 83.7891-26.2695Q79.8828-31.9824 72.4365-35.0342Q64.9902-38.0859 53.0762-39.7461Q45.459-40.7715 41.2109-42.2607Q36.9629-43.75 34.8145-46.0938Q33.6426-47.3633 32.2021-47.29Q30.7617-47.2168 29.9316-46.0938Q29.1016-44.9707 29.7363-43.0664Z"/>
  </g>
  <g id="Heavy-S" transform="matrix(1 0 0 1 2586.77 696)">
   <path d="M6.83594-54.248Q6.83594-43.0094 10.1044-33.8344Q13.3728-24.6594 19.433-18.0808Q25.4931-11.5022 33.9472-7.96519Q42.4013-4.42818 52.7984-4.42818Q62.6841-4.42818 70.341-8.43755Q77.9979-12.4469 82.3549-19.4748Q86.7118-26.5028 86.7118-35.5957Q86.7118-44.3842 82.3362-51.2225Q77.9606-58.0609 70.341-61.9726Q62.7214-65.8843 52.9449-65.8843Q48.0335-65.8843 43.224-65.0054Q38.4144-64.1265 33.4136-64.1265Q29.2402-64.1265 26.0084-65.4737Q22.7767-66.8208 20.1251-69.8257Q18.2071-72.0997 15.666-72.5019Q13.1248-72.904 10.9712-71.5575Q8.81757-70.2109 8.08242-67.1726Q7.59414-65.2053 7.31269-62.5787Q7.03125-59.9521 6.93359-57.6314Q6.83594-55.3107 6.83594-54.248ZM17.7177-54.248Q17.7177-54.7403 17.7234-55.3145Q17.7292-55.8888 17.7753-56.3349Q17.7983-57.6296 18.9092-57.0525Q21.9969-55.2622 25.8092-54.2593Q29.6214-53.2563 33.4136-53.2563Q36.6505-53.2563 39.5758-53.5923Q42.5011-53.9284 45.0402-54.2702Q47.2978-54.6004 49.2251-54.8073Q51.1525-55.0141 52.9449-55.0141Q59.7211-55.0141 64.8758-52.5293Q70.0305-50.0446 72.9303-45.6711Q75.8301-41.2977 75.8301-35.5957Q75.8301-29.5519 72.936-24.9832Q70.042-20.4144 64.8629-17.8564Q59.6837-15.2984 52.7984-15.2984Q42.0183-15.2984 34.1479-20.035Q26.2774-24.7716 21.9975-33.5152Q17.7177-42.2588 17.7177-54.248ZM29.6557-43.5965Q30.6525-40.5367 33.3669-38.0767Q36.0813-35.6166 40.1466-33.816Q44.2119-32.0155 49.2345-30.8897Q54.921-29.6317 58.7296-28.4527Q62.5382-27.2737 65.0847-25.9984Q67.6312-24.7231 69.431-23.1935Q71.2308-21.6639 72.874-19.7162Q76.1055-15.827 77.398-10.9598Q78.6906-6.09259 80.4857-0.365449Q81.0744 1.48669 82.4383 2.53316Q83.8021 3.57963 85.6482 3.57963Q88.6919 3.57963 90.8513 1.19342Q93.0106-1.1928 93.0106-4.41758Q93.0106-6.78165 91.7235-10.0219Q90.4364-13.2621 88.1113-17.2773Q85.7862-21.2924 82.579-25.9123Q78.7188-31.5099 71.3936-34.5847Q64.0683-37.6595 52.3386-39.3312Q45.3553-40.2875 40.9977-41.8459Q36.6402-43.4043 34.2152-46.2436Q33.1586-47.4324 31.8679-47.3707Q30.5773-47.309 29.8394-46.2954Q29.1016-45.2819 29.6557-43.5965Z"/>
  </g>
  <g id="Bold-S" transform="matrix(1 0 0 1 2290.8 696)">
   <path d="M6.83594-54.248Q6.83594-43.1641 10.0464-34.1309Q13.2568-25.0977 19.2139-18.6157Q25.1709-12.1338 33.4961-8.65479Q41.8213-5.17578 52.0508-5.17578Q61.7432-5.17578 69.2261-9.08203Q76.709-12.9883 80.9692-19.8486Q85.2295-26.709 85.2295-35.5957Q85.2295-44.165 80.957-50.8423Q76.6846-57.5195 69.2261-61.3281Q61.7676-65.1367 52.1973-65.1367Q47.3633-65.1367 42.5537-64.2578Q37.7441-63.3789 32.666-63.3789Q28.4668-63.3789 25.061-64.7583Q21.6553-66.1377 18.8232-69.3359Q17.1631-71.3135 14.8926-71.7285Q12.6221-72.1436 10.6812-70.9839Q8.74023-69.8242 8.05664-66.9922Q7.56836-65.0635 7.2998-62.4756Q7.03125-59.8877 6.93359-57.5928Q6.83594-55.2979 6.83594-54.248ZM16.2354-54.248Q16.2354-55.127 16.2476-56.1523Q16.2598-57.1777 16.3574-57.959Q16.4062-59.0088 17.2852-58.4961Q20.3857-56.3965 24.4751-55.2002Q28.5645-54.0039 32.666-54.0039Q35.8643-54.0039 38.7573-54.3335Q41.6504-54.6631 44.1895-55.0049Q46.46-55.3223 48.4131-55.542Q50.3662-55.7617 52.1973-55.7617Q59.1797-55.7617 64.502-53.1738Q69.8242-50.5859 72.8271-46.0449Q75.8301-41.5039 75.8301-35.5957Q75.8301-29.3457 72.8394-24.6094Q69.8486-19.873 64.502-17.2119Q59.1553-14.5508 52.0508-14.5508Q41.0645-14.5508 33.02-19.397Q24.9756-24.2432 20.6055-33.1543Q16.2354-42.0654 16.2354-54.248ZM29.5654-44.1895Q30.6396-40.8203 33.3862-38.3667Q36.1328-35.9131 40.0757-34.2285Q44.0186-32.5439 48.7061-31.4697Q54.1992-30.2246 58.0078-29.0649Q61.8164-27.9053 64.4531-26.6235Q67.0898-25.3418 69.0186-23.7671Q70.9473-22.1924 72.6807-20.1416Q75.9766-16.1621 77.2949-11.2305Q78.6133-6.29883 80.3955-0.610352Q80.9326 1.07422 82.1289 1.95312Q83.3252 2.83203 84.8877 2.83203Q87.6221 2.83203 89.5752 0.671387Q91.5283-1.48926 91.5283-4.44336Q91.5283-6.88477 90.1123-10.2539Q88.6963-13.623 86.3647-17.5415Q84.0332-21.46 81.2256-25.5127Q77.417-30.9814 70.2271-34.082Q63.0371-37.1826 51.5137-38.8672Q45.2393-39.7461 40.7593-41.3818Q36.2793-43.0176 33.5449-46.4111Q32.6172-47.5098 31.4941-47.4609Q30.3711-47.4121 29.7363-46.521Q29.1016-45.6299 29.5654-44.1895Z"/>
  </g>
  <g id="Semibold-S" transform="matrix(1 0 0 1 1994.6 696)">
   <path d="M6.83594-54.248Q6.83594-43.2707 10.0064-34.3353Q13.1769-25.3998 19.0628-18.9845Q24.9487-12.5692 33.1851-9.13022Q41.4214-5.69121 51.5354-5.69121Q61.0944-5.69121 68.4574-9.52637Q75.8203-13.3615 80.0139-20.1063Q84.2075-26.8512 84.2075-35.5957Q84.2075-44.014 80.0062-50.5801Q75.8048-57.1463 68.4574-60.8838Q61.11-64.6213 51.6818-64.6213Q46.9012-64.6213 42.0916-63.7424Q37.282-62.8635 32.1506-62.8635Q27.9336-62.8635 24.4079-64.2651Q20.8821-65.6667 17.9257-68.9982Q16.4433-70.7714 14.3594-71.1953Q12.2755-71.6192 10.4812-70.5884Q8.68691-69.5576 8.03887-66.8678Q7.55059-64.9657 7.29092-62.4045Q7.03125-59.8433 6.93359-57.5661Q6.83594-55.289 6.83594-54.248ZM15.2134-54.248Q15.2134-55.3936 15.23-56.73Q15.2467-58.0664 15.3799-59.0787Q15.4465-59.9597 16.1654-59.4914Q19.2749-57.1785 23.5553-55.8489Q27.8357-54.5193 32.1506-54.5193Q35.3222-54.5193 38.193-54.8445Q41.0639-55.1696 43.6029-55.5114Q45.8823-55.8199 47.8532-56.0485Q49.8241-56.2771 51.6818-56.2771Q58.8064-56.2771 64.2442-53.6182Q69.682-50.9592 72.7561-46.3026Q75.8301-41.6461 75.8301-35.5957Q75.8301-29.2035 72.7727-24.3517Q69.7153-19.4998 64.2531-16.7676Q58.7909-14.0354 51.5354-14.0354Q40.4068-14.0354 32.2424-18.9571Q24.078-23.8788 19.6457-32.9055Q15.2134-41.9321 15.2134-54.248ZM29.5032-44.5982Q30.6308-41.0158 33.3996-38.5667Q36.1684-36.1175 40.0268-34.5129Q43.8853-32.9083 48.3417-31.8696Q53.7016-30.6334 57.5102-29.4871Q61.3188-28.3407 64.0177-27.0545Q66.7166-25.7684 68.7342-24.1625Q70.7518-22.5567 72.5474-20.4349Q75.8877-16.3932 77.2238-11.4171Q78.56-6.44102 80.3333-0.779199Q80.8349 0.789844 81.9156 1.55322Q82.9964 2.3166 84.3634 2.3166Q86.8845 2.3166 88.6954 0.311475Q90.5063-1.69365 90.5063-4.46113Q90.5063-6.95586 89.0015-10.4139Q87.4966-13.8719 85.1606-17.7237Q82.8246-21.5755 80.2925-25.2372Q76.5194-30.6171 69.4228-33.7354Q62.3262-36.8538 50.9449-38.5473Q45.1593-39.3729 40.5949-41.0619Q36.0305-42.751 33.0828-46.5267Q32.2439-47.5631 31.2364-47.5231Q30.2289-47.4832 29.6652-46.6765Q29.1016-45.8698 29.5032-44.5982Z"/>
  </g>
  <g id="Medium-S" transform="matrix(1 0 0 1 1698.27 696)">
   <path d="M6.83594-54.248Q6.83594-43.3516 9.97607-34.4902Q13.1162-25.6289 18.9482-19.2642Q24.7803-12.8994 32.9492-9.49072Q41.1182-6.08203 51.1445-6.08203Q60.6025-6.08203 67.8745-9.86328Q75.1465-13.6445 79.2896-20.3018Q83.4326-26.959 83.4326-35.5957Q83.4326-43.8994 79.2852-50.3813Q75.1377-56.8633 67.8745-60.5469Q60.6113-64.2305 51.291-64.2305Q46.5508-64.2305 41.7412-63.3516Q36.9316-62.4727 31.7598-62.4727Q27.5293-62.4727 23.9126-63.8911Q20.2959-65.3096 17.2451-68.7422Q15.8975-70.3604 13.9551-70.791Q12.0127-71.2217 10.3296-70.2886Q8.64648-69.3555 8.02539-66.7734Q7.53711-64.8916 7.28418-62.3506Q7.03125-59.8096 6.93359-57.5459Q6.83594-55.2822 6.83594-54.248ZM14.4385-54.248Q14.4385-55.5957 14.4585-57.168Q14.4785-58.7402 14.6387-59.9277Q14.7188-60.6807 15.3164-60.2461Q18.4326-57.7715 22.8579-56.3408Q27.2832-54.9102 31.7598-54.9102Q34.9111-54.9102 37.7651-55.2319Q40.6191-55.5537 43.1582-55.8955Q45.4443-56.1973 47.4287-56.4326Q49.4131-56.668 51.291-56.668Q58.5234-56.668 64.0488-53.9551Q69.5742-51.2422 72.7021-46.498Q75.8301-41.7539 75.8301-35.5957Q75.8301-29.0957 72.7222-24.1562Q69.6143-19.2168 64.0645-16.4307Q58.5146-13.6445 51.1445-13.6445Q39.9082-13.6445 31.6528-18.6235Q23.3975-23.6025 18.918-32.7168Q14.4385-41.8311 14.4385-54.248ZM29.4561-44.9082Q30.624-41.1641 33.4097-38.7183Q36.1953-36.2725 39.9897-34.7285Q43.7842-33.1846 48.0654-32.1729Q53.3242-30.9434 57.1328-29.8071Q60.9414-28.6709 63.6875-27.3813Q66.4336-26.0918 68.5186-24.4624Q70.6035-22.833 72.4463-20.6572Q75.8203-16.5684 77.1699-11.5586Q78.5195-6.54883 80.2861-0.907227Q80.7607 0.574219 81.7539 1.25Q82.7471 1.92578 83.9658 1.92578Q86.3252 1.92578 88.0283 0.0385742Q89.7314-1.84863 89.7314-4.47461Q89.7314-7.00977 88.1592-10.5352Q86.5869-14.0605 84.2476-17.8618Q81.9082-21.6631 79.585-25.0283Q75.8389-30.3408 68.813-33.4727Q61.7871-36.6045 50.5137-38.3047Q45.0986-39.0898 40.4702-40.8193Q35.8418-42.5488 32.7324-46.6143Q31.9609-47.6035 31.041-47.5703Q30.1211-47.5371 29.6113-46.7944Q29.1016-46.0518 29.4561-44.9082Z"/>
  </g>
  <g id="Regular-S" transform="matrix(1 0 0 1 1402.07 696)">
   <path d="M6.83594-54.248Q6.83594-43.457 9.93652-34.6924Q13.0371-25.9277 18.7988-19.6289Q24.5605-13.3301 32.6416-9.96094Q40.7227-6.5918 50.6348-6.5918Q59.9609-6.5918 67.1143-10.3027Q74.2676-14.0137 78.3447-20.5566Q82.4219-27.0996 82.4219-35.5957Q82.4219-43.75 78.3447-50.1221Q74.2676-56.4941 67.1143-60.1074Q59.9609-63.7207 50.7812-63.7207Q46.0938-63.7207 41.2842-62.8418Q36.4746-61.9629 31.25-61.9629Q27.002-61.9629 23.2666-63.4033Q19.5312-64.8438 16.3574-68.4082Q15.1855-69.8242 13.4277-70.2637Q11.6699-70.7031 10.1318-69.8975Q8.59375-69.0918 8.00781-66.6504Q7.51953-64.7949 7.27539-62.2803Q7.03125-59.7656 6.93359-57.5195Q6.83594-55.2734 6.83594-54.248ZM13.4277-54.248Q13.4277-55.8594 13.4521-57.7393Q13.4766-59.6191 13.6719-61.0352Q13.7695-61.6211 14.209-61.2305Q17.334-58.5449 21.9482-56.9824Q26.5625-55.4199 31.25-55.4199Q34.375-55.4199 37.207-55.7373Q40.0391-56.0547 42.5781-56.3965Q44.873-56.6895 46.875-56.9336Q48.877-57.1777 50.7812-57.1777Q58.1543-57.1777 63.7939-54.3945Q69.4336-51.6113 72.6318-46.7529Q75.8301-41.8945 75.8301-35.5957Q75.8301-28.9551 72.6562-23.9014Q69.4824-18.8477 63.8184-15.9912Q58.1543-13.1348 50.6348-13.1348Q39.2578-13.1348 30.8838-18.1885Q22.5098-23.2422 17.9688-32.4707Q13.4277-41.6992 13.4277-54.248ZM29.3945-45.3125Q30.6152-41.3574 33.4229-38.916Q36.2305-36.4746 39.9414-35.0098Q43.6523-33.5449 47.7051-32.5684Q52.832-31.3477 56.6406-30.2246Q60.4492-29.1016 63.2568-27.8076Q66.0645-26.5137 68.2373-24.8535Q70.4102-23.1934 72.3145-20.9473Q75.7324-16.7969 77.0996-11.7432Q78.4668-6.68945 80.2246-1.07422Q80.6641 0.292969 81.543 0.854492Q82.4219 1.41602 83.4473 1.41602Q85.5957 1.41602 87.1582-0.317383Q88.7207-2.05078 88.7207-4.49219Q88.7207-7.08008 87.0605-10.6934Q85.4004-14.3066 83.0566-18.042Q80.7129-21.7773 78.6621-24.7559Q74.9512-29.9805 68.0176-33.1299Q61.084-36.2793 49.9512-37.9883Q45.0195-38.7207 40.3076-40.5029Q35.5957-42.2852 32.2754-46.7285Q31.5918-47.6562 30.7861-47.6318Q29.9805-47.6074 29.541-46.9482Q29.1016-46.2891 29.3945-45.3125Z"/>
  </g>
  <g id="Light-S" transform="matrix(1 0 0 1 1106.08 696)">
   <path d="M6.83594-54.248Q6.83594-43.6083 9.8835-34.9724Q12.9311-26.3364 18.5945-20.1435Q24.2579-13.9506 32.2027-10.6345Q40.1474-7.31837 49.9082-7.31837Q59.0225-7.31837 66.0169-10.9385Q73.0113-14.5587 76.9825-20.9351Q80.9537-27.3115 80.9537-35.5957Q80.9537-43.5532 76.9749-49.7512Q72.996-55.9491 66.0168-59.4716Q59.0375-62.9941 50.0547-62.9941Q45.4277-62.9941 40.6181-62.1152Q35.8086-61.2363 30.5234-61.2363Q25.9727-61.2363 22.1162-62.7827Q18.2597-64.329 15.0709-67.9237Q14.0353-69.1582 12.5498-69.5295Q11.0644-69.9008 9.76855-69.2087Q8.4727-68.5165 7.99255-66.4838Q7.51953-64.6586 7.27539-62.1819Q7.03125-59.7051 6.93359-57.4893Q6.83594-55.2734 6.83594-54.248ZM11.9596-54.248Q11.9596-56.4194 12.052-58.5036Q12.1445-60.5878 12.3853-62.2309Q12.5435-63.1195 13.225-62.4565Q16.5771-59.3018 21.2747-57.7241Q25.9722-56.1465 30.5234-56.1465Q33.6032-56.1465 36.4048-56.4639Q39.2064-56.7813 41.7455-57.1231Q44.0254-57.431 46.0728-57.6677Q48.1201-57.9043 50.0547-57.9043Q57.6093-57.9043 63.423-55.0303Q69.2368-52.1563 72.5334-47.1313Q75.8301-42.1064 75.8301-35.5957Q75.8301-28.7432 72.5503-23.5229Q69.2706-18.3027 63.4399-15.3554Q57.6093-12.4082 49.9082-12.4082Q38.3194-12.4082 29.7788-17.5527Q21.2382-22.6972 16.5989-32.0923Q11.9596-41.4874 11.9596-54.248ZM29.0616-45.373Q30.1913-41.8266 32.8022-39.4988Q35.4131-37.1709 39.2527-35.6002Q43.0923-34.0294 48.0077-32.8105Q52.6807-31.6806 56.2396-30.5424Q59.7984-29.4042 62.5228-27.9968Q65.2471-26.5895 67.4653-24.7098Q69.6836-22.8302 71.7089-20.251Q74.7032-16.4942 76.0401-11.9551Q77.3771-7.41603 79.1499-1.71Q79.5893-0.373077 80.4456 0.173314Q81.3019 0.719706 82.2817 0.719706Q84.3697 0.719706 85.8186-0.945536Q87.2676-2.61078 87.2676-5.02192Q87.2676-7.6856 85.5771-11.2912Q83.8867-14.8969 81.5355-18.4658Q79.1842-22.0347 77.209-24.6348Q73.1801-29.6476 66.5039-32.6834Q59.8277-35.7193 49.7393-37.4433Q43.8388-38.5089 39.2026-40.3667Q34.5665-42.2246 31.337-46.4712Q30.7894-47.202 30.1503-47.1928Q29.5113-47.1835 29.1626-46.6681Q28.8139-46.1528 29.0616-45.373Z"/>
  </g>
  <g id="Thin-S" transform="matrix(1 0 0 1 810.331 696)">
   <path d="M6.83594-54.248Q6.83594-43.8085 9.81337-35.3427Q12.7908-26.8769 18.3242-20.8241Q23.8577-14.7713 31.6221-11.5253Q39.3866-8.27932 48.9472-8.27932Q57.7814-8.27932 64.5655-11.7794Q71.3497-15.2795 75.1808-21.4355Q79.012-27.5916 79.012-35.5957Q79.012-43.2928 75.1631-49.2606Q71.3143-55.2284 64.5653-58.6308Q57.8162-62.0332 49.0937-62.0332Q44.5468-62.0332 39.7372-61.1543Q34.9277-60.2754 29.5625-60.2754Q24.6115-60.2754 20.5947-61.9618Q16.5779-63.6482 13.3693-67.283Q12.514-68.2773 11.3888-68.5584Q10.2636-68.8396 9.28807-68.2977Q8.31259-67.7557 7.97237-66.2635Q7.51953-64.4783 7.27539-62.0517Q7.03125-59.625 6.93359-57.4492Q6.83594-55.2734 6.83594-54.248ZM10.0178-54.248Q10.0178-57.16 10.2003-59.5145Q10.3827-61.869 10.6837-63.8125Q10.9219-65.1013 11.9237-64.0781Q15.5762-60.3027 20.3839-58.7051Q25.1916-57.1074 29.5625-57.1074Q32.5823-57.1074 35.3438-57.4248Q38.1052-57.7422 40.6443-58.084Q42.9044-58.4118 45.0118-58.6385Q47.1191-58.8653 49.0937-58.8653Q56.8885-58.8653 62.9325-55.8712Q68.9764-52.8771 72.4032-47.6318Q75.8301-42.3866 75.8301-35.5957Q75.8301-28.4631 72.4102-23.0225Q68.9904-17.5819 62.9395-14.5146Q56.8885-11.4472 48.9472-11.4472Q37.0783-11.4472 28.3174-16.7118Q19.5565-21.9764 14.7871-31.5918Q10.0178-41.2072 10.0178-54.248ZM28.6214-45.4531Q29.6306-42.4472 31.9813-40.2695Q34.3321-38.0918 38.3419-36.381Q42.3517-34.6701 48.408-33.1307Q52.4806-32.1208 55.7091-30.9626Q58.9377-29.8045 61.5519-28.2471Q64.1661-26.6897 66.4443-24.5198Q68.7226-22.3499 70.9081-19.33Q73.342-16.094 74.6389-12.2355Q75.9358-8.37698 77.7285-2.55088Q78.1679-1.25398 78.9943-0.727598Q79.8206-0.201219 80.7403-0.201219Q82.7481-0.201219 84.0469-1.77632Q85.3457-3.35142 85.3457-5.72254Q85.3457-8.48645 83.6152-12.082Q81.8848-15.6776 79.5236-19.0263Q77.1624-22.3751 75.2871-24.4747Q70.8378-29.2073 64.502-32.093Q58.1661-34.9787 49.4591-36.7225Q42.2771-38.2287 37.7412-40.1866Q33.2053-42.1446 30.0958-46.1308Q29.7283-46.6013 29.3095-46.6121Q28.8907-46.6228 28.6621-46.2976Q28.4335-45.9725 28.6214-45.4531Z"/>
  </g>
  <g id="Ultralight-S" transform="matrix(1 0 0 1 514.112 696)">
   <path d="M6.83594-54.248Q6.83594-43.911 9.77745-35.5324Q12.719-27.1538 18.1858-21.1727Q23.6526-15.1917 31.3248-11.9816Q38.9969-8.77151 48.455-8.77151Q57.1457-8.77151 63.8222-12.2101Q70.4987-15.6487 74.258-21.6919Q78.0174-27.7351 78.0174-35.5957Q78.0174-43.1595 74.2352-49.0093Q70.4529-54.8592 63.8218-58.2001Q57.1907-61.541 48.6015-61.541Q44.0956-61.541 39.286-60.6621Q34.4765-59.7832 29.0703-59.7832Q23.9143-59.7832 19.8154-61.5414Q15.7166-63.2996 12.4977-66.9548Q11.7348-67.8261 10.7941-68.0611Q9.85336-68.2961 9.04198-67.831Q8.23059-67.366 7.96204-66.1507Q7.51953-64.386 7.27539-61.985Q7.03125-59.584 6.93359-57.4287Q6.83594-55.2734 6.83594-54.248ZM9.02328-54.248Q9.02328-57.5394 9.25179-60.0323Q9.48029-62.5252 9.81216-64.6225Q10.0914-66.1163 11.2572-64.9086Q15.0635-60.8154 19.9276-59.2075Q24.7917-57.5996 29.0703-57.5996Q32.0595-57.5996 34.8003-57.917Q37.5412-58.2344 40.0803-58.5762Q42.3302-58.9142 44.4683-59.1358Q46.6064-59.3575 48.6015-59.3575Q56.5193-59.3575 62.6812-56.3019Q68.8431-53.2463 72.3366-47.8882Q75.8301-42.5301 75.8301-35.5957Q75.8301-28.3195 72.3385-22.7661Q68.8469-17.2127 62.6831-14.0839Q56.5193-10.955 48.455-10.955Q36.4426-10.955 27.5688-16.2811Q18.6951-21.6072 13.8592-31.3354Q9.02328-41.0637 9.02328-54.248ZM28.3958-45.4941Q29.3434-42.765 31.5609-40.6643Q33.7784-38.5635 37.8754-36.7809Q41.9724-34.9983 48.613-33.2947Q52.3781-32.3463 55.4375-31.1779Q58.4969-30.0095 61.0546-28.3752Q63.6124-26.741 65.9214-24.4225Q68.2304-22.1039 70.4979-18.8583Q72.6448-15.889 73.9212-12.3791Q75.1976-8.86917 77.0004-2.98157Q77.4399-1.70517 78.2509-1.18904Q79.0619-0.672913 79.9507-0.672913Q81.9176-0.672913 83.1394-2.20184Q84.3613-3.73077 84.3613-6.08139Q84.3613-8.89664 82.6103-12.487Q80.8594-16.0774 78.4931-19.3134Q76.1269-22.5494 74.3027-24.3927Q69.6381-28.9818 63.4766-31.7905Q57.3151-34.5993 49.3156-36.3533Q41.4772-38.0852 36.9926-40.0944Q32.5081-42.1036 29.4601-45.9564Q29.1847-46.2936 28.8788-46.3146Q28.5728-46.3356 28.4058-46.1079Q28.2387-45.8801 28.3958-45.4941Z"/>
  </g>
 </g>
</svg>
