<?xml version="1.0" encoding="UTF-8"?>
<!--Generator: Apple Native CoreSVG 175.5-->
<!DOCTYPE svg
PUBLIC "-//W3C//DTD SVG 1.1//EN"
       "http://www.w3.org/Graphics/SVG/1.1/DTD/svg11.dtd">
<svg version="1.1" xmlns="http://www.w3.org/2000/svg" xmlns:xlink="http://www.w3.org/1999/xlink" width="3300" height="2200">
 <!--glyph: "uni101424.medium", point size: 100.0, font version: "18.0d9e1", template writer version: "84"-->
 <g id="Notes">
  <rect height="2200" id="artboard" style="fill:white;opacity:1" width="3300" x="0" y="0"/>
  <line style="fill:none;stroke:black;opacity:1;stroke-width:0.5;" x1="263" x2="3036" y1="292" y2="292"/>
  <text style="stroke:none;fill:black;font-family:sans-serif;font-size:13;font-weight:bold;" transform="matrix(1 0 0 1 263 322)">Weight/Scale Variations</text>
  <text style="stroke:none;fill:black;font-family:sans-serif;font-size:13;text-anchor:middle;" transform="matrix(1 0 0 1 559.711 322)">Ultralight</text>
  <text style="stroke:none;fill:black;font-family:sans-serif;font-size:13;text-anchor:middle;" transform="matrix(1 0 0 1 856.422 322)">Thin</text>
  <text style="stroke:none;fill:black;font-family:sans-serif;font-size:13;text-anchor:middle;" transform="matrix(1 0 0 1 1153.13 322)">Light</text>
  <text style="stroke:none;fill:black;font-family:sans-serif;font-size:13;text-anchor:middle;" transform="matrix(1 0 0 1 1449.84 322)">Regular</text>
  <text style="stroke:none;fill:black;font-family:sans-serif;font-size:13;text-anchor:middle;" transform="matrix(1 0 0 1 1746.56 322)">Medium</text>
  <text style="stroke:none;fill:black;font-family:sans-serif;font-size:13;text-anchor:middle;" transform="matrix(1 0 0 1 2043.27 322)">Semibold</text>
  <text style="stroke:none;fill:black;font-family:sans-serif;font-size:13;text-anchor:middle;" transform="matrix(1 0 0 1 2339.98 322)">Bold</text>
  <text style="stroke:none;fill:black;font-family:sans-serif;font-size:13;text-anchor:middle;" transform="matrix(1 0 0 1 2636.69 322)">Heavy</text>
  <text style="stroke:none;fill:black;font-family:sans-serif;font-size:13;text-anchor:middle;" transform="matrix(1 0 0 1 2933.4 322)">Black</text>
  <line style="fill:none;stroke:black;opacity:1;stroke-width:0.5;" x1="263" x2="3036" y1="1903" y2="1903"/>
  <g transform="matrix(1 0 0 1 263 1933)">
   <path d="M9.24805 0.830078Q10.8691 0.830078 12.2949 0.214844Q13.7207-0.400391 14.8096-1.49414Q15.8984-2.58789 16.5186-4.01367Q17.1387-5.43945 17.1387-7.05078Q17.1387-8.66211 16.5186-10.0879Q15.8984-11.5137 14.8047-12.6074Q13.7109-13.7012 12.2852-14.3164Q10.8594-14.9316 9.23828-14.9316Q7.62695-14.9316 6.20117-14.3164Q4.77539-13.7012 3.69141-12.6074Q2.60742-11.5137 1.9873-10.0879Q1.36719-8.66211 1.36719-7.05078Q1.36719-5.43945 1.9873-4.01367Q2.60742-2.58789 3.69629-1.49414Q4.78516-0.400391 6.21094 0.214844Q7.63672 0.830078 9.24805 0.830078ZM9.24805-0.654297Q7.91992-0.654297 6.7627-1.14746Q5.60547-1.64062 4.73145-2.51953Q3.85742-3.39844 3.36426-4.56055Q2.87109-5.72266 2.87109-7.05078Q2.87109-8.37891 3.35938-9.54102Q3.84766-10.7031 4.72168-11.582Q5.5957-12.4609 6.75293-12.9541Q7.91016-13.4473 9.23828-13.4473Q10.5762-13.4473 11.7383-12.9541Q12.9004-12.4609 13.7793-11.582Q14.6582-10.7031 15.1514-9.54102Q15.6445-8.37891 15.6445-7.05078Q15.6445-5.72266 15.1514-4.56055Q14.6582-3.39844 13.7793-2.51953Q12.9004-1.64062 11.7432-1.14746Q10.5859-0.654297 9.24805-0.654297ZM5.6543-7.05078Q5.6543-6.72852 5.85938-6.52832Q6.06445-6.32812 6.40625-6.32812L8.51562-6.32812L8.51562-4.20898Q8.51562-3.88672 8.71094-3.67676Q8.90625-3.4668 9.23828-3.4668Q9.56055-3.4668 9.77051-3.67676Q9.98047-3.88672 9.98047-4.20898L9.98047-6.32812L12.0898-6.32812Q12.4219-6.32812 12.627-6.52832Q12.832-6.72852 12.832-7.05078Q12.832-7.38281 12.627-7.58789Q12.4219-7.79297 12.0898-7.79297L9.98047-7.79297L9.98047-9.90234Q9.98047-10.2344 9.77051-10.4443Q9.56055-10.6543 9.23828-10.6543Q8.90625-10.6543 8.71094-10.4443Q8.51562-10.2344 8.51562-9.90234L8.51562-7.79297L6.40625-7.79297Q6.06445-7.79297 5.85938-7.58789Q5.6543-7.38281 5.6543-7.05078Z"/>
  </g>
  <g transform="matrix(1 0 0 1 281.867 1933)">
   <path d="M11.709 2.91016Q13.75 2.91016 15.5518 2.12891Q17.3535 1.34766 18.7305-0.0292969Q20.1074-1.40625 20.8887-3.20801Q21.6699-5.00977 21.6699-7.05078Q21.6699-9.0918 20.8887-10.8936Q20.1074-12.6953 18.7305-14.0723Q17.3535-15.4492 15.5469-16.2305Q13.7402-17.0117 11.6992-17.0117Q9.6582-17.0117 7.85645-16.2305Q6.05469-15.4492 4.68262-14.0723Q3.31055-12.6953 2.5293-10.8936Q1.74805-9.0918 1.74805-7.05078Q1.74805-5.00977 2.5293-3.20801Q3.31055-1.40625 4.6875-0.0292969Q6.06445 1.34766 7.86621 2.12891Q9.66797 2.91016 11.709 2.91016ZM11.709 1.25Q9.98047 1.25 8.47656 0.605469Q6.97266-0.0390625 5.83496-1.17676Q4.69727-2.31445 4.05762-3.81836Q3.41797-5.32227 3.41797-7.05078Q3.41797-8.7793 4.05762-10.2832Q4.69727-11.7871 5.83008-12.9297Q6.96289-14.0723 8.4668-14.7119Q9.9707-15.3516 11.6992-15.3516Q13.4277-15.3516 14.9365-14.7119Q16.4453-14.0723 17.583-12.9297Q18.7207-11.7871 19.3652-10.2832Q20.0098-8.7793 20.0098-7.05078Q20.0098-5.32227 19.3701-3.81836Q18.7305-2.31445 17.5879-1.17676Q16.4453-0.0390625 14.9414 0.605469Q13.4375 1.25 11.709 1.25ZM7.17773-7.05078Q7.17773-6.69922 7.41211-6.47461Q7.64648-6.25 8.01758-6.25L10.8887-6.25L10.8887-3.36914Q10.8887-2.99805 11.1133-2.76855Q11.3379-2.53906 11.6895-2.53906Q12.0605-2.53906 12.29-2.76855Q12.5195-2.99805 12.5195-3.36914L12.5195-6.25L15.4004-6.25Q15.7715-6.25 16.001-6.47461Q16.2305-6.69922 16.2305-7.05078Q16.2305-7.42188 16.001-7.65137Q15.7715-7.88086 15.4004-7.88086L12.5195-7.88086L12.5195-10.752Q12.5195-11.1328 12.29-11.3623Q12.0605-11.5918 11.6895-11.5918Q11.3379-11.5918 11.1133-11.3574Q10.8887-11.123 10.8887-10.752L10.8887-7.88086L8.01758-7.88086Q7.63672-7.88086 7.40723-7.65137Q7.17773-7.42188 7.17773-7.05078Z"/>
  </g>
  <g transform="matrix(1 0 0 1 305.646 1933)">
   <path d="M14.9707 5.66406Q17.0605 5.66406 18.96 5.01465Q20.8594 4.36523 22.4512 3.19336Q24.043 2.02148 25.2197 0.429688Q26.3965-1.16211 27.0459-3.06641Q27.6953-4.9707 27.6953-7.05078Q27.6953-9.14062 27.0459-11.04Q26.3965-12.9395 25.2197-14.5312Q24.043-16.123 22.4512-17.2998Q20.8594-18.4766 18.9551-19.126Q17.0508-19.7754 14.9609-19.7754Q12.8711-19.7754 10.9717-19.126Q9.07227-18.4766 7.48535-17.2998Q5.89844-16.123 4.72168-14.5312Q3.54492-12.9395 2.90039-11.04Q2.25586-9.14062 2.25586-7.05078Q2.25586-4.9707 2.90527-3.06641Q3.55469-1.16211 4.72656 0.429688Q5.89844 2.02148 7.49023 3.19336Q9.08203 4.36523 10.9814 5.01465Q12.8809 5.66406 14.9707 5.66406ZM14.9707 3.84766Q13.1641 3.84766 11.5283 3.2959Q9.89258 2.74414 8.53516 1.74805Q7.17773 0.751953 6.17676-0.610352Q5.17578-1.97266 4.62891-3.6084Q4.08203-5.24414 4.08203-7.05078Q4.08203-8.86719 4.62891-10.5029Q5.17578-12.1387 6.17188-13.501Q7.16797-14.8633 8.52539-15.8594Q9.88281-16.8555 11.5186-17.4023Q13.1543-17.9492 14.9609-17.9492Q16.7773-17.9492 18.4131-17.4023Q20.0488-16.8555 21.4111-15.8594Q22.7734-14.8633 23.7744-13.501Q24.7754-12.1387 25.3223-10.5029Q25.8691-8.86719 25.8691-7.05078Q25.8691-5.24414 25.3223-3.6084Q24.7754-1.97266 23.7793-0.610352Q22.7832 0.751953 21.4209 1.74805Q20.0586 2.74414 18.4229 3.2959Q16.7871 3.84766 14.9707 3.84766ZM9.19922-7.05078Q9.19922-6.66992 9.45801-6.4209Q9.7168-6.17188 10.1172-6.17188L14.0625-6.17188L14.0625-2.2168Q14.0625-1.81641 14.3115-1.55762Q14.5605-1.29883 14.9512-1.29883Q15.3516-1.29883 15.6104-1.55273Q15.8691-1.80664 15.8691-2.2168L15.8691-6.17188L19.8242-6.17188Q20.2246-6.17188 20.4785-6.4209Q20.7324-6.66992 20.7324-7.05078Q20.7324-7.46094 20.4785-7.71484Q20.2246-7.96875 19.8242-7.96875L15.8691-7.96875L15.8691-11.9141Q15.8691-12.3242 15.6104-12.583Q15.3516-12.8418 14.9512-12.8418Q14.5605-12.8418 14.3115-12.583Q14.0625-12.3242 14.0625-11.9141L14.0625-7.96875L10.1172-7.96875Q9.70703-7.96875 9.45312-7.71484Q9.19922-7.46094 9.19922-7.05078Z"/>
  </g>
  <text style="stroke:none;fill:black;font-family:sans-serif;font-size:13;font-weight:bold;" transform="matrix(1 0 0 1 263 1953)">Design Variations</text>
  <text style="stroke:none;fill:black;font-family:sans-serif;font-size:13;" transform="matrix(1 0 0 1 263 1971)">Symbols are supported in up to nine weights and three scales.</text>
  <text style="stroke:none;fill:black;font-family:sans-serif;font-size:13;" transform="matrix(1 0 0 1 263 1989)">For optimal layout with text and other symbols, vertically align</text>
  <text style="stroke:none;fill:black;font-family:sans-serif;font-size:13;" transform="matrix(1 0 0 1 263 2007)">symbols with the adjacent text.</text>
  <line style="fill:none;stroke:#00AEEF;stroke-width:0.5;opacity:1.0;" x1="776" x2="776" y1="1919" y2="1933"/>
  <g transform="matrix(1 0 0 1 776 1933)">
   <path d="M3.31055 0.15625Q3.70117 0.15625 3.91602-0.00976562Q4.13086-0.175781 4.26758-0.585938L5.52734-4.0332L11.2891-4.0332L12.5488-0.585938Q12.6855-0.175781 12.9004-0.00976562Q13.1152 0.15625 13.4961 0.15625Q13.8867 0.15625 14.1162-0.0585938Q14.3457-0.273438 14.3457-0.644531Q14.3457-0.869141 14.2383-1.17188L9.6582-13.3691Q9.48242-13.8184 9.17969-14.043Q8.87695-14.2676 8.4082-14.2676Q7.5-14.2676 7.17773-13.3789L2.59766-1.16211Q2.49023-0.859375 2.49023-0.634766Q2.49023-0.263672 2.70996-0.0537109Q2.92969 0.15625 3.31055 0.15625ZM6.00586-5.51758L8.37891-12.0898L8.42773-12.0898L10.8008-5.51758Z"/>
  </g>
  <line style="fill:none;stroke:#00AEEF;stroke-width:0.5;opacity:1.0;" x1="793.197" x2="793.197" y1="1919" y2="1933"/>
  <text style="stroke:none;fill:black;font-family:sans-serif;font-size:13;font-weight:bold;" transform="matrix(1 0 0 1 776 1953)">Margins</text>
  <text style="stroke:none;fill:black;font-family:sans-serif;font-size:13;" transform="matrix(1 0 0 1 776 1971)">Leading and trailing margins on the left and right side of each symbol</text>
  <text style="stroke:none;fill:black;font-family:sans-serif;font-size:13;" transform="matrix(1 0 0 1 776 1989)">can be adjusted by modifying the x-location of the margin guidelines.</text>
  <text style="stroke:none;fill:black;font-family:sans-serif;font-size:13;" transform="matrix(1 0 0 1 776 2007)">Modifications are automatically applied proportionally to all</text>
  <text style="stroke:none;fill:black;font-family:sans-serif;font-size:13;" transform="matrix(1 0 0 1 776 2025)">scales and weights.</text>
  <g transform="matrix(1 0 0 1 1289 1933)">
   <path d="M2.8418 1.86523L4.54102 3.57422Q5.18555 4.22852 5.90332 4.17969Q6.62109 4.13086 7.31445 3.35938L18.0078-8.42773L17.041-9.4043L6.42578 2.27539Q6.16211 2.57812 5.89355 2.61719Q5.625 2.65625 5.27344 2.30469L4.10156 1.14258Q3.75 0.791016 3.79395 0.522461Q3.83789 0.253906 4.14062-0.0195312L15.6152-10.8203L14.6387-11.7871L3.04688-0.898438Q2.30469-0.214844 2.25098 0.498047Q2.19727 1.21094 2.8418 1.86523ZM9.25781-16.3281Q8.94531-16.0254 8.90625-15.6348Q8.86719-15.2441 9.04297-14.9512Q9.21875-14.6777 9.55566-14.541Q9.89258-14.4043 10.3809-14.5215Q11.4746-14.7754 12.5977-14.7314Q13.7207-14.6875 14.7949-13.9844L14.209-12.5293Q13.9551-11.9043 14.0674-11.4404Q14.1797-10.9766 14.5801-10.5664L16.875-8.25195Q17.2363-7.88086 17.5781-7.82227Q17.9199-7.76367 18.3398-7.8418L19.4043-8.03711L20.0684-7.36328L20.0293-6.80664Q20-6.43555 20.1221-6.12305Q20.2441-5.81055 20.6055-5.44922L21.3672-4.70703Q21.7285-4.3457 22.1533-4.33105Q22.5781-4.31641 22.9297-4.66797L25.8398-7.58789Q26.1914-7.93945 26.1816-8.35449Q26.1719-8.76953 25.8105-9.13086L25.0391-9.89258Q24.6875-10.2539 24.3799-10.3857Q24.0723-10.5176 23.7109-10.4883L23.1348-10.4395L22.4902-11.0742L22.7344-12.1973Q22.832-12.6172 22.6953-12.9834Q22.5586-13.3496 22.1191-13.7891L19.9219-15.9766Q18.6719-17.2168 17.2607-17.8369Q15.8496-18.457 14.4189-18.4814Q12.9883-18.5059 11.665-17.959Q10.3418-17.4121 9.25781-16.3281ZM10.752-15.957Q11.6602-16.6211 12.7002-16.9043Q13.7402-17.1875 14.8047-17.085Q15.8691-16.9824 16.8701-16.5137Q17.8711-16.0449 18.7012-15.2051L21.1328-12.793Q21.3086-12.6172 21.3525-12.4512Q21.3965-12.2852 21.3379-12.0312L21.0156-10.5469L22.5195-9.0625L23.5059-9.12109Q23.6914-9.13086 23.7891-9.09668Q23.8867-9.0625 24.0332-8.91602L24.6094-8.33984L22.168-5.89844L21.5918-6.47461Q21.4453-6.62109 21.4062-6.71875Q21.3672-6.81641 21.377-7.01172L21.4453-7.98828L19.9512-9.47266L18.4277-9.21875Q18.1836-9.16992 18.042-9.2041Q17.9004-9.23828 17.7148-9.41406L15.7129-11.416Q15.5176-11.5918 15.4932-11.7529Q15.4688-11.9141 15.5859-12.1875L16.4648-14.2773Q15.293-15.3711 13.8281-15.791Q12.3633-16.2109 10.8398-15.7617Q10.7227-15.7324 10.6885-15.8057Q10.6543-15.8789 10.752-15.957Z"/>
  </g>
  <text style="stroke:none;fill:black;font-family:sans-serif;font-size:13;font-weight:bold;" transform="matrix(1 0 0 1 1289 1953)">Exporting</text>
  <text style="stroke:none;fill:black;font-family:sans-serif;font-size:13;" transform="matrix(1 0 0 1 1289 1971)">Symbols should be outlined when exporting to ensure the</text>
  <text style="stroke:none;fill:black;font-family:sans-serif;font-size:13;" transform="matrix(1 0 0 1 1289 1989)">design is preserved when submitting to Xcode.</text>
  <text id="template-version" style="stroke:none;fill:black;font-family:sans-serif;font-size:13;text-anchor:end;" transform="matrix(1 0 0 1 3036 1933)">Template v.2.0</text>
  <text style="stroke:none;fill:black;font-family:sans-serif;font-size:13;text-anchor:end;" transform="matrix(1 0 0 1 3036 1951)">Requires Xcode 12 or greater</text>
  <text id="descriptive-name" style="stroke:none;fill:black;font-family:sans-serif;font-size:13;text-anchor:end;" transform="matrix(1 0 0 1 3036 1969)">Generated from oven</text>
  <text style="stroke:none;fill:black;font-family:sans-serif;font-size:13;text-anchor:end;" transform="matrix(1 0 0 1 3036 1987)">Typeset at 100 points</text>
  <text style="stroke:none;fill:black;font-family:sans-serif;font-size:13;" transform="matrix(1 0 0 1 263 726)">Small</text>
  <text style="stroke:none;fill:black;font-family:sans-serif;font-size:13;" transform="matrix(1 0 0 1 263 1156)">Medium</text>
  <text style="stroke:none;fill:black;font-family:sans-serif;font-size:13;" transform="matrix(1 0 0 1 263 1586)">Large</text>
 </g>
 <g id="Guides">
  <g id="H-reference" style="fill:#27AAE1;stroke:none;" transform="matrix(1 0 0 1 339 696)">
   <path d="M0.993347 0L3.6377 0L29.3282-67.1326L30.0301-67.1326L30.0301-70.459L28.1227-70.459ZM11.6882-24.4797L46.9818-24.4797L46.2311-26.7288L12.4382-26.7288ZM55.1193 0L57.7637 0L30.6381-70.459L29.4327-70.459L29.4327-67.1326Z"/>
  </g>
  <line id="Baseline-S" style="fill:none;stroke:#27AAE1;opacity:1;stroke-width:0.5;" x1="263" x2="3036" y1="696" y2="696"/>
  <line id="Capline-S" style="fill:none;stroke:#27AAE1;opacity:1;stroke-width:0.5;" x1="263" x2="3036" y1="625.541" y2="625.541"/>
  <g id="H-reference" style="fill:#27AAE1;stroke:none;" transform="matrix(1 0 0 1 339 1126)">
   <path d="M0.993347 0L3.6377 0L29.3282-67.1326L30.0301-67.1326L30.0301-70.459L28.1227-70.459ZM11.6882-24.4797L46.9818-24.4797L46.2311-26.7288L12.4382-26.7288ZM55.1193 0L57.7637 0L30.6381-70.459L29.4327-70.459L29.4327-67.1326Z"/>
  </g>
  <line id="Baseline-M" style="fill:none;stroke:#27AAE1;opacity:1;stroke-width:0.5;" x1="263" x2="3036" y1="1126" y2="1126"/>
  <line id="Capline-M" style="fill:none;stroke:#27AAE1;opacity:1;stroke-width:0.5;" x1="263" x2="3036" y1="1055.54" y2="1055.54"/>
  <g id="H-reference" style="fill:#27AAE1;stroke:none;" transform="matrix(1 0 0 1 339 1556)">
   <path d="M0.993347 0L3.6377 0L29.3282-67.1326L30.0301-67.1326L30.0301-70.459L28.1227-70.459ZM11.6882-24.4797L46.9818-24.4797L46.2311-26.7288L12.4382-26.7288ZM55.1193 0L57.7637 0L30.6381-70.459L29.4327-70.459L29.4327-67.1326Z"/>
  </g>
  <line id="Baseline-L" style="fill:none;stroke:#27AAE1;opacity:1;stroke-width:0.5;" x1="263" x2="3036" y1="1556" y2="1556"/>
  <line id="Capline-L" style="fill:none;stroke:#27AAE1;opacity:1;stroke-width:0.5;" x1="263" x2="3036" y1="1485.54" y2="1485.54"/>
  <line id="left-margin" style="fill:none;stroke:#00AEEF;stroke-width:0.5;opacity:1.0;" x1="1386.63" x2="1386.63" y1="1030.79" y2="1150.12"/>
  <line id="right-margin" style="fill:none;stroke:#00AEEF;stroke-width:0.5;opacity:1.0;" x1="1513.06" x2="1513.06" y1="1030.79" y2="1150.12"/>
 </g>
 <g id="Symbols">
  <g id="Black-L" transform="matrix(1 0 0 1 2845.02 1556)">
   <path d="M35.1973 28.4614L141.5 28.4614Q150.004 28.4614 155.337 23.046Q160.671 17.6305 160.671 9.10294L160.671-79.758Q160.671-88.2855 155.337-93.701Q150.004-99.1164 141.5-99.1164L35.1973-99.1164Q26.7521-99.1164 21.418-93.701Q16.084-88.2855 16.084-79.758L16.084 9.10294Q16.084 17.6305 21.418 23.046Q26.7521 28.4614 35.1973 28.4614ZM37.4352 10.2117Q36.0872 10.2117 35.2292 9.33914Q34.3712 8.46653 34.3712 7.09061L34.3712-77.7456Q34.3712-79.1215 35.2292-79.9942Q36.0872-80.8668 37.4352-80.8668L139.826-80.8668Q141.018-80.8668 141.691-80.1694Q142.364-79.472 142.364-78.3297L142.364 7.67468Q142.364 8.81697 141.691 9.51436Q141.018 10.2117 139.826 10.2117ZM50.8242-61.1456Q53.682-61.1456 55.7856-63.2013Q57.8893-65.2569 57.8893-68.1512Q57.8893-71.1246 55.7856-73.1705Q53.682-75.2163 50.8242-75.2163Q47.9299-75.2163 45.8445-73.1705Q43.759-71.1246 43.759-68.1512Q43.759-65.2569 45.8445-63.2013Q47.9299-61.1456 50.8242-61.1456ZM68.4959-61.1456Q71.4121-61.1456 73.4866-63.2013Q75.561-65.2569 75.561-68.1512Q75.561-71.1246 73.4866-73.1705Q71.4121-75.2163 68.4959-75.2163Q65.6601-75.2163 63.5558-73.1705Q61.4515-71.1246 61.4515-68.1512Q61.4515-65.2569 63.5558-63.2013Q65.6601-61.1456 68.4959-61.1456ZM86.1288-61.1456Q89.0243-61.1456 91.1383-63.2013Q93.2524-65.2569 93.2524-68.1512Q93.2524-71.1246 91.1383-73.1705Q89.0243-75.2163 86.1288-75.2163Q83.2722-75.2163 81.1971-73.1705Q79.1221-71.1246 79.1221-68.1512Q79.1221-65.2569 81.1971-63.2013Q83.2722-61.1456 86.1288-61.1456ZM112.011-62.7152L128.006-62.7152Q130.243-62.7152 131.784-64.2571Q133.325-65.799 133.325-68.0355Q133.325-70.2721 131.784-71.8134Q130.243-73.3547 128.006-73.3547L112.011-73.3547Q109.795-73.3547 108.253-71.8134Q106.711-70.2721 106.711-68.0355Q106.711-65.799 108.253-64.2571Q109.795-62.7152 112.011-62.7152ZM29.5879-44.5756L147.247-44.5756L147.247-56.382L29.5879-56.382ZM49.1712 3.20927L127.662 3.20927Q130.241 3.20927 131.812 1.6375Q133.383 0.0657211 133.383-2.53572L133.383-33.2044Q133.383-35.785 131.812-37.3568Q130.241-38.9286 127.662-38.9286L49.1712-38.9286Q46.5709-38.9286 44.9997-37.3568Q43.4286-35.785 43.4286-33.2044L43.4286-2.53572Q43.4286 0.0657211 44.9997 1.6375Q46.5709 3.20927 49.1712 3.20927ZM54.9308-7.03355Q53.6714-7.03355 53.6714-8.29417L53.6714-28.0092Q53.6714-29.2906 54.9308-29.2906L121.882-29.2906Q123.161-29.2906 123.161-28.0092L123.161-8.29417Q123.161-7.03355 121.882-7.03355ZM50.0508-17.7131L126.84-17.7131L126.84-25.0732L50.0508-25.0732Z"/>
  </g>
  <g id="Heavy-L" transform="matrix(1 0 0 1 2550.11 1556)">
   <path d="M34.1008 26.1082L139.023 26.1082Q147.058 26.1082 152.068 21.0237Q157.079 15.9391 157.079 7.88579L157.079-78.5088Q157.079-86.5621 152.068-91.6467Q147.058-96.7312 139.023-96.7312L34.1008-96.7312Q26.1101-96.7312 21.0971-91.6467Q16.084-86.5621 16.084-78.5088L16.084 7.88579Q16.084 15.9391 21.0971 21.0237Q26.1101 26.1082 34.1008 26.1082ZM35.8155 9.91625Q34.2551 9.91625 33.2727 8.89913Q32.2903 7.88201 32.2903 6.25783L32.2903-76.8808Q32.2903-78.505 33.2727-79.5222Q34.2551-80.5393 35.8155-80.5393L137.724-80.5393Q139.175-80.5393 140.012-79.656Q140.848-78.7727 140.848-77.3271L140.848 6.70406Q140.848 8.14975 140.012 9.033Q139.175 9.91625 137.724 9.91625ZM49.0256-61.8026Q51.7594-61.8026 53.7415-63.7551Q55.7236-65.7076 55.7236-68.4503Q55.7236-71.2676 53.7415-73.2079Q51.7594-75.1482 49.0256-75.1482Q46.283-75.1482 44.3054-73.2079Q42.3277-71.2676 42.3277-68.4503Q42.3277-65.7076 44.3054-63.7551Q46.283-61.8026 49.0256-61.8026ZM66.365-61.8026Q69.1434-61.8026 71.1031-63.7551Q73.0629-65.7076 73.0629-68.4503Q73.0629-71.2676 71.1031-73.2079Q69.1434-75.1482 66.365-75.1482Q63.667-75.1482 61.6821-73.2079Q59.6972-71.2676 59.6972-68.4503Q59.6972-65.7076 61.6821-63.7551Q63.667-61.8026 66.365-61.8026ZM83.6843-61.8026Q86.4324-61.8026 88.4296-63.7551Q90.4267-65.7076 90.4267-68.4503Q90.4267-71.2676 88.4296-73.2079Q86.4324-75.1482 83.6843-75.1482Q80.9561-75.1482 78.9935-73.2079Q77.0309-71.2676 77.0309-68.4503Q77.0309-65.7076 78.9935-63.7551Q80.9561-61.8026 83.6843-61.8026ZM110.327-63.5796L126.561-63.5796Q128.593-63.5796 129.968-64.9572Q131.343-66.3348 131.343-68.3666Q131.343-70.3985 129.968-71.7733Q128.593-73.148 126.561-73.148L110.327-73.148Q108.325-73.148 106.947-71.7733Q105.57-70.3985 105.57-68.3666Q105.57-66.3348 106.947-64.9572Q108.325-63.5796 110.327-63.5796ZM27.7559-46.2713L145.487-46.2713L145.487-57.1312L27.7559-57.1312ZM47.4508 2.703L125.781 2.703Q128.383 2.703 129.965 1.11798Q131.547-0.467043 131.547-3.10438L131.547-34.445Q131.547-37.0522 129.965-38.6372Q128.383-40.2223 125.781-40.2223L47.4508-40.2223Q44.8191-40.2223 43.2369-38.6372Q41.6547-37.0522 41.6547-34.445L41.6547-3.10438Q41.6547-0.467043 43.2369 1.11798Q44.8191 2.703 47.4508 2.703ZM52.4366-6.69097Q51.0486-6.69097 51.0486-8.08461L51.0486-29.8809Q51.0486-31.3047 52.4366-31.3047L120.771-31.3047Q122.183-31.3047 122.183-29.8809L122.183-8.08461Q122.183-6.69097 120.771-6.69097ZM47.9882-19.2258L125.288-19.2258L125.288-26.403L47.9882-26.403Z"/>
  </g>
  <g id="Bold-L" transform="matrix(1 0 0 1 2255.76 1556)">
   <path d="M32.711 23.2109L135.711 23.2109Q143.148 23.2109 147.751 18.5299Q152.354 13.849 152.354 6.3797L152.354-76.9642Q152.354-84.4335 147.751-89.1144Q143.148-93.7953 135.711-93.7953L32.711-93.7953Q25.3037-93.7953 20.6938-89.1144Q16.084-84.4335 16.084-76.9642L16.084 6.3797Q16.084 13.849 20.6938 18.5299Q25.3037 23.2109 32.711 23.2109ZM33.8323 9.6071Q31.9808 9.6071 30.8298 8.39086Q29.6789 7.17462 29.6789 5.20582L29.6789-75.7903Q29.6789-77.7591 30.8298-78.9754Q31.9808-80.1918 33.8323-80.1918L134.844-80.1918Q136.632-80.1918 137.683-79.0631Q138.734-77.9343 138.734-76.0823L138.734 5.49785Q138.734 7.34984 137.683 8.47847Q136.632 9.6071 134.844 9.6071ZM46.7675-62.401Q49.3625-62.401 51.2059-64.2342Q53.0493-66.0673 53.0493-68.6403Q53.0493-71.2804 51.2059-73.1012Q49.3625-74.9221 46.7675-74.9221Q44.1945-74.9221 42.3401-73.1012Q40.4857-71.2804 40.4857-68.6403Q40.4857-66.0673 42.3401-64.2342Q44.1945-62.401 46.7675-62.401ZM63.7591-62.401Q66.3833-62.401 68.2121-64.2342Q70.0409-66.0673 70.0409-68.6403Q70.0409-71.2804 68.2121-73.1012Q66.3833-74.9221 63.7591-74.9221Q61.2153-74.9221 59.3652-73.1012Q57.5152-71.2804 57.5152-68.6403Q57.5152-66.0673 59.3652-64.2342Q61.2153-62.401 63.7591-62.401ZM80.7463-62.401Q83.3324-62.401 85.1947-64.2342Q87.0571-66.0673 87.0571-68.6403Q87.0571-71.2804 85.1947-73.1012Q83.3324-74.9221 80.7463-74.9221Q78.1644-74.9221 76.329-73.1012Q74.4937-71.2804 74.4937-68.6403Q74.4937-66.0673 76.329-64.2342Q78.1644-62.401 80.7463-62.401ZM108.066-64.4689L124.562-64.4689Q126.333-64.4689 127.504-65.6466Q128.675-66.8243 128.675-68.595Q128.675-70.3659 127.504-71.537Q126.333-72.708 124.562-72.708L108.066-72.708Q106.332-72.708 105.155-71.537Q103.977-70.3659 103.977-68.595Q103.977-66.8243 105.155-65.6466Q106.332-64.4689 108.066-64.4689ZM25.5486-48.0933L142.97-48.0933L142.97-57.6883L25.5486-57.6883ZM45.2106 2.08045L123.281 2.08045Q125.921 2.08045 127.522 0.472582Q129.123-1.13528 129.123-3.82618L129.123-35.624Q129.123-38.2771 127.522-39.8849Q125.921-41.4928 123.281-41.4928L45.2106-41.4928Q42.533-41.4928 40.9317-39.8849Q39.3304-38.2771 39.3304-35.624L39.3304-3.82618Q39.3304-1.13528 40.9317 0.472582Q42.533 2.08045 45.2106 2.08045ZM49.2209-6.20871Q47.6195-6.20871 47.6195-7.82343L47.6195-31.8809Q47.6195-33.5335 49.2209-33.5335L119.246-33.5335Q120.872-33.5335 120.872-31.8809L120.872-7.82343Q120.872-6.20871 119.246-6.20871ZM45.1911-21.041L123.33-21.041L123.33-27.8611L45.1911-27.8611Z"/>
  </g>
  <g id="Semibold-L" transform="matrix(1 0 0 1 1960.68 1556)">
   <path d="M31.7528 21.2135L133.428 21.2135Q140.452 21.2135 144.774 16.8108Q149.097 12.4081 149.097 5.3414L149.097-75.8993Q149.097-82.966 144.774-87.3687Q140.452-91.7714 133.428-91.7714L31.7528-91.7714Q24.7477-91.7714 20.4158-87.3687Q16.084-82.966 16.084-75.8993L16.084 5.3414Q16.084 12.4081 20.4158 16.8108Q24.7477 21.2135 31.7528 21.2135ZM32.4652 9.39398Q30.4129 9.39398 29.1457 8.04046Q27.8785 6.68695 27.8785 4.48057L27.8785-75.0385Q27.8785-77.2449 29.1457-78.5985Q30.4129-79.9522 32.4652-79.9522L132.858-79.9522Q134.879-79.9522 136.078-78.6543Q137.277-77.3563 137.277-75.2242L137.277 4.6663Q137.277 6.79839 136.078 8.09618Q134.879 9.39398 132.858 9.39398ZM45.2107-62.8136Q47.71-62.8136 49.4578-64.5644Q51.2056-66.3152 51.2056-68.7713Q51.2056-71.2891 49.4578-73.0277Q47.71-74.7662 45.2107-74.7662Q42.7546-74.7662 40.9852-73.0277Q39.2158-71.2891 39.2158-68.7713Q39.2158-66.3152 40.9852-64.5644Q42.7546-62.8136 45.2107-62.8136ZM61.9626-62.8136Q64.4805-62.8136 66.219-64.5644Q67.9575-66.3152 67.9575-68.7713Q67.9575-71.2891 66.219-73.0277Q64.4805-74.7662 61.9626-74.7662Q59.5251-74.7662 57.768-73.0277Q56.0109-71.2891 56.0109-68.7713Q56.0109-66.3152 57.768-64.5644Q59.5251-62.8136 61.9626-62.8136ZM78.7208-62.8136Q81.1952-62.8136 82.9646-64.5644Q84.734-66.3152 84.734-68.7713Q84.734-71.2891 82.9646-73.0277Q81.1952-74.7662 78.7208-74.7662Q76.2398-74.7662 74.4921-73.0277Q72.7445-71.2891 72.7445-68.7713Q72.7445-66.3152 74.4921-64.5644Q76.2398-62.8136 78.7208-62.8136ZM106.507-65.0819L123.184-65.0819Q124.775-65.0819 125.806-66.1219Q126.837-67.1618 126.837-68.7525Q126.837-70.3435 125.806-71.3741Q124.775-72.4047 123.184-72.4047L106.507-72.4047Q104.959-72.4047 103.919-71.3741Q102.879-70.3435 102.879-68.7525Q102.879-67.1618 103.919-66.1219Q104.959-65.0819 106.507-65.0819ZM24.0269-49.3494L141.234-49.3494L141.234-58.0723L24.0269-58.0723ZM43.6661 1.65126L121.558 1.65126Q124.224 1.65126 125.838 0.027649Q127.453-1.59597 127.453-4.32378L127.453-36.4369Q127.453-39.1215 125.838-40.7451Q124.224-42.3687 121.558-42.3687L43.6661-42.3687Q40.9569-42.3687 39.3425-40.7451Q37.728-39.1215 37.728-36.4369L37.728-4.32378Q37.728-1.59597 39.3425 0.027649Q40.9569 1.65126 43.6661 1.65126ZM47.004-5.87624Q45.2555-5.87624 45.2555-7.64338L45.2555-33.2598Q45.2555-35.0701 47.004-35.0701L118.195-35.0701Q119.969-35.0701 119.969-33.2598L119.969-7.64338Q119.969-5.87624 118.195-5.87624ZM43.2628-22.2924L121.98-22.2924L121.98-28.8663L43.2628-28.8663Z"/>
  </g>
  <g id="Medium-L" transform="matrix(1 0 0 1 1665.2 1556)">
   <path d="M31.0263 19.699L131.696 19.699Q138.408 19.699 142.517 15.5072Q146.627 11.3155 146.627 4.55413L146.627-75.0919Q146.627-81.8533 142.517-86.045Q138.408-90.2367 131.696-90.2367L31.0263-90.2367Q24.3262-90.2367 20.2051-86.045Q16.084-81.8533 16.084-75.0919L16.084 4.55413Q16.084 11.3155 20.2051 15.5072Q24.3262 19.699 31.0263 19.699ZM31.4285 9.23238Q29.224 9.23238 27.8687 7.77478Q26.5134 6.31718 26.5134 3.93065L26.5134-74.4684Q26.5134-76.855 27.8687-78.3128Q29.224-79.7705 31.4285-79.7705L131.352-79.7705Q133.55-79.7705 134.861-78.3443Q136.173-76.918 136.173-74.5736L136.173 4.03578Q136.173 6.38026 134.861 7.80632Q133.55 9.23238 131.352 9.23238ZM44.0303-63.1264Q46.4571-63.1264 48.1324-64.8148Q49.8077-66.5032 49.8077-68.8706Q49.8077-71.2958 48.1324-72.9719Q46.4571-74.648 44.0303-74.648Q41.6629-74.648 39.9579-72.9719Q38.2529-71.2958 38.2529-68.8706Q38.2529-66.5032 39.9579-64.8148Q41.6629-63.1264 44.0303-63.1264ZM60.6004-63.1264Q63.0377-63.1264 64.7078-64.8148Q66.3778-66.5032 66.3778-68.8706Q66.3778-71.2958 64.7078-72.9719Q63.0377-74.648 60.6004-74.648Q58.2435-74.648 56.5569-72.9719Q54.8703-71.2958 54.8703-68.8706Q54.8703-66.5032 56.5569-64.8148Q58.2435-63.1264 60.6004-63.1264ZM77.185-63.1264Q79.5747-63.1264 81.2737-64.8148Q82.9726-66.5032 82.9726-68.8706Q82.9726-71.2958 81.2737-72.9719Q79.5747-74.648 77.185-74.648Q74.7805-74.648 73.0993-72.9719Q71.4182-71.2958 71.4182-68.8706Q71.4182-66.5032 73.0993-64.8148Q74.7805-63.1264 77.185-63.1264ZM105.325-65.5468L122.139-65.5468Q123.594-65.5468 124.518-66.4822Q125.442-67.4177 125.442-68.8719Q125.442-70.3264 124.518-71.2506Q123.594-72.1747 122.139-72.1747L105.325-72.1747Q103.917-72.1747 102.982-71.2506Q102.047-70.3264 102.047-68.8719Q102.047-67.4177 102.982-66.4822Q103.917-65.5468 105.325-65.5468ZM22.8731-50.3018L139.918-50.3018L139.918-58.3635L22.8731-58.3635ZM42.4951 1.32584L120.251 1.32584Q122.937 1.32584 124.562-0.309718Q126.186-1.94527 126.186-4.70108L126.186-37.0532Q126.186-39.7617 124.562-41.3973Q122.937-43.0328 120.251-43.0328L42.4951-43.0328Q39.7619-43.0328 38.1375-41.3973Q36.5131-39.7617 36.5131-37.0532L36.5131-4.70108Q36.5131-1.94527 38.1375-0.309718Q39.7619 1.32584 42.4951 1.32584ZM45.3231-5.62415Q43.463-5.62415 43.463-7.50685L43.463-34.3053Q43.463-36.2352 45.3231-36.2352L117.398-36.2352Q119.283-36.2352 119.283-34.3053L119.283-7.50685Q119.283-5.62415 117.398-5.62415ZM41.8007-23.2413L120.956-23.2413L120.956-29.6285L41.8007-29.6285Z"/>
  </g>
  <g id="Regular-L" transform="matrix(1 0 0 1 1370.1 1556)">
   <path d="M30.0787 17.7235L129.438 17.7235Q135.741 17.7235 139.573 13.807Q143.406 9.89041 143.406 3.52724L143.406-74.0388Q143.406-80.4019 139.573-84.3185Q135.741-88.235 129.438-88.235L30.0787-88.235Q23.7763-88.235 19.9301-84.3185Q16.084-80.4019 16.084-74.0388L16.084 3.52724Q16.084 9.89041 19.9301 13.807Q23.7763 17.7235 30.0787 17.7235ZM30.0764 9.0216Q27.6733 9.0216 26.2031 7.42823Q24.7329 5.83487 24.7329 3.21337L24.7329-73.7249Q24.7329-76.3464 26.2031-77.94Q27.6733-79.5336 30.0764-79.5336L129.388-79.5336Q131.816-79.5336 133.274-77.94Q134.732-76.3464 134.732-73.7249L134.732 3.21337Q134.732 5.83487 133.274 7.42823Q131.816 9.0216 129.388 9.0216ZM42.4906-63.5344Q44.8228-63.5344 46.4036-65.1414Q47.9843-66.7484 47.9843-69.0002Q47.9843-71.3045 46.4036-72.8992Q44.8228-74.4939 42.4906-74.4939Q40.2389-74.4939 38.6179-72.8992Q36.997-71.3045 36.997-69.0002Q36.997-66.7484 38.6179-65.1414Q40.2389-63.5344 42.4906-63.5344ZM58.8237-63.5344Q61.1559-63.5344 62.7366-65.1414Q64.3174-66.7484 64.3174-69.0002Q64.3174-71.3045 62.7366-72.8992Q61.1559-74.4939 58.8237-74.4939Q56.5719-74.4939 54.9772-72.8992Q53.3826-71.3045 53.3826-69.0002Q53.3826-66.7484 54.9772-65.1414Q56.5719-63.5344 58.8237-63.5344ZM75.1819-63.5344Q77.461-63.5344 79.0681-65.1414Q80.6751-66.7484 80.6751-69.0002Q80.6751-71.3045 79.0681-72.8992Q77.461-74.4939 75.1819-74.4939Q72.8771-74.4939 71.2826-72.8992Q69.6882-71.3045 69.6882-69.0002Q69.6882-66.7484 71.2826-65.1414Q72.8771-63.5344 75.1819-63.5344ZM103.783-66.1531L120.777-66.1531Q122.053-66.1531 122.838-66.9523Q123.624-67.7514 123.624-69.0276Q123.624-70.3042 122.838-71.0894Q122.053-71.8747 120.777-71.8747L103.783-71.8747Q102.559-71.8747 101.76-71.0894Q100.961-70.3042 100.961-69.0276Q100.961-67.7514 101.76-66.9523Q102.559-66.1531 103.783-66.1531ZM21.3682-51.5441L138.202-51.5441L138.202-58.7433L21.3682-58.7433ZM40.9676 0.90137L118.547 0.90137Q121.259 0.90137 122.896-0.749761Q124.533-2.40089 124.533-5.19322L124.533-37.857Q124.533-40.5968 122.896-42.248Q121.259-43.8991 118.547-43.8991L40.9676-43.8991Q38.2032-43.8991 36.5657-42.248Q34.9283-40.5968 34.9283-37.857L34.9283-5.19322Q34.9283-2.40089 36.5657-0.749761Q38.2032 0.90137 40.9676 0.90137ZM43.1306-5.29534Q41.125-5.29534 41.125-7.32877L41.125-35.6689Q41.125-37.7549 43.1306-37.7549L116.359-37.7549Q118.39-37.7549 118.39-35.6689L118.39-7.32877Q118.39-5.29534 116.359-5.29534ZM39.8936-24.479L119.621-24.479L119.621-30.6227L39.8936-30.6227Z"/>
  </g>
  <g id="Light-L" transform="matrix(1 0 0 1 1075.91 1556)">
   <path d="M28.9144 15.8342L125.583 15.8342Q131.352 15.8342 134.859 12.1562Q138.367 8.47824 138.367 2.49666L138.367-72.9889Q138.367-78.9705 134.859-82.6485Q131.352-86.3265 125.583-86.3265L28.9144-86.3265Q23.1465-86.3265 19.6153-82.6485Q16.084-78.9705 16.084-72.9889L16.084 2.49666Q16.084 8.47824 19.6153 12.1562Q23.1465 15.8342 28.9144 15.8342ZM28.855 9.17423Q26.07 9.17423 24.3899 7.31376Q22.7099 5.45329 22.7099 2.35465L22.7099-72.8469Q22.7099-75.9456 24.3899-77.8064Q26.07-79.6673 28.855-79.6673L125.609-79.6673Q128.38-79.6673 130.067-77.8064Q131.754-75.9456 131.754-72.8469L131.754 2.35465Q131.754 5.45329 130.067 7.31376Q128.38 9.17423 125.609 9.17423ZM40.7347-62.5612Q43.0669-62.5612 44.6286-64.1395Q46.1903-65.7178 46.1903-67.9696Q46.1903-70.2547 44.6286-71.8399Q43.0669-73.4251 40.7347-73.4251Q38.483-73.4251 36.8811-71.8399Q35.2792-70.2547 35.2792-67.9696Q35.2792-65.7178 36.8811-64.1395Q38.483-62.5612 40.7347-62.5612ZM57.2397-62.5612Q59.5718-62.5612 61.1335-64.1395Q62.6952-65.7178 62.6952-67.9696Q62.6952-70.2547 61.1335-71.8399Q59.5718-73.4251 57.2397-73.4251Q54.9879-73.4251 53.4027-71.8399Q51.8174-70.2547 51.8174-67.9696Q51.8174-65.7178 53.4027-64.1395Q54.9879-62.5612 57.2397-62.5612ZM73.7315-62.5612Q76.0296-62.5612 77.608-64.1395Q79.1863-65.7178 79.1863-67.9696Q79.1863-70.2547 77.608-71.8399Q76.0296-73.4251 73.7315-73.4251Q71.4457-73.4251 69.8609-71.8399Q68.276-70.2547 68.276-67.9696Q68.276-65.7178 69.8609-64.1395Q71.4457-62.5612 73.7315-62.5612ZM101.092-65.5997L118.047-65.5997Q119.094-65.5997 119.756-66.2844Q120.417-66.969 120.417-68.0159Q120.417-69.0636 119.756-69.7247Q119.094-70.3859 118.047-70.3859L101.092-70.3859Q100.077-70.3859 99.3932-69.7247Q98.7089-69.0636 98.7089-68.0159Q98.7089-66.969 99.3932-66.2844Q100.077-65.5997 101.092-65.5997ZM20.242-51.0096L134.29-51.0096L134.29-56.7392L20.242-56.7392ZM38.7156 0.500551L115.722 0.500551Q118.53 0.500551 120.215-1.20782Q121.9-2.91619 121.9-5.80407L121.9-36.3682Q121.9-39.2228 120.215-40.9312Q118.53-42.6396 115.722-42.6396L38.7156-42.6396Q35.8749-42.6396 34.1897-40.9312Q32.5045-39.2228 32.5045-36.3682L32.5045-5.80407Q32.5045-2.91619 34.1897-1.20782Q35.8749 0.500551 38.7156 0.500551ZM40.0959-4.58925Q37.5943-4.58925 37.5943-7.13798L37.5943-35.001Q37.5943-37.583 40.0959-37.583L114.354-37.583Q116.844-37.583 116.844-35.001L116.844-7.13798Q116.844-4.58925 114.354-4.58925ZM36.401-25.3569L118.037-25.3569L118.037-30.4126L36.401-30.4126Z"/>
  </g>
  <g id="Thin-L" transform="matrix(1 0 0 1 782.529 1556)">
   <path d="M27.3745 13.3354L120.484 13.3354Q125.546 13.3354 128.625 9.97298Q131.703 6.61053 131.703 1.13362L131.703-71.6005Q131.703-77.0774 128.625-80.4398Q125.546-83.8023 120.484-83.8023L27.3745-83.8023Q22.3136-83.8023 19.1988-80.4398Q16.084-77.0774 16.084-71.6005L16.084 1.13362Q16.084 6.61053 19.1988 9.97298Q22.3136 13.3354 27.3745 13.3354ZM27.2396 9.3761Q23.9496 9.3761 21.9919 7.16236Q20.0343 4.94861 20.0343 1.21893L20.0343-71.6858Q20.0343-75.4155 21.9919-77.6298Q23.9496-79.8441 27.2396-79.8441L120.611-79.8441Q123.837-79.8441 125.827-77.6298Q127.817-75.4155 127.817-71.6858L127.817 1.21893Q127.817 4.94861 125.827 7.16236Q123.837 9.3761 120.611 9.3761ZM38.4124-61.2741Q40.7446-61.2741 42.281-62.8144Q43.8175-64.3548 43.8175-66.6066Q43.8175-68.8662 42.281-70.4389Q40.7446-72.0116 38.4124-72.0116Q36.1606-72.0116 34.584-70.4389Q33.0073-68.8662 33.0073-66.6066Q33.0073-64.3548 34.584-62.8144Q36.1606-61.2741 38.4124-61.2741ZM55.1446-61.2741Q57.4768-61.2741 59.0133-62.8144Q60.5497-64.3548 60.5497-66.6066Q60.5497-68.8662 59.0133-70.4389Q57.4768-72.0116 55.1446-72.0116Q52.8929-72.0116 51.3202-70.4389Q49.7474-68.8662 49.7474-66.6066Q49.7474-64.3548 51.3202-62.8144Q52.8929-61.2741 55.1446-61.2741ZM71.8134-61.2741Q74.1365-61.2741 75.6768-62.8144Q77.2172-64.3548 77.2172-66.6066Q77.2172-68.8662 75.6768-70.4389Q74.1365-72.0116 71.8134-72.0116Q69.5525-72.0116 67.9804-70.4389Q66.4083-68.8662 66.4083-66.6066Q66.4083-64.3548 67.9804-62.8144Q69.5525-61.2741 71.8134-61.2741ZM97.5329-64.8677L114.438-64.8677Q115.182-64.8677 115.679-65.401Q116.177-65.9343 116.177-66.6779Q116.177-67.4228 115.679-67.9198Q115.182-68.4168 114.438-68.4168L97.5329-68.4168Q96.7958-68.4168 96.2632-67.9198Q95.7305-67.4228 95.7305-66.6779Q95.7305-65.9343 96.2632-65.401Q96.7958-64.8677 97.5329-64.8677ZM18.7526-50.3026L129.115-50.3026L129.115-54.0886L18.7526-54.0886ZM35.7372-0.0295656L111.987-0.0295656Q114.92-0.0295656 116.668-1.81363Q118.416-3.5977 118.416-6.61197L118.416-34.3992Q118.416-37.4056 116.668-39.1896Q114.92-40.9737 111.987-40.9737L35.7372-40.9737Q32.7955-40.9737 31.0472-39.1896Q29.2988-37.4056 29.2988-34.3992L29.2988-6.61197Q29.2988-3.5977 31.0472-1.81363Q32.7955-0.0295656 35.7372-0.0295656ZM36.0823-3.6554Q32.9246-3.6554 32.9246-6.88565L32.9246-34.1176Q32.9246-37.3557 36.0823-37.3557L111.704-37.3557Q114.799-37.3557 114.799-34.1176L114.799-6.88565Q114.799-3.6554 111.704-3.6554ZM31.7818-26.5181L115.942-26.5181L115.942-30.1349L31.7818-30.1349Z"/>
  </g>
  <g id="Ultralight-L" transform="matrix(1 0 0 1 487.524 1556)">
   <path d="M26.5858 12.0556L117.873 12.0556Q122.573 12.0556 125.432 8.85474Q128.29 5.6539 128.29 0.435482L128.29-70.8893Q128.29-76.1077 125.432-79.3085Q122.573-82.5094 117.873-82.5094L26.5858-82.5094Q21.887-82.5094 18.9855-79.3085Q16.084-76.1077 16.084-70.8893L16.084 0.435482Q16.084 5.6539 18.9855 8.85474Q21.887 12.0556 26.5858 12.0556ZM26.4122 9.47949Q22.8635 9.47949 20.7636 7.08481Q18.6638 4.69012 18.6638 0.637217L18.6638-71.091Q18.6638-75.1439 20.7636-77.5393Q22.8635-79.9347 26.4122-79.9347L118.051-79.9347Q121.509-79.9347 123.655-77.5393Q125.8-75.1439 125.8-71.091L125.8 0.637217Q125.8 4.69012 123.655 7.08481Q121.509 9.47949 118.051 9.47949ZM37.2229-60.6148Q39.5551-60.6148 41.0786-62.1357Q42.6021-63.6567 42.6021-65.9084Q42.6021-68.155 41.0786-69.7213Q39.5551-71.2876 37.2229-71.2876Q34.9712-71.2876 33.4074-69.7213Q31.8437-68.155 31.8437-65.9084Q31.8437-63.6567 33.4074-62.1357Q34.9712-60.6148 37.2229-60.6148ZM54.0716-60.6148Q56.4038-60.6148 57.9273-62.1357Q59.4508-63.6567 59.4508-65.9084Q59.4508-68.155 57.9273-69.7213Q56.4038-71.2876 54.0716-71.2876Q51.8198-71.2876 50.2535-69.7213Q48.6872-68.155 48.6872-65.9084Q48.6872-63.6567 50.2535-62.1357Q51.8198-60.6148 54.0716-60.6148ZM70.8309-60.6148Q73.1668-60.6148 74.6877-62.1357Q76.2087-63.6567 76.2087-65.9084Q76.2087-68.155 74.6877-69.7213Q73.1668-71.2876 70.8309-71.2876Q68.5829-71.2876 67.0173-69.7213Q65.4517-68.155 65.4517-65.9084Q65.4517-63.6567 67.0173-62.1357Q68.5829-60.6148 70.8309-60.6148ZM95.71-64.4928L112.589-64.4928Q113.178-64.4928 113.591-64.9485Q114.005-65.4042 114.005-65.9926Q114.005-66.5824 113.591-66.9953Q113.178-67.4082 112.589-67.4082L95.71-67.4082Q95.115-67.4082 94.66-66.9953Q94.205-66.5824 94.205-65.9926Q94.205-65.4042 94.66-64.9485Q95.115-64.4928 95.71-64.4928ZM17.9898-49.9405L126.465-49.9405L126.465-52.731L17.9898-52.731ZM34.2117-0.301089L110.073-0.301089Q113.072-0.301089 114.852-2.12393Q116.632-3.94677 116.632-7.02577L116.632-33.3906Q116.632-36.4748 114.852-38.2976Q113.072-40.1205 110.073-40.1205L34.2117-40.1205Q31.2183-40.1205 29.4376-38.2976Q27.6568-36.4748 27.6568-33.3906L27.6568-7.02577Q27.6568-3.94677 29.4376-2.12393Q31.2183-0.301089 34.2117-0.301089ZM34.0265-3.17709Q30.5328-3.17709 30.5328-6.7564L30.5328-33.6652Q30.5328-37.2393 34.0265-37.2393L110.346-37.2393Q113.752-37.2393 113.752-33.6652L113.752-6.7564Q113.752-3.17709 110.346-3.17709ZM29.4159-27.1128L114.869-27.1128L114.869-29.9926L29.4159-29.9926Z"/>
  </g>
  <g id="Black-M" transform="matrix(1 0 0 1 2863.73 1126)">
   <path d="M28.0534 15.8809L111.233 15.8809Q118.151 15.8809 122.517 11.4333Q126.883 6.98569 126.883 0.02313L126.883-70.6589Q126.883-77.6215 122.517-82.0691Q118.151-86.5167 111.233-86.5167L28.0534-86.5167Q21.1923-86.5167 16.8266-82.0691Q12.4609-77.6215 12.4609-70.6589L12.4609 0.02313Q12.4609 6.98569 16.8266 11.4333Q21.1923 15.8809 28.0534 15.8809ZM30.2291 0.250373Q29.3156 0.250373 28.7294-0.337658Q28.1431-0.925688 28.1431-1.84296L28.1431-68.7928Q28.1431-69.7101 28.7294-70.2981Q29.3156-70.8861 30.2291-70.8861L109.623-70.8861Q110.371-70.8861 110.783-70.4694Q111.195-70.0527 111.195-69.3638L111.195-1.272Q111.195-0.58311 110.783-0.166369Q110.371 0.250373 109.623 0.250373ZM40.6834-54.6113Q43.0041-54.6113 44.7358-56.2887Q46.4675-57.966 46.4675-60.3386Q46.4675-62.7738 44.7358-64.4483Q43.0041-66.1227 40.6834-66.1227Q38.3108-66.1227 36.6051-64.4483Q34.8993-62.7738 34.8993-60.3386Q34.8993-57.966 36.6051-56.2887Q38.3108-54.6113 40.6834-54.6113ZM54.6834-54.6113Q57.0612-54.6113 58.7643-56.2887Q60.4675-57.966 60.4675-60.3386Q60.4675-62.7738 58.7643-64.4483Q57.0612-66.1227 54.6834-66.1227Q52.3679-66.1227 50.6363-64.4483Q48.9048-62.7738 48.9048-60.3386Q48.9048-57.966 50.6363-56.2887Q52.3679-54.6113 54.6834-54.6113ZM68.6321-54.6113Q71.0044-54.6113 72.7388-56.2887Q74.4733-57.966 74.4733-60.3386Q74.4733-62.7738 72.7388-64.4483Q71.0044-66.1227 68.6321-66.1227Q66.3111-66.1227 64.6081-64.4483Q62.9051-62.7738 62.9051-60.3386Q62.9051-57.966 64.6081-56.2887Q66.3111-54.6113 68.6321-54.6113ZM87.8623-55.706L100.044-55.706Q101.921-55.706 103.242-57.0263Q104.562-58.3466 104.562-60.2242Q104.562-62.1017 103.242-63.4222Q101.921-64.7426 100.044-64.7426L87.8623-64.7426Q85.9903-64.7426 84.6699-63.4222Q83.3496-62.1017 83.3496-60.2242Q83.3496-58.3466 84.6699-57.0263Q85.9903-55.706 87.8623-55.706ZM24.3448-40.9404L115.061-40.9404L115.061-50.7018L24.3448-50.7018ZM39.2684-5.06857L100.138-5.06857Q102.13-5.06857 103.345-6.28266Q104.559-7.49675 104.559-9.49429L104.559-32.3926Q104.559-34.3847 103.345-35.5988Q102.13-36.8129 100.138-36.8129L39.2684-36.8129Q37.2705-36.8129 36.0563-35.5988Q34.8421-34.3847 34.8421-32.3926L34.8421-9.49429Q34.8421-7.49675 36.0563-6.28266Q37.2705-5.06857 39.2684-5.06857ZM44.2896-13.5837Q43.3572-13.5837 43.3572-14.5158L43.3572-27.9366Q43.3572-28.8742 44.2896-28.8742L95.1111-28.8742Q96.0493-28.8742 96.0493-27.9366L96.0493-14.5158Q96.0493-13.5837 95.1111-13.5837ZM40.0759-20.4778L99.3877-20.4778L99.3877-26.1897L40.0759-26.1897Z"/>
  </g>
  <g id="Heavy-M" transform="matrix(1 0 0 1 2568.54 1126)">
   <path d="M27.0889 13.7548L109.167 13.7548Q115.676 13.7548 119.756 9.60866Q123.836 5.4625 123.836-1.07164L123.836-69.5346Q123.836-76.0687 119.756-80.2149Q115.676-84.3611 109.167-84.3611L27.0889-84.3611Q20.6229-84.3611 16.5419-80.2149Q12.4609-76.0687 12.4609-69.5346L12.4609-1.07164Q12.4609 5.4625 16.5419 9.60866Q20.6229 13.7548 27.0889 13.7548ZM28.7584-0.0525727Q27.6725-0.0525727 26.984-0.757236Q26.2955-1.4619 26.2955-2.57784L26.2955-68.0284Q26.2955-69.1443 26.984-69.849Q27.6725-70.5537 28.7584-70.5537L107.917-70.5537Q108.886-70.5537 109.437-69.9799Q109.987-69.4061 109.987-68.4646L109.987-2.14162Q109.987-1.20017 109.437-0.626371Q108.886-0.0525727 107.917-0.0525727ZM39.0872-55.3433Q41.2866-55.3433 42.9012-56.9225Q44.5159-58.5017 44.5159-60.7261Q44.5159-63.0105 42.9012-64.5826Q41.2866-66.1547 39.0872-66.1547Q36.8628-66.1547 35.2607-64.5826Q33.6586-63.0105 33.6586-60.7261Q33.6586-58.5017 35.2607-56.9225Q36.8628-55.3433 39.0872-55.3433ZM52.7464-55.3433Q54.9895-55.3433 56.5823-56.9225Q58.175-58.5017 58.175-60.7261Q58.175-63.0105 56.5823-64.5826Q54.9895-66.1547 52.7464-66.1547Q50.5657-66.1547 48.9499-64.5826Q47.3342-63.0105 47.3342-60.7261Q47.3342-58.5017 48.9499-56.9225Q50.5657-55.3433 52.7464-55.3433ZM66.3761-55.3433Q68.6027-55.3433 70.2255-56.9225Q71.8483-58.5017 71.8483-60.7261Q71.8483-63.0105 70.2255-64.5826Q68.6027-66.1547 66.3761-66.1547Q64.1789-66.1547 62.585-64.5826Q60.9911-63.0105 60.9911-60.7261Q60.9911-58.5017 62.585-56.9225Q64.1789-55.3433 66.3761-55.3433ZM86.4642-56.602L98.8831-56.602Q100.582-56.602 101.751-57.7722Q102.92-58.9425 102.92-60.6411Q102.92-62.3397 101.751-63.5088Q100.582-64.6779 98.8831-64.6779L86.4642-64.6779Q84.782-64.6779 83.6118-63.5088Q82.4416-62.3397 82.4416-60.6411Q82.4416-58.9425 83.6118-57.7722Q84.782-56.602 86.4642-56.602ZM22.6578-42.6475L113.702-42.6475L113.702-51.6191L22.6578-51.6191ZM37.7944-5.52651L98.5604-5.52651Q100.566-5.52651 101.786-6.74827Q103.007-7.97003 103.007-9.99385L103.007-33.7428Q103.007-35.7502 101.786-36.9719Q100.566-38.1937 98.5604-38.1937L37.7944-38.1937Q35.7728-38.1937 34.5522-36.9719Q33.3316-35.7502 33.3316-33.7428L33.3316-9.99385Q33.3316-7.97003 34.5522-6.74827Q35.7728-5.52651 37.7944-5.52651ZM42.1313-13.3139Q41.119-13.3139 41.119-14.3286L41.119-29.8279Q41.119-30.8589 42.1313-30.8589L94.2093-30.8589Q95.2358-30.8589 95.2358-29.8279L95.2358-14.3286Q95.2358-13.3139 94.2093-13.3139ZM38.3818-21.8755L98.0166-21.8755L98.0166-27.509L38.3818-27.509Z"/>
  </g>
  <g id="Bold-M" transform="matrix(1 0 0 1 2273.53 1126)">
   <path d="M26.01 11.3765L106.856 11.3765Q112.908 11.3765 116.668 7.56754Q120.428 3.7586 120.428-2.29631L120.428-68.2769Q120.428-74.3318 116.668-78.1407Q112.908-81.9497 106.856-81.9497L26.01-81.9497Q19.9859-81.9497 16.2234-78.1407Q12.4609-74.3318 12.4609-68.2769L12.4609-2.29631Q12.4609 3.7586 16.2234 7.56754Q19.9859 11.3765 26.01 11.3765ZM27.1133-0.391461Q25.8345-0.391461 25.0316-1.22659Q24.2288-2.06173 24.2288-3.39991L24.2288-67.1733Q24.2288-68.5115 25.0316-69.3467Q25.8345-70.1818 27.1133-70.1818L106.009-70.1818Q107.226-70.1818 107.931-69.4323Q108.637-68.6828 108.637-67.4588L108.637-3.11443Q108.637-1.89044 107.931-1.14095Q107.226-0.391461 106.009-0.391461ZM37.3016-56.1622Q39.3654-56.1622 40.849-57.6316Q42.3327-59.1009 42.3327-61.1595Q42.3327-63.2752 40.849-64.7328Q39.3654-66.1905 37.3016-66.1905Q35.2431-66.1905 33.7569-64.7328Q32.2706-63.2752 32.2706-61.1595Q32.2706-59.1009 33.7569-57.6316Q35.2431-56.1622 37.3016-56.1622ZM50.5796-56.1622Q52.6719-56.1622 54.1413-57.6316Q55.6106-59.1009 55.6106-61.1595Q55.6106-63.2752 54.1413-64.7328Q52.6719-66.1905 50.5796-66.1905Q48.5496-66.1905 47.0634-64.7328Q45.5772-63.2752 45.5772-61.1595Q45.5772-59.1009 47.0634-57.6316Q48.5496-56.1622 50.5796-56.1622ZM63.8525-56.1622Q65.9162-56.1622 67.4141-57.6316Q68.912-59.1009 68.912-61.1595Q68.912-63.2752 67.4141-64.7328Q65.9162-66.1905 63.8525-66.1905Q61.7939-66.1905 60.322-64.7328Q58.8501-63.2752 58.8501-61.1595Q58.8501-59.1009 60.322-57.6316Q61.7939-56.1622 63.8525-56.1622ZM84.9003-57.6043L97.5848-57.6043Q99.0832-57.6043 100.083-58.6067Q101.083-59.609 101.083-61.1075Q101.083-62.606 100.083-63.6058Q99.0832-64.6055 97.5848-64.6055L84.9003-64.6055Q83.4304-64.6055 82.4281-63.6058Q81.4258-62.606 81.4258-61.1075Q81.4258-59.609 82.4281-58.6067Q83.4304-57.6043 84.9003-57.6043ZM20.7707-44.5571L112.181-44.5571L112.181-52.6452L20.7707-52.6452ZM36.1455-6.03878L96.7956-6.03878Q98.8151-6.03878 100.043-7.26912Q101.271-8.49946 101.271-10.5527L101.271-35.2531Q101.271-37.2777 100.043-38.5081Q98.8151-39.7384 96.7956-39.7384L36.1455-39.7384Q34.0974-39.7384 32.8697-38.5081Q31.6419-37.2777 31.6419-35.2531L31.6419-10.5527Q31.6419-8.49946 32.8697-7.26912Q34.0974-6.03878 36.1455-6.03878ZM39.717-13.0121Q38.6152-13.0121 38.6152-14.1191L38.6152-31.9436Q38.6152-33.0791 39.717-33.0791L93.2005-33.0791Q94.3259-33.0791 94.3259-31.9436L94.3259-14.1191Q94.3259-13.0121 93.2005-13.0121ZM36.4867-23.439L96.4829-23.439L96.4829-28.9849L36.4867-28.9849Z"/>
  </g>
  <g id="Semibold-M" transform="matrix(1 0 0 1 1978 1126)">
   <path d="M25.2663 9.73686L105.262 9.73686Q111 9.73686 114.539 6.1604Q118.079 2.58394 118.079-3.14058L118.079-67.4099Q118.079-73.1344 114.539-76.7108Q111-80.2873 105.262-80.2873L25.2663-80.2873Q19.5467-80.2873 16.0038-76.7108Q12.4609-73.1344 12.4609-67.4099L12.4609-3.14058Q12.4609 2.58394 16.0038 6.1604Q19.5467 9.73686 25.2663 9.73686ZM25.9791-0.625089Q24.5673-0.625089 23.6856-1.55017Q22.8039-2.47525 22.8039-3.96664L22.8039-66.5838Q22.8039-68.0752 23.6856-69.0003Q24.5673-69.9255 25.9791-69.9255L104.694-69.9255Q106.081-69.9255 106.893-69.0548Q107.706-68.1841 107.706-66.7654L107.706-3.78507Q107.706-2.36631 106.893-1.4957Q106.081-0.625089 104.694-0.625089ZM36.0707-56.7267Q38.0409-56.7267 39.4343-58.1204Q40.8276-59.514 40.8276-61.4583Q40.8276-63.4577 39.4343-64.8364Q38.0409-66.2152 36.0707-66.2152Q34.1264-66.2152 32.7201-64.8364Q31.3138-63.4577 31.3138-61.4583Q31.3138-59.514 32.7201-58.1204Q34.1264-56.7267 36.0707-56.7267ZM49.0858-56.7267Q51.0742-56.7267 52.4585-58.1204Q53.8427-59.514 53.8427-61.4583Q53.8427-63.4577 52.4585-64.8364Q51.0742-66.2152 49.0858-66.2152Q47.1597-66.2152 45.7628-64.8364Q44.3659-63.4577 44.3659-61.4583Q44.3659-59.514 45.7628-58.1204Q47.1597-56.7267 49.0858-56.7267ZM62.1128-56.7267Q64.0641-56.7267 65.4759-58.1204Q66.8877-59.514 66.8877-61.4583Q66.8877-63.4577 65.4759-64.8364Q64.0641-66.2152 62.1128-66.2152Q60.1496-66.2152 58.7618-64.8364Q57.3741-63.4577 57.3741-61.4583Q57.3741-59.514 58.7618-58.1204Q60.1496-56.7267 62.1128-56.7267ZM83.8222-58.2954L96.6897-58.2954Q98.0502-58.2954 98.9333-59.182Q99.8163-60.0686 99.8163-61.429Q99.8163-62.7896 98.9333-63.6726Q98.0502-64.5556 96.6897-64.5556L83.8222-64.5556Q82.4986-64.5556 81.612-63.6726Q80.7255-62.7896 80.7255-61.429Q80.7255-60.0686 81.612-59.182Q82.4986-58.2954 83.8222-58.2954ZM19.4697-45.8735L111.132-45.8735L111.132-53.3526L19.4697-53.3526ZM35.0088-6.39194L95.5789-6.39194Q97.6082-6.39194 98.8409-7.62819Q100.074-8.86444 100.074-10.9379L100.074-36.2943Q100.074-38.3308 98.8409-39.567Q97.6082-40.8033 95.5789-40.8033L35.0088-40.8033Q32.9424-40.8033 31.7097-39.567Q30.477-38.3308 30.477-36.2943L30.477-10.9379Q30.477-8.86444 31.7097-7.62819Q32.9424-6.39194 35.0088-6.39194ZM38.0526-12.8041Q36.8892-12.8041 36.8892-13.9747L36.8892-33.4021Q36.8892-34.6097 38.0526-34.6097L92.5051-34.6097Q93.6985-34.6097 93.6985-33.4021L93.6985-13.9747Q93.6985-12.8041 92.5051-12.8041ZM35.1802-24.5169L95.4256-24.5169L95.4256-30.0023L35.1802-30.0023Z"/>
  </g>
  <g id="Medium-M" transform="matrix(1 0 0 1 1682.18 1126)">
   <path d="M24.7023 8.49363L104.054 8.49363Q109.553 8.49363 112.925 5.09345Q116.297 1.69326 116.297-3.78075L116.297-66.7524Q116.297-72.2264 112.925-75.6266Q109.553-79.0268 104.054-79.0268L24.7023-79.0268Q19.2137-79.0268 15.8373-75.6266Q12.4609-72.2264 12.4609-66.7524L12.4609-3.78075Q12.4609 1.69326 15.8373 5.09345Q19.2137 8.49363 24.7023 8.49363ZM25.1191-0.802235Q23.6065-0.802235 22.665-1.79551Q21.7236-2.78879 21.7236-4.39636L21.7236-66.1368Q21.7236-67.7444 22.665-68.7377Q23.6065-69.7311 25.1191-69.7311L103.697-69.7311Q105.213-69.7311 106.106-68.7686Q107-67.806 107-66.2396L107-4.29358Q107-2.72713 106.106-1.76468Q105.213-0.802235 103.697-0.802235ZM35.1373-57.1547Q37.0367-57.1547 38.3615-58.491Q39.6864-59.8273 39.6864-61.6848Q39.6864-63.5961 38.3615-64.915Q37.0367-66.2339 35.1373-66.2339Q33.2797-66.2339 31.934-64.915Q30.5883-63.5961 30.5883-61.6848Q30.5883-59.8273 31.934-58.491Q33.2797-57.1547 35.1373-57.1547ZM47.9532-57.1547Q49.8628-57.1547 51.1825-58.491Q52.5022-59.8273 52.5022-61.6848Q52.5022-63.5961 51.1825-64.915Q49.8628-66.2339 47.9532-66.2339Q46.1059-66.2339 44.7767-64.915Q43.4475-63.5961 43.4475-61.6848Q43.4475-59.8273 44.7767-58.491Q46.1059-57.1547 47.9532-57.1547ZM60.7936-57.1547Q62.6597-57.1547 64.0063-58.491Q65.3528-59.8273 65.3528-61.6848Q65.3528-63.5961 64.0063-64.915Q62.6597-66.2339 60.7936-66.2339Q58.9028-66.2339 57.5789-64.915Q56.2549-63.5961 56.2549-61.6848Q56.2549-59.8273 57.5789-58.491Q58.9028-57.1547 60.7936-57.1547ZM83.0046-58.8193L96.011-58.8193Q97.2669-58.8193 98.0614-59.6181Q98.856-60.417 98.856-61.6728Q98.856-62.9288 98.0614-63.7233Q97.2669-64.5178 96.011-64.5178L83.0046-64.5178Q81.792-64.5178 80.9933-63.7233Q80.1945-62.9288 80.1945-61.6728Q80.1945-60.417 80.9933-59.6181Q81.792-58.8193 83.0046-58.8193ZM18.4833-46.8717L110.337-46.8717L110.337-53.889L18.4833-53.889ZM34.1468-6.65971L94.6564-6.65971Q96.6932-6.65971 97.9296-7.90045Q99.166-9.14119 99.166-11.23L99.166-37.0838Q99.166-39.1293 97.9296-40.37Q96.6932-41.6107 94.6564-41.6107L34.1468-41.6107Q32.0667-41.6107 30.8302-40.37Q29.5937-39.1293 29.5937-37.0838L29.5937-11.23Q29.5937-9.14119 30.8302-7.90045Q32.0667-6.65971 34.1468-6.65971ZM36.7905-12.6464Q35.5804-12.6464 35.5804-13.8652L35.5804-34.508Q35.5804-35.7702 36.7905-35.7702L91.9777-35.7702Q93.2229-35.7702 93.2229-34.508L93.2229-13.8652Q93.2229-12.6464 91.9777-12.6464ZM34.1896-25.3342L94.6239-25.3342L94.6239-30.7738L34.1896-30.7738Z"/>
  </g>
  <g id="Regular-M" transform="matrix(1 0 0 1 1386.63 1126)">
   <path d="M23.9667 6.87203L102.478 6.87203Q107.666 6.87203 110.82 3.70177Q113.974 0.531509 113.974-4.61574L113.974-65.8949Q113.974-71.0422 110.82-74.2124Q107.666-77.3827 102.478-77.3827L23.9667-77.3827Q18.7794-77.3827 15.6202-74.2124Q12.4609-71.0422 12.4609-65.8949L12.4609-4.61574Q12.4609 0.531509 15.6202 3.70177Q18.7794 6.87203 23.9667 6.87203ZM23.9974-1.0333Q22.3533-1.0333 21.3339-2.11553Q20.3144-3.19777 20.3144-4.95686L20.3144-65.5538Q20.3144-67.3129 21.3339-68.3952Q22.3533-69.4775 23.9974-69.4775L102.396-69.4775Q104.081-69.4775 105.08-68.3952Q106.079-67.3129 106.079-65.5538L106.079-4.95686Q106.079-3.19777 105.08-2.11553Q104.081-1.0333 102.396-1.0333ZM33.9199-57.7131Q35.7267-57.7131 36.9623-58.9744Q38.1978-60.2358 38.1978-61.9804Q38.1978-63.7766 36.9623-65.0174Q35.7267-66.2583 33.9199-66.2583Q32.1754-66.2583 30.9087-65.0174Q29.642-63.7766 29.642-61.9804Q29.642-60.2358 30.9087-58.9744Q32.1754-57.7131 33.9199-57.7131ZM46.4758-57.7131Q48.2827-57.7131 49.5182-58.9744Q50.7538-60.2358 50.7538-61.9804Q50.7538-63.7766 49.5182-65.0174Q48.2827-66.2583 46.4758-66.2583Q44.7313-66.2583 43.4905-65.0174Q42.2496-63.7766 42.2496-61.9804Q42.2496-60.2358 43.4905-58.9744Q44.7313-57.7131 46.4758-57.7131ZM59.073-57.7131Q60.828-57.7131 62.0894-58.9744Q63.3508-60.2358 63.3508-61.9804Q63.3508-63.7766 62.0894-65.0174Q60.828-66.2583 59.073-66.2583Q57.2766-66.2583 56.0359-65.0174Q54.7951-63.7766 54.7951-61.9804Q54.7951-60.2358 56.0359-58.9744Q57.2766-57.7131 59.073-57.7131ZM81.9383-59.5027L95.1258-59.5027Q96.2452-59.5027 96.9243-60.1871Q97.6035-60.8715 97.6035-61.9908Q97.6035-63.1103 96.9243-63.7894Q96.2452-64.4684 95.1258-64.4684L81.9383-64.4684Q80.8705-64.4684 80.1862-63.7894Q79.5019-63.1103 79.5019-61.9908Q79.5019-60.8715 80.1862-60.1871Q80.8705-59.5027 81.9383-59.5027ZM17.1966-48.1737L109.3-48.1737L109.3-54.5886L17.1966-54.5886ZM33.0226-7.00899L93.4531-7.00899Q95.4997-7.00899 96.7409-8.25557Q97.9822-9.50216 97.9822-11.611L97.9822-38.1136Q97.9822-40.1708 96.7409-41.4174Q95.4997-42.6639 93.4531-42.6639L33.0226-42.6639Q30.9244-42.6639 29.683-41.4174Q28.4417-40.1708 28.4417-38.1136L28.4417-11.611Q28.4417-9.50216 29.683-8.25557Q30.9244-7.00899 33.0226-7.00899ZM35.1444-12.4406Q33.8733-12.4406 33.8733-13.7224L33.8733-35.9506Q33.8733-37.284 35.1444-37.284L91.2899-37.284Q92.6024-37.284 92.6024-35.9506L92.6024-13.7224Q92.6024-12.4406 91.2899-12.4406ZM32.8975-26.4003L93.5782-26.4003L93.5782-31.7801L32.8975-31.7801Z"/>
  </g>
  <g id="Light-M" transform="matrix(1 0 0 1 1092.17 1126)">
   <path d="M22.9228 5.17817L99.0218 5.17817Q103.73 5.17817 106.593 2.2218Q109.456-0.734572 109.456-5.53972L109.456-64.9537Q109.456-69.7588 106.593-72.7152Q103.73-75.6716 99.0218-75.6716L22.9228-75.6716Q18.2148-75.6716 15.3378-72.7152Q12.4609-69.7588 12.4609-64.9537L12.4609-5.53972Q12.4609-0.734572 15.3378 2.2218Q18.2148 5.17817 22.9228 5.17817ZM22.9024-0.896453Q20.9159-0.896453 19.7083-2.21816Q18.5007-3.53987 18.5007-5.72674L18.5007-64.7667Q18.5007-66.9535 19.7083-68.2755Q20.9159-69.5974 22.9024-69.5974L99.0078-69.5974Q101.001-69.5974 102.205-68.2755Q103.41-66.9535 103.41-64.7667L103.41-5.72674Q103.41-3.53987 102.205-2.21816Q101.001-0.896453 99.0078-0.896453ZM32.3456-56.8405Q34.1525-56.8405 35.3709-58.0762Q36.5893-59.3118 36.5893-61.0564Q36.5893-62.8353 35.3709-64.0677Q34.1525-65.3001 32.3456-65.3001Q30.6011-65.3001 29.3515-64.0677Q28.1019-62.8353 28.1019-61.0564Q28.1019-59.3118 29.3515-58.0762Q30.6011-56.8405 32.3456-56.8405ZM45.0557-56.8405Q46.8625-56.8405 48.081-58.0762Q49.2994-59.3118 49.2994-61.0564Q49.2994-62.8353 48.081-64.0677Q46.8625-65.3001 45.0557-65.3001Q43.3111-65.3001 42.0788-64.0677Q40.8464-62.8353 40.8464-61.0564Q40.8464-59.3118 42.0788-58.0762Q43.3111-56.8405 45.0557-56.8405ZM57.7727-56.8405Q59.5447-56.8405 60.7803-58.0762Q62.016-59.3118 62.016-61.0564Q62.016-62.8353 60.7803-64.0677Q59.5447-65.3001 57.7727-65.3001Q55.9933-65.3001 54.7612-64.0677Q53.529-62.8353 53.529-61.0564Q53.529-59.3118 54.7612-58.0762Q55.9933-56.8405 57.7727-56.8405ZM79.5258-59.0065L92.679-59.0065Q93.5928-59.0065 94.1609-59.5883Q94.7289-60.17 94.7289-61.0838Q94.7289-61.9981 94.1609-62.5659Q93.5928-63.1336 92.679-63.1336L79.5258-63.1336Q78.6459-63.1336 78.0644-62.5659Q77.4829-61.9981 77.4829-61.0838Q77.4829-60.17 78.0644-59.5883Q78.6459-59.0065 79.5258-59.0065ZM16.1869-47.6945L105.793-47.6945L105.793-52.7919L16.1869-52.7919ZM31.0036-7.36835L90.9206-7.36835Q93.0529-7.36835 94.3368-8.66625Q95.6208-9.96415 95.6208-12.1587L95.6208-36.7788Q95.6208-38.9389 94.3368-40.2368Q93.0529-41.5347 90.9206-41.5347L31.0036-41.5347Q28.8369-41.5347 27.5528-40.2368Q26.2686-38.9389 26.2686-36.7788L26.2686-12.1587Q26.2686-9.96415 27.5528-8.66625Q28.8369-7.36835 31.0036-7.36835ZM32.4236-11.8076Q30.7078-11.8076 30.7078-13.5513L30.7078-35.3517Q30.7078-37.1299 32.4236-37.1299L89.4931-37.1299Q91.2164-37.1299 91.2164-35.3517L91.2164-13.5513Q91.2164-11.8076 89.4931-11.8076ZM29.7662-27.1874L92.158-27.1874L92.158-31.5918L29.7662-31.5918Z"/>
  </g>
  <g id="Thin-M" transform="matrix(1 0 0 1 798.451 1126)">
   <path d="M21.5422 2.93791L94.4504 2.93791Q98.5255 2.93791 101.004 0.264419Q103.482-2.40907 103.482-6.76175L103.482-63.7088Q103.482-68.0615 101.004-70.735Q98.5255-73.4085 94.4504-73.4085L21.5422-73.4085Q17.468-73.4085 14.9645-70.735Q12.4609-68.0615 12.4609-63.7088L12.4609-6.76175Q12.4609-2.40907 14.9645 0.264419Q17.468 2.93791 21.5422 2.93791ZM21.4541-0.715467Q19.0148-0.715467 17.5583-2.3539Q16.1019-3.99234 16.1019-6.74497L16.1019-63.7256Q16.1019-66.4783 17.5583-68.1171Q19.0148-69.756 21.4541-69.756L94.5269-69.756Q96.9272-69.756 98.4032-68.1171Q99.8792-66.4783 99.8792-63.7256L99.8792-6.74497Q99.8792-3.99234 98.4032-2.3539Q96.9272-0.715467 94.5269-0.715467ZM30.2635-55.6866Q32.0704-55.6866 33.2662-56.8882Q34.462-58.0898 34.462-59.8343Q34.462-61.5905 33.2662-62.8116Q32.0704-64.0328 30.2635-64.0328Q28.519-64.0328 27.292-62.8116Q26.0651-61.5905 26.0651-59.8343Q26.0651-58.0898 27.292-56.8882Q28.519-55.6866 30.2635-55.6866ZM43.1774-55.6866Q44.9842-55.6866 46.18-56.8882Q47.3759-58.0898 47.3759-59.8343Q47.3759-61.5905 46.18-62.8116Q44.9842-64.0328 43.1774-64.0328Q41.4329-64.0328 40.2117-62.8116Q38.9905-61.5905 38.9905-59.8343Q38.9905-58.0898 40.2117-56.8882Q41.4329-55.6866 43.1774-55.6866ZM56.053-55.6866Q57.8474-55.6866 59.049-56.8882Q60.2506-58.0898 60.2506-59.8343Q60.2506-61.5905 59.049-62.8116Q57.8474-64.0328 56.053-64.0328Q54.296-64.0328 53.0753-62.8116Q51.8545-61.5905 51.8545-59.8343Q51.8545-58.0898 53.0753-56.8882Q54.296-55.6866 56.053-55.6866ZM76.3349-58.3503L89.443-58.3503Q90.0849-58.3503 90.506-58.7963Q90.9271-59.2423 90.9271-59.8842Q90.9271-60.527 90.506-60.9476Q90.0849-61.3683 89.443-61.3683L76.3349-61.3683Q75.7038-61.3683 75.2582-60.9476Q74.8126-60.527 74.8126-59.8842Q74.8126-59.2423 75.2582-58.7963Q75.7038-58.3503 76.3349-58.3503ZM14.8516-47.0607L101.154-47.0607L101.154-50.4155L14.8516-50.4155ZM28.3333-7.84362L87.5713-7.84362Q89.8168-7.84362 91.1572-9.20939Q92.4976-10.5752 92.4976-12.883L92.4976-35.0134Q92.4976-37.3096 91.1572-38.6754Q89.8168-40.0412 87.5713-40.0412L28.3333-40.0412Q26.0762-40.0412 24.7353-38.6754Q23.3945-37.3096 23.3945-35.0134L23.3945-12.883Q23.3945-10.5752 24.7353-9.20939Q26.0762-7.84362 28.3333-7.84362ZM28.8252-10.9703Q26.5212-10.9703 26.5212-13.3251L26.5212-34.5597Q26.5212-36.9261 28.8252-36.9261L87.1168-36.9261Q89.3834-36.9261 89.3834-34.5597L89.3834-13.3251Q89.3834-10.9703 87.1168-10.9703ZM25.6248-28.2285L90.2797-28.2285L90.2797-31.3427L25.6248-31.3427Z"/>
  </g>
  <g id="Ultralight-M" transform="matrix(1 0 0 1 503.27 1126)">
   <path d="M20.8351 1.79045L92.109 1.79045Q95.8596 1.79045 98.1407-0.738141Q100.422-3.26674 100.422-7.38767L100.422-63.0712Q100.422-67.1922 98.1407-69.7208Q95.8596-72.2494 92.109-72.2494L20.8351-72.2494Q17.0855-72.2494 14.7732-69.7208Q12.4609-67.1922 12.4609-63.0712L12.4609-7.38767Q12.4609-3.26674 14.7732-0.738141Q17.0855 1.79045 20.8351 1.79045ZM20.7123-0.622767Q18.041-0.622767 16.4571-2.42343Q14.8732-4.22409 14.8732-7.26651L14.8732-63.1924Q14.8732-66.2348 16.4571-68.036Q18.041-69.8372 20.7123-69.8372L92.2318-69.8372Q94.8407-69.8372 96.4558-68.036Q98.071-66.2348 98.071-63.1924L98.071-7.26651Q98.071-4.22409 96.4558-2.42343Q94.8407-0.622767 92.2318-0.622767ZM29.1971-55.0955Q31.0039-55.0955 32.1882-56.2797Q33.3724-57.4639 33.3724-59.2084Q33.3724-60.9529 32.1882-62.1683Q31.0039-63.3837 29.1971-63.3837Q27.4526-63.3837 26.2372-62.1683Q25.0218-60.9529 25.0218-59.2084Q25.0218-57.4639 26.2372-56.2797Q27.4526-55.0955 29.1971-55.0955ZM42.2153-55.0955Q44.0222-55.0955 45.2064-56.2797Q46.3906-57.4639 46.3906-59.2084Q46.3906-60.9529 45.2064-62.1683Q44.0222-63.3837 42.2153-63.3837Q40.4708-63.3837 39.2554-62.1683Q38.04-60.9529 38.04-59.2084Q38.04-57.4639 39.2554-56.2797Q40.4708-55.0955 42.2153-55.0955ZM55.1721-55.0955Q56.978-55.0955 58.1622-56.2797Q59.3464-57.4639 59.3464-59.2084Q59.3464-60.9529 58.1622-62.1683Q56.978-63.3837 55.1721-63.3837Q53.4266-63.3837 52.2117-62.1683Q50.9968-60.9529 50.9968-59.2084Q50.9968-57.4639 52.2117-56.2797Q53.4266-55.0955 55.1721-55.0955ZM74.7006-58.0141L87.7855-58.0141Q88.2882-58.0141 88.634-58.3906Q88.9798-58.7671 88.9798-59.2698Q88.9798-59.7735 88.634-60.1188Q88.2882-60.4641 87.7855-60.4641L74.7006-60.4641Q74.1968-60.4641 73.8209-60.1188Q73.4449-59.7735 73.4449-59.2698Q73.4449-58.7671 73.8209-58.3906Q74.1968-58.0141 74.7006-58.0141ZM14.1676-46.736L98.7774-46.736L98.7774-49.1983L14.1676-49.1983ZM26.9656-8.08706L85.8557-8.08706Q88.1593-8.08706 89.5287-9.48759Q90.898-10.8881 90.898-13.254L90.898-34.1092Q90.898-36.4752 89.5287-37.8757Q88.1593-39.2762 85.8557-39.2762L26.9656-39.2762Q24.6621-39.2762 23.2922-37.8757Q21.9224-36.4752 21.9224-34.1092L21.9224-13.254Q21.9224-10.8881 23.2922-9.48759Q24.6621-8.08706 26.9656-8.08706ZM26.9821-10.5415Q24.3768-10.5415 24.3768-13.2092L24.3768-34.1541Q24.3768-36.8217 26.9821-36.8217L85.8996-36.8217Q88.4445-36.8217 88.4445-34.1541L88.4445-13.2092Q88.4445-10.5415 85.8996-10.5415ZM23.5037-28.7617L89.3177-28.7617L89.3177-31.2152L23.5037-31.2152Z"/>
  </g>
  <g id="Black-S" transform="matrix(1 0 0 1 2878.47 696)">
   <path d="M22.2168 5.37109L87.5977 5.37109Q93.1152 5.37109 96.6064 1.80664Q100.098-1.75781 100.098-7.32422L100.098-63.2812Q100.098-68.8477 96.6064-72.4121Q93.1152-75.9766 87.5977-75.9766L22.2168-75.9766Q16.748-75.9766 13.2568-72.4121Q9.76562-68.8477 9.76562-63.2812L9.76562-7.32422Q9.76562-1.75781 13.2568 1.80664Q16.748 5.37109 22.2168 5.37109ZM24.0723-7.32422Q23.3887-7.32422 22.9492-7.76367Q22.5098-8.20312 22.5098-8.88672L22.5098-61.7188Q22.5098-62.4023 22.9492-62.8418Q23.3887-63.2812 24.0723-63.2812L86.2305-63.2812Q86.7676-63.2812 87.0605-62.9883Q87.3535-62.6953 87.3535-62.207L87.3535-8.39844Q87.3535-7.91016 87.0605-7.61719Q86.7676-7.32422 86.2305-7.32422ZM32.2754-50.1465Q34.1309-50.1465 35.5225-51.4893Q36.9141-52.832 36.9141-54.7363Q36.9141-56.6895 35.5225-58.0322Q34.1309-59.375 32.2754-59.375Q30.3711-59.375 29.0039-58.0322Q27.6367-56.6895 27.6367-54.7363Q27.6367-52.832 29.0039-51.4893Q30.3711-50.1465 32.2754-50.1465ZM43.3594-50.1465Q45.2637-50.1465 46.6309-51.4893Q47.998-52.832 47.998-54.7363Q47.998-56.6895 46.6309-58.0322Q45.2637-59.375 43.3594-59.375Q41.5039-59.375 40.1123-58.0322Q38.7207-56.6895 38.7207-54.7363Q38.7207-52.832 40.1123-51.4893Q41.5039-50.1465 43.3594-50.1465ZM54.3945-50.1465Q56.2988-50.1465 57.6904-51.4893Q59.082-52.832 59.082-54.7363Q59.082-56.6895 57.6904-58.0322Q56.2988-59.375 54.3945-59.375Q52.5391-59.375 51.1719-58.0322Q49.8047-56.6895 49.8047-54.7363Q49.8047-52.832 51.1719-51.4893Q52.5391-50.1465 54.3945-50.1465ZM69.1406-50.9766L78.6133-50.9766Q80.127-50.9766 81.2012-52.0508Q82.2754-53.125 82.2754-54.6387Q82.2754-56.1523 81.2012-57.2266Q80.127-58.3008 78.6133-58.3008L69.1406-58.3008Q67.627-58.3008 66.5527-57.2266Q65.4785-56.1523 65.4785-54.6387Q65.4785-53.125 66.5527-52.0508Q67.627-50.9766 69.1406-50.9766ZM19.5312-39.1602L90.3809-39.1602L90.3809-46.9727L19.5312-46.9727ZM31.1035-11.4746L78.8086-11.4746Q80.3711-11.4746 81.3232-12.4268Q82.2754-13.3789 82.2754-14.9414L82.2754-32.5195Q82.2754-34.082 81.3232-35.0342Q80.3711-35.9863 78.8086-35.9863L31.1035-35.9863Q29.541-35.9863 28.5889-35.0342Q27.6367-34.082 27.6367-32.5195L27.6367-14.9414Q27.6367-13.3789 28.5889-12.4268Q29.541-11.4746 31.1035-11.4746ZM35.2051-18.3105Q34.4727-18.3105 34.4727-19.043L34.4727-28.9062Q34.4727-29.6387 35.2051-29.6387L74.707-29.6387Q75.4395-29.6387 75.4395-28.9062L75.4395-19.043Q75.4395-18.3105 74.707-18.3105ZM31.7383-23.291L78.2227-23.291L78.2227-27.7344L31.7383-27.7344Z"/>
  </g>
  <g id="Heavy-S" transform="matrix(1 0 0 1 2582.77 696)">
   <path d="M21.5253 3.76919L86.2723 3.76919Q91.5018 3.76919 94.7856 0.435229Q98.0694-2.89873 98.0694-8.14246L98.0694-62.44Q98.0694-67.6837 94.7856-71.0176Q91.5018-74.3516 86.2723-74.3516L21.5253-74.3516Q16.3332-74.3516 13.0494-71.0176Q9.76562-67.6837 9.76562-62.44L9.76562-8.14246Q9.76562-2.89873 13.0494 0.435229Q16.3332 3.76919 21.5253 3.76919ZM22.9544-7.60081Q22.1671-7.60081 21.6642-8.10941Q21.1614-8.61801 21.1614-9.41684L21.1614-61.1656Q21.1614-61.9644 21.6642-62.473Q22.1671-62.9816 22.9544-62.9816L85.2048-62.9816Q85.8917-62.9816 86.2769-62.5849Q86.662-62.1882 86.662-61.5386L86.662-9.04381Q86.662-8.39418 86.2769-7.99749Q85.8917-7.60081 85.2048-7.60081ZM31.1114-50.8841Q32.8632-50.8841 34.1568-52.1462Q35.4505-53.4083 35.4505-55.1858Q35.4505-57.0121 34.1568-58.2685Q32.8632-59.5248 31.1114-59.5248Q29.3339-59.5248 28.0531-58.2685Q26.7724-57.0121 26.7724-55.1858Q26.7724-53.4083 28.0531-52.1462Q29.3339-50.8841 31.1114-50.8841ZM41.8842-50.8841Q43.6733-50.8841 44.9483-52.1462Q46.2233-53.4083 46.2233-55.1858Q46.2233-57.0121 44.9483-58.2685Q43.6733-59.5248 41.8842-59.5248Q40.144-59.5248 38.8504-58.2685Q37.5567-57.0121 37.5567-55.1858Q37.5567-53.4083 38.8504-52.1462Q40.144-50.8841 41.8842-50.8841ZM52.6313-50.8841Q54.4088-50.8841 55.7082-52.1462Q57.0076-53.4083 57.0076-55.1858Q57.0076-57.0121 55.7082-58.2685Q54.4088-59.5248 52.6313-59.5248Q50.8795-59.5248 49.6045-58.2685Q48.3296-57.0121 48.3296-55.1858Q48.3296-53.4083 49.6045-52.1462Q50.8795-50.8841 52.6313-50.8841ZM68.2532-51.8063L77.9333-51.8063Q79.3202-51.8063 80.2792-52.7653Q81.2382-53.7243 81.2382-55.1112Q81.2382-56.4981 80.2792-57.4571Q79.3202-58.416 77.9333-58.416L68.2532-58.416Q66.8779-58.416 65.9189-57.4571Q64.9599-56.4981 64.9599-55.1112Q64.9599-53.7243 65.9189-52.7653Q66.8779-51.8063 68.2532-51.8063ZM18.2175-40.6814L89.6663-40.6814L89.6663-47.9868L18.2175-47.9868ZM30.1009-11.8203L77.7829-11.8203Q79.3454-11.8203 80.2976-12.7725Q81.2497-13.7246 81.2497-15.2987L81.2497-33.8448Q81.2497-35.4073 80.2976-36.3595Q79.3454-37.3116 77.7829-37.3116L30.1009-37.3116Q28.5269-37.3116 27.5747-36.3595Q26.6226-35.4073 26.6226-33.8448L26.6226-15.2987Q26.6226-13.7246 27.5747-12.7725Q28.5269-11.8203 30.1009-11.8203ZM33.7069-18.1607Q32.963-18.1607 32.963-18.9047L32.963-30.6003Q32.963-31.3558 33.7069-31.3558L74.1654-31.3558Q74.9209-31.3558 74.9209-30.6003L74.9209-18.9047Q74.9209-18.1607 74.1654-18.1607ZM30.6896-24.3858L77.2316-24.3858L77.2316-28.8868L30.6896-28.8868Z"/>
  </g>
  <g id="Bold-S" transform="matrix(1 0 0 1 2287.19 696)">
   <path d="M20.752 1.97754L84.79 1.97754Q89.6973 1.97754 92.749-1.09863Q95.8008-4.1748 95.8008-9.05762L95.8008-61.499Q95.8008-66.3818 92.749-69.458Q89.6973-72.5342 84.79-72.5342L20.752-72.5342Q15.8691-72.5342 12.8174-69.458Q9.76562-66.3818 9.76562-61.499L9.76562-9.05762Q9.76562-4.1748 12.8174-1.09863Q15.8691 1.97754 20.752 1.97754ZM21.7041-7.91016Q20.8008-7.91016 20.2271-8.49609Q19.6533-9.08203 19.6533-10.0098L19.6533-60.5469Q19.6533-61.4746 20.2271-62.0605Q20.8008-62.6465 21.7041-62.6465L84.0576-62.6465Q84.9121-62.6465 85.4004-62.1338Q85.8887-61.6211 85.8887-60.791L85.8887-9.76562Q85.8887-8.93555 85.4004-8.42285Q84.9121-7.91016 84.0576-7.91016ZM29.8096-51.709Q31.4453-51.709 32.6294-52.8809Q33.8135-54.0527 33.8135-55.6885Q33.8135-57.373 32.6294-58.5327Q31.4453-59.6924 29.8096-59.6924Q28.1738-59.6924 26.9897-58.5327Q25.8057-57.373 25.8057-55.6885Q25.8057-54.0527 26.9897-52.8809Q28.1738-51.709 29.8096-51.709ZM40.2344-51.709Q41.8945-51.709 43.0664-52.8809Q44.2383-54.0527 44.2383-55.6885Q44.2383-57.373 43.0664-58.5327Q41.8945-59.6924 40.2344-59.6924Q38.623-59.6924 37.439-58.5327Q36.2549-57.373 36.2549-55.6885Q36.2549-54.0527 37.439-52.8809Q38.623-51.709 40.2344-51.709ZM50.6592-51.709Q52.2949-51.709 53.4912-52.8809Q54.6875-54.0527 54.6875-55.6885Q54.6875-57.373 53.4912-58.5327Q52.2949-59.6924 50.6592-59.6924Q49.0234-59.6924 47.8516-58.5327Q46.6797-57.373 46.6797-55.6885Q46.6797-54.0527 47.8516-52.8809Q49.0234-51.709 50.6592-51.709ZM67.2607-52.7344L77.1729-52.7344Q78.418-52.7344 79.248-53.5645Q80.0781-54.3945 80.0781-55.6396Q80.0781-56.8848 79.248-57.7148Q78.418-58.5449 77.1729-58.5449L67.2607-58.5449Q66.04-58.5449 65.21-57.7148Q64.3799-56.8848 64.3799-55.6396Q64.3799-54.3945 65.21-53.5645Q66.04-52.7344 67.2607-52.7344ZM16.748-42.3828L88.8672-42.3828L88.8672-49.1211L16.748-49.1211ZM28.9795-12.207L76.6357-12.207Q78.1982-12.207 79.1504-13.1592Q80.1025-14.1113 80.1025-15.6982L80.1025-35.3271Q80.1025-36.8896 79.1504-37.8418Q78.1982-38.7939 76.6357-38.7939L28.9795-38.7939Q27.3926-38.7939 26.4404-37.8418Q25.4883-36.8896 25.4883-35.3271L25.4883-15.6982Q25.4883-14.1113 26.4404-13.1592Q27.3926-12.207 28.9795-12.207ZM32.0312-17.9932Q31.2744-17.9932 31.2744-18.75L31.2744-32.4951Q31.2744-33.2764 32.0312-33.2764L73.5596-33.2764Q74.3408-33.2764 74.3408-32.4951L74.3408-18.75Q74.3408-17.9932 73.5596-17.9932ZM29.5166-25.6104L76.123-25.6104L76.123-30.1758L29.5166-30.1758Z"/>
  </g>
  <g id="Semibold-S" transform="matrix(1 0 0 1 1991.27 696)">
   <path d="M20.2188 0.742285L83.7681 0.742285Q88.4531 0.742285 91.3449-2.15615Q94.2367-5.05459 94.2367-9.68857L94.2367-60.8503Q94.2367-65.4843 91.3449-68.3827Q88.4531-71.2812 83.7681-71.2812L20.2188-71.2812Q15.5492-71.2812 12.6574-68.3827Q9.76562-65.4843 9.76562-60.8503L9.76562-9.68857Q9.76562-5.05459 12.6574-2.15615Q15.5492 0.742285 20.2188 0.742285ZM20.8421-8.12344Q19.8588-8.12344 19.2362-8.7627Q18.6136-9.40195 18.6136-10.4186L18.6136-60.1203Q18.6136-61.1369 19.2362-61.7762Q19.8588-62.4154 20.8421-62.4154L83.2667-62.4154Q84.2367-62.4154 84.7961-61.8228Q85.3555-61.2301 85.3555-60.2756L85.3555-10.2633Q85.3555-9.30879 84.7961-8.71611Q84.2367-8.12344 83.2667-8.12344ZM28.912-52.2777Q30.4678-52.2777 31.5763-53.3874Q32.6849-54.4971 32.6849-56.0351Q32.6849-57.6219 31.5763-58.7149Q30.4678-59.8079 28.912-59.8079Q27.374-59.8079 26.2566-58.7149Q25.1392-57.6219 25.1392-56.0351Q25.1392-54.4971 26.2566-53.3874Q27.374-52.2777 28.912-52.2777ZM39.0969-52.2777Q40.6682-52.2777 41.7689-53.3874Q42.8697-54.4971 42.8697-56.0351Q42.8697-57.6219 41.7689-58.7149Q40.6682-59.8079 39.0969-59.8079Q37.5744-59.8079 36.4659-58.7149Q35.3573-57.6219 35.3573-56.0351Q35.3573-54.4971 36.4659-53.3874Q37.5744-52.2777 39.0969-52.2777ZM49.2995-52.2777Q50.8375-52.2777 51.9627-53.3874Q53.0879-54.4971 53.0879-56.0351Q53.0879-57.6219 51.9627-58.7149Q50.8375-59.8079 49.2995-59.8079Q47.7437-59.8079 46.643-58.7149Q45.5422-57.6219 45.5422-56.0351Q45.5422-54.4971 46.643-53.3874Q47.7437-52.2777 49.2995-52.2777ZM66.5765-53.3742L76.6485-53.3742Q77.7959-53.3742 78.5371-54.1154Q79.2783-54.8566 79.2783-56.004Q79.2783-57.1514 78.5371-57.8926Q77.7959-58.6338 76.6485-58.6338L66.5765-58.6338Q65.4624-58.6338 64.7212-57.8926Q63.98-57.1514 63.98-56.004Q63.98-54.8566 64.7212-54.1154Q65.4624-53.3742 66.5765-53.3742ZM15.735-43.5559L88.3162-43.5559L88.3162-49.9031L15.735-49.9031ZM28.2063-12.4736L75.8448-12.4736Q77.4073-12.4736 78.3595-13.4258Q79.3116-14.3779 79.3116-15.9737L79.3116-36.3491Q79.3116-37.9116 78.3595-38.8638Q77.4073-39.8159 75.8448-39.8159L28.2063-39.8159Q26.6105-39.8159 25.6584-38.8638Q24.7063-37.9116 24.7063-36.3491L24.7063-15.9737Q24.7063-14.3779 25.6584-13.4258Q26.6105-12.4736 28.2063-12.4736ZM30.876-17.8776Q30.1103-17.8776 30.1103-18.6434L30.1103-33.8015Q30.1103-34.6005 30.876-34.6005L73.1419-34.6005Q73.9409-34.6005 73.9409-33.8015L73.9409-18.6434Q73.9409-17.8776 73.1419-17.8776ZM28.7079-26.4546L75.3588-26.4546L75.3588-31.0645L28.7079-31.0645Z"/>
  </g>
  <g id="Medium-S" transform="matrix(1 0 0 1 1695.15 696)">
   <path d="M19.8145-0.194336L82.9932-0.194336Q87.5098-0.194336 90.2803-2.95801Q93.0508-5.72168 93.0508-10.167L93.0508-60.3584Q93.0508-64.8037 90.2803-67.5674Q87.5098-70.3311 82.9932-70.3311L19.8145-70.3311Q15.3066-70.3311 12.5361-67.5674Q9.76562-64.8037 9.76562-60.3584L9.76562-10.167Q9.76562-5.72168 12.5361-2.95801Q15.3066-0.194336 19.8145-0.194336ZM20.1885-8.28516Q19.1445-8.28516 18.4849-8.96484Q17.8252-9.64453 17.8252-10.7285L17.8252-59.7969Q17.8252-60.8809 18.4849-61.5605Q19.1445-62.2402 20.1885-62.2402L82.667-62.2402Q83.7246-62.2402 84.3379-61.5869Q84.9512-60.9336 84.9512-59.8848L84.9512-10.6406Q84.9512-9.5918 84.3379-8.93848Q83.7246-8.28516 82.667-8.28516ZM28.2314-52.709Q29.7266-52.709 30.7778-53.7715Q31.8291-54.834 31.8291-56.2979Q31.8291-57.8105 30.7778-58.853Q29.7266-59.8955 28.2314-59.8955Q26.7676-59.8955 25.7007-58.853Q24.6338-57.8105 24.6338-56.2979Q24.6338-54.834 25.7007-53.7715Q26.7676-52.709 28.2314-52.709ZM38.2344-52.709Q39.7383-52.709 40.7852-53.7715Q41.832-54.834 41.832-56.2979Q41.832-57.8105 40.7852-58.853Q39.7383-59.8955 38.2344-59.8955Q36.7793-59.8955 35.728-58.853Q34.6768-57.8105 34.6768-56.2979Q34.6768-54.834 35.728-53.7715Q36.7793-52.709 38.2344-52.709ZM48.2686-52.709Q49.7324-52.709 50.8037-53.7715Q51.875-54.834 51.875-56.2979Q51.875-57.8105 50.8037-58.853Q49.7324-59.8955 48.2686-59.8955Q46.7734-59.8955 45.7266-58.853Q44.6797-57.8105 44.6797-56.2979Q44.6797-54.834 45.7266-53.7715Q46.7734-52.709 48.2686-52.709ZM66.0576-53.8594L76.251-53.8594Q77.3242-53.8594 77.998-54.5332Q78.6719-55.207 78.6719-56.2803Q78.6719-57.3535 77.998-58.0273Q77.3242-58.7012 76.251-58.7012L66.0576-58.7012Q65.0244-58.7012 64.3506-58.0273Q63.6768-57.3535 63.6768-56.2803Q63.6768-55.207 64.3506-54.5332Q65.0244-53.8594 66.0576-53.8594ZM14.9668-44.4453L87.8984-44.4453L87.8984-50.4961L14.9668-50.4961ZM27.6201-12.6758L75.2451-12.6758Q76.8076-12.6758 77.7598-13.6279Q78.7119-14.5801 78.7119-16.1826L78.7119-37.124Q78.7119-38.6865 77.7598-39.6387Q76.8076-40.5908 75.2451-40.5908L27.6201-40.5908Q26.0176-40.5908 25.0654-39.6387Q24.1133-38.6865 24.1133-37.124L24.1133-16.1826Q24.1133-14.5801 25.0654-13.6279Q26.0176-12.6758 27.6201-12.6758ZM30-17.79Q29.2275-17.79 29.2275-18.5625L29.2275-34.792Q29.2275-35.6045 30-35.6045L72.8252-35.6045Q73.6377-35.6045 73.6377-34.792L73.6377-18.5625Q73.6377-17.79 72.8252-17.79ZM28.0947-27.0947L74.7793-27.0947L74.7793-31.7383L28.0947-31.7383Z"/>
  </g>
  <g id="Regular-S" transform="matrix(1 0 0 1 1399.21 696)">
   <path d="M19.2871-1.41602L81.9824-1.41602Q86.2793-1.41602 88.8916-4.00391Q91.5039-6.5918 91.5039-10.791L91.5039-59.7168Q91.5039-63.916 88.8916-66.5039Q86.2793-69.0918 81.9824-69.0918L19.2871-69.0918Q14.9902-69.0918 12.3779-66.5039Q9.76562-63.916 9.76562-59.7168L9.76562-10.791Q9.76562-6.5918 12.3779-4.00391Q14.9902-1.41602 19.2871-1.41602ZM19.3359-8.49609Q18.2129-8.49609 17.5049-9.22852Q16.7969-9.96094 16.7969-11.1328L16.7969-59.375Q16.7969-60.5469 17.5049-61.2793Q18.2129-62.0117 19.3359-62.0117L81.8848-62.0117Q83.0566-62.0117 83.7402-61.2793Q84.4238-60.5469 84.4238-59.375L84.4238-11.1328Q84.4238-9.96094 83.7402-9.22852Q83.0566-8.49609 81.8848-8.49609ZM27.3438-53.2715Q28.7598-53.2715 29.7363-54.2725Q30.7129-55.2734 30.7129-56.6406Q30.7129-58.0566 29.7363-59.0332Q28.7598-60.0098 27.3438-60.0098Q25.9766-60.0098 24.9756-59.0332Q23.9746-58.0566 23.9746-56.6406Q23.9746-55.2734 24.9756-54.2725Q25.9766-53.2715 27.3438-53.2715ZM37.1094-53.2715Q38.5254-53.2715 39.502-54.2725Q40.4785-55.2734 40.4785-56.6406Q40.4785-58.0566 39.502-59.0332Q38.5254-60.0098 37.1094-60.0098Q35.7422-60.0098 34.7656-59.0332Q33.7891-58.0566 33.7891-56.6406Q33.7891-55.2734 34.7656-54.2725Q35.7422-53.2715 37.1094-53.2715ZM46.9238-53.2715Q48.291-53.2715 49.292-54.2725Q50.293-55.2734 50.293-56.6406Q50.293-58.0566 49.292-59.0332Q48.291-60.0098 46.9238-60.0098Q45.5078-60.0098 44.5312-59.0332Q43.5547-58.0566 43.5547-56.6406Q43.5547-55.2734 44.5312-54.2725Q45.5078-53.2715 46.9238-53.2715ZM65.3809-54.4922L75.7324-54.4922Q76.709-54.4922 77.2949-55.0781Q77.8809-55.6641 77.8809-56.6406Q77.8809-57.6172 77.2949-58.2031Q76.709-58.7891 75.7324-58.7891L65.3809-58.7891Q64.4531-58.7891 63.8672-58.2031Q63.2812-57.6172 63.2812-56.6406Q63.2812-55.6641 63.8672-55.0781Q64.4531-54.4922 65.3809-54.4922ZM13.9648-45.6055L87.3535-45.6055L87.3535-51.2695L13.9648-51.2695ZM26.8555-12.9395L74.4629-12.9395Q76.0254-12.9395 76.9775-13.8916Q77.9297-14.8438 77.9297-16.4551L77.9297-38.1348Q77.9297-39.6973 76.9775-40.6494Q76.0254-41.6016 74.4629-41.6016L26.8555-41.6016Q25.2441-41.6016 24.292-40.6494Q23.3398-39.6973 23.3398-38.1348L23.3398-16.4551Q23.3398-14.8438 24.292-13.8916Q25.2441-12.9395 26.8555-12.9395ZM28.8574-17.6758Q28.0762-17.6758 28.0762-18.457L28.0762-36.084Q28.0762-36.9141 28.8574-36.9141L72.4121-36.9141Q73.2422-36.9141 73.2422-36.084L73.2422-18.457Q73.2422-17.6758 72.4121-17.6758ZM27.2949-27.9297L74.0234-27.9297L74.0234-32.6172L27.2949-32.6172Z"/>
  </g>
  <g id="Light-S" transform="matrix(1 0 0 1 1104.5 696)">
   <path d="M18.3637-2.91443L78.9248-2.91443Q82.798-2.91443 85.1529-5.31311Q87.5079-7.71179 87.5079-11.6084L87.5079-58.8842Q87.5079-62.7808 85.1529-65.1794Q82.798-67.5781 78.9248-67.5781L18.3637-67.5781Q14.4908-67.5781 12.1282-65.1794Q9.76562-62.7808 9.76562-58.8842L9.76562-11.6084Q9.76562-7.71179 12.1282-5.31311Q14.4908-2.91443 18.3637-2.91443ZM18.3673-8.37504Q16.9413-8.37504 16.0669-9.31931Q15.1924-10.2636 15.1924-11.8139L15.1924-58.6787Q15.1924-60.229 16.0669-61.1734Q16.9413-62.1178 18.3673-62.1178L78.8877-62.1178Q80.3319-62.1178 81.1972-61.1734Q82.0625-60.229 82.0625-58.6787L82.0625-11.8139Q82.0625-10.2636 81.1972-9.31931Q80.3319-8.37504 78.8877-8.37504ZM25.9511-52.4996Q27.3671-52.4996 28.3286-53.4779Q29.29-54.4561 29.29-55.8233Q29.29-57.224 28.3286-58.1931Q27.3671-59.1621 25.9511-59.1621Q24.5839-59.1621 23.5981-58.1931Q22.6123-57.224 22.6123-55.8233Q22.6123-54.4561 23.5981-53.4779Q24.5839-52.4996 25.9511-52.4996ZM35.8531-52.4996Q37.2691-52.4996 38.2305-53.4779Q39.1919-54.4561 39.1919-55.8233Q39.1919-57.224 38.2305-58.1931Q37.2691-59.1621 35.8531-59.1621Q34.4859-59.1621 33.5168-58.1931Q32.5478-57.224 32.5478-55.8233Q32.5478-54.4561 33.5168-53.4779Q34.4859-52.4996 35.8531-52.4996ZM45.7736-52.4996Q47.1558-52.4996 48.134-53.4779Q49.1122-54.4561 49.1122-55.8233Q49.1122-57.224 48.134-58.1931Q47.1558-59.1621 45.7736-59.1621Q44.3726-59.1621 43.4036-58.1931Q42.4347-57.224 42.4347-55.8233Q42.4347-54.4561 43.4036-53.4779Q44.3726-52.4996 45.7736-52.4996ZM63.2467-54.0532L73.568-54.0532Q74.3627-54.0532 74.8503-54.5484Q75.338-55.0435 75.338-55.8383Q75.338-56.6332 74.8503-57.1208Q74.3627-57.6083 73.568-57.6083L63.2467-57.6083Q62.4852-57.6083 61.9902-57.1208Q61.4952-56.6332 61.4952-55.8383Q61.4952-55.0435 61.9902-54.5484Q62.4852-54.0532 63.2467-54.0532ZM13.0717-45.1815L84.2506-45.1815L84.2506-49.6801L13.0717-49.6801ZM25.0694-13.2573L72.2226-13.2573Q73.8609-13.2573 74.8508-14.2549Q75.8408-15.2524 75.8408-16.9395L75.8408-36.954Q75.8408-38.6075 74.8508-39.6051Q73.8609-40.6026 72.2226-40.6026L25.0694-40.6026Q23.3976-40.6026 22.4075-39.6051Q21.4175-38.6075 21.4175-36.954L21.4175-16.9395Q21.4175-15.2524 22.4075-14.2549Q23.3976-13.2573 25.0694-13.2573ZM26.4506-17.1158Q25.2759-17.1158 25.2759-18.3057L25.2759-35.5543Q25.2759-36.7778 26.4506-36.7778L70.8227-36.7778Q72.0161-36.7778 72.0161-35.5543L72.0161-18.3057Q72.0161-17.1158 70.8227-17.1158ZM24.5249-28.626L72.7671-28.626L72.7671-32.4506L24.5249-32.4506Z"/>
  </g>
  <g id="Thin-S" transform="matrix(1 0 0 1 810.428 696)">
   <path d="M17.1424-4.8962L74.8809-4.8962Q78.1937-4.8962 80.2083-7.04464Q82.2228-9.19308 82.2228-12.6894L82.2228-57.783Q82.2228-61.2793 80.2083-63.4277Q78.1937-65.5762 74.8809-65.5762L17.1424-65.5762Q13.8302-65.5762 11.7979-63.4277Q9.76562-61.2793 9.76562-57.783L9.76562-12.6894Q9.76562-9.19308 11.7979-7.04464Q13.8302-4.8962 17.1424-4.8962ZM17.0861-8.21494Q15.2596-8.21494 14.165-9.43938Q13.0704-10.6638 13.0704-12.7146L13.0704-57.7578Q13.0704-59.8085 14.165-61.0333Q15.2596-62.258 17.0861-62.258L74.9238-62.258Q76.7283-62.258 77.8339-61.0333Q78.9395-59.8085 78.9395-57.7578L78.9395-12.7146Q78.9395-10.6638 77.8339-9.43938Q76.7283-8.21494 74.9238-8.21494ZM24.1093-51.4788Q25.5253-51.4788 26.4667-52.4269Q27.4081-53.375 27.4081-54.7422Q27.4081-56.1228 26.4667-57.0819Q25.5253-58.0411 24.1093-58.0411Q22.7421-58.0411 21.7763-57.0819Q20.8104-56.1228 20.8104-54.7422Q20.8104-53.375 21.7763-52.4269Q22.7421-51.4788 24.1093-51.4788ZM34.1915-51.4788Q35.6075-51.4788 36.5489-52.4269Q37.4904-53.375 37.4904-54.7422Q37.4904-56.1228 36.5489-57.0819Q35.6075-58.0411 34.1915-58.0411Q32.8243-58.0411 31.8652-57.0819Q30.906-56.1228 30.906-54.7422Q30.906-53.375 31.8652-52.4269Q32.8243-51.4788 34.1915-51.4788ZM44.2523-51.4788Q45.6543-51.4788 46.6024-52.4269Q47.5505-53.375 47.5505-54.7422Q47.5505-56.1228 46.6024-57.0819Q45.6543-58.0411 44.2523-58.0411Q42.8711-58.0411 41.9123-57.0819Q40.9534-56.1228 40.9534-54.7422Q40.9534-53.375 41.9123-52.4269Q42.8711-51.4788 44.2523-51.4788ZM60.424-53.4727L70.7053-53.4727Q71.2595-53.4727 71.6172-53.8478Q71.9748-54.2228 71.9748-54.7771Q71.9748-55.3319 71.6172-55.6893Q71.2595-56.0466 70.7053-56.0466L60.424-56.0466Q59.8826-56.0466 59.5078-55.6893Q59.133-55.3319 59.133-54.7771Q59.133-54.2228 59.5078-53.8478Q59.8826-53.4727 60.424-53.4727ZM11.8904-44.6208L80.1468-44.6208L80.1468-47.5779L11.8904-47.5779ZM22.7072-13.6778L69.2597-13.6778Q70.9983-13.6778 72.0381-14.7354Q73.078-15.7929 73.078-17.5803L73.078-35.3923Q73.078-37.1663 72.0381-38.2239Q70.9983-39.2814 69.2597-39.2814L22.7072-39.2814Q20.9553-39.2814 19.9152-38.2239Q18.875-37.1663 18.875-35.3923L18.875-17.5803Q18.875-15.7929 19.9152-14.7354Q20.9553-13.6778 22.7072-13.6778ZM23.2674-16.3751Q21.5724-16.3751 21.5724-18.1056L21.5724-34.8536Q21.5724-36.5975 23.2674-36.5975L68.7205-36.5975Q70.3946-36.5975 70.3946-34.8536L70.3946-18.1056Q70.3946-16.3751 68.7205-16.3751ZM20.8614-29.5469L71.1056-29.5469L71.1056-32.2303L20.8614-32.2303Z"/>
  </g>
  <g id="Ultralight-S" transform="matrix(1 0 0 1 515.07 696)">
   <path d="M16.5169-5.91125L72.8096-5.91125Q75.8354-5.91125 77.6756-7.93152Q79.5158-9.95178 79.5158-13.2431L79.5158-57.2189Q79.5158-60.5103 77.6756-62.5305Q75.8354-64.5508 72.8096-64.5508L16.5169-64.5508Q13.4918-64.5508 11.6287-62.5305Q9.76562-60.5103 9.76562-57.2189L9.76562-13.2431Q9.76562-9.95178 11.6287-7.93152Q13.4918-5.91125 16.5169-5.91125ZM16.4299-8.13293Q14.3982-8.13293 13.1908-9.50089Q11.9835-10.8688 11.9835-13.176L11.9835-57.2861Q11.9835-59.5932 13.1908-60.9615Q14.3982-62.3299 16.4299-62.3299L72.8935-62.3299Q74.8825-62.3299 76.1112-60.9615Q77.3399-59.5932 77.3399-57.2861L77.3399-13.176Q77.3399-10.8688 76.1112-9.50089Q74.8825-8.13293 72.8935-8.13293ZM23.1659-50.956Q24.5819-50.956 25.5131-51.8887Q26.4442-52.8214 26.4442-54.1885Q26.4442-55.5588 25.5131-56.5128Q24.5819-57.4669 23.1659-57.4669Q21.7987-57.4669 20.8431-56.5128Q19.8875-55.5588 19.8875-54.1885Q19.8875-52.8214 20.8431-51.8887Q21.7987-50.956 23.1659-50.956ZM33.3405-50.956Q34.7565-50.956 35.6876-51.8887Q36.6188-52.8214 36.6188-54.1885Q36.6188-55.5588 35.6876-56.5128Q34.7565-57.4669 33.3405-57.4669Q31.9733-57.4669 31.0192-56.5128Q30.0652-55.5588 30.0652-54.1885Q30.0652-52.8214 31.0192-51.8887Q31.9733-50.956 33.3405-50.956ZM43.4731-50.956Q44.8853-50.956 45.8179-51.8887Q46.7506-52.8214 46.7506-54.1885Q46.7506-55.5588 45.8179-56.5128Q44.8853-57.4669 43.4731-57.4669Q42.1021-57.4669 41.1484-56.5128Q40.1947-55.5588 40.1947-54.1885Q40.1947-52.8214 41.1484-51.8887Q42.1021-50.956 43.4731-50.956ZM58.9783-53.1754L69.239-53.1754Q69.6701-53.1754 69.9612-53.4889Q70.2522-53.8025 70.2522-54.2336Q70.2522-54.6654 69.9612-54.9561Q69.6701-55.2467 69.239-55.2467L58.9783-55.2467Q58.5495-55.2467 58.2363-54.9561Q57.9231-54.6654 57.9231-54.2336Q57.9231-53.8025 58.2363-53.4889Q58.5495-53.1754 58.9783-53.1754ZM11.2854-44.3336L78.0449-44.3336L78.0449-46.5012L11.2854-46.5012ZM21.4973-13.8931L67.7422-13.8931Q69.532-13.8931 70.5975-14.9815Q71.6629-16.0698 71.6629-17.9085L71.6629-34.5924Q71.6629-36.4281 70.5975-37.5164Q69.532-38.6047 67.7422-38.6047L21.4973-38.6047Q19.7044-38.6047 18.6386-37.5164Q17.5728-36.4281 17.5728-34.5924L17.5728-17.9085Q17.5728-16.0698 18.6386-14.9815Q19.7044-13.8931 21.4973-13.8931ZM21.637-15.9958Q19.6754-15.9958 19.6754-18.0031L19.6754-34.4948Q19.6754-36.5051 21.637-36.5051L67.6437-36.5051Q69.5641-36.5051 69.5641-34.4948L69.5641-18.0031Q69.5641-15.9958 67.6437-15.9958ZM18.985-30.0186L70.2545-30.0186L70.2545-32.1175L18.985-32.1175Z"/>
  </g>
 </g>
</svg>
