<?xml version="1.0" encoding="UTF-8" standalone="no"?>
<!DOCTYPE svg PUBLIC "-//W3C//DTD SVG 1.1//EN" "http://www.w3.org/Graphics/SVG/1.1/DTD/svg11.dtd">
<svg width="100%" height="100%" viewBox="0 0 125 122" version="1.1" xmlns="http://www.w3.org/2000/svg" xmlns:xlink="http://www.w3.org/1999/xlink" xml:space="preserve" xmlns:serif="http://www.serif.com/" style="fill-rule:evenodd;clip-rule:evenodd;stroke-linejoin:round;stroke-miterlimit:2;">
    <g transform="matrix(1,0,0,1,-415.787,-139.905)">
        <g id="Artboard1" transform="matrix(1,0,0,1,415.787,139.905)">
            <rect x="0" y="0" width="124.932" height="121.392" style="fill:none;"/>
            <g transform="matrix(2.18773,0,0,2.18773,-4923.33,-268.6)">
                <path d="M2268.34,128.665C2261.07,133.086 2256.57,141.006 2256.57,149.604C2256.57,163.13 2267.55,174.111 2281.07,174.111C2287.57,174.111 2293.8,171.529 2298.4,166.933L2298.38,166.944C2300.23,165.24 2301.4,162.794 2301.4,160.078C2301.4,154.936 2297.22,150.761 2292.08,150.761C2289.35,150.761 2286.89,151.94 2285.18,153.817C2284.78,154.264 2284.79,154.197 2285.23,153.761C2284.13,154.863 2282.63,155.483 2281.07,155.483C2277.83,155.483 2275.19,152.849 2275.19,149.604C2275.19,147.393 2276.43,145.369 2278.4,144.366L2277.71,144.532L2277.76,144.476L2278.46,144.284C2281.22,142.665 2283.07,139.669 2283.07,136.245C2283.07,131.103 2278.9,126.928 2273.75,126.928C2271.74,126.928 2269.87,127.572 2268.34,128.665ZM2297.69,167.227L2297.33,167.366L2297.32,167.379L2297.69,167.227Z"/>
            </g>
            <g transform="matrix(1.2927,0,0,2.0717,-2879.42,-316.232)">
                <path d="M2253.34,171.965C2248.47,177.968 2248.31,185.692 2253.45,190.88C2254.2,191.636 2255.79,191.87 2257,191.403C2258.21,190.936 2258.58,189.943 2257.84,189.188C2253.55,184.862 2253.89,178.422 2257.94,173.417C2258.59,172.625 2258.08,171.656 2256.81,171.255C2255.54,170.854 2253.98,171.172 2253.34,171.965Z"/>
            </g>
            <g transform="matrix(-0.150849,-1.75228,2.02915,-0.174683,42.2825,4070.86)">
                <path d="M2254.09,171.752C2250.83,175.777 2249.63,180.57 2250.68,184.874C2250.89,185.758 2251.89,186.326 2252.92,186.14C2253.94,185.955 2254.6,185.087 2254.39,184.202C2253.54,180.731 2254.56,176.876 2257.2,173.63C2257.8,172.89 2257.59,171.868 2256.73,171.35C2255.87,170.832 2254.69,171.012 2254.09,171.752Z"/>
            </g>
            <g transform="matrix(1.60775,0,0,1.60775,-3586.99,-241.135)">
                <path d="M2262.59,162.24C2259.29,162.24 2256.6,164.925 2256.6,168.231C2256.6,171.538 2259.29,174.223 2262.59,174.223C2265.9,174.223 2268.59,171.538 2268.59,168.231C2268.59,164.925 2265.9,162.24 2262.59,162.24ZM2262.59,165.616C2264.04,165.616 2265.21,166.788 2265.21,168.231C2265.21,169.675 2264.04,170.847 2262.59,170.847C2261.15,170.847 2259.98,169.675 2259.98,168.231C2259.98,166.788 2261.15,165.616 2262.59,165.616Z"/>
            </g>
            <g transform="matrix(1.49743,0,0,1.49743,-3296.46,-170.785)">
                <path d="M2262.59,162.24C2259.29,162.24 2256.6,164.925 2256.6,168.231C2256.6,171.538 2259.29,174.223 2262.59,174.223C2265.9,174.223 2268.59,171.538 2268.59,168.231C2268.59,164.925 2265.9,162.24 2262.59,162.24ZM2262.59,165.616C2264.04,165.616 2265.21,166.788 2265.21,168.231C2265.21,169.675 2264.04,170.847 2262.59,170.847C2261.15,170.847 2259.98,169.675 2259.98,168.231C2259.98,166.788 2261.15,165.616 2262.59,165.616Z"/>
            </g>
        </g>
    </g>
</svg>
