<?xml version="1.0" encoding="UTF-8"?>
<!--Generator: Apple Native CoreSVG 175.5-->
<!DOCTYPE svg
PUBLIC "-//W3C//DTD SVG 1.1//EN"
       "http://www.w3.org/Graphics/SVG/1.1/DTD/svg11.dtd">
<svg version="1.1" xmlns="http://www.w3.org/2000/svg" xmlns:xlink="http://www.w3.org/1999/xlink" width="3300" height="2200">
 <!--glyph: "", point size: 100.0, font version: "18.0d9e1", template writer version: "84"-->
 <g id="Notes">
  <rect height="2200" id="artboard" style="fill:white;opacity:1" width="3300" x="0" y="0"/>
  <line style="fill:none;stroke:black;opacity:1;stroke-width:0.5;" x1="263" x2="3036" y1="292" y2="292"/>
  <text style="stroke:none;fill:black;font-family:sans-serif;font-size:13;font-weight:bold;" transform="matrix(1 0 0 1 263 322)">Weight/Scale Variations</text>
  <text style="stroke:none;fill:black;font-family:sans-serif;font-size:13;text-anchor:middle;" transform="matrix(1 0 0 1 559.711 322)">Ultralight</text>
  <text style="stroke:none;fill:black;font-family:sans-serif;font-size:13;text-anchor:middle;" transform="matrix(1 0 0 1 856.422 322)">Thin</text>
  <text style="stroke:none;fill:black;font-family:sans-serif;font-size:13;text-anchor:middle;" transform="matrix(1 0 0 1 1153.13 322)">Light</text>
  <text style="stroke:none;fill:black;font-family:sans-serif;font-size:13;text-anchor:middle;" transform="matrix(1 0 0 1 1449.84 322)">Regular</text>
  <text style="stroke:none;fill:black;font-family:sans-serif;font-size:13;text-anchor:middle;" transform="matrix(1 0 0 1 1746.56 322)">Medium</text>
  <text style="stroke:none;fill:black;font-family:sans-serif;font-size:13;text-anchor:middle;" transform="matrix(1 0 0 1 2043.27 322)">Semibold</text>
  <text style="stroke:none;fill:black;font-family:sans-serif;font-size:13;text-anchor:middle;" transform="matrix(1 0 0 1 2339.98 322)">Bold</text>
  <text style="stroke:none;fill:black;font-family:sans-serif;font-size:13;text-anchor:middle;" transform="matrix(1 0 0 1 2636.69 322)">Heavy</text>
  <text style="stroke:none;fill:black;font-family:sans-serif;font-size:13;text-anchor:middle;" transform="matrix(1 0 0 1 2933.4 322)">Black</text>
  <line style="fill:none;stroke:black;opacity:1;stroke-width:0.5;" x1="263" x2="3036" y1="1903" y2="1903"/>
  <g transform="matrix(1 0 0 1 263 1933)">
   <path d="M9.24805 0.830078Q10.8691 0.830078 12.2949 0.214844Q13.7207-0.400391 14.8096-1.49414Q15.8984-2.58789 16.5186-4.01367Q17.1387-5.43945 17.1387-7.05078Q17.1387-8.66211 16.5186-10.0879Q15.8984-11.5137 14.8047-12.6074Q13.7109-13.7012 12.2852-14.3164Q10.8594-14.9316 9.23828-14.9316Q7.62695-14.9316 6.20117-14.3164Q4.77539-13.7012 3.69141-12.6074Q2.60742-11.5137 1.9873-10.0879Q1.36719-8.66211 1.36719-7.05078Q1.36719-5.43945 1.9873-4.01367Q2.60742-2.58789 3.69629-1.49414Q4.78516-0.400391 6.21094 0.214844Q7.63672 0.830078 9.24805 0.830078ZM9.24805-0.654297Q7.91992-0.654297 6.7627-1.14746Q5.60547-1.64062 4.73145-2.51953Q3.85742-3.39844 3.36426-4.56055Q2.87109-5.72266 2.87109-7.05078Q2.87109-8.37891 3.35938-9.54102Q3.84766-10.7031 4.72168-11.582Q5.5957-12.4609 6.75293-12.9541Q7.91016-13.4473 9.23828-13.4473Q10.5762-13.4473 11.7383-12.9541Q12.9004-12.4609 13.7793-11.582Q14.6582-10.7031 15.1514-9.54102Q15.6445-8.37891 15.6445-7.05078Q15.6445-5.72266 15.1514-4.56055Q14.6582-3.39844 13.7793-2.51953Q12.9004-1.64062 11.7432-1.14746Q10.5859-0.654297 9.24805-0.654297ZM5.6543-7.05078Q5.6543-6.72852 5.85938-6.52832Q6.06445-6.32812 6.40625-6.32812L8.51562-6.32812L8.51562-4.20898Q8.51562-3.88672 8.71094-3.67676Q8.90625-3.4668 9.23828-3.4668Q9.56055-3.4668 9.77051-3.67676Q9.98047-3.88672 9.98047-4.20898L9.98047-6.32812L12.0898-6.32812Q12.4219-6.32812 12.627-6.52832Q12.832-6.72852 12.832-7.05078Q12.832-7.38281 12.627-7.58789Q12.4219-7.79297 12.0898-7.79297L9.98047-7.79297L9.98047-9.90234Q9.98047-10.2344 9.77051-10.4443Q9.56055-10.6543 9.23828-10.6543Q8.90625-10.6543 8.71094-10.4443Q8.51562-10.2344 8.51562-9.90234L8.51562-7.79297L6.40625-7.79297Q6.06445-7.79297 5.85938-7.58789Q5.6543-7.38281 5.6543-7.05078Z"/>
  </g>
  <g transform="matrix(1 0 0 1 281.867 1933)">
   <path d="M11.709 2.91016Q13.75 2.91016 15.5518 2.12891Q17.3535 1.34766 18.7305-0.0292969Q20.1074-1.40625 20.8887-3.20801Q21.6699-5.00977 21.6699-7.05078Q21.6699-9.0918 20.8887-10.8936Q20.1074-12.6953 18.7305-14.0723Q17.3535-15.4492 15.5469-16.2305Q13.7402-17.0117 11.6992-17.0117Q9.6582-17.0117 7.85645-16.2305Q6.05469-15.4492 4.68262-14.0723Q3.31055-12.6953 2.5293-10.8936Q1.74805-9.0918 1.74805-7.05078Q1.74805-5.00977 2.5293-3.20801Q3.31055-1.40625 4.6875-0.0292969Q6.06445 1.34766 7.86621 2.12891Q9.66797 2.91016 11.709 2.91016ZM11.709 1.25Q9.98047 1.25 8.47656 0.605469Q6.97266-0.0390625 5.83496-1.17676Q4.69727-2.31445 4.05762-3.81836Q3.41797-5.32227 3.41797-7.05078Q3.41797-8.7793 4.05762-10.2832Q4.69727-11.7871 5.83008-12.9297Q6.96289-14.0723 8.4668-14.7119Q9.9707-15.3516 11.6992-15.3516Q13.4277-15.3516 14.9365-14.7119Q16.4453-14.0723 17.583-12.9297Q18.7207-11.7871 19.3652-10.2832Q20.0098-8.7793 20.0098-7.05078Q20.0098-5.32227 19.3701-3.81836Q18.7305-2.31445 17.5879-1.17676Q16.4453-0.0390625 14.9414 0.605469Q13.4375 1.25 11.709 1.25ZM7.17773-7.05078Q7.17773-6.69922 7.41211-6.47461Q7.64648-6.25 8.01758-6.25L10.8887-6.25L10.8887-3.36914Q10.8887-2.99805 11.1133-2.76855Q11.3379-2.53906 11.6895-2.53906Q12.0605-2.53906 12.29-2.76855Q12.5195-2.99805 12.5195-3.36914L12.5195-6.25L15.4004-6.25Q15.7715-6.25 16.001-6.47461Q16.2305-6.69922 16.2305-7.05078Q16.2305-7.42188 16.001-7.65137Q15.7715-7.88086 15.4004-7.88086L12.5195-7.88086L12.5195-10.752Q12.5195-11.1328 12.29-11.3623Q12.0605-11.5918 11.6895-11.5918Q11.3379-11.5918 11.1133-11.3574Q10.8887-11.123 10.8887-10.752L10.8887-7.88086L8.01758-7.88086Q7.63672-7.88086 7.40723-7.65137Q7.17773-7.42188 7.17773-7.05078Z"/>
  </g>
  <g transform="matrix(1 0 0 1 305.646 1933)">
   <path d="M14.9707 5.66406Q17.0605 5.66406 18.96 5.01465Q20.8594 4.36523 22.4512 3.19336Q24.043 2.02148 25.2197 0.429688Q26.3965-1.16211 27.0459-3.06641Q27.6953-4.9707 27.6953-7.05078Q27.6953-9.14062 27.0459-11.04Q26.3965-12.9395 25.2197-14.5312Q24.043-16.123 22.4512-17.2998Q20.8594-18.4766 18.9551-19.126Q17.0508-19.7754 14.9609-19.7754Q12.8711-19.7754 10.9717-19.126Q9.07227-18.4766 7.48535-17.2998Q5.89844-16.123 4.72168-14.5312Q3.54492-12.9395 2.90039-11.04Q2.25586-9.14062 2.25586-7.05078Q2.25586-4.9707 2.90527-3.06641Q3.55469-1.16211 4.72656 0.429688Q5.89844 2.02148 7.49023 3.19336Q9.08203 4.36523 10.9814 5.01465Q12.8809 5.66406 14.9707 5.66406ZM14.9707 3.84766Q13.1641 3.84766 11.5283 3.2959Q9.89258 2.74414 8.53516 1.74805Q7.17773 0.751953 6.17676-0.610352Q5.17578-1.97266 4.62891-3.6084Q4.08203-5.24414 4.08203-7.05078Q4.08203-8.86719 4.62891-10.5029Q5.17578-12.1387 6.17188-13.501Q7.16797-14.8633 8.52539-15.8594Q9.88281-16.8555 11.5186-17.4023Q13.1543-17.9492 14.9609-17.9492Q16.7773-17.9492 18.4131-17.4023Q20.0488-16.8555 21.4111-15.8594Q22.7734-14.8633 23.7744-13.501Q24.7754-12.1387 25.3223-10.5029Q25.8691-8.86719 25.8691-7.05078Q25.8691-5.24414 25.3223-3.6084Q24.7754-1.97266 23.7793-0.610352Q22.7832 0.751953 21.4209 1.74805Q20.0586 2.74414 18.4229 3.2959Q16.7871 3.84766 14.9707 3.84766ZM9.19922-7.05078Q9.19922-6.66992 9.45801-6.4209Q9.7168-6.17188 10.1172-6.17188L14.0625-6.17188L14.0625-2.2168Q14.0625-1.81641 14.3115-1.55762Q14.5605-1.29883 14.9512-1.29883Q15.3516-1.29883 15.6104-1.55273Q15.8691-1.80664 15.8691-2.2168L15.8691-6.17188L19.8242-6.17188Q20.2246-6.17188 20.4785-6.4209Q20.7324-6.66992 20.7324-7.05078Q20.7324-7.46094 20.4785-7.71484Q20.2246-7.96875 19.8242-7.96875L15.8691-7.96875L15.8691-11.9141Q15.8691-12.3242 15.6104-12.583Q15.3516-12.8418 14.9512-12.8418Q14.5605-12.8418 14.3115-12.583Q14.0625-12.3242 14.0625-11.9141L14.0625-7.96875L10.1172-7.96875Q9.70703-7.96875 9.45312-7.71484Q9.19922-7.46094 9.19922-7.05078Z"/>
  </g>
  <text style="stroke:none;fill:black;font-family:sans-serif;font-size:13;font-weight:bold;" transform="matrix(1 0 0 1 263 1953)">Design Variations</text>
  <text style="stroke:none;fill:black;font-family:sans-serif;font-size:13;" transform="matrix(1 0 0 1 263 1971)">Symbols are supported in up to nine weights and three scales.</text>
  <text style="stroke:none;fill:black;font-family:sans-serif;font-size:13;" transform="matrix(1 0 0 1 263 1989)">For optimal layout with text and other symbols, vertically align</text>
  <text style="stroke:none;fill:black;font-family:sans-serif;font-size:13;" transform="matrix(1 0 0 1 263 2007)">symbols with the adjacent text.</text>
  <line style="fill:none;stroke:#00AEEF;stroke-width:0.5;opacity:1.0;" x1="776" x2="776" y1="1919" y2="1933"/>
  <g transform="matrix(1 0 0 1 776 1933)">
   <path d="M3.31055 0.15625Q3.70117 0.15625 3.91602-0.00976562Q4.13086-0.175781 4.26758-0.585938L5.52734-4.0332L11.2891-4.0332L12.5488-0.585938Q12.6855-0.175781 12.9004-0.00976562Q13.1152 0.15625 13.4961 0.15625Q13.8867 0.15625 14.1162-0.0585938Q14.3457-0.273438 14.3457-0.644531Q14.3457-0.869141 14.2383-1.17188L9.6582-13.3691Q9.48242-13.8184 9.17969-14.043Q8.87695-14.2676 8.4082-14.2676Q7.5-14.2676 7.17773-13.3789L2.59766-1.16211Q2.49023-0.859375 2.49023-0.634766Q2.49023-0.263672 2.70996-0.0537109Q2.92969 0.15625 3.31055 0.15625ZM6.00586-5.51758L8.37891-12.0898L8.42773-12.0898L10.8008-5.51758Z"/>
  </g>
  <line style="fill:none;stroke:#00AEEF;stroke-width:0.5;opacity:1.0;" x1="793.197" x2="793.197" y1="1919" y2="1933"/>
  <text style="stroke:none;fill:black;font-family:sans-serif;font-size:13;font-weight:bold;" transform="matrix(1 0 0 1 776 1953)">Margins</text>
  <text style="stroke:none;fill:black;font-family:sans-serif;font-size:13;" transform="matrix(1 0 0 1 776 1971)">Leading and trailing margins on the left and right side of each symbol</text>
  <text style="stroke:none;fill:black;font-family:sans-serif;font-size:13;" transform="matrix(1 0 0 1 776 1989)">can be adjusted by modifying the x-location of the margin guidelines.</text>
  <text style="stroke:none;fill:black;font-family:sans-serif;font-size:13;" transform="matrix(1 0 0 1 776 2007)">Modifications are automatically applied proportionally to all</text>
  <text style="stroke:none;fill:black;font-family:sans-serif;font-size:13;" transform="matrix(1 0 0 1 776 2025)">scales and weights.</text>
  <g transform="matrix(1 0 0 1 1289 1933)">
   <path d="M2.8418 1.86523L4.54102 3.57422Q5.18555 4.22852 5.90332 4.17969Q6.62109 4.13086 7.31445 3.35938L18.0078-8.42773L17.041-9.4043L6.42578 2.27539Q6.16211 2.57812 5.89355 2.61719Q5.625 2.65625 5.27344 2.30469L4.10156 1.14258Q3.75 0.791016 3.79395 0.522461Q3.83789 0.253906 4.14062-0.0195312L15.6152-10.8203L14.6387-11.7871L3.04688-0.898438Q2.30469-0.214844 2.25098 0.498047Q2.19727 1.21094 2.8418 1.86523ZM9.25781-16.3281Q8.94531-16.0254 8.90625-15.6348Q8.86719-15.2441 9.04297-14.9512Q9.21875-14.6777 9.55566-14.541Q9.89258-14.4043 10.3809-14.5215Q11.4746-14.7754 12.5977-14.7314Q13.7207-14.6875 14.7949-13.9844L14.209-12.5293Q13.9551-11.9043 14.0674-11.4404Q14.1797-10.9766 14.5801-10.5664L16.875-8.25195Q17.2363-7.88086 17.5781-7.82227Q17.9199-7.76367 18.3398-7.8418L19.4043-8.03711L20.0684-7.36328L20.0293-6.80664Q20-6.43555 20.1221-6.12305Q20.2441-5.81055 20.6055-5.44922L21.3672-4.70703Q21.7285-4.3457 22.1533-4.33105Q22.5781-4.31641 22.9297-4.66797L25.8398-7.58789Q26.1914-7.93945 26.1816-8.35449Q26.1719-8.76953 25.8105-9.13086L25.0391-9.89258Q24.6875-10.2539 24.3799-10.3857Q24.0723-10.5176 23.7109-10.4883L23.1348-10.4395L22.4902-11.0742L22.7344-12.1973Q22.832-12.6172 22.6953-12.9834Q22.5586-13.3496 22.1191-13.7891L19.9219-15.9766Q18.6719-17.2168 17.2607-17.8369Q15.8496-18.457 14.4189-18.4814Q12.9883-18.5059 11.665-17.959Q10.3418-17.4121 9.25781-16.3281ZM10.752-15.957Q11.6602-16.6211 12.7002-16.9043Q13.7402-17.1875 14.8047-17.085Q15.8691-16.9824 16.8701-16.5137Q17.8711-16.0449 18.7012-15.2051L21.1328-12.793Q21.3086-12.6172 21.3525-12.4512Q21.3965-12.2852 21.3379-12.0312L21.0156-10.5469L22.5195-9.0625L23.5059-9.12109Q23.6914-9.13086 23.7891-9.09668Q23.8867-9.0625 24.0332-8.91602L24.6094-8.33984L22.168-5.89844L21.5918-6.47461Q21.4453-6.62109 21.4062-6.71875Q21.3672-6.81641 21.377-7.01172L21.4453-7.98828L19.9512-9.47266L18.4277-9.21875Q18.1836-9.16992 18.042-9.2041Q17.9004-9.23828 17.7148-9.41406L15.7129-11.416Q15.5176-11.5918 15.4932-11.7529Q15.4688-11.9141 15.5859-12.1875L16.4648-14.2773Q15.293-15.3711 13.8281-15.791Q12.3633-16.2109 10.8398-15.7617Q10.7227-15.7324 10.6885-15.8057Q10.6543-15.8789 10.752-15.957Z"/>
  </g>
  <text style="stroke:none;fill:black;font-family:sans-serif;font-size:13;font-weight:bold;" transform="matrix(1 0 0 1 1289 1953)">Exporting</text>
  <text style="stroke:none;fill:black;font-family:sans-serif;font-size:13;" transform="matrix(1 0 0 1 1289 1971)">Symbols should be outlined when exporting to ensure the</text>
  <text style="stroke:none;fill:black;font-family:sans-serif;font-size:13;" transform="matrix(1 0 0 1 1289 1989)">design is preserved when submitting to Xcode.</text>
  <text id="template-version" style="stroke:none;fill:black;font-family:sans-serif;font-size:13;text-anchor:end;" transform="matrix(1 0 0 1 3036 1933)">Template v.2.0</text>
  <text style="stroke:none;fill:black;font-family:sans-serif;font-size:13;text-anchor:end;" transform="matrix(1 0 0 1 3036 1951)">Requires Xcode 12 or greater</text>
  <text id="descriptive-name" style="stroke:none;fill:black;font-family:sans-serif;font-size:13;text-anchor:end;" transform="matrix(1 0 0 1 3036 1969)">Generated from custom.note</text>
  <text style="stroke:none;fill:black;font-family:sans-serif;font-size:13;text-anchor:end;" transform="matrix(1 0 0 1 3036 1987)">Typeset at 100 points</text>
  <text style="stroke:none;fill:black;font-family:sans-serif;font-size:13;" transform="matrix(1 0 0 1 263 726)">Small</text>
  <text style="stroke:none;fill:black;font-family:sans-serif;font-size:13;" transform="matrix(1 0 0 1 263 1156)">Medium</text>
  <text style="stroke:none;fill:black;font-family:sans-serif;font-size:13;" transform="matrix(1 0 0 1 263 1586)">Large</text>
 </g>
 <g id="Guides">
  <g id="H-reference" style="fill:#27AAE1;stroke:none;" transform="matrix(1 0 0 1 339 696)">
   <path d="M0.993347 0L3.6377 0L29.3282-67.1326L30.0301-67.1326L30.0301-70.459L28.1227-70.459ZM11.6882-24.4797L46.9818-24.4797L46.2311-26.7288L12.4382-26.7288ZM55.1193 0L57.7637 0L30.6381-70.459L29.4327-70.459L29.4327-67.1326Z"/>
  </g>
  <line id="Baseline-S" style="fill:none;stroke:#27AAE1;opacity:1;stroke-width:0.5;" x1="263" x2="3036" y1="696" y2="696"/>
  <line id="Capline-S" style="fill:none;stroke:#27AAE1;opacity:1;stroke-width:0.5;" x1="263" x2="3036" y1="625.541" y2="625.541"/>
  <g id="H-reference" style="fill:#27AAE1;stroke:none;" transform="matrix(1 0 0 1 339 1126)">
   <path d="M0.993347 0L3.6377 0L29.3282-67.1326L30.0301-67.1326L30.0301-70.459L28.1227-70.459ZM11.6882-24.4797L46.9818-24.4797L46.2311-26.7288L12.4382-26.7288ZM55.1193 0L57.7637 0L30.6381-70.459L29.4327-70.459L29.4327-67.1326Z"/>
  </g>
  <line id="Baseline-M" style="fill:none;stroke:#27AAE1;opacity:1;stroke-width:0.5;" x1="263" x2="3036" y1="1126" y2="1126"/>
  <line id="Capline-M" style="fill:none;stroke:#27AAE1;opacity:1;stroke-width:0.5;" x1="263" x2="3036" y1="1055.54" y2="1055.54"/>
  <g id="H-reference" style="fill:#27AAE1;stroke:none;" transform="matrix(1 0 0 1 339 1556)">
   <path d="M0.993347 0L3.6377 0L29.3282-67.1326L30.0301-67.1326L30.0301-70.459L28.1227-70.459ZM11.6882-24.4797L46.9818-24.4797L46.2311-26.7288L12.4382-26.7288ZM55.1193 0L57.7637 0L30.6381-70.459L29.4327-70.459L29.4327-67.1326Z"/>
  </g>
  <line id="Baseline-L" style="fill:none;stroke:#27AAE1;opacity:1;stroke-width:0.5;" x1="263" x2="3036" y1="1556" y2="1556"/>
  <line id="Capline-L" style="fill:none;stroke:#27AAE1;opacity:1;stroke-width:0.5;" x1="263" x2="3036" y1="1485.54" y2="1485.54"/>
  <line id="left-margin" style="fill:none;stroke:#00AEEF;stroke-width:0.5;opacity:1.0;" x1="1388.73" x2="1388.73" y1="1030.78" y2="1150.12"/>
  <line id="right-margin" style="fill:none;stroke:#00AEEF;stroke-width:0.5;opacity:1.0;" x1="1510.96" x2="1510.96" y1="1030.78" y2="1150.12"/>
 </g>
 <g id="Symbols">
  <g id="Black-L" transform="matrix(1 0 0 1 2849.21 1556)">
   <path d="M39.8556 26.4229L128.529 26.4229Q139.898 26.4229 146.099 20.2306Q152.301 14.0384 152.301 2.71363L152.301-73.0892Q152.301-84.4139 146.099-90.6061Q139.898-96.7983 128.529-96.7983L39.8556-96.7983Q28.5077-96.7983 22.2958-90.6073Q16.084-84.4163 16.084-73.0892L16.084 2.71363Q16.084 14.0408 22.2958 20.2318Q28.5077 26.4229 39.8556 26.4229ZM42.2533 6.421Q39.2117 6.421 37.6384 4.95608Q36.065 3.49116 36.065 0.211897L36.065-53.9771Q36.065-57.3146 37.6384-58.7509Q39.2117-60.1874 42.2533-60.1874L126.111-60.1874Q129.228-60.1874 130.775-58.7509Q132.321-57.3146 132.321-53.9771L132.321 0.211897Q132.321 3.49116 130.775 4.95608Q129.228 6.421 126.111 6.421Z"/>
  </g>
  <g id="Heavy-L" transform="matrix(1 0 0 1 2553.78 1556)">
   <path d="M38.8315 25.5162L126.992 25.5162Q137.97 25.5162 143.855 19.6413Q149.739 13.7665 149.739 2.85922L149.739-73.226Q149.739-84.1331 143.855-90.008Q137.97-95.8829 126.992-95.8829L38.8315-95.8829Q27.8828-95.8829 21.9833-90.0136Q16.084-84.1444 16.084-73.226L16.084 2.85922Q16.084 13.7777 21.9833 19.647Q27.8828 25.5162 38.8315 25.5162ZM40.4727 7.98555Q37.1068 7.98555 35.3457 6.32151Q33.5844 4.65747 33.5844 1.06701L33.5844-54.2298Q33.5844-57.8646 35.3457-59.5092Q37.1068-61.1538 40.4727-61.1538L125.32-61.1538Q128.744-61.1538 130.494-59.5092Q132.244-57.8646 132.244-54.2298L132.244 1.06701Q132.244 4.65747 130.494 6.32151Q128.744 7.98555 125.32 7.98555Z"/>
  </g>
  <g id="Bold-L" transform="matrix(1 0 0 1 2258.55 1556)">
   <path d="M37.5412 24.3869L125.317 24.3869Q135.782 24.3869 141.278 18.8965Q146.774 13.4061 146.774 3.04349L146.774-73.395Q146.774-83.7575 141.278-89.2479Q135.782-94.7384 125.317-94.7384L37.5412-94.7384Q27.1142-94.7384 21.599-89.2611Q16.084-83.7839 16.084-73.395L16.084 3.04349Q16.084 13.4325 21.599 18.9097Q27.1142 24.3869 37.5412 24.3869ZM38.3792 9.90703Q34.5541 9.90703 32.54 7.97476Q30.5258 6.04248 30.5258 2.01552L30.5258-54.3062Q30.5258-58.3621 32.54-60.2864Q34.5541-62.2108 38.3792-62.2108L124.441-62.2108Q128.294-62.2108 130.32-60.2864Q132.346-58.3621 132.346-54.3062L132.346 2.01552Q132.346 6.04248 130.32 7.97476Q128.294 9.90703 124.441 9.90703Z"/>
  </g>
  <g id="Semibold-L" transform="matrix(1 0 0 1 1962.86 1556)">
   <path d="M36.6518 23.6084L124.163 23.6084Q134.273 23.6084 139.502 18.383Q144.73 13.1576 144.73 3.17053L144.73-73.5116Q144.73-83.4985 139.502-88.7239Q134.273-93.9493 124.163-93.9493L36.6518-93.9493Q26.5843-93.9493 21.3341-88.7424Q16.084-83.5355 16.084-73.5116L16.084 3.17053Q16.084 13.1945 21.3341 18.4015Q26.5843 23.6084 36.6518 23.6084ZM36.9359 11.2317Q32.7943 11.2317 30.6058 9.11449Q28.4172 6.9973 28.4172 2.66942L28.4172-54.359Q28.4172-58.705 30.6058-60.8222Q32.7943-62.9395 36.9359-62.9395L123.835-62.9395Q127.983-62.9395 130.2-60.8222Q132.416-58.705 132.416-54.359L132.416 2.66942Q132.416 6.9973 130.2 9.11449Q127.983 11.2317 123.835 11.2317Z"/>
  </g>
  <g id="Medium-L" transform="matrix(1 0 0 1 1666.93 1556)">
   <path d="M35.9773 23.0181L123.287 23.0181Q133.129 23.0181 138.155 17.9936Q143.181 12.9692 143.181 3.26685L143.181-73.5999Q143.181-83.3021 138.155-88.3266Q133.129-93.3511 123.287-93.3511L35.9773-93.3511Q26.1825-93.3511 21.1332-88.3491Q16.084-83.3471 16.084-73.5999L16.084 3.26685Q16.084 13.0141 21.1332 18.0161Q26.1825 23.0181 35.9773 23.0181ZM35.8415 12.2361Q31.4599 12.2361 29.1392 9.97869Q26.8183 7.72128 26.8183 3.16523L26.8183-54.399Q26.8183-58.965 29.1392-61.2285Q31.4599-63.4921 35.8415-63.4921L123.375-63.4921Q127.748-63.4921 130.108-61.2285Q132.469-58.965 132.469-54.399L132.469 3.16523Q132.469 7.72128 130.108 9.97869Q127.748 12.2361 123.375 12.2361Z"/>
  </g>
  <g id="Regular-L" transform="matrix(1 0 0 1 1371.22 1556)">
   <path d="M35.0976 22.2481L122.146 22.2481Q131.637 22.2481 136.398 17.4858Q141.159 12.7234 141.159 3.39249L141.159-73.7152Q141.159-83.046 136.398-87.8084Q131.637-92.5707 122.146-92.5707L35.0976-92.5707Q25.6584-92.5707 20.8712-87.836Q16.084-83.1013 16.084-73.7152L16.084 3.39249Q16.084 12.7787 20.8712 17.5134Q25.6584 22.2481 35.0976 22.2481ZM34.4141 13.5462Q29.7195 13.5462 27.2262 11.1059Q24.7329 8.6656 24.7329 3.81195L24.7329-54.4511Q24.7329-59.3042 27.2262-61.7585Q29.7195-64.2127 34.4141-64.2127L122.776-64.2127Q127.441-64.2127 129.989-61.7585Q132.538-59.3042 132.538-54.4511L132.538 3.81195Q132.538 8.6656 129.989 11.1059Q127.441 13.5462 122.776 13.5462Z"/>
  </g>
  <g id="Light-L" transform="matrix(1 0 0 1 1074.87 1556)">
   <path d="M34.067 21.4275L122.47 21.4275Q131.408 21.4275 135.931 16.8751Q140.453 12.3226 140.453 3.54514L140.453-73.8297Q140.453-82.6071 135.931-87.1595Q131.408-91.712 122.47-91.712L34.067-91.712Q25.162-91.712 20.623-87.2062Q16.084-82.7005 16.084-73.8297L16.084 3.54514Q16.084 12.4161 20.623 16.9218Q25.162 21.4275 34.067 21.4275ZM33.6888 14.7676Q28.3073 14.7676 25.5086 12.0029Q22.7099 9.23829 22.7099 3.75454L22.7099-52.9815Q22.7099-58.4645 25.5086-61.2527Q28.3073-64.0409 33.6888-64.0409L122.814-64.0409Q128.09-64.0409 130.982-61.2527Q133.874-58.4645 133.874-52.9815L133.874 3.75454Q133.874 9.23829 130.982 12.0029Q128.09 14.7676 122.814 14.7676Z"/>
  </g>
  <g id="Thin-L" transform="matrix(1 0 0 1 778.621 1556)">
   <path d="M32.704 20.3423L122.899 20.3423Q131.106 20.3423 135.312 16.0674Q139.519 11.7925 139.519 3.74703L139.519-73.9811Q139.519-82.0265 135.312-86.3014Q131.106-90.5762 122.899-90.5762L32.704-90.5762Q24.5056-90.5762 20.2948-86.3733Q16.084-82.1705 16.084-73.9811L16.084 3.74703Q16.084 11.9364 20.2948 16.1393Q24.5056 20.3423 32.704 20.3423ZM32.7294 16.3829Q26.4396 16.3829 23.2369 13.1893Q20.0343 9.99572 20.0343 3.67861L20.0343-51.0379Q20.0343-57.3538 23.2369-60.5837Q26.4396-63.8136 32.7294-63.8136L122.865-63.8136Q128.948-63.8136 132.294-60.5837Q135.64-57.3538 135.64-51.0379L135.64 3.67861Q135.64 9.99572 132.294 13.1893Q128.948 16.3829 122.865 16.3829Z"/>
  </g>
  <g id="Ultralight-L" transform="matrix(1 0 0 1 482.148 1556)">
   <path d="M32.0058 19.7864L123.119 19.7864Q130.95 19.7864 134.996 15.6537Q139.041 11.521 139.041 3.85044L139.041-74.0586Q139.041-81.7292 134.996-85.8618Q130.95-89.9945 123.119-89.9945L32.0058-89.9945Q24.1693-89.9945 20.1266-85.9467Q16.084-81.899 16.084-74.0586L16.084 3.85044Q16.084 11.6907 20.1266 15.7386Q24.1693 19.7864 32.0058 19.7864ZM32.2381 17.2103Q25.4829 17.2103 22.0734 13.797Q18.6638 10.3837 18.6638 3.63971L18.6638-50.0424Q18.6638-56.7849 22.0734-60.241Q25.4829-63.6972 32.2381-63.6972L122.891-63.6972Q129.388-63.6972 132.967-60.241Q136.545-56.7849 136.545-50.0424L136.545 3.63971Q136.545 10.3837 132.967 13.797Q129.388 17.2103 122.891 17.2103Z"/>
  </g>
  <g id="Black-M" transform="matrix(1 0 0 1 2867.13 1126)">
   <path d="M31.6184 13.2031L100.942 13.2031Q110.011 13.2031 115.055 8.16141Q120.1 3.11973 120.1-5.93792L120.1-64.4591Q120.1-73.5167 115.055-78.5583Q110.011-83.6 100.942-83.6L31.6184-83.6Q22.5559-83.6 17.5083-78.5581Q12.4609-73.5161 12.4609-64.4591L12.4609-5.93792Q12.4609 3.11916 17.5083 8.16113Q22.5559 13.2031 31.6184 13.2031ZM34.1674-4.14037Q31.9967-4.14037 30.8979-5.14812Q29.7989-6.15586 29.7989-8.51436L29.7989-49.338Q29.7989-51.7534 30.8979-52.7325Q31.9967-53.7117 34.1674-53.7117L98.388-53.7117Q100.622-53.7117 101.692-52.7325Q102.762-51.7534 102.762-49.338L102.762-8.51436Q102.762-6.15586 101.692-5.14812Q100.622-4.14037 98.388-4.14037Z"/>
  </g>
  <g id="Heavy-M" transform="matrix(1 0 0 1 2571.63 1126)">
   <path d="M30.7123 12.3925L99.4094 12.3925Q108.147 12.3925 112.904 7.64167Q117.661 2.89086 117.661-5.80968L117.661-64.5822Q117.661-73.2827 112.904-78.0335Q108.147-82.7843 99.4094-82.7843L30.7123-82.7843Q21.9908-82.7843 17.2258-78.0358Q12.4609-73.2872 12.4609-64.5822L12.4609-5.80968Q12.4609 2.8954 17.2258 7.64394Q21.9908 12.3925 30.7123 12.3925ZM32.4937-2.72359Q30.0693-2.72359 28.815-3.89607Q27.5606-5.06855 27.5606-7.67314L27.5606-49.7205Q27.5606-52.3685 28.815-53.5204Q30.0693-54.6723 32.4937-54.6723L97.6116-54.6723Q100.089-54.6723 101.326-53.5204Q102.563-52.3685 102.563-49.7205L102.563-7.67314Q102.563-5.06855 101.326-3.89607Q100.089-2.72359 97.6116-2.72359Z"/>
  </g>
  <g id="Bold-M" transform="matrix(1 0 0 1 2276.29 1126)">
   <path d="M29.6986 11.4857L97.6944 11.4857Q106.063 11.4857 110.498 7.06026Q114.932 2.63483 114.932-5.66622L114.932-64.72Q114.932-73.0209 110.498-77.4464Q106.063-81.8718 97.6944-81.8718L29.6986-81.8718Q21.3587-81.8718 16.9098-77.4515Q12.4609-73.0312 12.4609-64.72L12.4609-5.66622Q12.4609 2.6451 16.9098 7.06539Q21.3587 11.4857 29.6986 11.4857ZM30.6214-1.13871Q27.9132-1.13871 26.4849-2.49547Q25.0567-3.85223 25.0567-6.73211L25.0567-50.1484Q25.0567-53.0566 26.4849-54.4017Q27.9132-55.7469 30.6214-55.7469L96.743-55.7469Q99.493-55.7469 100.917-54.4017Q102.342-53.0566 102.342-50.1484L102.342-6.73211Q102.342-3.85223 100.917-2.49547Q99.493-1.13871 96.743-1.13871Z"/>
  </g>
  <g id="Semibold-M" transform="matrix(1 0 0 1 1980.51 1126)">
   <path d="M28.9999 10.8606L96.5121 10.8606Q104.626 10.8606 108.839 6.65944Q113.051 2.45833 113.051-5.56732L113.051-64.8149Q113.051-72.8405 108.839-77.0416Q104.626-81.2427 96.5121-81.2427L28.9999-81.2427Q20.9229-81.2427 16.6919-77.0487Q12.4609-72.8547 12.4609-64.8149L12.4609-5.56732Q12.4609 2.47254 16.6919 6.66654Q20.9229 10.8606 28.9999 10.8606ZM29.3306-0.0460985Q26.4268-0.0460985 24.8786-1.5299Q23.3305-3.0137 23.3305-6.08336L23.3305-50.4434Q23.3305-53.531 24.8786-55.0093Q26.4268-56.4877 29.3306-56.4877L96.1442-56.4877Q99.0821-56.4877 100.635-55.0093Q102.189-53.531 102.189-50.4434L102.189-6.08336Q102.189-3.0137 100.635-1.5299Q99.0821-0.0460985 96.1442-0.0460985Z"/>
  </g>
  <g id="Medium-M" transform="matrix(1 0 0 1 1684.52 1126)">
   <path d="M28.47 10.3865L95.6157 10.3865Q103.537 10.3865 107.581 6.35552Q111.625 2.3245 111.625-5.49233L111.625-64.8869Q111.625-72.7037 107.581-76.7347Q103.537-80.7658 95.6157-80.7658L28.47-80.7658Q20.5925-80.7658 16.5267-76.7433Q12.4609-72.7209 12.4609-64.8869L12.4609-5.49233Q12.4609 2.3417 16.5267 6.36412Q20.5925 10.3865 28.47 10.3865ZM28.3519 0.782362Q25.2997 0.782362 23.6607-0.797767Q22.0216-2.3779 22.0216-5.59146L22.0216-50.6671Q22.0216-53.8907 23.6607-55.47Q25.2997-57.0494 28.3519-57.0494L95.6902-57.0494Q98.7705-57.0494 100.422-55.47Q102.073-53.8907 102.073-50.6671L102.073-5.59146Q102.073-2.3779 100.422-0.797767Q98.7705 0.782362 95.6902 0.782362Z"/>
  </g>
  <g id="Regular-M" transform="matrix(1 0 0 1 1388.73 1126)">
   <path d="M27.7789 9.76828L94.4464 9.76828Q102.115 9.76828 105.94 5.95911Q109.764 2.14994 109.764-5.39452L109.764-64.9808Q109.764-72.5252 105.94-76.3344Q102.115-80.1436 94.4464-80.1436L27.7789-80.1436Q20.1615-80.1436 16.3112-76.345Q12.4609-72.5463 12.4609-64.9808L12.4609-5.39452Q12.4609 2.17103 16.3112 5.96966Q20.1615 9.76828 27.7789 9.76828ZM27.0754 1.86296Q23.8296 1.86296 22.072 0.157188Q20.3144-1.54859 20.3144-4.94985L20.3144-50.9589Q20.3144-54.3599 22.072-56.071Q23.8296-57.7821 27.0754-57.7821L95.098-57.7821Q98.364-57.7821 100.143-56.071Q101.921-54.3599 101.921-50.9589L101.921-4.94985Q101.921-1.54859 100.143 0.157188Q98.364 1.86296 95.098 1.86296Z"/>
  </g>
  <g id="Light-M" transform="matrix(1 0 0 1 1092.34 1126)">
   <path d="M26.8549 9.03261L94.7373 9.03261Q101.91 9.03261 105.521 5.41159Q109.131 1.79058 109.131-5.25766L109.131-65.0835Q109.131-72.1317 105.521-75.7527Q101.91-79.3737 94.7373-79.3737L26.8549-79.3737Q19.7165-79.3737 16.0887-75.7803Q12.4609-72.187 12.4609-65.0835L12.4609-5.25766Q12.4609 1.84589 16.0887 5.43925Q19.7165 9.03261 26.8549 9.03261ZM26.4251 2.95799Q22.5636 2.95799 20.5321 0.961425Q18.5007-1.03514 18.5007-5.00132L18.5007-49.6413Q18.5007-53.607 20.5321-55.6175Q22.5636-57.628 26.4251-57.628L95.1322-57.628Q98.9459-57.628 101.033-55.6175Q103.119-53.607 103.119-49.6413L103.119-5.00132Q103.119-1.03514 101.033 0.961425Q98.9459 2.95799 95.1322 2.95799Z"/>
  </g>
  <g id="Thin-M" transform="matrix(1 0 0 1 796.045 1126)">
   <path d="M25.6329 8.05962L95.1221 8.05962Q101.639 8.05962 104.966 4.68746Q108.294 1.31531 108.294-5.07666L108.294-65.2192Q108.294-71.6112 104.966-74.9833Q101.639-78.3554 95.1221-78.3554L25.6329-78.3554Q19.1279-78.3554 15.7944-75.0336Q12.4609-71.7117 12.4609-65.2192L12.4609-5.07666Q12.4609 1.41586 15.7944 4.73774Q19.1279 8.05962 25.6329 8.05962ZM25.565 4.40625Q20.889 4.40625 18.4955 2.02509Q16.1019-0.356063 16.1019-5.0694L16.1019-47.8987Q16.1019-52.6112 18.4955-55.0177Q20.889-57.4242 25.565-57.4242L95.1775-57.4242Q99.7155-57.4242 102.209-55.0177Q104.703-52.6112 104.703-47.8987L104.703-5.0694Q104.703-0.356063 102.209 2.02509Q99.7155 4.40625 95.1775 4.40625Z"/>
  </g>
  <g id="Ultralight-M" transform="matrix(1 0 0 1 499.548 1126)">
   <path d="M25.0069 7.56126L95.3191 7.56126Q101.5 7.56126 104.682 4.31656Q107.865 1.07188 107.865-4.98395L107.865-65.2888Q107.865-71.3446 104.682-74.5892Q101.5-77.8339 95.3191-77.8339L25.0069-77.8339Q18.8265-77.8339 15.6437-74.6511Q12.4609-71.4683 12.4609-65.2888L12.4609-4.98395Q12.4609 1.1956 15.6437 4.37843Q18.8265 7.56126 25.0069 7.56126ZM25.1245 5.14804Q20.0314 5.14804 17.4523 2.5699Q14.8732-0.00824398 14.8732-5.10427L14.8732-47.0062Q14.8732-52.1011 17.4523-54.7105Q20.0314-57.3198 25.1245-57.3198L95.2007-57.3198Q100.11-57.3198 102.812-54.7105Q105.514-52.1011 105.514-47.0062L105.514-5.10427Q105.514-0.00824398 102.812 2.5699Q100.11 5.14804 95.2007 5.14804Z"/>
  </g>
  <g id="Black-S" transform="matrix(1 0 0 1 2881.11 696)">
   <path d="M25 2.92969L79.5898 2.92969Q86.7676 2.92969 90.7959-1.09863Q94.8242-5.12695 94.8242-12.3047L94.8242-58.1055Q94.8242-65.2832 90.7959-69.3115Q86.7676-73.3398 79.5898-73.3398L25-73.3398Q17.8223-73.3398 13.7939-69.3115Q9.76562-65.2832 9.76562-58.1055L9.76562-12.3047Q9.76562-5.12695 13.7939-1.09863Q17.8223 2.92969 25 2.92969ZM27.2461-11.2305Q25.5859-11.2305 24.7559-11.9873Q23.9258-12.7441 23.9258-14.5508L23.9258-46.0938Q23.9258-47.9492 24.7559-48.6816Q25.5859-49.4141 27.2461-49.4141L77.3438-49.4141Q79.0527-49.4141 79.8584-48.6816Q80.6641-47.9492 80.6641-46.0938L80.6641-14.5508Q80.6641-12.7441 79.8584-11.9873Q79.0527-11.2305 77.3438-11.2305Z"/>
  </g>
  <g id="Heavy-S" transform="matrix(1 0 0 1 2585.4 696)">
   <path d="M24.3431 2.33042L78.2415 2.33042Q85.2003 2.33042 89.0096-1.47318Q92.8189-5.27677 92.8189-12.2125L92.8189-58.1977Q92.8189-65.1334 89.0096-68.937Q85.2003-72.7405 78.2415-72.7405L24.3431-72.7405Q17.3959-72.7405 13.5807-68.937Q9.76562-65.1334 9.76562-58.1977L9.76562-12.2125Q9.76562-5.27677 13.5807-1.47318Q17.3959 2.33042 24.3431 2.33042ZM25.8977-10.1587Q24.0993-10.1587 23.1713-11.0192Q22.2432-11.8798 22.2432-13.8248L22.2432-46.5893Q22.2432-48.5715 23.1713-49.4134Q24.0993-50.2554 25.8977-50.2554L76.6754-50.2554Q78.5226-50.2554 79.432-49.4134Q80.3414-48.5715 80.3414-46.5893L80.3414-13.8248Q80.3414-11.8798 79.432-11.0192Q78.5226-10.1587 76.6754-10.1587Z"/>
  </g>
  <g id="Bold-S" transform="matrix(1 0 0 1 2289.81 696)">
   <path d="M23.6084 1.66016L76.7334 1.66016Q83.4473 1.66016 87.0117-1.89209Q90.5761-5.44433 90.5761-12.1094L90.5761-58.3008Q90.5761-64.9658 87.0117-68.5181Q83.4473-72.0703 76.7334-72.0703L23.6084-72.0703Q16.9189-72.0703 13.3423-68.5181Q9.76562-64.9658 9.76562-58.3008L9.76562-12.1094Q9.76562-5.44433 13.3423-1.89209Q16.9189 1.66016 23.6084 1.66016ZM24.3896-8.95997Q22.4365-8.95997 21.399-9.93652Q20.3614-10.9131 20.3614-13.0127L20.3614-47.1436Q20.3614-49.2676 21.399-50.2319Q22.4365-51.1963 24.3896-51.1963L75.9278-51.1963Q77.9297-51.1963 78.9551-50.2319Q79.9805-49.2676 79.9805-47.1436L79.9805-13.0127Q79.9805-10.9131 78.9551-9.93652Q77.9297-8.95997 75.9278-8.95997Z"/>
  </g>
  <g id="Semibold-S" transform="matrix(1 0 0 1 1993.87 696)">
   <path d="M23.1019 1.19805L75.6937 1.19805Q82.2387 1.19805 85.6343-2.18091Q89.0299-5.55986 89.0299-12.0383L89.0299-58.3719Q89.0299-64.8503 85.6343-68.2292Q82.2387-71.6082 75.6937-71.6082L23.1019-71.6082Q16.5901-71.6082 13.1778-68.2292Q9.76562-64.8503 9.76562-58.3719L9.76562-12.0383Q9.76562-5.55986 13.1778-2.18091Q16.5901 1.19805 23.1019 1.19805ZM23.3499-8.1335Q21.2901-8.1335 20.177-9.19004Q19.0639-10.2466 19.0639-12.4528L19.0639-47.5257Q19.0639-49.7474 20.177-50.7962Q21.2901-51.845 23.3499-51.845L75.4123-51.845Q77.5209-51.845 78.6263-50.7962Q79.7317-49.7474 79.7317-47.5257L79.7317-12.4528Q79.7317-10.2466 78.6263-9.19004Q77.5209-8.1335 75.4123-8.1335Z"/>
  </g>
  <g id="Medium-S" transform="matrix(1 0 0 1 1697.75 696)">
   <path d="M22.7178 0.847657L74.9053 0.847657Q81.3223 0.847657 84.5898-2.3999Q87.8574-5.64746 87.8574-11.9844L87.8574-58.4258Q87.8574-64.7627 84.5898-68.0102Q81.3223-71.2578 74.9053-71.2578L22.7178-71.2578Q16.3408-71.2578 13.0532-68.0102Q9.76562-64.7627 9.76562-58.4258L9.76562-11.9844Q9.76562-5.64746 13.0532-2.3999Q16.3408 0.847657 22.7178 0.847657ZM22.5615-7.50684Q20.4209-7.50684 19.2505-8.62402Q18.0801-9.7412 18.0801-12.0283L18.0801-47.8155Q18.0801-50.1113 19.2505-51.2241Q20.4209-52.3369 22.5615-52.3369L75.0215-52.3369Q77.2109-52.3369 78.377-51.2241Q79.543-50.1113 79.543-47.8155L79.543-12.0283Q79.543-9.7412 78.377-8.62402Q77.2109-7.50684 75.0215-7.50684Z"/>
  </g>
  <g id="Regular-S" transform="matrix(1 0 0 1 1401.8 696)">
   <path d="M22.2168 0.390625L73.877 0.390625Q80.127 0.390625 83.2275-2.68555Q86.3281-5.76172 86.3281-11.9141L86.3281-58.4961Q86.3281-64.6484 83.2275-67.7246Q80.127-70.8008 73.877-70.8008L22.2168-70.8008Q16.0156-70.8008 12.8906-67.7246Q9.76562-64.6484 9.76562-58.4961L9.76562-11.9141Q9.76562-5.76172 12.8906-2.68555Q16.0156 0.390625 22.2168 0.390625ZM21.5332-6.68945Q19.2871-6.68945 18.042-7.88574Q16.7969-9.08203 16.7969-11.4746L16.7969-48.1934Q16.7969-50.5859 18.042-51.7822Q19.2871-52.9785 21.5332-52.9785L74.5117-52.9785Q76.8066-52.9785 78.0518-51.7822Q79.2969-50.5859 79.2969-48.1934L79.2969-11.4746Q79.2969-9.08203 78.0518-7.88574Q76.8066-6.68945 74.5117-6.68945Z"/>
  </g>
  <g id="Light-S" transform="matrix(1 0 0 1 1105.37 696)">
   <path d="M21.3994-0.260163L74.1343-0.260163Q79.9454-0.260163 82.8567-3.16989Q85.7681-6.07961 85.7681-11.793L85.7681-58.5869Q85.7681-64.3003 82.8567-67.21Q79.9454-70.1197 74.1343-70.1197L21.3994-70.1197Q15.6219-70.1197 12.6938-67.2251Q9.76562-64.3305 9.76562-58.5869L9.76562-11.793Q9.76562-6.04935 12.6938-3.15476Q15.6219-0.260163 21.3994-0.260163ZM20.9579-5.72077Q18.1671-5.72077 16.6798-7.1743Q15.1924-8.62783 15.1924-11.5201L15.1924-47.0279Q15.1924-49.9199 16.6798-51.381Q18.1671-52.8422 20.9579-52.8422L74.542-52.8422Q77.3213-52.8422 78.8389-51.381Q80.3564-49.9199 80.3564-47.0279L80.3564-11.5201Q80.3564-8.62783 78.8389-7.1743Q77.3213-5.72077 74.542-5.72077Z"/>
  </g>
  <g id="Thin-S" transform="matrix(1 0 0 1 809.026 696)">
   <path d="M20.3184-1.12088L74.4747-1.12088Q79.7052-1.12088 82.3664-3.81047Q85.0275-6.50005 85.0275-11.6329L85.0275-58.707Q85.0275-63.8398 82.3664-66.5294Q79.7052-69.219 74.4747-69.219L20.3184-69.219Q15.1013-69.219 12.4334-66.5645Q9.76562-63.9101 9.76562-58.707L9.76562-11.6329Q9.76562-6.42976 12.4334-3.77532Q15.1013-1.12088 20.3184-1.12088ZM20.1971-4.43962Q16.6858-4.43962 14.8781-6.23336Q13.0704-8.02711 13.0704-11.5804L13.0704-45.4864Q13.0704-49.039 14.8781-50.8505Q16.6858-52.6619 20.1971-52.6619L74.582-52.6619Q78.0021-52.6619 79.8799-50.8505Q81.7576-49.039 81.7576-45.4864L81.7576-11.5804Q81.7576-8.02711 79.8799-6.23336Q78.0021-4.43962 74.582-4.43962Z"/>
  </g>
  <g id="Ultralight-S" transform="matrix(1 0 0 1 512.504 696)">
   <path d="M19.7647-1.56174L74.649-1.56174Q79.5822-1.56174 82.1152-4.13857Q84.6481-6.71539 84.6481-11.5509L84.6481-58.7685Q84.6481-63.604 82.1152-66.1808Q79.5822-68.7576 74.649-68.7576L19.7647-68.7576Q14.8346-68.7576 12.3001-66.2262Q9.76562-63.6948 9.76562-58.7685L9.76562-11.5509Q9.76562-6.6246 12.3001-4.09317Q14.8346-1.56174 19.7647-1.56174ZM19.8074-3.78342Q15.9271-3.78342 13.9553-5.75142Q11.9835-7.71942 11.9835-11.6112L11.9835-44.6968Q11.9835-48.5878 13.9553-50.5787Q15.9271-52.5696 19.8074-52.5696L74.6025-52.5696Q78.3508-52.5696 80.4131-50.5787Q82.4753-48.5878 82.4753-44.6968L82.4753-11.6112Q82.4753-7.71942 80.4131-5.75142Q78.3508-3.78342 74.6025-3.78342Z"/>
  </g>
 </g>
</svg>
