<?xml version="1.0" encoding="UTF-8"?>
<!--Generator: Apple Native CoreSVG 175.5-->
<!DOCTYPE svg
PUBLIC "-//W3C//DTD SVG 1.1//EN"
       "http://www.w3.org/Graphics/SVG/1.1/DTD/svg11.dtd">
<svg version="1.1" xmlns="http://www.w3.org/2000/svg" xmlns:xlink="http://www.w3.org/1999/xlink" width="3300" height="2200">
 <!--glyph: "uni10026B.medium", point size: 100.0, font version: "18.0d9e1", template writer version: "84"-->
 <style>.hierarchical-0:primary {fill:#212121}
.hierarchical-1:secondary {fill:#4D4D4D}

.SFSymbolsPreview212121 {fill:#212121;opacity:1.0}
.SFSymbolsPreview4D4D4D {fill:#4D4D4D;opacity:1.0}
</style>
 <g id="Notes">
  <rect height="2200" id="artboard" style="fill:white;opacity:1" width="3300" x="0" y="0"/>
  <line style="fill:none;stroke:black;opacity:1;stroke-width:0.5;" x1="263" x2="3036" y1="292" y2="292"/>
  <text style="stroke:none;fill:black;font-family:sans-serif;font-size:13;font-weight:bold;" transform="matrix(1 0 0 1 263 322)">Weight/Scale Variations</text>
  <text style="stroke:none;fill:black;font-family:sans-serif;font-size:13;text-anchor:middle;" transform="matrix(1 0 0 1 559.711 322)">Ultralight</text>
  <text style="stroke:none;fill:black;font-family:sans-serif;font-size:13;text-anchor:middle;" transform="matrix(1 0 0 1 856.422 322)">Thin</text>
  <text style="stroke:none;fill:black;font-family:sans-serif;font-size:13;text-anchor:middle;" transform="matrix(1 0 0 1 1153.13 322)">Light</text>
  <text style="stroke:none;fill:black;font-family:sans-serif;font-size:13;text-anchor:middle;" transform="matrix(1 0 0 1 1449.84 322)">Regular</text>
  <text style="stroke:none;fill:black;font-family:sans-serif;font-size:13;text-anchor:middle;" transform="matrix(1 0 0 1 1746.56 322)">Medium</text>
  <text style="stroke:none;fill:black;font-family:sans-serif;font-size:13;text-anchor:middle;" transform="matrix(1 0 0 1 2043.27 322)">Semibold</text>
  <text style="stroke:none;fill:black;font-family:sans-serif;font-size:13;text-anchor:middle;" transform="matrix(1 0 0 1 2339.98 322)">Bold</text>
  <text style="stroke:none;fill:black;font-family:sans-serif;font-size:13;text-anchor:middle;" transform="matrix(1 0 0 1 2636.69 322)">Heavy</text>
  <text style="stroke:none;fill:black;font-family:sans-serif;font-size:13;text-anchor:middle;" transform="matrix(1 0 0 1 2933.4 322)">Black</text>
  <line style="fill:none;stroke:black;opacity:1;stroke-width:0.5;" x1="263" x2="3036" y1="1903" y2="1903"/>
  <g transform="matrix(1 0 0 1 263 1933)">
   <path d="M9.24805 0.830078Q10.8691 0.830078 12.2949 0.214844Q13.7207-0.400391 14.8096-1.49414Q15.8984-2.58789 16.5186-4.01367Q17.1387-5.43945 17.1387-7.05078Q17.1387-8.66211 16.5186-10.0879Q15.8984-11.5137 14.8047-12.6074Q13.7109-13.7012 12.2852-14.3164Q10.8594-14.9316 9.23828-14.9316Q7.62695-14.9316 6.20117-14.3164Q4.77539-13.7012 3.69141-12.6074Q2.60742-11.5137 1.9873-10.0879Q1.36719-8.66211 1.36719-7.05078Q1.36719-5.43945 1.9873-4.01367Q2.60742-2.58789 3.69629-1.49414Q4.78516-0.400391 6.21094 0.214844Q7.63672 0.830078 9.24805 0.830078ZM9.24805-0.654297Q7.91992-0.654297 6.7627-1.14746Q5.60547-1.64062 4.73145-2.51953Q3.85742-3.39844 3.36426-4.56055Q2.87109-5.72266 2.87109-7.05078Q2.87109-8.37891 3.35938-9.54102Q3.84766-10.7031 4.72168-11.582Q5.5957-12.4609 6.75293-12.9541Q7.91016-13.4473 9.23828-13.4473Q10.5762-13.4473 11.7383-12.9541Q12.9004-12.4609 13.7793-11.582Q14.6582-10.7031 15.1514-9.54102Q15.6445-8.37891 15.6445-7.05078Q15.6445-5.72266 15.1514-4.56055Q14.6582-3.39844 13.7793-2.51953Q12.9004-1.64062 11.7432-1.14746Q10.5859-0.654297 9.24805-0.654297ZM5.6543-7.05078Q5.6543-6.72852 5.85938-6.52832Q6.06445-6.32812 6.40625-6.32812L8.51562-6.32812L8.51562-4.20898Q8.51562-3.88672 8.71094-3.67676Q8.90625-3.4668 9.23828-3.4668Q9.56055-3.4668 9.77051-3.67676Q9.98047-3.88672 9.98047-4.20898L9.98047-6.32812L12.0898-6.32812Q12.4219-6.32812 12.627-6.52832Q12.832-6.72852 12.832-7.05078Q12.832-7.38281 12.627-7.58789Q12.4219-7.79297 12.0898-7.79297L9.98047-7.79297L9.98047-9.90234Q9.98047-10.2344 9.77051-10.4443Q9.56055-10.6543 9.23828-10.6543Q8.90625-10.6543 8.71094-10.4443Q8.51562-10.2344 8.51562-9.90234L8.51562-7.79297L6.40625-7.79297Q6.06445-7.79297 5.85938-7.58789Q5.6543-7.38281 5.6543-7.05078Z"/>
  </g>
  <g transform="matrix(1 0 0 1 281.867 1933)">
   <path d="M11.709 2.91016Q13.75 2.91016 15.5518 2.12891Q17.3535 1.34766 18.7305-0.0292969Q20.1074-1.40625 20.8887-3.20801Q21.6699-5.00977 21.6699-7.05078Q21.6699-9.0918 20.8887-10.8936Q20.1074-12.6953 18.7305-14.0723Q17.3535-15.4492 15.5469-16.2305Q13.7402-17.0117 11.6992-17.0117Q9.6582-17.0117 7.85645-16.2305Q6.05469-15.4492 4.68262-14.0723Q3.31055-12.6953 2.5293-10.8936Q1.74805-9.0918 1.74805-7.05078Q1.74805-5.00977 2.5293-3.20801Q3.31055-1.40625 4.6875-0.0292969Q6.06445 1.34766 7.86621 2.12891Q9.66797 2.91016 11.709 2.91016ZM11.709 1.25Q9.98047 1.25 8.47656 0.605469Q6.97266-0.0390625 5.83496-1.17676Q4.69727-2.31445 4.05762-3.81836Q3.41797-5.32227 3.41797-7.05078Q3.41797-8.7793 4.05762-10.2832Q4.69727-11.7871 5.83008-12.9297Q6.96289-14.0723 8.4668-14.7119Q9.9707-15.3516 11.6992-15.3516Q13.4277-15.3516 14.9365-14.7119Q16.4453-14.0723 17.583-12.9297Q18.7207-11.7871 19.3652-10.2832Q20.0098-8.7793 20.0098-7.05078Q20.0098-5.32227 19.3701-3.81836Q18.7305-2.31445 17.5879-1.17676Q16.4453-0.0390625 14.9414 0.605469Q13.4375 1.25 11.709 1.25ZM7.17773-7.05078Q7.17773-6.69922 7.41211-6.47461Q7.64648-6.25 8.01758-6.25L10.8887-6.25L10.8887-3.36914Q10.8887-2.99805 11.1133-2.76855Q11.3379-2.53906 11.6895-2.53906Q12.0605-2.53906 12.29-2.76855Q12.5195-2.99805 12.5195-3.36914L12.5195-6.25L15.4004-6.25Q15.7715-6.25 16.001-6.47461Q16.2305-6.69922 16.2305-7.05078Q16.2305-7.42188 16.001-7.65137Q15.7715-7.88086 15.4004-7.88086L12.5195-7.88086L12.5195-10.752Q12.5195-11.1328 12.29-11.3623Q12.0605-11.5918 11.6895-11.5918Q11.3379-11.5918 11.1133-11.3574Q10.8887-11.123 10.8887-10.752L10.8887-7.88086L8.01758-7.88086Q7.63672-7.88086 7.40723-7.65137Q7.17773-7.42188 7.17773-7.05078Z"/>
  </g>
  <g transform="matrix(1 0 0 1 305.646 1933)">
   <path d="M14.9707 5.66406Q17.0605 5.66406 18.96 5.01465Q20.8594 4.36523 22.4512 3.19336Q24.043 2.02148 25.2197 0.429688Q26.3965-1.16211 27.0459-3.06641Q27.6953-4.9707 27.6953-7.05078Q27.6953-9.14062 27.0459-11.04Q26.3965-12.9395 25.2197-14.5312Q24.043-16.123 22.4512-17.2998Q20.8594-18.4766 18.9551-19.126Q17.0508-19.7754 14.9609-19.7754Q12.8711-19.7754 10.9717-19.126Q9.07227-18.4766 7.48535-17.2998Q5.89844-16.123 4.72168-14.5312Q3.54492-12.9395 2.90039-11.04Q2.25586-9.14062 2.25586-7.05078Q2.25586-4.9707 2.90527-3.06641Q3.55469-1.16211 4.72656 0.429688Q5.89844 2.02148 7.49023 3.19336Q9.08203 4.36523 10.9814 5.01465Q12.8809 5.66406 14.9707 5.66406ZM14.9707 3.84766Q13.1641 3.84766 11.5283 3.2959Q9.89258 2.74414 8.53516 1.74805Q7.17773 0.751953 6.17676-0.610352Q5.17578-1.97266 4.62891-3.6084Q4.08203-5.24414 4.08203-7.05078Q4.08203-8.86719 4.62891-10.5029Q5.17578-12.1387 6.17188-13.501Q7.16797-14.8633 8.52539-15.8594Q9.88281-16.8555 11.5186-17.4023Q13.1543-17.9492 14.9609-17.9492Q16.7773-17.9492 18.4131-17.4023Q20.0488-16.8555 21.4111-15.8594Q22.7734-14.8633 23.7744-13.501Q24.7754-12.1387 25.3223-10.5029Q25.8691-8.86719 25.8691-7.05078Q25.8691-5.24414 25.3223-3.6084Q24.7754-1.97266 23.7793-0.610352Q22.7832 0.751953 21.4209 1.74805Q20.0586 2.74414 18.4229 3.2959Q16.7871 3.84766 14.9707 3.84766ZM9.19922-7.05078Q9.19922-6.66992 9.45801-6.4209Q9.7168-6.17188 10.1172-6.17188L14.0625-6.17188L14.0625-2.2168Q14.0625-1.81641 14.3115-1.55762Q14.5605-1.29883 14.9512-1.29883Q15.3516-1.29883 15.6104-1.55273Q15.8691-1.80664 15.8691-2.2168L15.8691-6.17188L19.8242-6.17188Q20.2246-6.17188 20.4785-6.4209Q20.7324-6.66992 20.7324-7.05078Q20.7324-7.46094 20.4785-7.71484Q20.2246-7.96875 19.8242-7.96875L15.8691-7.96875L15.8691-11.9141Q15.8691-12.3242 15.6104-12.583Q15.3516-12.8418 14.9512-12.8418Q14.5605-12.8418 14.3115-12.583Q14.0625-12.3242 14.0625-11.9141L14.0625-7.96875L10.1172-7.96875Q9.70703-7.96875 9.45312-7.71484Q9.19922-7.46094 9.19922-7.05078Z"/>
  </g>
  <text style="stroke:none;fill:black;font-family:sans-serif;font-size:13;font-weight:bold;" transform="matrix(1 0 0 1 263 1953)">Design Variations</text>
  <text style="stroke:none;fill:black;font-family:sans-serif;font-size:13;" transform="matrix(1 0 0 1 263 1971)">Symbols are supported in up to nine weights and three scales.</text>
  <text style="stroke:none;fill:black;font-family:sans-serif;font-size:13;" transform="matrix(1 0 0 1 263 1989)">For optimal layout with text and other symbols, vertically align</text>
  <text style="stroke:none;fill:black;font-family:sans-serif;font-size:13;" transform="matrix(1 0 0 1 263 2007)">symbols with the adjacent text.</text>
  <line style="fill:none;stroke:#00AEEF;stroke-width:0.5;opacity:1.0;" x1="776" x2="776" y1="1919" y2="1933"/>
  <g transform="matrix(1 0 0 1 776 1933)">
   <path d="M3.31055 0.15625Q3.70117 0.15625 3.91602-0.00976562Q4.13086-0.175781 4.26758-0.585938L5.52734-4.0332L11.2891-4.0332L12.5488-0.585938Q12.6855-0.175781 12.9004-0.00976562Q13.1152 0.15625 13.4961 0.15625Q13.8867 0.15625 14.1162-0.0585938Q14.3457-0.273438 14.3457-0.644531Q14.3457-0.869141 14.2383-1.17188L9.6582-13.3691Q9.48242-13.8184 9.17969-14.043Q8.87695-14.2676 8.4082-14.2676Q7.5-14.2676 7.17773-13.3789L2.59766-1.16211Q2.49023-0.859375 2.49023-0.634766Q2.49023-0.263672 2.70996-0.0537109Q2.92969 0.15625 3.31055 0.15625ZM6.00586-5.51758L8.37891-12.0898L8.42773-12.0898L10.8008-5.51758Z"/>
  </g>
  <line style="fill:none;stroke:#00AEEF;stroke-width:0.5;opacity:1.0;" x1="793.197" x2="793.197" y1="1919" y2="1933"/>
  <text style="stroke:none;fill:black;font-family:sans-serif;font-size:13;font-weight:bold;" transform="matrix(1 0 0 1 776 1953)">Margins</text>
  <text style="stroke:none;fill:black;font-family:sans-serif;font-size:13;" transform="matrix(1 0 0 1 776 1971)">Leading and trailing margins on the left and right side of each symbol</text>
  <text style="stroke:none;fill:black;font-family:sans-serif;font-size:13;" transform="matrix(1 0 0 1 776 1989)">can be adjusted by modifying the x-location of the margin guidelines.</text>
  <text style="stroke:none;fill:black;font-family:sans-serif;font-size:13;" transform="matrix(1 0 0 1 776 2007)">Modifications are automatically applied proportionally to all</text>
  <text style="stroke:none;fill:black;font-family:sans-serif;font-size:13;" transform="matrix(1 0 0 1 776 2025)">scales and weights.</text>
  <g transform="matrix(1 0 0 1 1289 1933)">
   <path d="M2.8418 1.86523L4.54102 3.57422Q5.18555 4.22852 5.90332 4.17969Q6.62109 4.13086 7.31445 3.35938L18.0078-8.42773L17.041-9.4043L6.42578 2.27539Q6.16211 2.57812 5.89355 2.61719Q5.625 2.65625 5.27344 2.30469L4.10156 1.14258Q3.75 0.791016 3.79395 0.522461Q3.83789 0.253906 4.14062-0.0195312L15.6152-10.8203L14.6387-11.7871L3.04688-0.898438Q2.30469-0.214844 2.25098 0.498047Q2.19727 1.21094 2.8418 1.86523ZM9.25781-16.3281Q8.94531-16.0254 8.90625-15.6348Q8.86719-15.2441 9.04297-14.9512Q9.21875-14.6777 9.55566-14.541Q9.89258-14.4043 10.3809-14.5215Q11.4746-14.7754 12.5977-14.7314Q13.7207-14.6875 14.7949-13.9844L14.209-12.5293Q13.9551-11.9043 14.0674-11.4404Q14.1797-10.9766 14.5801-10.5664L16.875-8.25195Q17.2363-7.88086 17.5781-7.82227Q17.9199-7.76367 18.3398-7.8418L19.4043-8.03711L20.0684-7.36328L20.0293-6.80664Q20-6.43555 20.1221-6.12305Q20.2441-5.81055 20.6055-5.44922L21.3672-4.70703Q21.7285-4.3457 22.1533-4.33105Q22.5781-4.31641 22.9297-4.66797L25.8398-7.58789Q26.1914-7.93945 26.1816-8.35449Q26.1719-8.76953 25.8105-9.13086L25.0391-9.89258Q24.6875-10.2539 24.3799-10.3857Q24.0723-10.5176 23.7109-10.4883L23.1348-10.4395L22.4902-11.0742L22.7344-12.1973Q22.832-12.6172 22.6953-12.9834Q22.5586-13.3496 22.1191-13.7891L19.9219-15.9766Q18.6719-17.2168 17.2607-17.8369Q15.8496-18.457 14.4189-18.4814Q12.9883-18.5059 11.665-17.959Q10.3418-17.4121 9.25781-16.3281ZM10.752-15.957Q11.6602-16.6211 12.7002-16.9043Q13.7402-17.1875 14.8047-17.085Q15.8691-16.9824 16.8701-16.5137Q17.8711-16.0449 18.7012-15.2051L21.1328-12.793Q21.3086-12.6172 21.3525-12.4512Q21.3965-12.2852 21.3379-12.0312L21.0156-10.5469L22.5195-9.0625L23.5059-9.12109Q23.6914-9.13086 23.7891-9.09668Q23.8867-9.0625 24.0332-8.91602L24.6094-8.33984L22.168-5.89844L21.5918-6.47461Q21.4453-6.62109 21.4062-6.71875Q21.3672-6.81641 21.377-7.01172L21.4453-7.98828L19.9512-9.47266L18.4277-9.21875Q18.1836-9.16992 18.042-9.2041Q17.9004-9.23828 17.7148-9.41406L15.7129-11.416Q15.5176-11.5918 15.4932-11.7529Q15.4688-11.9141 15.5859-12.1875L16.4648-14.2773Q15.293-15.3711 13.8281-15.791Q12.3633-16.2109 10.8398-15.7617Q10.7227-15.7324 10.6885-15.8057Q10.6543-15.8789 10.752-15.957Z"/>
  </g>
  <text style="stroke:none;fill:black;font-family:sans-serif;font-size:13;font-weight:bold;" transform="matrix(1 0 0 1 1289 1953)">Exporting</text>
  <text style="stroke:none;fill:black;font-family:sans-serif;font-size:13;" transform="matrix(1 0 0 1 1289 1971)">Symbols should be outlined when exporting to ensure the</text>
  <text style="stroke:none;fill:black;font-family:sans-serif;font-size:13;" transform="matrix(1 0 0 1 1289 1989)">design is preserved when submitting to Xcode.</text>
  <text id="template-version" style="stroke:none;fill:black;font-family:sans-serif;font-size:13;text-anchor:end;" transform="matrix(1 0 0 1 3036 1933)">Template v.3.0</text>
  <text style="stroke:none;fill:black;font-family:sans-serif;font-size:13;text-anchor:end;" transform="matrix(1 0 0 1 3036 1951)">Requires Xcode 13 or greater</text>
  <text id="descriptive-name" style="stroke:none;fill:black;font-family:sans-serif;font-size:13;text-anchor:end;" transform="matrix(1 0 0 1 3036 1969)">Generated from person.2</text>
  <text style="stroke:none;fill:black;font-family:sans-serif;font-size:13;text-anchor:end;" transform="matrix(1 0 0 1 3036 1987)">Typeset at 100 points</text>
  <text style="stroke:none;fill:black;font-family:sans-serif;font-size:13;" transform="matrix(1 0 0 1 263 726)">Small</text>
  <text style="stroke:none;fill:black;font-family:sans-serif;font-size:13;" transform="matrix(1 0 0 1 263 1156)">Medium</text>
  <text style="stroke:none;fill:black;font-family:sans-serif;font-size:13;" transform="matrix(1 0 0 1 263 1586)">Large</text>
 </g>
 <g id="Guides">
  <g id="H-reference" style="fill:#27AAE1;stroke:none;" transform="matrix(1 0 0 1 339 696)">
   <path d="M0.993347 0L3.6377 0L29.3282-67.1326L30.0301-67.1326L30.0301-70.459L28.1227-70.459ZM11.6882-24.4797L46.9818-24.4797L46.2311-26.7288L12.4382-26.7288ZM55.1193 0L57.7637 0L30.6381-70.459L29.4327-70.459L29.4327-67.1326Z"/>
  </g>
  <line id="Baseline-S" style="fill:none;stroke:#27AAE1;opacity:1;stroke-width:0.5;" x1="263" x2="3036" y1="696" y2="696"/>
  <line id="Capline-S" style="fill:none;stroke:#27AAE1;opacity:1;stroke-width:0.5;" x1="263" x2="3036" y1="625.541" y2="625.541"/>
  <g id="H-reference" style="fill:#27AAE1;stroke:none;" transform="matrix(1 0 0 1 339 1126)">
   <path d="M0.993347 0L3.6377 0L29.3282-67.1326L30.0301-67.1326L30.0301-70.459L28.1227-70.459ZM11.6882-24.4797L46.9818-24.4797L46.2311-26.7288L12.4382-26.7288ZM55.1193 0L57.7637 0L30.6381-70.459L29.4327-70.459L29.4327-67.1326Z"/>
  </g>
  <line id="Baseline-M" style="fill:none;stroke:#27AAE1;opacity:1;stroke-width:0.5;" x1="263" x2="3036" y1="1126" y2="1126"/>
  <line id="Capline-M" style="fill:none;stroke:#27AAE1;opacity:1;stroke-width:0.5;" x1="263" x2="3036" y1="1055.54" y2="1055.54"/>
  <g id="H-reference" style="fill:#27AAE1;stroke:none;" transform="matrix(1 0 0 1 339 1556)">
   <path d="M0.993347 0L3.6377 0L29.3282-67.1326L30.0301-67.1326L30.0301-70.459L28.1227-70.459ZM11.6882-24.4797L46.9818-24.4797L46.2311-26.7288L12.4382-26.7288ZM55.1193 0L57.7637 0L30.6381-70.459L29.4327-70.459L29.4327-67.1326Z"/>
  </g>
  <line id="Baseline-L" style="fill:none;stroke:#27AAE1;opacity:1;stroke-width:0.5;" x1="263" x2="3036" y1="1556" y2="1556"/>
  <line id="Capline-L" style="fill:none;stroke:#27AAE1;opacity:1;stroke-width:0.5;" x1="263" x2="3036" y1="1485.54" y2="1485.54"/>
  <line id="left-margin-Ultralight-S" style="fill:none;stroke:#00AEEF;stroke-width:0.5;opacity:1.0;" x1="497.836" x2="497.836" y1="600.785" y2="720.121"/>
  <line id="right-margin-Ultralight-S" style="fill:none;stroke:#00AEEF;stroke-width:0.5;opacity:1.0;" x1="621.586" x2="621.586" y1="600.785" y2="720.121"/>
  <line id="left-margin-Regular-S" style="fill:none;stroke:#00AEEF;stroke-width:0.5;opacity:1.0;" x1="1386.54" x2="1386.54" y1="600.785" y2="720.121"/>
  <line id="right-margin-Regular-S" style="fill:none;stroke:#00AEEF;stroke-width:0.5;opacity:1.0;" x1="1513.15" x2="1513.15" y1="600.785" y2="720.121"/>
  <line id="left-margin-Black-S" style="fill:none;stroke:#00AEEF;stroke-width:0.5;opacity:1.0;" x1="2868.31" x2="2868.31" y1="600.785" y2="720.121"/>
  <line id="right-margin-Black-S" style="fill:none;stroke:#00AEEF;stroke-width:0.5;opacity:1.0;" x1="2998.49" x2="2998.49" y1="600.785" y2="720.121"/>
 </g>
 <g id="Symbols">
  <g id="Black-S" transform="matrix(1 0 0 1 2868.31 696)">
   <path class="hierarchical-0:primary SFSymbolsPreview212121" d="M62.7441 2.63672L108.74 2.63672Q120.41 2.63672 120.41-6.15234Q120.41-10.9375 117.749-15.332Q115.088-19.7266 110.352-23.1689Q105.615-26.6113 99.3164-28.6377Q93.0176-30.6641 85.7422-30.6641Q78.4668-30.6641 72.168-28.6377Q65.8691-26.6113 61.1328-23.1689Q56.3965-19.7266 53.7354-15.332Q51.0742-10.9375 51.0742-6.15234Q51.0742 2.63672 62.7441 2.63672ZM85.7422-33.7402Q90.7227-33.7402 94.751-36.3037Q98.7793-38.8672 101.147-43.2129Q103.516-47.5586 103.516-52.8809Q103.516-58.0566 101.099-62.3291Q98.6816-66.6016 94.6533-69.1895Q90.625-71.7773 85.7422-71.7773Q80.8594-71.7773 76.8066-69.1895Q72.7539-66.6016 70.3613-62.3291Q67.9688-58.0566 67.9688-52.8809Q68.0176-47.5586 70.3613-43.2129Q72.7051-38.8672 76.7334-36.3037Q80.7617-33.7402 85.7422-33.7402ZM64.3555-8.10547Q64.0137-8.10547 63.8916-8.3252Q63.7695-8.54492 63.7695-8.74023Q63.7695-10.1562 65.2832-12.0605Q66.7969-13.9648 69.6289-15.7715Q72.4609-17.5781 76.5381-18.75Q80.6152-19.9219 85.7422-19.9219Q90.8691-19.9219 94.9463-18.75Q99.0234-17.5781 101.855-15.7715Q104.688-13.9648 106.201-12.0605Q107.715-10.1562 107.715-8.74023Q107.715-8.54492 107.617-8.3252Q107.52-8.10547 107.129-8.10547ZM85.7422-44.4824Q83.8379-44.4824 82.2266-45.5566Q80.6152-46.6309 79.6631-48.5596Q78.7109-50.4883 78.7109-52.9297Q78.7109-55.1758 79.6875-57.0068Q80.6641-58.8379 82.2754-59.9365Q83.8867-61.0352 85.7422-61.0352Q87.6465-61.0352 89.2334-59.9365Q90.8203-58.8379 91.7969-56.9824Q92.7734-55.127 92.7734-52.8809Q92.7734-50.4883 91.8213-48.584Q90.8691-46.6797 89.2822-45.5811Q87.6953-44.4824 85.7422-44.4824Z"/>
   <path class="hierarchical-1:secondary SFSymbolsPreview4D4D4D" d="M40.1367-32.9102Q44.5312-32.9102 48.0713-35.1807Q51.6113-37.4512 53.7109-41.2842Q55.8105-45.1172 55.8105-49.8047Q55.8105-54.3457 53.6621-58.1299Q51.5137-61.9141 47.9736-64.1846Q44.4336-66.4551 40.1367-66.4551Q35.8398-66.4551 32.2754-64.1846Q28.7109-61.9141 26.5869-58.1299Q24.4629-54.3457 24.4629-49.8047Q24.5117-45.0684 26.5869-41.2354Q28.6621-37.4023 32.2266-35.1562Q35.791-32.9102 40.1367-32.9102ZM20.1172 2.68555L48.4375 2.68555Q45.9961 1.12305 44.9219-2.05078Q43.8477-5.22461 44.0918-7.91016L22.4121-7.91016Q22.0703-7.91016 21.9482-8.10547Q21.8262-8.30078 21.8262-8.49609Q21.8262-11.2305 24.2188-13.916Q26.6113-16.6016 30.7617-18.3594Q34.9121-20.1172 40.1367-20.1172Q41.5527-20.1172 44.043-19.7266Q46.5332-19.3359 47.6562-19.043Q48.8281-21.582 50.7568-23.6572Q52.6855-25.7324 55.5176-27.3926Q52.2461-28.8086 47.8271-29.7119Q43.4082-30.6152 40.1367-30.6152Q33.8379-30.6152 28.3203-28.6865Q22.8027-26.7578 18.6279-23.3887Q14.4531-20.0195 12.1094-15.7227Q9.76562-11.4258 9.76562-6.68945Q9.76562-2.24609 12.3535 0.219727Q14.9414 2.68555 20.1172 2.68555ZM40.1367-43.457Q38.0371-43.457 36.5234-45.2393Q35.0098-47.0215 35.0098-49.8047Q35.0098-51.4648 35.7178-52.8564Q36.4258-54.248 37.6221-55.0781Q38.8184-55.9082 40.1367-55.9082Q41.4551-55.9082 42.627-55.0781Q43.7988-54.248 44.5312-52.8564Q45.2637-51.4648 45.2637-49.8047Q45.2637-47.0215 43.7744-45.2393Q42.2852-43.457 40.1367-43.457Z"/>
  </g>
  <g id="Regular-S" transform="matrix(1 0 0 1 1386.54 696)">
   <path class="hierarchical-0:primary SFSymbolsPreview212121" d="M59.5215 1.12305L106.738 1.12305Q116.846 1.12305 116.846-5.27344Q116.846-9.0332 114.526-13.3301Q112.207-17.627 107.837-21.4111Q103.467-25.1953 97.2412-27.6123Q91.0156-30.0293 83.1055-30.0293Q75.2441-30.0293 69.0186-27.6123Q62.793-25.1953 58.4229-21.4111Q54.0527-17.627 51.7334-13.3301Q49.4141-9.0332 49.4141-5.27344Q49.4141 1.12305 59.5215 1.12305ZM83.1543-34.5215Q87.7441-34.5215 91.5527-36.9873Q95.3613-39.4531 97.6562-43.5791Q99.9512-47.7051 99.9512-52.6855Q99.9512-57.666 97.6807-61.6699Q95.4102-65.6738 91.6016-68.0176Q87.793-70.3613 83.1543-70.3613Q78.5156-70.3613 74.707-67.9688Q70.8984-65.5762 68.6035-61.5479Q66.3086-57.5195 66.3086-52.5879Q66.3086-47.6562 68.6035-43.5303Q70.8984-39.4043 74.707-36.9629Q78.5156-34.5215 83.1543-34.5215ZM57.2754-5.46875Q56.8848-5.46875 56.665-5.61523Q56.4453-5.76172 56.4453-6.15234Q56.4453-8.30078 58.1787-11.2305Q59.9121-14.1602 63.3057-16.9434Q66.6992-19.7266 71.6797-21.582Q76.6602-23.4375 83.1055-23.4375Q89.5996-23.4375 94.5801-21.582Q99.5605-19.7266 102.93-16.9434Q106.299-14.1602 108.032-11.2305Q109.766-8.30078 109.766-6.15234Q109.766-5.76172 109.57-5.61523Q109.375-5.46875 108.984-5.46875ZM83.1543-41.0645Q80.5176-41.0645 78.2959-42.6025Q76.0742-44.1406 74.7314-46.7529Q73.3887-49.3652 73.3887-52.5879Q73.3887-55.8105 74.707-58.3252Q76.0254-60.8398 78.2471-62.3047Q80.4688-63.7695 83.1543-63.7695Q85.8398-63.7695 88.0371-62.3291Q90.2344-60.8887 91.5527-58.374Q92.8711-55.8594 92.8711-52.6855Q92.8711-49.4629 91.5283-46.8262Q90.1855-44.1895 87.9639-42.627Q85.7422-41.0645 83.1543-41.0645Z"/>
   <path class="hierarchical-1:secondary SFSymbolsPreview4D4D4D" d="M39.0625-34.2773Q43.0176-34.2773 46.3379-36.4502Q49.6582-38.623 51.6357-42.2607Q53.6133-45.8984 53.6133-50.2441Q53.6133-54.5898 51.6602-58.1055Q49.707-61.6211 46.4111-63.6963Q43.1152-65.7715 39.0625-65.7715Q35.0586-65.7715 31.7383-63.6475Q28.418-61.5234 26.4404-57.9834Q24.4629-54.4434 24.4629-50.1953Q24.4629-45.8008 26.4648-42.1875Q28.4668-38.5742 31.7627-36.4258Q35.0586-34.2773 39.0625-34.2773ZM18.0664 1.12305L47.168 1.12305Q45.6055 0.244141 44.6289-1.53809Q43.6523-3.32031 43.9453-5.32227L16.8945-5.32227Q16.6016-5.32227 16.4307-5.46875Q16.2598-5.61523 16.2598-5.95703Q16.2598-10.4492 19.4092-14.502Q22.5586-18.5547 27.7588-21.0938Q32.959-23.6328 39.0137-23.6328Q42.2852-23.6328 45.1904-22.9492Q48.0957-22.2656 50.7324-20.9473Q51.7578-22.2168 52.9785-23.3887Q54.1992-24.5605 55.6641-25.5859Q52.002-27.832 47.7783-28.9551Q43.5547-30.0781 39.0137-30.0781Q33.1055-30.0781 27.832-28.1006Q22.5586-26.123 18.4814-22.7051Q14.4043-19.2871 12.085-14.8438Q9.76562-10.4004 9.76562-5.51758Q9.76562-2.19727 11.8408-0.537109Q13.916 1.12305 18.0664 1.12305ZM39.0625-40.7715Q35.791-40.7715 33.374-43.5303Q30.957-46.2891 30.957-50.1953Q30.957-52.7344 32.0557-54.7852Q33.1543-56.8359 35.0098-58.0566Q36.8652-59.2773 39.0625-59.2773Q41.3086-59.2773 43.1641-58.0811Q45.0195-56.8848 46.0938-54.834Q47.168-52.7832 47.168-50.2441Q47.168-46.3379 44.751-43.5547Q42.334-40.7715 39.0625-40.7715Z"/>
  </g>
  <g id="Ultralight-S" transform="matrix(1 0 0 1 497.836 696)">
   <path class="hierarchical-0:primary SFSymbolsPreview212121" d="M55.9341-0.511932L107.646-0.511932Q113.985-0.511932 113.985-5.31921Q113.985-9.0332 111.756-13.1256Q109.528-17.218 105.317-20.8206Q101.105-24.4232 95.1752-26.6586Q89.2448-28.894 81.7886-28.894Q74.3813-28.894 68.4509-26.6586Q62.5206-24.4232 58.3096-20.8206Q54.0985-17.218 51.87-13.1256Q49.6414-9.0332 49.6414-5.31921Q49.6414-0.511932 55.9341-0.511932ZM81.8825-34.9304Q86.2-34.9304 89.6683-37.1689Q93.1366-39.4073 95.1588-43.261Q97.1809-47.1146 97.1809-51.9135Q97.1809-56.44 95.1149-60.2169Q93.0489-63.9938 89.5809-66.2468Q86.113-68.4998 81.8825-68.4998Q77.6985-68.4998 74.2077-66.2434Q70.7169-63.987 68.6489-60.2085Q66.581-56.4301 66.6267-51.9066Q66.6718-47.1115 68.6943-43.2579Q70.7169-39.4043 74.1623-37.1674Q77.6077-34.9304 81.8825-34.9304ZM55.822-2.69852Q53.5698-2.69852 52.7145-3.29933Q51.8593-3.90015 51.8593-5.38025Q51.8593-8.70972 53.8876-12.434Q55.9158-16.1583 59.7862-19.4183Q63.6566-22.6784 69.2047-24.7154Q74.7528-26.7525 81.7886-26.7525Q88.8275-26.7525 94.3985-24.7154Q99.9695-22.6784 103.838-19.4183Q107.706-16.1583 109.735-12.434Q111.764-8.70972 111.764-5.38025Q111.764-3.90015 110.91-3.29933Q110.056-2.69852 107.758-2.69852ZM81.8825-37.114Q78.2021-37.114 75.2537-39.0606Q72.3053-41.0072 70.5765-44.3462Q68.8477-47.6852 68.8477-51.9066Q68.8026-55.8563 70.5521-59.1202Q72.3015-62.384 75.2953-64.3482Q78.289-66.3124 81.8825-66.3124Q85.4767-66.3124 88.446-64.3726Q91.4154-62.4329 93.1877-59.1461Q94.96-55.8594 94.96-51.9135Q94.96-47.6921 93.2312-44.3516Q91.5024-41.011 88.5315-39.0625Q85.5606-37.114 81.8825-37.114Z"/>
   <path class="hierarchical-1:secondary SFSymbolsPreview4D4D4D" d="M37.8365-34.1408Q41.61-34.1408 44.635-36.0867Q47.6601-38.0325 49.4331-41.375Q51.2062-44.7174 51.2062-48.9273Q51.2062-52.9099 49.3896-56.1985Q47.5731-59.4872 44.5496-61.4716Q41.526-63.456 37.8365-63.456Q34.1957-63.456 31.1478-61.4681Q28.0998-59.4803 26.3042-56.1897Q24.5087-52.8992 24.5537-48.9235Q24.5995-44.7113 26.3515-41.3704Q28.1036-38.0295 31.1043-36.0851Q34.1049-34.1408 37.8365-34.1408ZM15.2962-0.511932L49.4385-0.511932Q48.8747-0.800323 48.3295-1.35651Q47.7844-1.91269 47.4876-2.64282L15.2596-2.64282Q13.4232-2.64282 12.6846-3.33443Q11.9461-4.02603 11.9461-5.63889Q11.9461-11.4029 15.4587-16.2502Q18.9713-21.0976 24.8528-24.0227Q30.7343-26.9478 37.7419-26.9478Q43.0115-26.9478 47.5971-25.4013Q52.1828-23.8548 55.6824-20.8107Q56.1172-21.1723 56.5205-21.5267Q56.9237-21.8811 57.3441-22.226Q53.3646-25.6073 48.3688-27.3434Q43.3731-29.0794 37.7419-29.0794Q31.3347-29.0794 26.1745-26.9882Q21.0144-24.897 17.3462-21.479Q13.678-18.0611 11.7218-13.913Q9.76562-9.76486 9.76562-5.60837Q9.76562-3.01437 11.137-1.76315Q12.5084-0.511932 15.2962-0.511932ZM37.8365-36.3213Q33.1116-36.3213 29.9229-39.92Q26.7342-43.5188 26.7342-48.9235Q26.7342-52.2804 28.2413-55.0804Q29.7485-57.8804 32.2624-59.5779Q34.7763-61.2755 37.8365-61.2755Q40.8997-61.2755 43.4364-59.6024Q45.9732-57.9292 47.5014-55.1292Q49.0295-52.3293 49.0295-48.9273Q49.0295-43.5226 45.7954-39.922Q42.5613-36.3213 37.8365-36.3213Z"/>
  </g>
 </g>
</svg>
