<?xml version="1.0" encoding="UTF-8"?>
<!--Generator: Apple Native CoreSVG 175.5-->
<!DOCTYPE svg
PUBLIC "-//W3C//DTD SVG 1.1//EN"
       "http://www.w3.org/Graphics/SVG/1.1/DTD/svg11.dtd">
<svg version="1.1" xmlns="http://www.w3.org/2000/svg" xmlns:xlink="http://www.w3.org/1999/xlink" width="3300" height="2200">
 <!--glyph: "", point size: 100.0, font version: "18.0d9e1", template writer version: "84"-->
 <style>.multicolor-0:systemGreenColor {fill:#28CD41;opacity:0.5}
.multicolor-1:systemGreenColor {fill:#28CD41;-sfsymbols-clear-behind:true}

.hierarchical-0:secondary {fill:#4D4D4D}
.hierarchical-1:primary {fill:#212121;-sfsymbols-clear-behind:true}

.SFSymbolsPreview28CD41 {fill:#28CD41;opacity:1.0}
.SFSymbolsPreview93E6A0 {fill:#93E6A0;opacity:1.0}
</style>
 <g id="Notes">
  <rect height="2200" id="artboard" style="fill:white;opacity:1" width="3300" x="0" y="0"/>
  <line style="fill:none;stroke:black;opacity:1;stroke-width:0.5;" x1="263" x2="3036" y1="292" y2="292"/>
  <text style="stroke:none;fill:black;font-family:sans-serif;font-size:13;font-weight:bold;" transform="matrix(1 0 0 1 263 322)">Weight/Scale Variations</text>
  <text style="stroke:none;fill:black;font-family:sans-serif;font-size:13;text-anchor:middle;" transform="matrix(1 0 0 1 559.711 322)">Ultralight</text>
  <text style="stroke:none;fill:black;font-family:sans-serif;font-size:13;text-anchor:middle;" transform="matrix(1 0 0 1 856.422 322)">Thin</text>
  <text style="stroke:none;fill:black;font-family:sans-serif;font-size:13;text-anchor:middle;" transform="matrix(1 0 0 1 1153.13 322)">Light</text>
  <text style="stroke:none;fill:black;font-family:sans-serif;font-size:13;text-anchor:middle;" transform="matrix(1 0 0 1 1449.84 322)">Regular</text>
  <text style="stroke:none;fill:black;font-family:sans-serif;font-size:13;text-anchor:middle;" transform="matrix(1 0 0 1 1746.56 322)">Medium</text>
  <text style="stroke:none;fill:black;font-family:sans-serif;font-size:13;text-anchor:middle;" transform="matrix(1 0 0 1 2043.27 322)">Semibold</text>
  <text style="stroke:none;fill:black;font-family:sans-serif;font-size:13;text-anchor:middle;" transform="matrix(1 0 0 1 2339.98 322)">Bold</text>
  <text style="stroke:none;fill:black;font-family:sans-serif;font-size:13;text-anchor:middle;" transform="matrix(1 0 0 1 2636.69 322)">Heavy</text>
  <text style="stroke:none;fill:black;font-family:sans-serif;font-size:13;text-anchor:middle;" transform="matrix(1 0 0 1 2933.4 322)">Black</text>
  <line style="fill:none;stroke:black;opacity:1;stroke-width:0.5;" x1="263" x2="3036" y1="1903" y2="1903"/>
  <g transform="matrix(1 0 0 1 263 1933)">
   <path d="M9.24805 0.830078Q10.8691 0.830078 12.2949 0.214844Q13.7207-0.400391 14.8096-1.49414Q15.8984-2.58789 16.5186-4.01367Q17.1387-5.43945 17.1387-7.05078Q17.1387-8.66211 16.5186-10.0879Q15.8984-11.5137 14.8047-12.6074Q13.7109-13.7012 12.2852-14.3164Q10.8594-14.9316 9.23828-14.9316Q7.62695-14.9316 6.20117-14.3164Q4.77539-13.7012 3.69141-12.6074Q2.60742-11.5137 1.9873-10.0879Q1.36719-8.66211 1.36719-7.05078Q1.36719-5.43945 1.9873-4.01367Q2.60742-2.58789 3.69629-1.49414Q4.78516-0.400391 6.21094 0.214844Q7.63672 0.830078 9.24805 0.830078ZM9.24805-0.654297Q7.91992-0.654297 6.7627-1.14746Q5.60547-1.64062 4.73145-2.51953Q3.85742-3.39844 3.36426-4.56055Q2.87109-5.72266 2.87109-7.05078Q2.87109-8.37891 3.35938-9.54102Q3.84766-10.7031 4.72168-11.582Q5.5957-12.4609 6.75293-12.9541Q7.91016-13.4473 9.23828-13.4473Q10.5762-13.4473 11.7383-12.9541Q12.9004-12.4609 13.7793-11.582Q14.6582-10.7031 15.1514-9.54102Q15.6445-8.37891 15.6445-7.05078Q15.6445-5.72266 15.1514-4.56055Q14.6582-3.39844 13.7793-2.51953Q12.9004-1.64062 11.7432-1.14746Q10.5859-0.654297 9.24805-0.654297ZM5.6543-7.05078Q5.6543-6.72852 5.85938-6.52832Q6.06445-6.32812 6.40625-6.32812L8.51562-6.32812L8.51562-4.20898Q8.51562-3.88672 8.71094-3.67676Q8.90625-3.4668 9.23828-3.4668Q9.56055-3.4668 9.77051-3.67676Q9.98047-3.88672 9.98047-4.20898L9.98047-6.32812L12.0898-6.32812Q12.4219-6.32812 12.627-6.52832Q12.832-6.72852 12.832-7.05078Q12.832-7.38281 12.627-7.58789Q12.4219-7.79297 12.0898-7.79297L9.98047-7.79297L9.98047-9.90234Q9.98047-10.2344 9.77051-10.4443Q9.56055-10.6543 9.23828-10.6543Q8.90625-10.6543 8.71094-10.4443Q8.51562-10.2344 8.51562-9.90234L8.51562-7.79297L6.40625-7.79297Q6.06445-7.79297 5.85938-7.58789Q5.6543-7.38281 5.6543-7.05078Z"/>
  </g>
  <g transform="matrix(1 0 0 1 281.867 1933)">
   <path d="M11.709 2.91016Q13.75 2.91016 15.5518 2.12891Q17.3535 1.34766 18.7305-0.0292969Q20.1074-1.40625 20.8887-3.20801Q21.6699-5.00977 21.6699-7.05078Q21.6699-9.0918 20.8887-10.8936Q20.1074-12.6953 18.7305-14.0723Q17.3535-15.4492 15.5469-16.2305Q13.7402-17.0117 11.6992-17.0117Q9.6582-17.0117 7.85645-16.2305Q6.05469-15.4492 4.68262-14.0723Q3.31055-12.6953 2.5293-10.8936Q1.74805-9.0918 1.74805-7.05078Q1.74805-5.00977 2.5293-3.20801Q3.31055-1.40625 4.6875-0.0292969Q6.06445 1.34766 7.86621 2.12891Q9.66797 2.91016 11.709 2.91016ZM11.709 1.25Q9.98047 1.25 8.47656 0.605469Q6.97266-0.0390625 5.83496-1.17676Q4.69727-2.31445 4.05762-3.81836Q3.41797-5.32227 3.41797-7.05078Q3.41797-8.7793 4.05762-10.2832Q4.69727-11.7871 5.83008-12.9297Q6.96289-14.0723 8.4668-14.7119Q9.9707-15.3516 11.6992-15.3516Q13.4277-15.3516 14.9365-14.7119Q16.4453-14.0723 17.583-12.9297Q18.7207-11.7871 19.3652-10.2832Q20.0098-8.7793 20.0098-7.05078Q20.0098-5.32227 19.3701-3.81836Q18.7305-2.31445 17.5879-1.17676Q16.4453-0.0390625 14.9414 0.605469Q13.4375 1.25 11.709 1.25ZM7.17773-7.05078Q7.17773-6.69922 7.41211-6.47461Q7.64648-6.25 8.01758-6.25L10.8887-6.25L10.8887-3.36914Q10.8887-2.99805 11.1133-2.76855Q11.3379-2.53906 11.6895-2.53906Q12.0605-2.53906 12.29-2.76855Q12.5195-2.99805 12.5195-3.36914L12.5195-6.25L15.4004-6.25Q15.7715-6.25 16.001-6.47461Q16.2305-6.69922 16.2305-7.05078Q16.2305-7.42188 16.001-7.65137Q15.7715-7.88086 15.4004-7.88086L12.5195-7.88086L12.5195-10.752Q12.5195-11.1328 12.29-11.3623Q12.0605-11.5918 11.6895-11.5918Q11.3379-11.5918 11.1133-11.3574Q10.8887-11.123 10.8887-10.752L10.8887-7.88086L8.01758-7.88086Q7.63672-7.88086 7.40723-7.65137Q7.17773-7.42188 7.17773-7.05078Z"/>
  </g>
  <g transform="matrix(1 0 0 1 305.646 1933)">
   <path d="M14.9707 5.66406Q17.0605 5.66406 18.96 5.01465Q20.8594 4.36523 22.4512 3.19336Q24.043 2.02148 25.2197 0.429688Q26.3965-1.16211 27.0459-3.06641Q27.6953-4.9707 27.6953-7.05078Q27.6953-9.14062 27.0459-11.04Q26.3965-12.9395 25.2197-14.5312Q24.043-16.123 22.4512-17.2998Q20.8594-18.4766 18.9551-19.126Q17.0508-19.7754 14.9609-19.7754Q12.8711-19.7754 10.9717-19.126Q9.07227-18.4766 7.48535-17.2998Q5.89844-16.123 4.72168-14.5312Q3.54492-12.9395 2.90039-11.04Q2.25586-9.14062 2.25586-7.05078Q2.25586-4.9707 2.90527-3.06641Q3.55469-1.16211 4.72656 0.429688Q5.89844 2.02148 7.49023 3.19336Q9.08203 4.36523 10.9814 5.01465Q12.8809 5.66406 14.9707 5.66406ZM14.9707 3.84766Q13.1641 3.84766 11.5283 3.2959Q9.89258 2.74414 8.53516 1.74805Q7.17773 0.751953 6.17676-0.610352Q5.17578-1.97266 4.62891-3.6084Q4.08203-5.24414 4.08203-7.05078Q4.08203-8.86719 4.62891-10.5029Q5.17578-12.1387 6.17188-13.501Q7.16797-14.8633 8.52539-15.8594Q9.88281-16.8555 11.5186-17.4023Q13.1543-17.9492 14.9609-17.9492Q16.7773-17.9492 18.4131-17.4023Q20.0488-16.8555 21.4111-15.8594Q22.7734-14.8633 23.7744-13.501Q24.7754-12.1387 25.3223-10.5029Q25.8691-8.86719 25.8691-7.05078Q25.8691-5.24414 25.3223-3.6084Q24.7754-1.97266 23.7793-0.610352Q22.7832 0.751953 21.4209 1.74805Q20.0586 2.74414 18.4229 3.2959Q16.7871 3.84766 14.9707 3.84766ZM9.19922-7.05078Q9.19922-6.66992 9.45801-6.4209Q9.7168-6.17188 10.1172-6.17188L14.0625-6.17188L14.0625-2.2168Q14.0625-1.81641 14.3115-1.55762Q14.5605-1.29883 14.9512-1.29883Q15.3516-1.29883 15.6104-1.55273Q15.8691-1.80664 15.8691-2.2168L15.8691-6.17188L19.8242-6.17188Q20.2246-6.17188 20.4785-6.4209Q20.7324-6.66992 20.7324-7.05078Q20.7324-7.46094 20.4785-7.71484Q20.2246-7.96875 19.8242-7.96875L15.8691-7.96875L15.8691-11.9141Q15.8691-12.3242 15.6104-12.583Q15.3516-12.8418 14.9512-12.8418Q14.5605-12.8418 14.3115-12.583Q14.0625-12.3242 14.0625-11.9141L14.0625-7.96875L10.1172-7.96875Q9.70703-7.96875 9.45312-7.71484Q9.19922-7.46094 9.19922-7.05078Z"/>
  </g>
  <text style="stroke:none;fill:black;font-family:sans-serif;font-size:13;font-weight:bold;" transform="matrix(1 0 0 1 263 1953)">Design Variations</text>
  <text style="stroke:none;fill:black;font-family:sans-serif;font-size:13;" transform="matrix(1 0 0 1 263 1971)">Symbols are supported in up to nine weights and three scales.</text>
  <text style="stroke:none;fill:black;font-family:sans-serif;font-size:13;" transform="matrix(1 0 0 1 263 1989)">For optimal layout with text and other symbols, vertically align</text>
  <text style="stroke:none;fill:black;font-family:sans-serif;font-size:13;" transform="matrix(1 0 0 1 263 2007)">symbols with the adjacent text.</text>
  <line style="fill:none;stroke:#00AEEF;stroke-width:0.5;opacity:1.0;" x1="776" x2="776" y1="1919" y2="1933"/>
  <g transform="matrix(1 0 0 1 776 1933)">
   <path d="M3.31055 0.15625Q3.70117 0.15625 3.91602-0.00976562Q4.13086-0.175781 4.26758-0.585938L5.52734-4.0332L11.2891-4.0332L12.5488-0.585938Q12.6855-0.175781 12.9004-0.00976562Q13.1152 0.15625 13.4961 0.15625Q13.8867 0.15625 14.1162-0.0585938Q14.3457-0.273438 14.3457-0.644531Q14.3457-0.869141 14.2383-1.17188L9.6582-13.3691Q9.48242-13.8184 9.17969-14.043Q8.87695-14.2676 8.4082-14.2676Q7.5-14.2676 7.17773-13.3789L2.59766-1.16211Q2.49023-0.859375 2.49023-0.634766Q2.49023-0.263672 2.70996-0.0537109Q2.92969 0.15625 3.31055 0.15625ZM6.00586-5.51758L8.37891-12.0898L8.42773-12.0898L10.8008-5.51758Z"/>
  </g>
  <line style="fill:none;stroke:#00AEEF;stroke-width:0.5;opacity:1.0;" x1="793.197" x2="793.197" y1="1919" y2="1933"/>
  <text style="stroke:none;fill:black;font-family:sans-serif;font-size:13;font-weight:bold;" transform="matrix(1 0 0 1 776 1953)">Margins</text>
  <text style="stroke:none;fill:black;font-family:sans-serif;font-size:13;" transform="matrix(1 0 0 1 776 1971)">Leading and trailing margins on the left and right side of each symbol</text>
  <text style="stroke:none;fill:black;font-family:sans-serif;font-size:13;" transform="matrix(1 0 0 1 776 1989)">can be adjusted by modifying the x-location of the margin guidelines.</text>
  <text style="stroke:none;fill:black;font-family:sans-serif;font-size:13;" transform="matrix(1 0 0 1 776 2007)">Modifications are automatically applied proportionally to all</text>
  <text style="stroke:none;fill:black;font-family:sans-serif;font-size:13;" transform="matrix(1 0 0 1 776 2025)">scales and weights.</text>
  <g transform="matrix(1 0 0 1 1289 1933)">
   <path d="M2.8418 1.86523L4.54102 3.57422Q5.18555 4.22852 5.90332 4.17969Q6.62109 4.13086 7.31445 3.35938L18.0078-8.42773L17.041-9.4043L6.42578 2.27539Q6.16211 2.57812 5.89355 2.61719Q5.625 2.65625 5.27344 2.30469L4.10156 1.14258Q3.75 0.791016 3.79395 0.522461Q3.83789 0.253906 4.14062-0.0195312L15.6152-10.8203L14.6387-11.7871L3.04688-0.898438Q2.30469-0.214844 2.25098 0.498047Q2.19727 1.21094 2.8418 1.86523ZM9.25781-16.3281Q8.94531-16.0254 8.90625-15.6348Q8.86719-15.2441 9.04297-14.9512Q9.21875-14.6777 9.55566-14.541Q9.89258-14.4043 10.3809-14.5215Q11.4746-14.7754 12.5977-14.7314Q13.7207-14.6875 14.7949-13.9844L14.209-12.5293Q13.9551-11.9043 14.0674-11.4404Q14.1797-10.9766 14.5801-10.5664L16.875-8.25195Q17.2363-7.88086 17.5781-7.82227Q17.9199-7.76367 18.3398-7.8418L19.4043-8.03711L20.0684-7.36328L20.0293-6.80664Q20-6.43555 20.1221-6.12305Q20.2441-5.81055 20.6055-5.44922L21.3672-4.70703Q21.7285-4.3457 22.1533-4.33105Q22.5781-4.31641 22.9297-4.66797L25.8398-7.58789Q26.1914-7.93945 26.1816-8.35449Q26.1719-8.76953 25.8105-9.13086L25.0391-9.89258Q24.6875-10.2539 24.3799-10.3857Q24.0723-10.5176 23.7109-10.4883L23.1348-10.4395L22.4902-11.0742L22.7344-12.1973Q22.832-12.6172 22.6953-12.9834Q22.5586-13.3496 22.1191-13.7891L19.9219-15.9766Q18.6719-17.2168 17.2607-17.8369Q15.8496-18.457 14.4189-18.4814Q12.9883-18.5059 11.665-17.959Q10.3418-17.4121 9.25781-16.3281ZM10.752-15.957Q11.6602-16.6211 12.7002-16.9043Q13.7402-17.1875 14.8047-17.085Q15.8691-16.9824 16.8701-16.5137Q17.8711-16.0449 18.7012-15.2051L21.1328-12.793Q21.3086-12.6172 21.3525-12.4512Q21.3965-12.2852 21.3379-12.0312L21.0156-10.5469L22.5195-9.0625L23.5059-9.12109Q23.6914-9.13086 23.7891-9.09668Q23.8867-9.0625 24.0332-8.91602L24.6094-8.33984L22.168-5.89844L21.5918-6.47461Q21.4453-6.62109 21.4062-6.71875Q21.3672-6.81641 21.377-7.01172L21.4453-7.98828L19.9512-9.47266L18.4277-9.21875Q18.1836-9.16992 18.042-9.2041Q17.9004-9.23828 17.7148-9.41406L15.7129-11.416Q15.5176-11.5918 15.4932-11.7529Q15.4688-11.9141 15.5859-12.1875L16.4648-14.2773Q15.293-15.3711 13.8281-15.791Q12.3633-16.2109 10.8398-15.7617Q10.7227-15.7324 10.6885-15.8057Q10.6543-15.8789 10.752-15.957Z"/>
  </g>
  <text style="stroke:none;fill:black;font-family:sans-serif;font-size:13;font-weight:bold;" transform="matrix(1 0 0 1 1289 1953)">Exporting</text>
  <text style="stroke:none;fill:black;font-family:sans-serif;font-size:13;" transform="matrix(1 0 0 1 1289 1971)">Symbols should be outlined when exporting to ensure the</text>
  <text style="stroke:none;fill:black;font-family:sans-serif;font-size:13;" transform="matrix(1 0 0 1 1289 1989)">design is preserved when submitting to Xcode.</text>
  <text id="template-version" style="stroke:none;fill:black;font-family:sans-serif;font-size:13;text-anchor:end;" transform="matrix(1 0 0 1 3036 1933)">Template v.3.0</text>
  <text style="stroke:none;fill:black;font-family:sans-serif;font-size:13;text-anchor:end;" transform="matrix(1 0 0 1 3036 1951)">Requires Xcode 13 or greater</text>
  <text id="descriptive-name" style="stroke:none;fill:black;font-family:sans-serif;font-size:13;text-anchor:end;" transform="matrix(1 0 0 1 3036 1969)">Generated from leaf.weekleat</text>
  <text style="stroke:none;fill:black;font-family:sans-serif;font-size:13;text-anchor:end;" transform="matrix(1 0 0 1 3036 1987)">Typeset at 100 points</text>
  <text style="stroke:none;fill:black;font-family:sans-serif;font-size:13;" transform="matrix(1 0 0 1 263 726)">Small</text>
  <text style="stroke:none;fill:black;font-family:sans-serif;font-size:13;" transform="matrix(1 0 0 1 263 1156)">Medium</text>
  <text style="stroke:none;fill:black;font-family:sans-serif;font-size:13;" transform="matrix(1 0 0 1 263 1586)">Large</text>
 </g>
 <g id="Guides">
  <g id="H-reference" style="fill:#27AAE1;stroke:none;" transform="matrix(1 0 0 1 339 696)">
   <path d="M0.993347 0L3.6377 0L29.3282-67.1326L30.0301-67.1326L30.0301-70.459L28.1227-70.459ZM11.6882-24.4797L46.9818-24.4797L46.2311-26.7288L12.4382-26.7288ZM55.1193 0L57.7637 0L30.6381-70.459L29.4327-70.459L29.4327-67.1326Z"/>
  </g>
  <line id="Baseline-S" style="fill:none;stroke:#27AAE1;opacity:1;stroke-width:0.5;" x1="263" x2="3036" y1="696" y2="696"/>
  <line id="Capline-S" style="fill:none;stroke:#27AAE1;opacity:1;stroke-width:0.5;" x1="263" x2="3036" y1="625.541" y2="625.541"/>
  <g id="H-reference" style="fill:#27AAE1;stroke:none;" transform="matrix(1 0 0 1 339 1126)">
   <path d="M0.993347 0L3.6377 0L29.3282-67.1326L30.0301-67.1326L30.0301-70.459L28.1227-70.459ZM11.6882-24.4797L46.9818-24.4797L46.2311-26.7288L12.4382-26.7288ZM55.1193 0L57.7637 0L30.6381-70.459L29.4327-70.459L29.4327-67.1326Z"/>
  </g>
  <line id="Baseline-M" style="fill:none;stroke:#27AAE1;opacity:1;stroke-width:0.5;" x1="263" x2="3036" y1="1126" y2="1126"/>
  <line id="Capline-M" style="fill:none;stroke:#27AAE1;opacity:1;stroke-width:0.5;" x1="263" x2="3036" y1="1055.54" y2="1055.54"/>
  <g id="H-reference" style="fill:#27AAE1;stroke:none;" transform="matrix(1 0 0 1 339 1556)">
   <path d="M0.993347 0L3.6377 0L29.3282-67.1326L30.0301-67.1326L30.0301-70.459L28.1227-70.459ZM11.6882-24.4797L46.9818-24.4797L46.2311-26.7288L12.4382-26.7288ZM55.1193 0L57.7637 0L30.6381-70.459L29.4327-70.459L29.4327-67.1326Z"/>
  </g>
  <line id="Baseline-L" style="fill:none;stroke:#27AAE1;opacity:1;stroke-width:0.5;" x1="263" x2="3036" y1="1556" y2="1556"/>
  <line id="Capline-L" style="fill:none;stroke:#27AAE1;opacity:1;stroke-width:0.5;" x1="263" x2="3036" y1="1485.54" y2="1485.54"/>
  <line id="left-margin-Ultralight-S" style="fill:none;stroke:#00AEEF;stroke-width:0.5;opacity:1.0;" x1="509.218" x2="509.218" y1="600.784" y2="720.121"/>
  <line id="right-margin-Ultralight-S" style="fill:none;stroke:#00AEEF;stroke-width:0.5;opacity:1.0;" x1="610.204" x2="610.204" y1="600.784" y2="720.121"/>
  <line id="left-margin-Regular-S" style="fill:none;stroke:#00AEEF;stroke-width:0.5;opacity:1.0;" x1="1399.33" x2="1399.33" y1="600.784" y2="720.121"/>
  <line id="right-margin-Regular-S" style="fill:none;stroke:#00AEEF;stroke-width:0.5;opacity:1.0;" x1="1500.36" x2="1500.36" y1="600.784" y2="720.121"/>
  <line id="left-margin-Black-S" style="fill:none;stroke:#00AEEF;stroke-width:0.5;opacity:1.0;" x1="2882.97" x2="2882.97" y1="600.784" y2="720.121"/>
  <line id="right-margin-Black-S" style="fill:none;stroke:#00AEEF;stroke-width:0.5;opacity:1.0;" x1="2983.83" x2="2983.83" y1="600.784" y2="720.121"/>
 </g>
 <g id="Symbols">
  <g id="Black-S" transform="matrix(1 0 0 1 2882.97 696)">
   <path class="multicolor-0:systemGreenColor hierarchical-0:secondary SFSymbolsPreview93E6A0" d="M10.521-66.8522C10.129-64.9302 9.844-62.8232 9.666-60.5292C9.489-58.2352 9.401-56.2442 9.401-54.5562C9.401-47.4672 10.41-41.0402 12.429-35.2742C14.449-29.5082 17.326-24.5532 21.06-20.4092C24.795-16.2642 29.283-13.0752 34.523-10.8402C39.764-8.60518 45.603-7.48818 52.039-7.48818C56.214-7.48818 59.847-7.99618 62.938-9.01118C66.028-10.0272 68.631-11.2762 70.745-12.7592C72.859-14.2432 74.524-15.6912 75.741-17.1042C76.958-18.5172 77.779-19.6182 78.206-20.4082L73.486-20.5402C75.121-18.8142 76.499-17.0202 77.623-15.1602C78.746-13.3002 79.731-11.2922 80.578-9.13518C81.425-6.97818 82.268-4.58718 83.108-1.96118C83.393-1.06818 83.822-0.438177 84.394-0.0721767C84.967 0.293823 85.584 0.475823 86.245 0.475823C87.644 0.475823 88.839-0.0651767 89.83-1.14518C90.823-2.22618 93.677-4.49718 93.677-7.47918C93.677-8.79218 93.272-10.2832 92.46-11.9532C91.648-13.6242 88.271-13.1342 87.048-14.8572C85.825-16.5812 84.569-18.1832 83.278-19.6622C81.987-21.1422 79.866-23.2682 79.866-23.2682C79.866-23.2682 82.018-26.4722 82.903-31.2892C83.004-31.8322 83.073-32.5122 83.122-33.3272C83.17-34.1422 83.194-34.9722 83.194-35.8182C83.194-41.9972 81.868-47.1102 79.217-51.1562C76.566-55.2032 72.904-58.2302 68.231-60.2392C63.557-62.2472 58.203-63.2512 52.168-63.2512C49.136-63.2512 45.957-62.9992 42.631-62.4942C39.307-61.9892 36.254-61.7382 33.473-61.7382C31.438-61.7382 29.346-61.8602 27.199-62.1052C25.052-62.3512 22.94-62.9202 20.864-63.8142C18.788-64.7072 16.839-66.1302 15.017-68.0832C14.248-68.8782 13.384-69.2002 12.422-69.0472C11.461-68.8932 10.827-68.1622 10.521-66.8522Z"/>
   <path class="multicolor-1:systemGreenColor hierarchical-1:primary SFSymbolsPreview28CD41" d="M8.398-54.7102C8.398-47.4672 9.436-40.9052 11.514-35.0242C13.592-29.1432 16.561-24.0932 20.422-19.8712C24.282-15.6502 28.921-12.4102 34.337-10.1502C39.752-7.89118 45.784-6.76118 52.432-6.76118C58.662-6.76118 64.168-8.00018 68.947-10.4762C73.727-12.9532 77.476-16.3732 80.195-20.7372C82.913-25.1012 84.273-30.1172 84.273-35.7862C84.273-41.2292 82.912-46.0732 80.191-50.3192C77.469-54.5652 73.721-57.8922 68.947-60.3032C64.173-62.7132 58.718-63.9192 52.581-63.9192C49.433-63.9192 46.233-63.6212 42.979-63.0262C39.726-62.4332 36.321-62.1352 32.766-62.1352C29.78-62.1352 27.002-62.6422 24.43-63.6552C21.859-64.6682 19.497-66.3872 17.345-68.8092C16.603-69.6992 15.688-70.2812 14.599-70.5522C13.511-70.8252 12.491-70.7092 11.54-70.2072C10.589-69.7032 9.936-68.7012 9.578-67.2012C9.253-65.9572 9.009-64.4922 8.843-62.8052C8.679-61.1182 8.562-59.5212 8.496-58.0132C8.43-56.5052 8.398-55.4042 8.398-54.7102ZM16.691-51.6052C16.691-52.9022 16.712-54.2242 16.753-55.5712C16.795-56.9182 16.89-58.1132 17.04-59.1542C17.128-59.6622 17.365-59.7342 17.752-59.3692C19.95-57.3792 22.625-55.8532 25.777-54.7902C28.928-53.7282 30.185-54.0072 33.306-54.0072C35.402-54.0072 37.403-54.1142 39.307-54.3292C41.212-54.5442 43.022-54.7662 44.74-54.9982C46.287-55.2012 47.745-55.3842 49.116-55.5472C50.487-55.7092 51.822-55.7912 53.121-55.7912C58.176-55.7912 62.142-55.1212 66.022-53.2052C69.9-51.2902 72.628-49.1302 74.829-45.7832C76.049-43.9272 76.763-38.7772 76.763-37.4272C76.763-32.8562 75.499-28.6152 73.312-25.1352C71.126-21.6552 68.087-18.9332 64.194-16.9672C61.804-15.7602 56.972-14.4652 54.294-14.4652C46.521-14.4652 39.771-16.1912 34.046-19.6432C28.321-23.0952 23.904-27.9732 20.795-34.2772C17.688-40.5802 16.691-44.5782 16.691-51.6052ZM31.101-45.6782C31.893-43.1542 33.202-41.0872 35.029-39.4782C36.855-37.8682 39.047-36.5482 41.604-35.5192C44.162-34.4882 46.971-33.5992 50.031-32.8492C53.331-32.0562 56.223-31.2782 58.707-30.5132C61.191-29.7472 63.366-28.9062 65.235-27.9892C67.104-27.0722 67.712-26.5072 69.198-25.3032C70.685-24.0992 72.198-22.2082 73.531-20.5662C75.686-17.9042 77.882-14.8652 79.139-11.7552C80.576-8.20418 81.798-5.14318 82.992-1.31118C83.289-0.398177 83.731 0.245823 84.317 0.620823C84.903 0.994823 85.535 1.18182 86.211 1.18182C87.642 1.18182 90.096 0.591823 91.36-0.273177C92.982-1.38418 93.977-3.34418 93.762-6.90718C93.655-8.68318 93.195-10.7952 92.06-13.2362C90.926-15.6782 89.565-18.1312 87.977-20.5962C86.389-23.0612 84.184-25.0332 82.826-26.9082C80.198-30.3632 76.587-33.1352 71.992-35.2232C67.398-37.3122 61.528-38.9372 54.384-40.0982C50.69-40.7172 47.263-41.6422 44.104-42.8772C40.945-44.1102 38.26-46.1922 36.047-49.1252C35.635-49.6812 35.01-50.1452 34.061-50.1972C33.003-50.2542 31.694-49.4312 31.149-47.7752C30.981-47.2662 30.919-46.2662 31.101-45.6782Z"/>
  </g>
  <g id="Regular-S" transform="matrix(1 0 0 1 1399.33 696)">
   <path class="multicolor-0:systemGreenColor hierarchical-0:secondary SFSymbolsPreview93E6A0" d="M10.521-66.8522C10.129-64.9302 9.844-62.8232 9.666-60.5292C9.489-58.2352 9.401-56.2442 9.401-54.5562C9.401-47.4672 10.41-41.0402 12.429-35.2742C14.449-29.5082 17.326-24.5532 21.06-20.4092C24.795-16.2642 29.283-13.0752 34.523-10.8402C39.764-8.60518 45.603-7.48818 52.039-7.48818C56.214-7.48818 59.847-7.99618 62.938-9.01118C66.028-10.0272 68.631-11.2762 70.745-12.7592C72.859-14.2432 74.524-15.6912 75.741-17.1042C76.958-18.5172 77.779-19.6182 78.206-20.4082L73.486-20.5402C75.121-18.8142 76.499-17.0202 77.623-15.1602C78.746-13.3002 79.731-11.2922 80.578-9.13518C81.425-6.97818 82.268-4.58718 83.108-1.96118C83.393-1.06818 83.822-0.438177 84.394-0.0721767C84.967 0.293823 85.584 0.475823 86.245 0.475823C87.644 0.475823 88.839-0.0651767 89.83-1.14518C90.823-2.22618 91.318-3.60918 91.318-5.29218C91.318-6.60518 90.913-8.09618 90.101-9.76618C89.289-11.4372 88.271-13.1342 87.048-14.8572C85.825-16.5812 84.569-18.1832 83.278-19.6622C81.987-21.1422 79.866-23.2682 79.866-23.2682C79.866-23.2682 82.018-26.4722 82.903-31.2892C83.004-31.8322 83.073-32.5122 83.122-33.3272C83.17-34.1422 83.194-34.9722 83.194-35.8182C83.194-41.9972 81.868-47.1102 79.217-51.1562C76.566-55.2032 72.904-58.2302 68.231-60.2392C63.557-62.2472 58.203-63.2512 52.168-63.2512C49.136-63.2512 45.957-62.9992 42.631-62.4942C39.307-61.9892 36.254-61.7382 33.473-61.7382C31.438-61.7382 29.346-61.8602 27.199-62.1052C25.052-62.3512 22.94-62.9202 20.864-63.8142C18.788-64.7072 16.839-66.1302 15.017-68.0832C14.248-68.8782 13.384-69.2002 12.422-69.0472C11.461-68.8932 10.827-68.1622 10.521-66.8522Z"/>
   <path class="multicolor-1:systemGreenColor hierarchical-1:primary SFSymbolsPreview28CD41" d="M8.398-54.7102C8.398-47.4672 9.436-40.9052 11.514-35.0242C13.592-29.1432 16.561-24.0932 20.422-19.8712C24.282-15.6502 28.921-12.4102 34.337-10.1502C39.752-7.89118 45.784-6.76118 52.432-6.76118C58.662-6.76118 64.168-8.00018 68.947-10.4762C73.727-12.9532 77.476-16.3732 80.195-20.7372C82.913-25.1012 84.273-30.1172 84.273-35.7862C84.273-41.2292 82.912-46.0732 80.191-50.3192C77.469-54.5652 73.721-57.8922 68.947-60.3032C64.173-62.7132 58.718-63.9192 52.581-63.9192C49.433-63.9192 46.233-63.6212 42.979-63.0262C39.726-62.4332 36.321-62.1352 32.766-62.1352C29.78-62.1352 27.002-62.6422 24.43-63.6552C21.859-64.6682 19.497-66.3872 17.345-68.8092C16.603-69.6992 15.688-70.2812 14.599-70.5522C13.511-70.8252 12.491-70.7092 11.54-70.2072C10.589-69.7032 9.936-68.7012 9.578-67.2012C9.253-65.9572 9.009-64.4922 8.843-62.8052C8.679-61.1182 8.562-59.5212 8.496-58.0132C8.43-56.5052 8.398-55.4042 8.398-54.7102ZM14.272-54.7102C14.272-56.0072 14.293-57.3292 14.334-58.6762C14.376-60.0232 14.471-61.2182 14.621-62.2592C14.709-62.7672 14.946-62.8392 15.333-62.4742C17.531-60.4842 20.206-58.9582 23.358-57.8952C26.509-56.8332 29.645-56.3022 32.766-56.3022C34.862-56.3022 36.863-56.4092 38.767-56.6242C40.672-56.8392 42.482-57.0612 44.2-57.2932C45.747-57.4962 47.205-57.6792 48.576-57.8422C49.947-58.0042 51.282-58.0862 52.581-58.0862C57.636-58.0862 62.102-57.1272 65.982-55.2112C69.86-53.2962 72.899-50.6632 75.099-47.3152C77.299-43.9682 78.398-40.1242 78.398-35.7862C78.398-31.2152 77.306-27.1912 75.119-23.7112C72.933-20.2312 69.894-17.5082 66.001-15.5432C62.109-13.5772 57.587-12.5942 52.432-12.5942C44.659-12.5942 37.909-14.3202 32.184-17.7722C26.459-21.2242 22.042-26.1022 18.933-32.4062C15.826-38.7092 14.272-46.1442 14.272-54.7102ZM31.101-45.6782C31.893-43.1542 33.202-41.0872 35.029-39.4782C36.855-37.8682 39.047-36.5482 41.604-35.5192C44.162-34.4882 46.971-33.5992 50.031-32.8492C53.331-32.0562 56.223-31.2782 58.707-30.5132C61.191-29.7472 63.366-28.9062 65.235-27.9892C67.104-27.0722 67.712-26.5072 69.198-25.3032C70.685-24.0992 72.198-22.2082 73.531-20.5662C75.686-17.9042 77.882-14.8652 79.139-11.7552C80.576-8.20418 81.798-5.14318 82.992-1.31118C83.289-0.398177 83.731 0.245823 84.317 0.620823C84.903 0.994823 85.535 1.18182 86.211 1.18182C87.642 1.18182 88.865 0.607823 89.88-0.539177C90.896-1.68718 91.403-3.08018 91.403-4.72018C91.403-6.49918 90.836-8.60818 89.701-11.0492C88.567-13.4912 87.206-15.9442 85.618-18.4092C84.03-20.8742 81.825-22.8462 80.467-24.7212C77.839-28.1762 74.228-30.9482 69.633-33.0362C65.039-35.1252 59.169-36.7502 52.025-37.9112C48.331-38.5302 44.904-39.4552 41.745-40.6902C38.586-41.9232 35.901-44.0052 33.688-46.9382C33.276-47.4942 32.828-47.7652 32.345-47.7542C31.862-47.7432 31.488-47.5412 31.225-47.1482C30.961-46.7562 30.919-46.2662 31.101-45.6782Z"/>
  </g>
  <g id="Ultralight-S" transform="matrix(1 0 0 1 509.218 696)">
   <path class="multicolor-0:systemGreenColor hierarchical-0:secondary SFSymbolsPreview93E6A0" d="M10.521-66.8522C10.129-64.9302 9.844-62.8232 9.666-60.5292C9.489-58.2352 9.401-56.2442 9.401-54.5562C9.401-47.4672 10.41-41.0402 12.429-35.2742C14.449-29.5082 17.326-24.5532 21.06-20.4092C24.795-16.2642 29.283-13.0752 34.523-10.8402C39.764-8.60518 45.603-7.48818 52.039-7.48818C56.214-7.48818 59.847-7.99618 62.938-9.01118C66.028-10.0272 68.631-11.2762 70.745-12.7592C72.859-14.2432 74.524-15.6912 75.741-17.1042C76.958-18.5172 77.779-19.6182 78.206-20.4082L74.308-21.2912C75.943-19.5652 77.249-18.6712 78.373-16.8112C79.496-14.9512 80.941-13.2792 81.788-11.1222C82.635-8.96518 83.571-7.71018 84.411-5.08418C84.696-4.19118 84.522-2.72118 84.995-2.23318C85.468-1.74618 85.434-1.57718 86.095-1.57718C87.494-1.57718 86.568-0.502177 86.698-0.633177C87.008-0.942177 87.232-0.928177 87.232-2.61118C87.232-3.92418 86.827-5.41518 86.015-7.08518C85.203-8.75618 84.298-10.5472 83.075-12.2702C81.852-13.9942 80.596-15.5962 79.305-17.0752C78.014-18.5552 77.266-21.4862 77.266-21.4862C77.266-21.4862 82.018-26.4722 82.903-31.2892C83.004-31.8322 83.073-32.5122 83.122-33.3272C83.17-34.1422 83.194-34.9722 83.194-35.8182C83.194-41.9972 81.868-47.1102 79.217-51.1562C76.566-55.2032 72.904-58.2302 68.231-60.2392C63.557-62.2472 58.203-63.2512 52.168-63.2512C49.136-63.2512 45.957-62.9992 42.631-62.4942C39.307-61.9892 36.254-61.7382 33.473-61.7382C31.438-61.7382 29.346-61.8602 27.199-62.1052C25.052-62.3512 22.94-62.9202 20.864-63.8142C18.788-64.7072 16.839-66.1302 15.017-68.0832C14.248-68.8782 13.384-69.2002 12.422-69.0472C11.461-68.8932 10.827-68.1622 10.521-66.8522Z"/>
   <path class="multicolor-1:systemGreenColor hierarchical-1:primary SFSymbolsPreview28CD41" d="M8.398-54.7102C8.398-47.4672 9.436-40.9052 11.514-35.0242C13.592-29.1432 16.561-24.0932 20.422-19.8712C24.282-15.6502 28.921-12.4102 34.337-10.1502C39.752-7.89118 45.784-6.76118 52.432-6.76118C58.662-6.76118 64.168-8.00018 68.947-10.4762C73.727-12.9532 77.476-16.3732 80.195-20.7372C82.913-25.1012 84.273-30.1172 84.273-35.7862C84.273-41.2292 82.912-46.0732 80.191-50.3192C77.469-54.5652 73.721-57.8922 68.947-60.3032C64.173-62.7132 58.718-63.9192 52.581-63.9192C49.433-63.9192 46.233-63.6212 42.979-63.0262C39.726-62.4332 36.321-62.1352 32.766-62.1352C29.78-62.1352 27.002-62.6422 24.43-63.6552C21.859-64.6682 19.497-66.3872 17.345-68.8092C16.603-69.6992 15.688-70.2812 14.599-70.5522C13.511-70.8252 12.491-70.7092 11.54-70.2072C10.589-69.7032 9.936-68.7012 9.578-67.2012C9.253-65.9572 9.009-64.4922 8.843-62.8052C8.679-61.1182 8.562-59.5212 8.496-58.0132C8.43-56.5052 8.398-55.4042 8.398-54.7102ZM10.847-56.4112C10.847-57.7082 11.07-60.7752 11.111-62.1222C11.153-63.4692 11.51-65.5422 11.7-66.5772C11.879-67.5482 13.292-68.2742 14.127-67.5982C16.43-65.7302 19.252-62.9662 22.342-61.7362C25.467-60.4922 29.44-59.5972 32.557-59.4272C34.639-59.3132 36.817-59.4162 38.721-59.6312C40.626-59.8462 42.292-60.1022 43.998-60.4142C45.728-60.7302 47.092-61.2392 48.397-61.3612C49.771-61.4892 51.752-61.8402 53.051-61.8402C58.106-61.8402 63.448-60.6932 67.328-58.7772C71.206-56.8622 75.202-53.0922 77.402-49.7442C79.602-46.3972 81.868-41.1882 81.698-36.8532C81.439-30.2402 79.889-25.4482 77.702-21.9682C75.516-18.4882 71.365-14.7312 67.472-12.7662C63.58-10.8002 57.982-9.52718 52.834-9.25618C44.394-8.81218 36.105-11.2762 30.38-14.7282C24.655-18.1802 19.166-25.0282 16.057-31.3322C12.95-37.6352 10.847-47.8452 10.847-56.4112ZM30.971-45.5012C31.763-42.9772 33.346-41.2842 35.173-39.6752C36.999-38.0652 39.265-36.7952 41.822-35.7662C44.38-34.7352 46.971-33.5992 50.031-32.8492C53.331-32.0562 56.381-31.4302 59.223-30.9102C61.78-30.4422 64.176-29.0922 66.045-28.1752C67.914-27.2582 68.414-26.7582 69.9-25.5542C71.387-24.3502 73.02-22.9592 74.353-21.3172C76.508-18.6552 78.386-16.4222 80.076-13.5242C81.918-10.3632 83.101-8.26618 84.295-4.43418C84.592-3.52118 84.88-2.14218 85.013-1.45918C85.145-0.778177 85.251-0.490177 85.897-0.291177C86.334-0.156177 86.764-0.280177 86.855-0.371177C87.242-0.758177 87.515-0.755177 87.455-2.27018C87.388-3.98318 86.75-5.92718 85.615-8.36818C84.481-10.8102 83.233-13.3572 81.645-15.8222C80.057-18.2872 78.463-20.1282 77.105-22.0032C74.477-25.4582 70.409-28.6842 66.01-31.0692C61.574-33.4742 55.997-33.7322 49.209-35.8022C45.626-36.8942 42.949-37.8362 40.05-39.4432C37.084-41.0872 34.395-43.7792 33.174-46.6462C32.903-47.2832 32.386-47.4452 31.903-47.4342C31.769-47.4312 31.27-47.1942 31.225-47.1482C30.848-46.7722 30.789-46.0892 30.971-45.5012Z"/>
  </g>
 </g>
</svg>
