<?xml version="1.0" encoding="UTF-8"?>
<!--Generator: Apple Native CoreSVG 175.5-->
<!DOCTYPE svg
PUBLIC "-//W3C//DTD SVG 1.1//EN"
       "http://www.w3.org/Graphics/SVG/1.1/DTD/svg11.dtd">
<svg version="1.1" xmlns="http://www.w3.org/2000/svg" xmlns:xlink="http://www.w3.org/1999/xlink" width="3300" height="2200">
 <!--glyph: "uni101425.medium", point size: 100.0, font version: "18.0d9e1", template writer version: "84"-->
 <g id="Notes">
  <rect height="2200" id="artboard" style="fill:white;opacity:1" width="3300" x="0" y="0"/>
  <line style="fill:none;stroke:black;opacity:1;stroke-width:0.5;" x1="263" x2="3036" y1="292" y2="292"/>
  <text style="stroke:none;fill:black;font-family:sans-serif;font-size:13;font-weight:bold;" transform="matrix(1 0 0 1 263 322)">Weight/Scale Variations</text>
  <text style="stroke:none;fill:black;font-family:sans-serif;font-size:13;text-anchor:middle;" transform="matrix(1 0 0 1 559.711 322)">Ultralight</text>
  <text style="stroke:none;fill:black;font-family:sans-serif;font-size:13;text-anchor:middle;" transform="matrix(1 0 0 1 856.422 322)">Thin</text>
  <text style="stroke:none;fill:black;font-family:sans-serif;font-size:13;text-anchor:middle;" transform="matrix(1 0 0 1 1153.13 322)">Light</text>
  <text style="stroke:none;fill:black;font-family:sans-serif;font-size:13;text-anchor:middle;" transform="matrix(1 0 0 1 1449.84 322)">Regular</text>
  <text style="stroke:none;fill:black;font-family:sans-serif;font-size:13;text-anchor:middle;" transform="matrix(1 0 0 1 1746.56 322)">Medium</text>
  <text style="stroke:none;fill:black;font-family:sans-serif;font-size:13;text-anchor:middle;" transform="matrix(1 0 0 1 2043.27 322)">Semibold</text>
  <text style="stroke:none;fill:black;font-family:sans-serif;font-size:13;text-anchor:middle;" transform="matrix(1 0 0 1 2339.98 322)">Bold</text>
  <text style="stroke:none;fill:black;font-family:sans-serif;font-size:13;text-anchor:middle;" transform="matrix(1 0 0 1 2636.69 322)">Heavy</text>
  <text style="stroke:none;fill:black;font-family:sans-serif;font-size:13;text-anchor:middle;" transform="matrix(1 0 0 1 2933.4 322)">Black</text>
  <line style="fill:none;stroke:black;opacity:1;stroke-width:0.5;" x1="263" x2="3036" y1="1903" y2="1903"/>
  <g transform="matrix(1 0 0 1 263 1933)">
   <path d="M9.24805 0.830078Q10.8691 0.830078 12.2949 0.214844Q13.7207-0.400391 14.8096-1.49414Q15.8984-2.58789 16.5186-4.01367Q17.1387-5.43945 17.1387-7.05078Q17.1387-8.66211 16.5186-10.0879Q15.8984-11.5137 14.8047-12.6074Q13.7109-13.7012 12.2852-14.3164Q10.8594-14.9316 9.23828-14.9316Q7.62695-14.9316 6.20117-14.3164Q4.77539-13.7012 3.69141-12.6074Q2.60742-11.5137 1.9873-10.0879Q1.36719-8.66211 1.36719-7.05078Q1.36719-5.43945 1.9873-4.01367Q2.60742-2.58789 3.69629-1.49414Q4.78516-0.400391 6.21094 0.214844Q7.63672 0.830078 9.24805 0.830078ZM9.24805-0.654297Q7.91992-0.654297 6.7627-1.14746Q5.60547-1.64062 4.73145-2.51953Q3.85742-3.39844 3.36426-4.56055Q2.87109-5.72266 2.87109-7.05078Q2.87109-8.37891 3.35938-9.54102Q3.84766-10.7031 4.72168-11.582Q5.5957-12.4609 6.75293-12.9541Q7.91016-13.4473 9.23828-13.4473Q10.5762-13.4473 11.7383-12.9541Q12.9004-12.4609 13.7793-11.582Q14.6582-10.7031 15.1514-9.54102Q15.6445-8.37891 15.6445-7.05078Q15.6445-5.72266 15.1514-4.56055Q14.6582-3.39844 13.7793-2.51953Q12.9004-1.64062 11.7432-1.14746Q10.5859-0.654297 9.24805-0.654297ZM5.6543-7.05078Q5.6543-6.72852 5.85938-6.52832Q6.06445-6.32812 6.40625-6.32812L8.51562-6.32812L8.51562-4.20898Q8.51562-3.88672 8.71094-3.67676Q8.90625-3.4668 9.23828-3.4668Q9.56055-3.4668 9.77051-3.67676Q9.98047-3.88672 9.98047-4.20898L9.98047-6.32812L12.0898-6.32812Q12.4219-6.32812 12.627-6.52832Q12.832-6.72852 12.832-7.05078Q12.832-7.38281 12.627-7.58789Q12.4219-7.79297 12.0898-7.79297L9.98047-7.79297L9.98047-9.90234Q9.98047-10.2344 9.77051-10.4443Q9.56055-10.6543 9.23828-10.6543Q8.90625-10.6543 8.71094-10.4443Q8.51562-10.2344 8.51562-9.90234L8.51562-7.79297L6.40625-7.79297Q6.06445-7.79297 5.85938-7.58789Q5.6543-7.38281 5.6543-7.05078Z"/>
  </g>
  <g transform="matrix(1 0 0 1 281.867 1933)">
   <path d="M11.709 2.91016Q13.75 2.91016 15.5518 2.12891Q17.3535 1.34766 18.7305-0.0292969Q20.1074-1.40625 20.8887-3.20801Q21.6699-5.00977 21.6699-7.05078Q21.6699-9.0918 20.8887-10.8936Q20.1074-12.6953 18.7305-14.0723Q17.3535-15.4492 15.5469-16.2305Q13.7402-17.0117 11.6992-17.0117Q9.6582-17.0117 7.85645-16.2305Q6.05469-15.4492 4.68262-14.0723Q3.31055-12.6953 2.5293-10.8936Q1.74805-9.0918 1.74805-7.05078Q1.74805-5.00977 2.5293-3.20801Q3.31055-1.40625 4.6875-0.0292969Q6.06445 1.34766 7.86621 2.12891Q9.66797 2.91016 11.709 2.91016ZM11.709 1.25Q9.98047 1.25 8.47656 0.605469Q6.97266-0.0390625 5.83496-1.17676Q4.69727-2.31445 4.05762-3.81836Q3.41797-5.32227 3.41797-7.05078Q3.41797-8.7793 4.05762-10.2832Q4.69727-11.7871 5.83008-12.9297Q6.96289-14.0723 8.4668-14.7119Q9.9707-15.3516 11.6992-15.3516Q13.4277-15.3516 14.9365-14.7119Q16.4453-14.0723 17.583-12.9297Q18.7207-11.7871 19.3652-10.2832Q20.0098-8.7793 20.0098-7.05078Q20.0098-5.32227 19.3701-3.81836Q18.7305-2.31445 17.5879-1.17676Q16.4453-0.0390625 14.9414 0.605469Q13.4375 1.25 11.709 1.25ZM7.17773-7.05078Q7.17773-6.69922 7.41211-6.47461Q7.64648-6.25 8.01758-6.25L10.8887-6.25L10.8887-3.36914Q10.8887-2.99805 11.1133-2.76855Q11.3379-2.53906 11.6895-2.53906Q12.0605-2.53906 12.29-2.76855Q12.5195-2.99805 12.5195-3.36914L12.5195-6.25L15.4004-6.25Q15.7715-6.25 16.001-6.47461Q16.2305-6.69922 16.2305-7.05078Q16.2305-7.42188 16.001-7.65137Q15.7715-7.88086 15.4004-7.88086L12.5195-7.88086L12.5195-10.752Q12.5195-11.1328 12.29-11.3623Q12.0605-11.5918 11.6895-11.5918Q11.3379-11.5918 11.1133-11.3574Q10.8887-11.123 10.8887-10.752L10.8887-7.88086L8.01758-7.88086Q7.63672-7.88086 7.40723-7.65137Q7.17773-7.42188 7.17773-7.05078Z"/>
  </g>
  <g transform="matrix(1 0 0 1 305.646 1933)">
   <path d="M14.9707 5.66406Q17.0605 5.66406 18.96 5.01465Q20.8594 4.36523 22.4512 3.19336Q24.043 2.02148 25.2197 0.429688Q26.3965-1.16211 27.0459-3.06641Q27.6953-4.9707 27.6953-7.05078Q27.6953-9.14062 27.0459-11.04Q26.3965-12.9395 25.2197-14.5312Q24.043-16.123 22.4512-17.2998Q20.8594-18.4766 18.9551-19.126Q17.0508-19.7754 14.9609-19.7754Q12.8711-19.7754 10.9717-19.126Q9.07227-18.4766 7.48535-17.2998Q5.89844-16.123 4.72168-14.5312Q3.54492-12.9395 2.90039-11.04Q2.25586-9.14062 2.25586-7.05078Q2.25586-4.9707 2.90527-3.06641Q3.55469-1.16211 4.72656 0.429688Q5.89844 2.02148 7.49023 3.19336Q9.08203 4.36523 10.9814 5.01465Q12.8809 5.66406 14.9707 5.66406ZM14.9707 3.84766Q13.1641 3.84766 11.5283 3.2959Q9.89258 2.74414 8.53516 1.74805Q7.17773 0.751953 6.17676-0.610352Q5.17578-1.97266 4.62891-3.6084Q4.08203-5.24414 4.08203-7.05078Q4.08203-8.86719 4.62891-10.5029Q5.17578-12.1387 6.17188-13.501Q7.16797-14.8633 8.52539-15.8594Q9.88281-16.8555 11.5186-17.4023Q13.1543-17.9492 14.9609-17.9492Q16.7773-17.9492 18.4131-17.4023Q20.0488-16.8555 21.4111-15.8594Q22.7734-14.8633 23.7744-13.501Q24.7754-12.1387 25.3223-10.5029Q25.8691-8.86719 25.8691-7.05078Q25.8691-5.24414 25.3223-3.6084Q24.7754-1.97266 23.7793-0.610352Q22.7832 0.751953 21.4209 1.74805Q20.0586 2.74414 18.4229 3.2959Q16.7871 3.84766 14.9707 3.84766ZM9.19922-7.05078Q9.19922-6.66992 9.45801-6.4209Q9.7168-6.17188 10.1172-6.17188L14.0625-6.17188L14.0625-2.2168Q14.0625-1.81641 14.3115-1.55762Q14.5605-1.29883 14.9512-1.29883Q15.3516-1.29883 15.6104-1.55273Q15.8691-1.80664 15.8691-2.2168L15.8691-6.17188L19.8242-6.17188Q20.2246-6.17188 20.4785-6.4209Q20.7324-6.66992 20.7324-7.05078Q20.7324-7.46094 20.4785-7.71484Q20.2246-7.96875 19.8242-7.96875L15.8691-7.96875L15.8691-11.9141Q15.8691-12.3242 15.6104-12.583Q15.3516-12.8418 14.9512-12.8418Q14.5605-12.8418 14.3115-12.583Q14.0625-12.3242 14.0625-11.9141L14.0625-7.96875L10.1172-7.96875Q9.70703-7.96875 9.45312-7.71484Q9.19922-7.46094 9.19922-7.05078Z"/>
  </g>
  <text style="stroke:none;fill:black;font-family:sans-serif;font-size:13;font-weight:bold;" transform="matrix(1 0 0 1 263 1953)">Design Variations</text>
  <text style="stroke:none;fill:black;font-family:sans-serif;font-size:13;" transform="matrix(1 0 0 1 263 1971)">Symbols are supported in up to nine weights and three scales.</text>
  <text style="stroke:none;fill:black;font-family:sans-serif;font-size:13;" transform="matrix(1 0 0 1 263 1989)">For optimal layout with text and other symbols, vertically align</text>
  <text style="stroke:none;fill:black;font-family:sans-serif;font-size:13;" transform="matrix(1 0 0 1 263 2007)">symbols with the adjacent text.</text>
  <line style="fill:none;stroke:#00AEEF;stroke-width:0.5;opacity:1.0;" x1="776" x2="776" y1="1919" y2="1933"/>
  <g transform="matrix(1 0 0 1 776 1933)">
   <path d="M3.31055 0.15625Q3.70117 0.15625 3.91602-0.00976562Q4.13086-0.175781 4.26758-0.585938L5.52734-4.0332L11.2891-4.0332L12.5488-0.585938Q12.6855-0.175781 12.9004-0.00976562Q13.1152 0.15625 13.4961 0.15625Q13.8867 0.15625 14.1162-0.0585938Q14.3457-0.273438 14.3457-0.644531Q14.3457-0.869141 14.2383-1.17188L9.6582-13.3691Q9.48242-13.8184 9.17969-14.043Q8.87695-14.2676 8.4082-14.2676Q7.5-14.2676 7.17773-13.3789L2.59766-1.16211Q2.49023-0.859375 2.49023-0.634766Q2.49023-0.263672 2.70996-0.0537109Q2.92969 0.15625 3.31055 0.15625ZM6.00586-5.51758L8.37891-12.0898L8.42773-12.0898L10.8008-5.51758Z"/>
  </g>
  <line style="fill:none;stroke:#00AEEF;stroke-width:0.5;opacity:1.0;" x1="793.197" x2="793.197" y1="1919" y2="1933"/>
  <text style="stroke:none;fill:black;font-family:sans-serif;font-size:13;font-weight:bold;" transform="matrix(1 0 0 1 776 1953)">Margins</text>
  <text style="stroke:none;fill:black;font-family:sans-serif;font-size:13;" transform="matrix(1 0 0 1 776 1971)">Leading and trailing margins on the left and right side of each symbol</text>
  <text style="stroke:none;fill:black;font-family:sans-serif;font-size:13;" transform="matrix(1 0 0 1 776 1989)">can be adjusted by modifying the x-location of the margin guidelines.</text>
  <text style="stroke:none;fill:black;font-family:sans-serif;font-size:13;" transform="matrix(1 0 0 1 776 2007)">Modifications are automatically applied proportionally to all</text>
  <text style="stroke:none;fill:black;font-family:sans-serif;font-size:13;" transform="matrix(1 0 0 1 776 2025)">scales and weights.</text>
  <g transform="matrix(1 0 0 1 1289 1933)">
   <path d="M2.8418 1.86523L4.54102 3.57422Q5.18555 4.22852 5.90332 4.17969Q6.62109 4.13086 7.31445 3.35938L18.0078-8.42773L17.041-9.4043L6.42578 2.27539Q6.16211 2.57812 5.89355 2.61719Q5.625 2.65625 5.27344 2.30469L4.10156 1.14258Q3.75 0.791016 3.79395 0.522461Q3.83789 0.253906 4.14062-0.0195312L15.6152-10.8203L14.6387-11.7871L3.04688-0.898438Q2.30469-0.214844 2.25098 0.498047Q2.19727 1.21094 2.8418 1.86523ZM9.25781-16.3281Q8.94531-16.0254 8.90625-15.6348Q8.86719-15.2441 9.04297-14.9512Q9.21875-14.6777 9.55566-14.541Q9.89258-14.4043 10.3809-14.5215Q11.4746-14.7754 12.5977-14.7314Q13.7207-14.6875 14.7949-13.9844L14.209-12.5293Q13.9551-11.9043 14.0674-11.4404Q14.1797-10.9766 14.5801-10.5664L16.875-8.25195Q17.2363-7.88086 17.5781-7.82227Q17.9199-7.76367 18.3398-7.8418L19.4043-8.03711L20.0684-7.36328L20.0293-6.80664Q20-6.43555 20.1221-6.12305Q20.2441-5.81055 20.6055-5.44922L21.3672-4.70703Q21.7285-4.3457 22.1533-4.33105Q22.5781-4.31641 22.9297-4.66797L25.8398-7.58789Q26.1914-7.93945 26.1816-8.35449Q26.1719-8.76953 25.8105-9.13086L25.0391-9.89258Q24.6875-10.2539 24.3799-10.3857Q24.0723-10.5176 23.7109-10.4883L23.1348-10.4395L22.4902-11.0742L22.7344-12.1973Q22.832-12.6172 22.6953-12.9834Q22.5586-13.3496 22.1191-13.7891L19.9219-15.9766Q18.6719-17.2168 17.2607-17.8369Q15.8496-18.457 14.4189-18.4814Q12.9883-18.5059 11.665-17.959Q10.3418-17.4121 9.25781-16.3281ZM10.752-15.957Q11.6602-16.6211 12.7002-16.9043Q13.7402-17.1875 14.8047-17.085Q15.8691-16.9824 16.8701-16.5137Q17.8711-16.0449 18.7012-15.2051L21.1328-12.793Q21.3086-12.6172 21.3525-12.4512Q21.3965-12.2852 21.3379-12.0312L21.0156-10.5469L22.5195-9.0625L23.5059-9.12109Q23.6914-9.13086 23.7891-9.09668Q23.8867-9.0625 24.0332-8.91602L24.6094-8.33984L22.168-5.89844L21.5918-6.47461Q21.4453-6.62109 21.4062-6.71875Q21.3672-6.81641 21.377-7.01172L21.4453-7.98828L19.9512-9.47266L18.4277-9.21875Q18.1836-9.16992 18.042-9.2041Q17.9004-9.23828 17.7148-9.41406L15.7129-11.416Q15.5176-11.5918 15.4932-11.7529Q15.4688-11.9141 15.5859-12.1875L16.4648-14.2773Q15.293-15.3711 13.8281-15.791Q12.3633-16.2109 10.8398-15.7617Q10.7227-15.7324 10.6885-15.8057Q10.6543-15.8789 10.752-15.957Z"/>
  </g>
  <text style="stroke:none;fill:black;font-family:sans-serif;font-size:13;font-weight:bold;" transform="matrix(1 0 0 1 1289 1953)">Exporting</text>
  <text style="stroke:none;fill:black;font-family:sans-serif;font-size:13;" transform="matrix(1 0 0 1 1289 1971)">Symbols should be outlined when exporting to ensure the</text>
  <text style="stroke:none;fill:black;font-family:sans-serif;font-size:13;" transform="matrix(1 0 0 1 1289 1989)">design is preserved when submitting to Xcode.</text>
  <text id="template-version" style="stroke:none;fill:black;font-family:sans-serif;font-size:13;text-anchor:end;" transform="matrix(1 0 0 1 3036 1933)">Template v.2.0</text>
  <text style="stroke:none;fill:black;font-family:sans-serif;font-size:13;text-anchor:end;" transform="matrix(1 0 0 1 3036 1951)">Requires Xcode 12 or greater</text>
  <text id="descriptive-name" style="stroke:none;fill:black;font-family:sans-serif;font-size:13;text-anchor:end;" transform="matrix(1 0 0 1 3036 1969)">Generated from oven.fill</text>
  <text style="stroke:none;fill:black;font-family:sans-serif;font-size:13;text-anchor:end;" transform="matrix(1 0 0 1 3036 1987)">Typeset at 100 points</text>
  <text style="stroke:none;fill:black;font-family:sans-serif;font-size:13;" transform="matrix(1 0 0 1 263 726)">Small</text>
  <text style="stroke:none;fill:black;font-family:sans-serif;font-size:13;" transform="matrix(1 0 0 1 263 1156)">Medium</text>
  <text style="stroke:none;fill:black;font-family:sans-serif;font-size:13;" transform="matrix(1 0 0 1 263 1586)">Large</text>
 </g>
 <g id="Guides">
  <g id="H-reference" style="fill:#27AAE1;stroke:none;" transform="matrix(1 0 0 1 339 696)">
   <path d="M0.993347 0L3.6377 0L29.3282-67.1326L30.0301-67.1326L30.0301-70.459L28.1227-70.459ZM11.6882-24.4797L46.9818-24.4797L46.2311-26.7288L12.4382-26.7288ZM55.1193 0L57.7637 0L30.6381-70.459L29.4327-70.459L29.4327-67.1326Z"/>
  </g>
  <line id="Baseline-S" style="fill:none;stroke:#27AAE1;opacity:1;stroke-width:0.5;" x1="263" x2="3036" y1="696" y2="696"/>
  <line id="Capline-S" style="fill:none;stroke:#27AAE1;opacity:1;stroke-width:0.5;" x1="263" x2="3036" y1="625.541" y2="625.541"/>
  <g id="H-reference" style="fill:#27AAE1;stroke:none;" transform="matrix(1 0 0 1 339 1126)">
   <path d="M0.993347 0L3.6377 0L29.3282-67.1326L30.0301-67.1326L30.0301-70.459L28.1227-70.459ZM11.6882-24.4797L46.9818-24.4797L46.2311-26.7288L12.4382-26.7288ZM55.1193 0L57.7637 0L30.6381-70.459L29.4327-70.459L29.4327-67.1326Z"/>
  </g>
  <line id="Baseline-M" style="fill:none;stroke:#27AAE1;opacity:1;stroke-width:0.5;" x1="263" x2="3036" y1="1126" y2="1126"/>
  <line id="Capline-M" style="fill:none;stroke:#27AAE1;opacity:1;stroke-width:0.5;" x1="263" x2="3036" y1="1055.54" y2="1055.54"/>
  <g id="H-reference" style="fill:#27AAE1;stroke:none;" transform="matrix(1 0 0 1 339 1556)">
   <path d="M0.993347 0L3.6377 0L29.3282-67.1326L30.0301-67.1326L30.0301-70.459L28.1227-70.459ZM11.6882-24.4797L46.9818-24.4797L46.2311-26.7288L12.4382-26.7288ZM55.1193 0L57.7637 0L30.6381-70.459L29.4327-70.459L29.4327-67.1326Z"/>
  </g>
  <line id="Baseline-L" style="fill:none;stroke:#27AAE1;opacity:1;stroke-width:0.5;" x1="263" x2="3036" y1="1556" y2="1556"/>
  <line id="Capline-L" style="fill:none;stroke:#27AAE1;opacity:1;stroke-width:0.5;" x1="263" x2="3036" y1="1485.54" y2="1485.54"/>
  <line id="left-margin" style="fill:none;stroke:#00AEEF;stroke-width:0.5;opacity:1.0;" x1="1388.58" x2="1388.58" y1="1030.79" y2="1150.12"/>
  <line id="right-margin" style="fill:none;stroke:#00AEEF;stroke-width:0.5;opacity:1.0;" x1="1511.11" x2="1511.11" y1="1030.79" y2="1150.12"/>
 </g>
 <g id="Symbols">
  <g id="Black-L" transform="matrix(1 0 0 1 2845.81 1556)">
   <path d="M16.084-60.0166L159.091-60.0166L159.091-80.2772Q159.091-88.577 153.934-93.8467Q148.777-99.1164 140.585-99.1164L34.5103-99.1164Q26.3982-99.1164 21.2411-93.8467Q16.084-88.577 16.084-80.2772ZM47.2528-70.5918Q44.1417-70.5918 41.9004-72.7643Q39.6591-74.9367 39.6591-78.0478Q39.6591-81.2757 41.9004-83.4488Q44.1417-85.6218 47.2528-85.6218Q50.2858-85.6218 52.5563-83.4488Q54.8268-81.2757 54.8268-78.0478Q54.8268-74.9367 52.5563-72.7643Q50.2858-70.5918 47.2528-70.5918ZM66.2008-70.5918Q63.0897-70.5918 60.8484-72.7643Q58.6071-74.9367 58.6071-78.0478Q58.6071-81.2757 60.8484-83.4488Q63.0897-85.6218 66.2008-85.6218Q69.2923-85.6218 71.5043-83.4488Q73.7164-81.2757 73.7164-78.0478Q73.7164-74.9367 71.5043-72.7643Q69.2923-70.5918 66.2008-70.5918ZM85.0308-70.5918Q81.9781-70.5918 79.7368-72.7643Q77.4955-74.9367 77.4955-78.0478Q77.4955-81.2757 79.7368-83.4488Q81.9781-85.6218 85.0308-85.6218Q88.1222-85.6218 90.3927-83.4488Q92.6632-81.2757 92.6632-78.0478Q92.6632-74.9367 90.3927-72.7643Q88.1222-70.5918 85.0308-70.5918ZM113.454-72.4158Q111.043-72.4158 109.403-74.0849Q107.763-75.7541 107.763-78.1074Q107.763-80.4816 109.403-82.1397Q111.043-83.7978 113.454-83.7978L130.571-83.7978Q132.925-83.7978 134.583-82.1397Q136.241-80.4816 136.241-78.1074Q136.241-75.7541 134.583-74.0849Q132.925-72.4158 130.571-72.4158ZM34.5103 28.4614L140.585 28.4614Q148.777 28.4614 153.934 23.1917Q159.091 17.9219 159.091 9.62216L159.091-47.8463L16.084-47.8463L16.084 9.62216Q16.084 17.9219 21.2411 23.1917Q26.3982 28.4614 34.5103 28.4614ZM45.6507 13.2793Q42.9325 13.2793 41.2243 11.6101Q39.5161 9.94094 39.5161 7.1643L39.5161-29.6405Q39.5161-32.438 41.2243-34.1176Q42.9325-35.7972 45.6507-35.7972L129.602-35.7972Q132.379-35.7972 134.047-34.1176Q135.716-32.438 135.716-29.6405L135.716 7.1643Q135.716 9.94094 134.047 11.6101Q132.379 13.2793 129.602 13.2793ZM50.4586-18.6434L124.794-18.6434L124.794-24.1365Q124.794-25.4972 123.435-25.4972L51.818-25.4972Q50.4586-25.4972 50.4586-24.1365ZM51.818 2.39403L123.435 2.39403Q124.794 2.39403 124.794 0.996984L124.794-10.8536L50.4586-10.8536L50.4586 0.996984Q50.4586 2.39403 51.818 2.39403Z"/>
  </g>
  <g id="Heavy-L" transform="matrix(1 0 0 1 2551.25 1556)">
   <path d="M16.084-59.6367L154.796-59.6367L154.796-79.2578Q154.796-86.9847 150.039-91.858Q145.283-96.7312 137.7-96.7312L33.1047-96.7312Q25.597-96.7312 20.8405-91.858Q16.084-86.9847 16.084-79.2578ZM45.3736-69.6859Q42.4368-69.6859 40.3353-71.7277Q38.2338-73.7695 38.2338-76.7063Q38.2338-79.7324 40.3353-81.777Q42.4368-83.8216 45.3736-83.8216Q48.2412-83.8216 50.365-81.777Q52.4889-79.7324 52.4889-76.7063Q52.4889-73.7695 50.365-71.7277Q48.2412-69.6859 45.3736-69.6859ZM63.8022-69.6859Q60.8654-69.6859 58.7639-71.7277Q56.6624-73.7695 56.6624-76.7063Q56.6624-79.7324 58.7639-81.777Q60.8654-83.8216 63.8022-83.8216Q66.7145-83.8216 68.7937-81.777Q70.8729-79.7324 70.8729-76.7063Q70.8729-73.7695 68.7937-71.7277Q66.7145-69.6859 63.8022-69.6859ZM82.136-69.6859Q79.2438-69.6859 77.1423-71.7277Q75.0407-73.7695 75.0407-76.7063Q75.0407-79.7324 77.1423-81.777Q79.2438-83.8216 82.136-83.8216Q85.0483-83.8216 87.1721-81.777Q89.2959-79.7324 89.2959-76.7063Q89.2959-73.7695 87.1721-71.7277Q85.0483-69.6859 82.136-69.6859ZM111.458-71.6715Q109.292-71.6715 107.833-73.1535Q106.373-74.6354 106.373-76.7565Q106.373-78.9079 107.833-80.3719Q109.292-81.8359 111.458-81.8359L128.678-81.8359Q130.799-81.8359 132.263-80.3719Q133.728-78.9079 133.728-76.7565Q133.728-74.6354 132.263-73.1535Q130.799-71.6715 128.678-71.6715ZM33.1047 26.1082L137.7 26.1082Q145.283 26.1082 150.039 21.2349Q154.796 16.3616 154.796 8.63474L154.796-48.7702L16.084-48.7702L16.084 8.63474Q16.084 16.3616 20.8405 21.2349Q25.597 26.1082 33.1047 26.1082ZM43.9566 11.2868Q41.2301 11.2868 39.5312 9.62252Q37.8324 7.95827 37.8324 5.18716L37.8324-31.0843Q37.8324-33.8857 39.5312-35.565Q41.2301-37.2444 43.9566-37.2444L126.992-37.2444Q129.764-37.2444 131.425-35.565Q133.087-33.8857 133.087-31.0843L133.087 5.18716Q133.087 7.95827 131.425 9.62252Q129.764 11.2868 126.992 11.2868ZM47.7562-20.8099L123.193-20.8099L123.193-26.3128Q123.193-27.8115 121.7-27.8115L49.2493-27.8115Q47.7562-27.8115 47.7562-26.3128ZM49.2493 1.40194L121.7 1.40194Q123.193 1.40194 123.193-0.105519L123.193-13.2901L47.7562-13.2901L47.7562-0.105519Q47.7562 1.40194 49.2493 1.40194Z"/>
  </g>
  <g id="Bold-L" transform="matrix(1 0 0 1 2257.19 1556)">
   <path d="M16.084-58.9816L149.493-58.9816L149.493-77.9007Q149.493-84.9653 145.206-89.3803Q140.92-93.7953 134.053-93.7953L31.4574-93.7953Q24.6579-93.7953 20.371-89.3803Q16.084-84.9653 16.084-77.9007ZM43.2018-68.4076Q40.4654-68.4076 38.5256-70.2992Q36.5858-72.1907 36.5858-74.9273Q36.5858-77.7223 38.5256-79.6205Q40.4654-81.5187 43.2018-81.5187Q45.8844-81.5187 47.8388-79.6205Q49.7932-77.7223 49.7932-74.9273Q49.7932-72.1907 47.8388-70.2992Q45.8844-68.4076 43.2018-68.4076ZM61.0522-68.4076Q58.3156-68.4076 56.3758-70.2992Q54.436-72.1907 54.436-74.9273Q54.436-77.7223 56.3758-79.6205Q58.3156-81.5187 61.0522-81.5187Q63.764-81.5187 65.6892-79.6205Q67.6144-77.7223 67.6144-74.9273Q67.6144-72.1907 65.6892-70.2992Q63.764-68.4076 61.0522-68.4076ZM78.8309-68.4076Q76.1235-68.4076 74.1837-70.2992Q72.2439-72.1907 72.2439-74.9273Q72.2439-77.7223 74.1837-79.6205Q76.1235-81.5187 78.8309-81.5187Q81.5427-81.5187 83.4971-79.6205Q85.4515-77.7223 85.4515-74.9273Q85.4515-72.1907 83.4971-70.2992Q81.5427-68.4076 78.8309-68.4076ZM108.842-70.6301Q106.984-70.6301 105.743-71.8853Q104.503-73.1405 104.503-74.9696Q104.503-76.837 105.743-78.0665Q106.984-79.2959 108.842-79.2959L126.148-79.2959Q127.978-79.2959 129.207-78.0665Q130.437-76.837 130.437-74.9696Q130.437-73.1405 129.207-71.8853Q127.978-70.6301 126.148-70.6301ZM31.4574 23.2109L134.053 23.2109Q140.92 23.2109 145.206 18.7958Q149.493 14.3806 149.493 7.31602L149.493-49.7287L16.084-49.7287L16.084 7.31602Q16.084 14.3806 20.371 18.7958Q24.6579 23.2109 31.4574 23.2109ZM41.9035 8.82758Q39.1544 8.82758 37.4634 7.16352Q35.7724 5.49947 35.7724 2.72119L35.7724-32.6138Q35.7724-35.4301 37.4634-37.1132Q39.1544-38.7963 41.9035-38.7963L123.728-38.7963Q126.506-38.7963 128.164-37.1132Q129.821-35.4301 129.821-32.6138L129.821 2.72119Q129.821 5.49947 128.164 7.16352Q126.506 8.82758 123.728 8.82758ZM44.3986-23.3352L121.233-23.3352L121.233-28.7714Q121.233-30.4913 119.526-30.4913L46.1054-30.4913Q44.3986-30.4913 44.3986-28.7714ZM46.1054 0.217187L119.526 0.217187Q121.233 0.217187 121.233-1.48071L121.233-16.2726L44.3986-16.2726L44.3986-1.48071Q44.3986 0.217187 46.1054 0.217187Z"/>
  </g>
  <g id="Semibold-L" transform="matrix(1 0 0 1 1962.31 1556)">
   <path d="M16.084-58.53L145.838-58.53L145.838-76.9651Q145.838-83.5732 141.875-87.6723Q137.912-91.7714 131.538-91.7714L30.3217-91.7714Q24.0106-91.7714 20.0473-87.6723Q16.084-83.5732 16.084-76.9651ZM41.7046-67.5264Q39.1064-67.5264 37.278-69.3143Q35.4497-71.1023 35.4497-73.7008Q35.4497-76.3365 37.278-78.1338Q39.1064-79.9311 41.7046-79.9311Q44.2596-79.9311 46.0972-78.1338Q47.9348-76.3365 47.9348-73.7008Q47.9348-71.1023 46.0972-69.3143Q44.2596-67.5264 41.7046-67.5264ZM59.1563-67.5264Q56.5578-67.5264 54.7295-69.3143Q52.9012-71.1023 52.9012-73.7008Q52.9012-76.3365 54.7295-78.1338Q56.5578-79.9311 59.1563-79.9311Q61.73-79.9311 63.549-78.1338Q65.368-76.3365 65.368-73.7008Q65.368-71.1023 63.549-69.3143Q61.73-67.5264 59.1563-67.5264ZM76.5523-67.5264Q73.9724-67.5264 72.144-69.3143Q70.3157-71.1023 70.3157-73.7008Q70.3157-76.3365 72.144-78.1338Q73.9724-79.9311 76.5523-79.9311Q79.1259-79.9311 80.9635-78.1338Q82.8011-76.3365 82.8011-73.7008Q82.8011-71.1023 80.9635-69.3143Q79.1259-67.5264 76.5523-67.5264ZM107.039-69.9122Q105.392-69.9122 104.303-71.0111Q103.214-72.1099 103.214-73.7377Q103.214-75.4094 104.303-76.4772Q105.392-77.5449 107.039-77.5449L124.404-77.5449Q126.032-77.5449 127.1-76.4772Q128.168-75.4094 128.168-73.7377Q128.168-72.1099 127.1-71.0111Q126.032-69.9122 124.404-69.9122ZM30.3217 21.2135L131.538 21.2135Q137.912 21.2135 141.875 17.1142Q145.838 13.0149 145.838 6.4069L145.838-50.3895L16.084-50.3895L16.084 6.4069Q16.084 13.0149 20.0473 17.1142Q24.0106 21.2135 30.3217 21.2135ZM40.4881 7.13223Q37.7235 7.13223 36.0378 5.46831Q34.3522 3.80439 34.3522 1.02116L34.3522-33.6681Q34.3522-36.4949 36.0378-38.1806Q37.7235-39.8663 40.4881-39.8663L121.477-39.8663Q124.261-39.8663 125.915-38.1806Q127.57-36.4949 127.57-33.6681L127.57 1.02116Q127.57 3.80439 125.915 5.46831Q124.261 7.13223 121.477 7.13223ZM42.0839-25.0761L119.881-25.0761L119.881-30.4664Q119.881-32.3388 118.028-32.3388L43.9381-32.3388Q42.0839-32.3388 42.0839-30.4664ZM43.9381-0.599578L118.028-0.599578Q119.881-0.599578 119.881-2.42876L119.881-18.3287L42.0839-18.3287L42.0839-2.42876Q42.0839-0.599578 43.9381-0.599578Z"/>
  </g>
  <g id="Medium-L" transform="matrix(1 0 0 1 1666.98 1556)">
   <path d="M16.084-58.1875L143.066-58.1875L143.066-76.2557Q143.066-82.5176 139.348-86.3772Q135.631-90.2367 129.631-90.2367L29.4606-90.2367Q23.5197-90.2367 19.8018-86.3772Q16.084-82.5176 16.084-76.2557ZM40.5693-66.8582Q38.0759-66.8582 36.3321-68.5676Q34.5883-70.2771 34.5883-72.7709Q34.5883-75.2858 36.3321-77.0065Q38.0759-78.7273 40.5693-78.7273Q43.0277-78.7273 44.7767-77.0065Q46.5257-75.2858 46.5257-72.7709Q46.5257-70.2771 44.7767-68.5676Q43.0277-66.8582 40.5693-66.8582ZM57.7188-66.8582Q55.225-66.8582 53.4812-68.5676Q51.7374-70.2771 51.7374-72.7709Q51.7374-75.2858 53.4812-77.0065Q55.225-78.7273 57.7188-78.7273Q60.1877-78.7273 61.9262-77.0065Q63.6647-75.2858 63.6647-72.7709Q63.6647-70.2771 61.9262-68.5676Q60.1877-66.8582 57.7188-66.8582ZM74.8246-66.8582Q72.3413-66.8582 70.5975-68.5676Q68.8537-70.2771 68.8537-72.7709Q68.8537-75.2858 70.5975-77.0065Q72.3413-78.7273 74.8246-78.7273Q77.2935-78.7273 79.0425-77.0065Q80.7916-75.2858 80.7916-72.7709Q80.7916-70.2771 79.0425-68.5676Q77.2935-66.8582 74.8246-66.8582ZM105.672-69.3679Q104.186-69.3679 103.211-70.3482Q102.236-71.3285 102.236-72.8037Q102.236-74.3269 103.211-75.2721Q104.186-76.2172 105.672-76.2172L123.082-76.2172Q124.557-76.2172 125.503-75.2721Q126.448-74.3269 126.448-72.8037Q126.448-71.3285 125.503-70.3482Q124.557-69.3679 123.082-69.3679ZM29.4606 19.699L129.631 19.699Q135.631 19.699 139.348 15.8392Q143.066 11.9794 143.066 5.71757L143.066-50.8906L16.084-50.8906L16.084 5.71757Q16.084 11.9794 19.8018 15.8392Q23.5197 19.699 29.4606 19.699ZM39.4149 5.84675Q36.6385 5.84675 34.9569 4.18293Q33.2753 2.5191 33.2753-0.26787L33.2753-34.4676Q33.2753-37.3022 34.9569-38.9899Q36.6385-40.6775 39.4149-40.6775L119.771-40.6775Q122.558-40.6775 124.21-38.9899Q125.863-37.3022 125.863-34.4676L125.863-0.26787Q125.863 2.5191 124.21 4.18293Q122.558 5.84675 119.771 5.84675ZM40.3288-26.3962L118.857-26.3962L118.857-31.7515Q118.857-33.7396 116.891-33.7396L42.2947-33.7396Q40.3288-33.7396 40.3288-31.7515ZM42.2947-1.21888L116.891-1.21888Q118.857-1.21888 118.857-3.1476L118.857-19.8877L40.3288-19.8877L40.3288-3.1476Q40.3288-1.21888 42.2947-1.21888Z"/>
  </g>
  <g id="Regular-L" transform="matrix(1 0 0 1 1372.08 1556)">
   <path d="M16.084-57.7408L139.451-57.7408L139.451-75.3304Q139.451-81.1407 136.053-84.6879Q132.656-88.235 127.144-88.235L28.3374-88.235Q22.8794-88.235 19.4817-84.6879Q16.084-81.1407 16.084-75.3304ZM39.0886-65.9866Q36.7317-65.9866 35.0982-67.5936Q33.4647-69.2006 33.4647-71.5579Q33.4647-73.9152 35.0982-75.5362Q36.7317-77.1571 39.0886-77.1571Q41.4207-77.1571 43.0543-75.5362Q44.6878-73.9152 44.6878-71.5579Q44.6878-69.2006 43.0543-67.5936Q41.4207-65.9866 39.0886-65.9866ZM55.8438-65.9866Q53.4865-65.9866 51.853-67.5936Q50.2194-69.2006 50.2194-71.5579Q50.2194-73.9152 51.853-75.5362Q53.4865-77.1571 55.8438-77.1571Q58.176-77.1571 59.8095-75.5362Q61.443-73.9152 61.443-71.5579Q61.443-69.2006 59.8095-67.5936Q58.176-65.9866 55.8438-65.9866ZM72.5711-65.9866Q70.2138-65.9866 68.5803-67.5936Q66.9468-69.2006 66.9468-71.5579Q66.9468-73.9152 68.5803-75.5362Q70.2138-77.1571 72.5711-77.1571Q74.9033-77.1571 76.5368-75.5362Q78.1704-73.9152 78.1704-71.5579Q78.1704-69.2006 76.5368-67.5936Q74.9033-65.9866 72.5711-65.9866ZM103.888-68.6579Q102.612-68.6579 101.786-69.4835Q100.961-70.3092 100.961-71.5853Q100.961-72.915 101.786-73.7002Q102.612-74.4854 103.888-74.4854L121.357-74.4854Q122.633-74.4854 123.419-73.7002Q124.204-72.915 124.204-71.5853Q124.204-70.3092 123.419-69.4835Q122.633-68.6579 121.357-68.6579ZM28.3374 17.7235L127.144 17.7235Q132.656 17.7235 136.053 14.1761Q139.451 10.6288 139.451 4.81844L139.451-51.5441L16.084-51.5441L16.084 4.81844Q16.084 10.6288 19.4817 14.1761Q22.8794 17.7235 28.3374 17.7235ZM38.0151 4.17003Q35.2233 4.17003 33.547 2.50634Q31.8707 0.842648 31.8707-1.94922L31.8707-35.5104Q31.8707-38.3553 33.547-40.0455Q35.2233-41.7357 38.0151-41.7357L117.545-41.7357Q120.337-41.7357 121.987-40.0455Q123.637-38.3553 123.637-35.5104L123.637-1.94922Q123.637 0.842648 121.987 2.50634Q120.337 4.17003 117.545 4.17003ZM38.0396-28.1179L117.52-28.1179L117.52-33.4278Q117.52-35.5668 115.409-35.5668L40.1511-35.5668Q38.0396-35.5668 38.0396-33.4278ZM40.1511-2.02667L115.409-2.02667Q117.52-2.02667 117.52-4.08523L117.52-21.9212L38.0396-21.9212L38.0396-4.08523Q38.0396-2.02667 40.1511-2.02667Z"/>
  </g>
  <g id="Light-L" transform="matrix(1 0 0 1 1077.14 1556)">
   <path d="M16.084-56.0994L135.901-56.0994L135.901-73.7845Q135.901-79.4422 132.656-82.8844Q129.411-86.3265 124.148-86.3265L27.8029-86.3265Q22.5742-86.3265 19.3291-82.8844Q16.084-79.4422 16.084-73.7845ZM38.5922-64.0973Q36.2738-64.0973 34.6785-65.6756Q33.0831-67.2539 33.0831-69.5731Q33.0831-71.8922 34.6785-73.4941Q36.2738-75.096 38.5922-75.096Q40.9244-75.096 42.5197-73.4941Q44.1151-71.8922 44.1151-69.5731Q44.1151-67.2539 42.5197-65.6756Q40.9244-64.0973 38.5922-64.0973ZM55.3666-64.0973Q53.0475-64.0973 51.4521-65.6756Q49.8568-67.2539 49.8568-69.5731Q49.8568-71.8922 51.4521-73.4941Q53.0475-75.096 55.3666-75.096Q57.6988-75.096 59.2942-73.4941Q60.8896-71.8922 60.8896-69.5731Q60.8896-67.2539 59.2942-65.6756Q57.6988-64.0973 55.3666-64.0973ZM72.094-64.0973Q69.7748-64.0973 68.1795-65.6756Q66.5841-67.2539 66.5841-69.5731Q66.5841-71.8922 68.1795-73.4941Q69.7748-75.096 72.094-75.096Q74.4262-75.096 76.0215-73.4941Q77.6169-71.8922 77.6169-69.5731Q77.6169-67.2539 76.0215-65.6756Q74.4262-64.0973 72.094-64.0973ZM101.159-67.1691Q100.112-67.1691 99.4102-67.8708Q98.7089-68.5725 98.7089-69.6194Q98.7089-70.7012 99.4102-71.3623Q100.112-72.0234 101.159-72.0234L118.418-72.0234Q119.465-72.0234 120.126-71.3623Q120.788-70.7012 120.788-69.6194Q120.788-68.5725 120.126-67.8708Q119.465-67.1691 118.418-67.1691ZM27.8029 15.8342L124.148 15.8342Q129.411 15.8342 132.656 12.3917Q135.901 8.94916 135.901 3.29148L135.901-51.0096L16.084-51.0096L16.084 3.29148Q16.084 8.94916 19.3291 12.3917Q22.5742 15.8342 27.8029 15.8342ZM36.889 2.5286Q34.0019 2.5286 32.3065 0.826747Q30.6112-0.875105 30.6112-3.7622L30.6112-34.8995Q30.6112-37.8207 32.3065-39.5396Q34.0019-41.2585 36.889-41.2585L115.083-41.2585Q117.971-41.2585 119.649-39.5396Q121.327-37.8207 121.327-34.8995L121.327-3.7622Q121.327-0.875105 119.649 0.826747Q117.971 2.5286 115.083 2.5286ZM35.6539-28.8433L116.318-28.8433L116.318-33.5997Q116.318-36.2158 113.749-36.2158L38.2237-36.2158Q35.6539-36.2158 35.6539-33.5997ZM38.2237-2.56121L113.749-2.56121Q116.318-2.56121 116.318-5.0969L116.318-23.7535L35.6539-23.7535L35.6539-5.0969Q35.6539-2.56121 38.2237-2.56121Z"/>
  </g>
  <g id="Thin-L" transform="matrix(1 0 0 1 782.777 1556)">
   <path d="M16.084-53.9285L131.206-53.9285L131.206-71.74Q131.206-77.1958 128.163-80.499Q125.12-83.8023 120.185-83.8023L27.0959-83.8023Q22.1704-83.8023 19.1272-80.499Q16.084-77.1958 16.084-71.74ZM37.9357-61.5985Q35.6682-61.5985 34.1233-63.1389Q32.5784-64.6793 32.5784-66.9479Q32.5784-69.2166 34.1233-70.7933Q35.6682-72.3699 37.9357-72.3699Q40.2679-72.3699 41.8128-70.7933Q43.3577-69.2166 43.3577-66.9479Q43.3577-64.6793 41.8128-63.1389Q40.2679-61.5985 37.9357-61.5985ZM54.7356-61.5985Q52.4669-61.5985 50.922-63.1389Q49.3771-64.6793 49.3771-66.9479Q49.3771-69.2166 50.922-70.7933Q52.4669-72.3699 54.7356-72.3699Q57.0678-72.3699 58.6127-70.7933Q60.1576-69.2166 60.1576-66.9479Q60.1576-64.6793 58.6127-63.1389Q57.0678-61.5985 54.7356-61.5985ZM71.4629-61.5985Q69.1943-61.5985 67.6494-63.1389Q66.1045-64.6793 66.1045-66.9479Q66.1045-69.2166 67.6494-70.7933Q69.1943-72.3699 71.4629-72.3699Q73.7951-72.3699 75.34-70.7933Q76.8849-69.2166 76.8849-66.9479Q76.8849-64.6793 75.34-63.1389Q73.7951-61.5985 71.4629-61.5985ZM97.5498-65.2Q96.8049-65.2 96.2677-65.7378Q95.7305-66.2756 95.7305-67.0193Q95.7305-67.7732 96.2677-68.2702Q96.8049-68.7672 97.5498-68.7672L114.53-68.7672Q115.275-68.7672 115.772-68.2702Q116.269-67.7732 116.269-67.0193Q116.269-66.2756 115.772-65.7378Q115.275-65.2 114.53-65.2ZM27.0959 13.3354L120.185 13.3354Q125.12 13.3354 128.163 10.0316Q131.206 6.72776 131.206 1.27195L131.206-50.3026L16.084-50.3026L16.084 1.27195Q16.084 6.72776 19.1272 10.0316Q22.1704 13.3354 27.0959 13.3354ZM35.3996 0.357666Q32.3865 0.357666 30.6659-1.39465Q28.9454-3.14697 28.9454-6.16002L28.9454-34.0916Q28.9454-37.1138 30.6659-38.8706Q32.3865-40.6275 35.3996-40.6275L111.827-40.6275Q114.841-40.6275 116.557-38.8706Q118.273-37.1138 118.273-34.0916L118.273-6.16002Q118.273-3.14697 116.557-1.39465Q114.841 0.357666 111.827 0.357666ZM32.4986-29.8026L114.727-29.8026L114.727-33.827Q114.727-37.0742 111.553-37.0742L35.6744-37.0742Q32.4986-37.0742 32.4986-33.827ZM35.6744-3.26817L111.553-3.26817Q114.727-3.26817 114.727-6.43492L114.727-26.1767L32.4986-26.1767L32.4986-6.43492Q32.4986-3.26817 35.6744-3.26817Z"/>
  </g>
  <g id="Ultralight-L" transform="matrix(1 0 0 1 487.268 1556)">
   <path d="M16.084-52.8165L128.801-52.8165L128.801-70.6928Q128.801-76.0452 125.862-79.2773Q122.923-82.5094 118.155-82.5094L26.7338-82.5094Q21.9636-82.5094 19.0238-79.2773Q16.084-76.0452 16.084-70.6928ZM37.5994-60.3187Q35.358-60.3187 33.839-61.8396Q32.3199-63.3605 32.3199-65.6033Q32.3199-67.8462 33.839-69.4099Q35.358-70.9736 37.5994-70.9736Q39.9316-70.9736 41.4507-69.4099Q42.9697-67.8462 42.9697-65.6033Q42.9697-63.3605 41.4507-61.8396Q39.9316-60.3187 37.5994-60.3187ZM54.4124-60.3187Q52.1695-60.3187 50.6505-61.8396Q49.1314-63.3605 49.1314-65.6033Q49.1314-67.8462 50.6505-69.4099Q52.1695-70.9736 54.4124-70.9736Q56.7446-70.9736 58.2636-69.4099Q59.7827-67.8462 59.7827-65.6033Q59.7827-63.3605 58.2636-61.8396Q56.7446-60.3187 54.4124-60.3187ZM71.1397-60.3187Q68.8969-60.3187 67.3778-61.8396Q65.8588-63.3605 65.8588-65.6033Q65.8588-67.8462 67.3778-69.4099Q68.8969-70.9736 71.1397-70.9736Q73.4719-70.9736 74.9909-69.4099Q76.51-67.8462 76.51-65.6033Q76.51-63.3605 74.9909-61.8396Q73.4719-60.3187 71.1397-60.3187ZM95.701-64.1915Q95.1113-64.1915 94.6581-64.6453Q94.205-65.0992 94.205-65.6875Q94.205-66.2736 94.6581-66.6865Q95.1113-67.0994 95.701-67.0994L112.539-67.0994Q113.129-67.0994 113.542-66.6865Q113.955-66.2736 113.955-65.6875Q113.955-65.0992 113.542-64.6453Q113.129-64.1915 112.539-64.1915ZM26.7338 12.0556L118.155 12.0556Q122.923 12.0556 125.862 8.82278Q128.801 5.58997 128.801 0.237552L128.801-49.9405L16.084-49.9405L16.084 0.237552Q16.084 5.58997 19.0238 8.82278Q21.9636 12.0556 26.7338 12.0556ZM34.6367-0.754275Q31.5591-0.754275 29.8256-2.53244Q28.0921-4.31061 28.0921-7.38818L28.0921-33.6778Q28.0921-36.7517 29.8256-38.528Q31.5591-40.3042 34.6367-40.3042L110.159-40.3042Q113.238-40.3042 114.973-38.528Q116.708-36.7517 116.708-33.6778L116.708-7.38818Q116.708-4.31061 114.973-2.53244Q113.238-0.754275 110.159-0.754275ZM30.8825-30.2939L113.913-30.2939L113.913-33.9435Q113.913-37.5138 110.428-37.5138L34.3687-37.5138Q30.8825-37.5138 30.8825-33.9435ZM34.3687-3.63027L110.428-3.63027Q113.913-3.63027 113.913-7.12024L113.913-27.4179L30.8825-27.4179L30.8825-7.12024Q30.8825-3.63027 34.3687-3.63027Z"/>
  </g>
  <g id="Black-M" transform="matrix(1 0 0 1 2863.94 1126)">
   <path d="M12.4609-54.5371L126.465-54.5371L126.465-70.7965Q126.465-77.6983 122.146-82.1075Q117.827-86.5167 110.991-86.5167L27.8722-86.5167Q21.099-86.5167 16.78-82.1075Q12.4609-77.6983 12.4609-70.7965ZM38.1565-63.1487Q35.6016-63.1487 33.7503-64.9402Q31.8989-66.7318 31.8989-69.2866Q31.8989-71.9557 33.7503-73.7471Q35.6016-75.5385 38.1565-75.5385Q40.6485-75.5385 42.5284-73.7471Q44.4084-71.9557 44.4084-69.2866Q44.4084-66.7318 42.5284-64.9402Q40.6485-63.1487 38.1565-63.1487ZM53.2853-63.1487Q50.7304-63.1487 48.879-64.9402Q47.0276-66.7318 47.0276-69.2866Q47.0276-71.9557 48.879-73.7471Q50.7304-75.5385 53.2853-75.5385Q55.8344-75.5385 57.6572-73.7471Q59.48-71.9557 59.48-69.2866Q59.48-66.7318 57.6572-64.9402Q55.8344-63.1487 53.2853-63.1487ZM68.3001-63.1487Q65.8023-63.1487 63.951-64.9402Q62.0996-66.7318 62.0996-69.2866Q62.0996-71.9557 63.951-73.7471Q65.8023-75.5385 68.3001-75.5385Q70.8492-75.5385 72.7291-73.7471Q74.6091-71.9557 74.6091-69.2866Q74.6091-66.7318 72.7291-64.9402Q70.8492-63.1487 68.3001-63.1487ZM89.2436-64.4772Q87.1948-64.4772 85.7861-65.9144Q84.3773-67.3517 84.3773-69.3434Q84.3773-71.3407 85.7861-72.7753Q87.1948-74.21 89.2436-74.21L102.388-74.21Q104.38-74.21 105.814-72.7753Q107.249-71.3407 107.249-69.3434Q107.249-67.3517 105.814-65.9144Q104.38-64.4772 102.388-64.4772ZM27.8722 15.8809L110.991 15.8809Q117.827 15.8809 122.146 11.4717Q126.465 7.06257 126.465 0.1607L126.465-44.1378L12.4609-44.1378L12.4609 0.1607Q12.4609 7.06257 16.78 11.4717Q21.099 15.8809 27.8722 15.8809ZM36.6709 3.84241Q34.5592 3.84241 33.2251 2.53979Q31.8911 1.23716 31.8911-0.931672L31.8911-29.5759Q31.8911-31.7502 33.2251-33.0556Q34.5592-34.361 36.6709-34.361L102.318-34.361Q104.486-34.361 105.789-33.0556Q107.092-31.7502 107.092-29.5759L107.092-0.931672Q107.092 1.23716 105.789 2.53979Q104.486 3.84241 102.318 3.84241ZM41.0916-20.6158L97.8969-20.6158L97.8969-24.7882Q97.8969-25.7885 96.8964-25.7885L42.0921-25.7885Q41.0916-25.7885 41.0916-24.7882ZM42.0921-5.30076L96.8964-5.30076Q97.8969-5.30076 97.8969-6.35287L97.8969-14.4988L41.0916-14.4988L41.0916-6.35287Q41.0916-5.30076 42.0921-5.30076Z"/>
  </g>
  <g id="Heavy-M" transform="matrix(1 0 0 1 2569.16 1126)">
   <path d="M12.4609-54.3172L122.594-54.3172L122.594-69.9426Q122.594-76.2985 118.652-80.3298Q114.711-84.3611 108.447-84.3611L26.5474-84.3611Q20.3439-84.3611 16.4024-80.3298Q12.4609-76.2985 12.4609-69.9426ZM36.3652-62.4374Q33.9772-62.4374 32.259-64.1039Q30.5407-65.7703 30.5407-68.1583Q30.5407-70.6336 32.259-72.3012Q33.9772-73.9688 36.3652-73.9688Q38.6955-73.9688 40.4356-72.3012Q42.1757-70.6336 42.1757-68.1583Q42.1757-65.7703 40.4356-64.1039Q38.6955-62.4374 36.3652-62.4374ZM50.9845-62.4374Q48.5965-62.4374 46.8782-64.1039Q45.16-65.7703 45.16-68.1583Q45.16-70.6336 46.8782-72.3012Q48.5965-73.9688 50.9845-73.9688Q53.3585-73.9688 55.0549-72.3012Q56.7513-70.6336 56.7513-68.1583Q56.7513-65.7703 55.0549-64.1039Q53.3585-62.4374 50.9845-62.4374ZM65.5143-62.4374Q63.1699-62.4374 61.4516-64.1039Q59.7333-65.7703 59.7333-68.1583Q59.7333-70.6336 61.4516-72.3012Q63.1699-73.9688 65.5143-73.9688Q67.8882-73.9688 69.6283-72.3012Q71.3683-70.6336 71.3683-68.1583Q71.3683-65.7703 69.6283-64.1039Q67.8882-62.4374 65.5143-62.4374ZM87.544-63.887Q85.7145-63.887 84.4706-65.1527Q83.2267-66.4184 83.2267-68.2042Q83.2267-70.0065 84.4706-71.2629Q85.7145-72.5192 87.544-72.5192L100.808-72.5192Q102.594-72.5192 103.851-71.2629Q105.107-70.0065 105.107-68.2042Q105.107-66.4184 103.851-65.1527Q102.594-63.887 100.808-63.887ZM26.5474 13.7548L108.447 13.7548Q114.711 13.7548 118.652 9.72351Q122.594 5.69221 122.594-0.663704L122.594-45.0903L12.4609-45.0903L12.4609-0.663704Q12.4609 5.69221 16.4024 9.72351Q20.3439 13.7548 26.5474 13.7548ZM35.1187 2.04596Q33.0077 2.04596 31.6845 0.751702Q30.3614-0.542559 30.3614-2.6972L30.3614-31.0436Q30.3614-33.2147 31.6845-34.5172Q33.0077-35.8197 35.1187-35.8197L99.9935-35.8197Q102.148-35.8197 103.441-34.5172Q104.734-33.2147 104.734-31.0436L104.734-2.6972Q104.734-0.542559 103.441 0.751702Q102.148 2.04596 99.9935 2.04596ZM38.67-22.6668L96.4423-22.6668L96.4423-26.8998Q96.4423-27.9909 95.3535-27.9909L39.7588-27.9909Q38.67-27.9909 38.67-26.8998ZM39.7588-6.22128L95.3535-6.22128Q96.4423-6.22128 96.4423-7.33731L96.4423-16.7115L38.67-16.7115L38.67-7.33731Q38.67-6.22128 39.7588-6.22128Z"/>
  </g>
  <g id="Bold-M" transform="matrix(1 0 0 1 2274.62 1126)">
   <path d="M12.4609-54.0712L118.263-54.0712L118.263-68.9874Q118.263-74.7325 114.744-78.3411Q111.225-81.9497 105.601-81.9497L25.0655-81.9497Q19.4993-81.9497 15.9801-78.3411Q12.4609-74.7325 12.4609-68.9874ZM34.3615-61.6418Q32.1601-61.6418 30.5908-63.1683Q29.0214-64.6947 29.0214-66.8962Q29.0214-69.1547 30.5908-70.6838Q32.1601-72.2128 34.3615-72.2128Q36.5109-72.2128 38.0945-70.6838Q39.6781-69.1547 39.6781-66.8962Q39.6781-64.6947 38.0945-63.1683Q36.5109-61.6418 34.3615-61.6418ZM48.4108-61.6418Q46.2094-61.6418 44.64-63.1683Q43.0707-64.6947 43.0707-66.8962Q43.0707-69.1547 44.64-70.6838Q46.2094-72.2128 48.4108-72.2128Q50.5888-72.2128 52.1439-70.6838Q53.6989-69.1547 53.6989-66.8962Q53.6989-64.6947 52.1439-63.1683Q50.5888-61.6418 48.4108-61.6418ZM62.398-61.6418Q60.225-61.6418 58.6557-63.1683Q57.0864-64.6947 57.0864-66.8962Q57.0864-69.1547 58.6557-70.6838Q60.225-72.2128 62.398-72.2128Q64.5759-72.2128 66.1595-70.6838Q67.7431-69.1547 67.7431-66.8962Q67.7431-64.6947 66.1595-63.1683Q64.5759-61.6418 62.398-61.6418ZM85.6427-63.2267Q84.0585-63.2267 82.9991-64.3005Q81.9396-65.3743 81.9396-66.9298Q81.9396-68.5141 82.9991-69.571Q84.0585-70.6278 85.6427-70.6278L99.0415-70.6278Q100.597-70.6278 101.654-69.571Q102.711-68.5141 102.711-66.9298Q102.711-65.3743 101.654-64.3005Q100.597-63.2267 99.0415-63.2267ZM25.0655 11.3765L105.601 11.3765Q111.225 11.3765 114.744 7.76786Q118.263 4.15925 118.263-1.58592L118.263-46.1558L12.4609-46.1558L12.4609-1.58592Q12.4609 4.15925 15.9801 7.76786Q19.4993 11.3765 25.0655 11.3765ZM33.3823 0.036379Q31.2721 0.036379 29.9611-1.24853Q28.6502-2.53343 28.6502-4.6722L28.6502-32.6855Q28.6502-34.853 29.9611-36.1522Q31.2721-37.4515 33.3823-37.4515L97.3937-37.4515Q99.5326-37.4515 100.815-36.1522Q102.097-34.853 102.097-32.6855L102.097-4.6722Q102.097-2.53343 100.815-1.24853Q99.5326 0.036379 97.3937 0.036379ZM35.961-24.9612L94.815-24.9612L94.815-29.262Q94.815-30.4547 93.6274-30.4547L37.1486-30.4547Q35.961-30.4547 35.961-29.262ZM37.1486-7.25102L93.6274-7.25102Q94.815-7.25102 94.815-8.43855L94.815-19.1869L35.961-19.1869L35.961-8.43855Q35.961-7.25102 37.1486-7.25102Z"/>
  </g>
  <g id="Semibold-M" transform="matrix(1 0 0 1 1979.4 1126)">
   <path d="M12.4609-53.9017L115.278-53.9017L115.278-68.3289Q115.278-73.653 112.05-76.9701Q108.822-80.2873 103.639-80.2873L24.0438-80.2873Q18.917-80.2873 15.689-76.9701Q12.4609-73.653 12.4609-68.3289ZM32.9801-61.0933Q30.9074-61.0933 29.4407-62.5233Q27.974-63.9532 27.974-66.0261Q27.974-68.1352 29.4407-69.5687Q30.9074-71.0023 32.9801-71.0023Q35.0048-71.0023 36.4805-69.5687Q37.9563-68.1352 37.9563-66.0261Q37.9563-63.9532 36.4805-62.5233Q35.0048-61.0933 32.9801-61.0933ZM46.6366-61.0933Q44.5637-61.0933 43.0971-62.5233Q41.6304-63.9532 41.6304-66.0261Q41.6304-68.1352 43.0971-69.5687Q44.5637-71.0023 46.6366-71.0023Q48.6794-71.0023 50.137-69.5687Q51.5946-68.1352 51.5946-66.0261Q51.5946-63.9532 50.137-62.5233Q48.6794-61.0933 46.6366-61.0933ZM60.2496-61.0933Q58.1949-61.0933 56.7282-62.5233Q55.2615-63.9532 55.2615-66.0261Q55.2615-68.1352 56.7282-69.5687Q58.1949-71.0023 60.2496-71.0023Q62.2924-71.0023 63.7682-69.5687Q65.244-68.1352 65.244-66.0261Q65.244-63.9532 63.7682-62.5233Q62.2924-61.0933 60.2496-61.0933ZM84.332-62.7716Q82.917-62.7716 81.9846-63.713Q81.0523-64.6545 81.0523-66.0513Q81.0523-67.4852 81.9846-68.4046Q82.917-69.3239 84.332-69.3239L97.8234-69.3239Q99.2203-69.3239 100.14-68.4046Q101.059-67.4852 101.059-66.0513Q101.059-64.6545 100.14-63.713Q99.2203-62.7716 97.8234-62.7716ZM24.0438 9.73686L103.639 9.73686Q108.822 9.73686 112.05 6.41965Q115.278 3.10244 115.278-2.22169L115.278-46.8903L12.4609-46.8903L12.4609-2.22169Q12.4609 3.10244 15.689 6.41965Q18.917 9.73686 24.0438 9.73686ZM32.1852-1.34902Q30.0755-1.34902 28.773-2.62747Q27.4705-3.90593 27.4705-6.03376L27.4705-33.8175Q27.4705-35.9824 28.773-37.2794Q30.0755-38.5764 32.1852-38.5764L95.6014-38.5764Q97.7293-38.5764 99.0042-37.2794Q100.279-35.9824 100.279-33.8175L100.279-6.03376Q100.279-3.90593 99.0042-2.62747Q97.7293-1.34902 95.6014-1.34902ZM34.0934-26.5429L93.6932-26.5429L93.6932-30.8904Q93.6932-32.1533 92.4375-32.1533L35.3492-32.1533Q34.0934-32.1533 34.0934-30.8904ZM35.3492-7.96091L92.4375-7.96091Q93.6932-7.96091 93.6932-9.19774L93.6932-20.8933L34.0934-20.8933L34.0934-9.19774Q34.0934-7.96091 35.3492-7.96091Z"/>
  </g>
  <g id="Medium-M" transform="matrix(1 0 0 1 1683.82 1126)">
   <path d="M12.4609-53.7731L113.014-53.7731L113.014-67.8296Q113.014-72.8344 110.007-75.9306Q106.999-79.0268 102.152-79.0268L23.2692-79.0268Q18.4755-79.0268 15.4682-75.9306Q12.4609-72.8344 12.4609-67.8296ZM31.9326-60.6774Q29.9575-60.6774 28.5687-62.0342Q27.1798-63.391 27.1798-65.3663Q27.1798-67.3621 28.5687-68.7233Q29.9575-70.0844 31.9326-70.0844Q33.8628-70.0844 35.2568-68.7233Q36.6507-67.3621 36.6507-65.3663Q36.6507-63.391 35.2568-62.0342Q33.8628-60.6774 31.9326-60.6774ZM45.2912-60.6774Q43.3159-60.6774 41.9271-62.0342Q40.5383-63.391 40.5383-65.3663Q40.5383-67.3621 41.9271-68.7233Q43.3159-70.0844 45.2912-70.0844Q47.2317-70.0844 48.6153-68.7233Q49.999-67.3621 49.999-65.3663Q49.999-63.391 48.6153-62.0342Q47.2317-60.6774 45.2912-60.6774ZM58.6206-60.6774Q56.6556-60.6774 55.2667-62.0342Q53.8779-63.391 53.8779-65.3663Q53.8779-67.3621 55.2667-68.7233Q56.6556-70.0844 58.6206-70.0844Q60.561-70.0844 61.955-68.7233Q63.349-67.3621 63.349-65.3663Q63.349-63.391 61.955-62.0342Q60.561-60.6774 58.6206-60.6774ZM83.3382-62.4264Q82.0514-62.4264 81.2154-63.2676Q80.3795-64.1087 80.3795-65.3851Q80.3795-66.7051 81.2154-67.5202Q82.0514-68.3352 83.3382-68.3352L96.8998-68.3352Q98.1763-68.3352 98.9914-67.5202Q99.8064-66.7051 99.8064-65.3851Q99.8064-64.1087 98.9914-63.2676Q98.1763-62.4264 96.8998-62.4264ZM23.2692 8.49363L102.152 8.49363Q106.999 8.49363 110.007 5.39738Q113.014 2.30113 113.014-2.70376L113.014-47.4473L12.4609-47.4473L12.4609-2.70376Q12.4609 2.30113 15.4682 5.39738Q18.4755 8.49363 23.2692 8.49363ZM31.2776-2.39948Q29.1683-2.39948 27.8722-3.67305Q26.5761-4.94662 26.5761-7.06614L26.5761-34.6757Q26.5761-36.8388 27.8722-38.1341Q29.1683-39.4294 31.2776-39.4294L94.2424-39.4294Q96.3621-39.4294 97.6313-38.1341Q98.9005-36.8388 98.9005-34.6757L98.9005-7.06614Q98.9005-4.94662 97.6313-3.67305Q96.3621-2.39948 94.2424-2.39948ZM32.6774-27.7422L92.8426-27.7422L92.8426-32.1252Q92.8426-33.4411 91.5353-33.4411L33.9848-33.4411Q32.6774-33.4411 32.6774-32.1252ZM33.9848-8.49918L91.5353-8.49918Q92.8426-8.49918 92.8426-9.77338L92.8426-22.1872L32.6774-22.1872L32.6774-9.77338Q32.6774-8.49918 33.9848-8.49918Z"/>
  </g>
  <g id="Regular-M" transform="matrix(1 0 0 1 1388.58 1126)">
   <path d="M12.4609-53.6053L110.061-53.6053L110.061-67.1783Q110.061-71.7668 107.342-74.5747Q104.623-77.3827 100.212-77.3827L22.2588-77.3827Q17.8996-77.3827 15.1803-74.5747Q12.4609-71.7668 12.4609-67.1783ZM30.5664-60.1349Q28.7185-60.1349 27.4312-61.3963Q26.1439-62.6577 26.1439-64.5057Q26.1439-66.3538 27.4312-67.6205Q28.7185-68.8872 30.5664-68.8872Q32.3732-68.8872 33.6605-67.6205Q34.9478-66.3538 34.9478-64.5057Q34.9478-62.6577 33.6605-61.3963Q32.3732-60.1349 30.5664-60.1349ZM43.5364-60.1349Q41.6884-60.1349 40.4011-61.3963Q39.1138-62.6577 39.1138-64.5057Q39.1138-66.3538 40.4011-67.6205Q41.6884-68.8872 43.5364-68.8872Q45.3433-68.8872 46.6306-67.6205Q47.9179-66.3538 47.9179-64.5057Q47.9179-62.6577 46.6306-61.3963Q45.3433-60.1349 43.5364-60.1349ZM56.4958-60.1349Q54.6477-60.1349 53.3604-61.3963Q52.0731-62.6577 52.0731-64.5057Q52.0731-66.3538 53.3604-67.6205Q54.6477-68.8872 56.4958-68.8872Q58.3026-68.8872 59.5899-67.6205Q60.8772-66.3538 60.8772-64.5057Q60.8772-62.6577 59.5899-61.3963Q58.3026-60.1349 56.4958-60.1349ZM82.0418-61.9763Q80.9223-61.9763 80.2121-62.6865Q79.5019-63.3968 79.5019-64.5162Q79.5019-65.6876 80.2121-66.3666Q80.9223-67.0457 82.0418-67.0457L95.6951-67.0457Q96.8146-67.0457 97.4936-66.3666Q98.1727-65.6876 98.1727-64.5162Q98.1727-63.3968 97.4936-62.6865Q96.8146-61.9763 95.6951-61.9763ZM22.2588 6.87203L100.212 6.87203Q104.623 6.87203 107.342 4.06398Q110.061 1.25593 110.061-3.33254L110.061-48.1737L12.4609-48.1737L12.4609-3.33254Q12.4609 1.25593 15.1803 4.06398Q17.8996 6.87203 22.2588 6.87203ZM30.0936-3.76965Q27.9849-3.76965 26.6971-5.03684Q25.4093-6.30403 25.4093-8.41273L25.4093-35.7952Q25.4093-37.9558 26.6971-39.2489Q27.9849-40.542 30.0936-40.542L92.4698-40.542Q94.5787-40.542 95.8405-39.2489Q97.1024-37.9558 97.1024-35.7952L97.1024-8.41273Q97.1024-6.30403 95.8405-5.03684Q94.5787-3.76965 92.4698-3.76965ZM30.8303-29.3066L91.7331-29.3066L91.7331-33.7357Q91.7331-35.121 90.3585-35.121L32.2051-35.121Q30.8303-35.121 30.8303-33.7357ZM32.2051-9.20127L90.3585-9.20127Q91.7331-9.20127 91.7331-10.5242L91.7331-23.8749L30.8303-23.8749L30.8303-10.5242Q30.8303-9.20127 32.2051-9.20127Z"/>
  </g>
  <g id="Light-M" transform="matrix(1 0 0 1 1093.46 1126)">
   <path d="M12.4609-52.1337L106.879-52.1337L106.879-65.7923Q106.879-70.244 104.296-72.9578Q101.714-75.6716 97.525-75.6716L21.7796-75.6716Q17.6259-75.6716 15.0434-72.9578Q12.4609-70.244 12.4609-65.7923ZM30.1214-58.4411Q28.308-58.4411 27.0549-59.6767Q25.8018-60.9124 25.8018-62.7262Q25.8018-64.54 27.0549-65.7896Q28.308-67.0392 30.1214-67.0392Q31.9282-67.0392 33.1813-65.7896Q34.4344-64.54 34.4344-62.7262Q34.4344-60.9124 33.1813-59.6767Q31.9282-58.4411 30.1214-58.4411ZM43.1086-58.4411Q41.2948-58.4411 40.0417-59.6767Q38.7886-60.9124 38.7886-62.7262Q38.7886-64.54 40.0417-65.7896Q41.2948-67.0392 43.1086-67.0392Q44.9155-67.0392 46.1686-65.7896Q47.4217-64.54 47.4217-62.7262Q47.4217-60.9124 46.1686-59.6767Q44.9155-58.4411 43.1086-58.4411ZM56.068-58.4411Q54.2542-58.4411 53.0011-59.6767Q51.748-60.9124 51.748-62.7262Q51.748-64.54 53.0011-65.7896Q54.2542-67.0392 56.068-67.0392Q57.8749-67.0392 59.1279-65.7896Q60.381-64.54 60.381-62.7262Q60.381-60.9124 59.1279-59.6767Q57.8749-58.4411 56.068-58.4411ZM79.5951-60.6415Q78.6808-60.6415 78.0819-61.2406Q77.4829-61.8398 77.4829-62.7536Q77.4829-63.7028 78.0819-64.2706Q78.6808-64.8384 79.5951-64.8384L93.06-64.8384Q93.9742-64.8384 94.542-64.2706Q95.1098-63.7028 95.1098-62.7536Q95.1098-61.8398 94.542-61.2406Q93.9742-60.6415 93.06-60.6415ZM21.7796 5.17817L97.525 5.17817Q101.714 5.17817 104.296 2.46413Q106.879-0.249912 106.879-4.70154L106.879-47.6945L12.4609-47.6945L12.4609-4.70154Q12.4609-0.249912 15.0434 2.46413Q17.6259 5.17817 21.7796 5.17817ZM29.084-5.24129Q26.8899-5.24129 25.585-6.54269Q24.2801-7.84408 24.2801-10.0382L24.2801-35.2476Q24.2801-37.4765 25.585-38.7954Q26.8899-40.1142 29.084-40.1142L90.2625-40.1142Q92.457-40.1142 93.7445-38.7954Q95.0319-37.4765 95.0319-35.2476L95.0319-10.0382Q95.0319-7.84408 93.7445-6.54269Q92.457-5.24129 90.2625-5.24129ZM28.6914-29.9568L90.655-29.9568L90.655-33.8898Q90.655-35.7029 88.8699-35.7029L30.4771-35.7029Q28.6914-35.7029 28.6914-33.8898ZM30.4771-9.68051L88.8699-9.68051Q90.655-9.68051 90.655-11.4312L90.655-25.5176L28.6914-25.5176L28.6914-11.4312Q28.6914-9.68051 30.4771-9.68051Z"/>
  </g>
  <g id="Thin-M" transform="matrix(1 0 0 1 798.857 1126)">
   <path d="M12.4609-50.1874L102.669-50.1874L102.669-63.9593Q102.669-68.2299 100.268-70.8192Q97.8669-73.4085 93.9719-73.4085L21.1457-73.4085Q17.2639-73.4085 14.8624-70.8192Q12.4609-68.2299 12.4609-63.9593ZM29.5328-56.2008Q27.7651-56.2008 26.5572-57.4024Q25.3494-58.604 25.3494-60.3726Q25.3494-62.1412 26.5572-63.3682Q27.7651-64.5952 29.5328-64.5952Q31.3396-64.5952 32.5475-63.3682Q33.7553-62.1412 33.7553-60.3726Q33.7553-58.604 32.5475-57.4024Q31.3396-56.2008 29.5328-56.2008ZM42.5429-56.2008Q40.7743-56.2008 39.5664-57.4024Q38.3586-58.604 38.3586-60.3726Q38.3586-62.1412 39.5664-63.3682Q40.7743-64.5952 42.5429-64.5952Q44.3497-64.5952 45.5576-63.3682Q46.7654-62.1412 46.7654-60.3726Q46.7654-58.604 45.5576-57.4024Q44.3497-56.2008 42.5429-56.2008ZM55.5022-56.2008Q53.7337-56.2008 52.5258-57.4024Q51.318-58.604 51.318-60.3726Q51.318-62.1412 52.5258-63.3682Q53.7337-64.5952 55.5022-64.5952Q57.3091-64.5952 58.5169-63.3682Q59.7248-62.1412 59.7248-60.3726Q59.7248-58.604 58.5169-57.4024Q57.3091-56.2008 55.5022-56.2008ZM76.359-58.8761Q75.7162-58.8761 75.2644-59.3283Q74.8126-59.7805 74.8126-60.4225Q74.8126-61.0777 75.2644-61.4984Q75.7162-61.919 76.359-61.919L89.5749-61.919Q90.2177-61.919 90.6383-61.4984Q91.059-61.0777 91.059-60.4225Q91.059-59.7805 90.6383-59.3283Q90.2177-58.8761 89.5749-58.8761ZM21.1457 2.93791L93.9719 2.93791Q97.8669 2.93791 100.268 0.348197Q102.669-2.24151 102.669-6.51215L102.669-47.0607L12.4609-47.0607L12.4609-6.51215Q12.4609-2.24151 14.8624 0.348197Q17.2639 2.93791 21.1457 2.93791ZM27.7487-7.18764Q25.4416-7.18764 24.1141-8.53428Q22.7866-9.88093 22.7866-12.1879L22.7866-34.5232Q22.7866-36.8427 24.1141-38.1956Q25.4416-39.5484 27.7487-39.5484L87.3431-39.5484Q89.651-39.5484 90.9723-38.1956Q92.2936-36.8427 92.2936-34.5232L92.2936-12.1879Q92.2936-9.88093 90.9723-8.53428Q89.651-7.18764 87.3431-7.18764ZM25.8626-30.8169L89.2292-30.8169L89.2292-34.0936Q89.2292-36.4724 86.9011-36.4724L28.1916-36.4724Q25.8626-36.4724 25.8626-34.0936ZM28.1916-10.3143L86.9011-10.3143Q89.2292-10.3143 89.2292-12.6308L89.2292-27.6902L25.8626-27.6902L25.8626-12.6308Q25.8626-10.3143 28.1916-10.3143Z"/>
  </g>
  <g id="Ultralight-M" transform="matrix(1 0 0 1 503.224 1126)">
   <path d="M12.4609-49.1904L100.513-49.1904L100.513-63.0204Q100.513-67.1983 98.2048-69.7239Q95.8965-72.2494 92.1519-72.2494L20.8211-72.2494Q17.0785-72.2494 14.7697-69.7239Q12.4609-67.1983 12.4609-63.0204ZM29.2313-55.0533Q27.487-55.0533 26.3023-56.2375Q25.1176-57.4217 25.1176-59.1671Q25.1176-60.9126 26.3023-62.1279Q27.487-63.3433 29.2313-63.3433Q31.0382-63.3433 32.2228-62.1279Q33.4075-60.9126 33.4075-59.1671Q33.4075-57.4217 32.2228-56.2375Q31.0382-55.0533 29.2313-55.0533ZM42.2531-55.0533Q40.5077-55.0533 39.323-56.2375Q38.1383-57.4217 38.1383-59.1671Q38.1383-60.9126 39.323-62.1279Q40.5077-63.3433 42.2531-63.3433Q44.0599-63.3433 45.2446-62.1279Q46.4293-60.9126 46.4293-59.1671Q46.4293-57.4217 45.2446-56.2375Q44.0599-55.0533 42.2531-55.0533ZM55.2125-55.0533Q53.467-55.0533 52.2824-56.2375Q51.0977-57.4217 51.0977-59.1671Q51.0977-60.9126 52.2824-62.1279Q53.467-63.3433 55.2125-63.3433Q57.0193-63.3433 58.204-62.1279Q59.3886-60.9126 59.3886-59.1671Q59.3886-57.4217 58.204-56.2375Q57.0193-55.0533 55.2125-55.0533ZM74.7015-57.9719Q74.1978-57.9719 73.8213-58.3488Q73.4449-58.7258 73.4449-59.2285Q73.4449-59.7332 73.8213-60.0785Q74.1978-60.4237 74.7015-60.4237L87.7898-60.4237Q88.2935-60.4237 88.6388-60.0785Q88.9841-59.7332 88.9841-59.2285Q88.9841-58.7258 88.6388-58.3488Q88.2935-57.9719 87.7898-57.9719ZM20.8211 1.79045L92.1519 1.79045Q95.8965 1.79045 98.2048-0.735573Q100.513-3.2616 100.513-7.43954L100.513-46.736L12.4609-46.736L12.4609-7.43954Q12.4609-3.2616 14.7697-0.735573Q17.0785 1.79045 20.8211 1.79045ZM27.0647-8.18455Q24.6998-8.18455 23.3607-9.55437Q22.0216-10.9242 22.0216-13.289L22.0216-34.1522Q22.0216-36.5181 23.3607-37.8884Q24.6998-39.2587 27.0647-39.2587L85.8479-39.2587Q88.2138-39.2587 89.5524-37.8884Q90.891-36.5181 90.891-34.1522L90.891-13.289Q90.891-10.9242 89.5524-9.55437Q88.2138-8.18455 85.8479-8.18455ZM24.4137-31.2574L88.4989-31.2574L88.4989-34.198Q88.4989-36.8666 85.8927-36.8666L27.0209-36.8666Q24.4137-36.8666 24.4137-34.198ZM27.0209-10.639L85.8927-10.639Q88.4989-10.639 88.4989-13.2453L88.4989-28.803L24.4137-28.803L24.4137-13.2453Q24.4137-10.639 27.0209-10.639Z"/>
  </g>
  <g id="Black-S" transform="matrix(1 0 0 1 2878.47 696)">
   <path d="M9.76562-50.3418L100.098-50.3418L100.098-63.2812Q100.098-68.8477 96.6064-72.4121Q93.1152-75.9766 87.5977-75.9766L22.2168-75.9766Q16.748-75.9766 13.2568-72.4121Q9.76562-68.8477 9.76562-63.2812ZM30.4199-57.2266Q28.3691-57.2266 26.8799-58.667Q25.3906-60.1074 25.3906-62.1582Q25.3906-64.3066 26.8799-65.7471Q28.3691-67.1875 30.4199-67.1875Q32.4219-67.1875 33.9355-65.7471Q35.4492-64.3066 35.4492-62.1582Q35.4492-60.1074 33.9355-58.667Q32.4219-57.2266 30.4199-57.2266ZM42.4316-57.2266Q40.3809-57.2266 38.8916-58.667Q37.4023-60.1074 37.4023-62.1582Q37.4023-64.3066 38.8916-65.7471Q40.3809-67.1875 42.4316-67.1875Q44.4824-67.1875 45.9473-65.7471Q47.4121-64.3066 47.4121-62.1582Q47.4121-60.1074 45.9473-58.667Q44.4824-57.2266 42.4316-57.2266ZM54.3457-57.2266Q52.3438-57.2266 50.8545-58.667Q49.3652-60.1074 49.3652-62.1582Q49.3652-64.3066 50.8545-65.7471Q52.3438-67.1875 54.3457-67.1875Q56.3965-67.1875 57.9102-65.7471Q59.4238-64.3066 59.4238-62.1582Q59.4238-60.1074 57.9102-58.667Q56.3965-57.2266 54.3457-57.2266ZM70.3125-58.252Q68.6523-58.252 67.5049-59.4238Q66.3574-60.5957 66.3574-62.207Q66.3574-63.8184 67.5049-64.9902Q68.6523-66.1621 70.3125-66.1621L80.5664-66.1621Q82.1777-66.1621 83.3496-64.9902Q84.5215-63.8184 84.5215-62.207Q84.5215-60.5957 83.3496-59.4238Q82.1777-58.252 80.5664-58.252ZM22.2168 5.37109L87.5977 5.37109Q93.1152 5.37109 96.6064 1.80664Q100.098-1.75781 100.098-7.32422L100.098-41.8945L9.76562-41.8945L9.76562-7.32422Q9.76562-1.75781 13.2568 1.80664Q16.748 5.37109 22.2168 5.37109ZM29.1504-4.15039Q27.4902-4.15039 26.4404-5.17578Q25.3906-6.20117 25.3906-7.91016L25.3906-30.3223Q25.3906-32.0312 26.4404-33.0566Q27.4902-34.082 29.1504-34.082L80.7617-34.082Q82.4707-34.082 83.4961-33.0566Q84.5215-32.0312 84.5215-30.3223L84.5215-7.91016Q84.5215-6.20117 83.4961-5.17578Q82.4707-4.15039 80.7617-4.15039ZM32.8125-23.1934L77.0996-23.1934L77.0996-26.416Q77.0996-27.1973 76.3184-27.1973L33.5938-27.1973Q32.8125-27.1973 32.8125-26.416ZM33.5938-11.5234L76.3184-11.5234Q77.0996-11.5234 77.0996-12.3535L77.0996-18.4082L32.8125-18.4082L32.8125-12.3535Q32.8125-11.5234 33.5938-11.5234Z"/>
  </g>
  <g id="Heavy-S" transform="matrix(1 0 0 1 2583.21 696)">
   <path d="M9.76562-50.3418L97.1935-50.3418L97.1935-62.7281Q97.1935-67.845 94.0077-71.0983Q90.8219-74.3516 85.7653-74.3516L21.145-74.3516Q16.1373-74.3516 12.9514-71.0983Q9.76562-67.845 9.76562-62.7281ZM28.9448-56.8347Q27.0323-56.8347 25.6525-58.1714Q24.2728-59.5081 24.2728-61.4206Q24.2728-63.4077 25.6525-64.7444Q27.0323-66.0812 28.9448-66.0812Q30.8084-66.0812 32.2069-64.7444Q33.6053-63.4077 33.6053-61.4206Q33.6053-59.5081 32.2069-58.1714Q30.8084-56.8347 28.9448-56.8347ZM40.5186-56.8347Q38.6061-56.8347 37.2263-58.1714Q35.8465-59.5081 35.8465-61.4206Q35.8465-63.4077 37.2263-64.7444Q38.6061-66.0812 40.5186-66.0812Q42.4195-66.0812 43.7807-64.7444Q45.1418-63.4077 45.1418-61.4206Q45.1418-59.5081 43.7807-58.1714Q42.4195-56.8347 40.5186-56.8347ZM52.0178-56.8347Q50.1426-56.8347 48.7628-58.1714Q47.383-59.5081 47.383-61.4206Q47.383-63.4077 48.7628-64.7444Q50.1426-66.0812 52.0178-66.0812Q53.9187-66.0812 55.3172-64.7444Q56.7156-63.4077 56.7156-61.4206Q56.7156-59.5081 55.3172-58.1714Q53.9187-56.8347 52.0178-56.8347ZM69.1716-57.9177Q67.6728-57.9177 66.6521-58.9571Q65.6314-59.9964 65.6314-61.4579Q65.6314-62.931 66.6521-63.9646Q67.6728-64.9981 69.1716-64.9981L79.5523-64.9981Q81.0138-64.9981 82.0473-63.9646Q83.0809-62.931 83.0809-61.4579Q83.0809-59.9964 82.0473-58.9571Q81.0138-57.9177 79.5523-57.9177ZM21.145 3.76919L85.7653 3.76919Q90.8219 3.76919 94.0077 0.5159Q97.1935-2.73739 97.1935-7.85434L97.1935-42.7704L9.76562-42.7704L9.76562-7.85434Q9.76562-2.73739 12.9514 0.5159Q16.1373 3.76919 21.145 3.76919ZM27.9518-5.49875Q26.3032-5.49875 25.2649-6.51262Q24.2267-7.52649 24.2267-9.21242L24.2267-31.6476Q24.2267-33.345 25.2649-34.3647Q26.3032-35.3843 27.9518-35.3843L79.0561-35.3843Q80.742-35.3843 81.7559-34.3647Q82.7698-33.345 82.7698-31.6476L82.7698-9.21242Q82.7698-7.52649 81.7559-6.51262Q80.742-5.49875 79.0561-5.49875ZM31.0147-24.8644L75.9933-24.8644L75.9933-28.2023Q75.9933-29.0066 75.189-29.0066L31.819-29.0066Q31.0147-29.0066 31.0147-28.2023ZM31.819-12.2495L75.189-12.2495Q75.9933-12.2495 75.9933-13.0796L75.9933-20.0908L31.0147-20.0908L31.0147-13.0796Q31.0147-12.2495 31.819-12.2495Z"/>
  </g>
  <g id="Bold-S" transform="matrix(1 0 0 1 2288.12 696)">
   <path d="M9.76562-50.3418L93.9453-50.3418L93.9453-62.1094Q93.9453-66.7236 91.1011-69.6289Q88.2568-72.5342 83.7158-72.5342L19.9463-72.5342Q15.4541-72.5342 12.6099-69.6289Q9.76562-66.7236 9.76562-62.1094ZM27.2949-56.3965Q25.5371-56.3965 24.2798-57.6172Q23.0225-58.8379 23.0225-60.5957Q23.0225-62.4023 24.2798-63.623Q25.5371-64.8438 27.2949-64.8438Q29.0039-64.8438 30.2734-63.623Q31.543-62.4023 31.543-60.5957Q31.543-58.8379 30.2734-57.6172Q29.0039-56.3965 27.2949-56.3965ZM38.3789-56.3965Q36.6211-56.3965 35.3638-57.6172Q34.1064-58.8379 34.1064-60.5957Q34.1064-62.4023 35.3638-63.623Q36.6211-64.8438 38.3789-64.8438Q40.1123-64.8438 41.3574-63.623Q42.6025-62.4023 42.6025-60.5957Q42.6025-58.8379 41.3574-57.6172Q40.1123-56.3965 38.3789-56.3965ZM49.4141-56.3965Q47.6807-56.3965 46.4233-57.6172Q45.166-58.8379 45.166-60.5957Q45.166-62.4023 46.4233-63.623Q47.6807-64.8438 49.4141-64.8438Q51.1475-64.8438 52.417-63.623Q53.6865-62.4023 53.6865-60.5957Q53.6865-58.8379 52.417-57.6172Q51.1475-56.3965 49.4141-56.3965ZM67.8955-57.5439Q66.5771-57.5439 65.6982-58.4351Q64.8193-59.3262 64.8193-60.6201Q64.8193-61.9385 65.6982-62.8174Q66.5771-63.6963 67.8955-63.6963L78.418-63.6963Q79.7119-63.6963 80.5908-62.8174Q81.4697-61.9385 81.4697-60.6201Q81.4697-59.3262 80.5908-58.4351Q79.7119-57.5439 78.418-57.5439ZM19.9463 1.97754L83.7158 1.97754Q88.2568 1.97754 91.1011-0.927734Q93.9453-3.83301 93.9453-8.44727L93.9453-43.75L9.76562-43.75L9.76562-8.44727Q9.76562-3.83301 12.6099-0.927734Q15.4541 1.97754 19.9463 1.97754ZM26.6113-7.00684Q24.9756-7.00684 23.9502-8.00781Q22.9248-9.00879 22.9248-10.6689L22.9248-33.1299Q22.9248-34.8145 23.9502-35.8276Q24.9756-36.8408 26.6113-36.8408L77.1484-36.8408Q78.8086-36.8408 79.8096-35.8276Q80.8105-34.8145 80.8105-33.1299L80.8105-10.6689Q80.8105-9.00879 79.8096-8.00781Q78.8086-7.00684 77.1484-7.00684ZM29.0039-26.7334L74.7559-26.7334L74.7559-30.2002Q74.7559-31.0303 73.9258-31.0303L29.834-31.0303Q29.0039-31.0303 29.0039-30.2002ZM29.834-13.0615L73.9258-13.0615Q74.7559-13.0615 74.7559-13.8916L74.7559-21.9727L29.0039-21.9727L29.0039-13.8916Q29.0039-13.0615 29.834-13.0615Z"/>
  </g>
  <g id="Semibold-S" transform="matrix(1 0 0 1 1992.53 696)">
   <path d="M9.76562-50.3418L91.7059-50.3418L91.7059-61.6828Q91.7059-65.9505 89.0971-68.6158Q86.4884-71.2812 82.3028-71.2812L19.1198-71.2812Q14.9831-71.2812 12.3744-68.6158Q9.76562-65.9505 9.76562-61.6828ZM26.1574-56.0943Q24.5063-56.0943 23.3333-57.2351Q22.1604-58.3758 22.1604-60.027Q22.1604-61.7092 23.3333-62.8499Q24.5063-63.9906 26.1574-63.9906Q27.7598-63.9906 28.9404-62.8499Q30.1211-61.7092 30.1211-60.027Q30.1211-58.3758 28.9404-57.2351Q27.7598-56.0943 26.1574-56.0943ZM36.9037-56.0943Q35.2525-56.0943 34.0796-57.2351Q32.9067-58.3758 32.9067-60.027Q32.9067-61.7092 34.0796-62.8499Q35.2525-63.9906 36.9037-63.9906Q38.5216-63.9906 39.6867-62.8499Q40.8519-61.7092 40.8519-60.027Q40.8519-58.3758 39.6867-57.2351Q38.5216-56.0943 36.9037-56.0943ZM47.6189-56.0943Q45.9833-56.0943 44.8104-57.2351Q43.6375-58.3758 43.6375-60.027Q43.6375-61.7092 44.8104-62.8499Q45.9833-63.9906 47.6189-63.9906Q49.2368-63.9906 50.4175-62.8499Q51.5981-61.7092 51.5981-60.027Q51.5981-58.3758 50.4175-57.2351Q49.2368-56.0943 47.6189-56.0943ZM67.0157-57.2862Q65.8218-57.2862 65.0406-58.0751Q64.2595-58.8641 64.2595-60.0425Q64.2595-61.2542 65.0406-62.0265Q65.8218-62.7987 67.0157-62.7987L77.6359-62.7987Q78.8144-62.7987 79.5866-62.0265Q80.3589-61.2542 80.3589-60.0425Q80.3589-58.8641 79.5866-58.0751Q78.8144-57.2862 77.6359-57.2862ZM19.1198 0.742285L82.3028 0.742285Q86.4884 0.742285 89.0971-1.92305Q91.7059-4.58838 91.7059-8.85605L91.7059-44.4254L9.76562-44.4254L9.76562-8.85605Q9.76562-4.58838 12.3744-1.92305Q14.9831 0.742285 19.1198 0.742285ZM25.6871-8.04658Q24.0603-8.04658 23.0437-9.03867Q22.0272-10.0308 22.0272-11.6731L22.0272-34.1519Q22.0272-35.8275 23.0437-36.8363Q24.0603-37.845 25.6871-37.845L75.8332-37.845Q77.4756-37.845 78.4677-36.8363Q79.4598-35.8275 79.4598-34.1519L79.4598-11.6731Q79.4598-10.0308 78.4677-9.03867Q77.4756-8.04658 75.8332-8.04658ZM27.6176-28.022L73.9027-28.022L73.9027-31.5776Q73.9027-32.4255 73.0549-32.4255L28.4654-32.4255Q27.6176-32.4255 27.6176-31.5776ZM28.4654-13.6214L73.0549-13.6214Q73.9027-13.6214 73.9027-14.4515L73.9027-23.2701L27.6176-23.2701L27.6176-14.4515Q27.6176-13.6214 28.4654-13.6214Z"/>
  </g>
  <g id="Medium-S" transform="matrix(1 0 0 1 1696.67 696)">
   <path d="M9.76562-50.3418L90.0078-50.3418L90.0078-61.3594Q90.0078-65.3643 87.5776-67.8477Q85.1475-70.3311 81.2314-70.3311L18.4932-70.3311Q14.626-70.3311 12.1958-67.8477Q9.76562-65.3643 9.76562-61.3594ZM25.2949-55.8652Q23.7246-55.8652 22.6157-56.9453Q21.5068-58.0254 21.5068-59.5957Q21.5068-61.1836 22.6157-62.2637Q23.7246-63.3438 25.2949-63.3438Q26.8164-63.3438 27.9297-62.2637Q29.043-61.1836 29.043-59.5957Q29.043-58.0254 27.9297-56.9453Q26.8164-55.8652 25.2949-55.8652ZM35.7852-55.8652Q34.2148-55.8652 33.106-56.9453Q31.9971-58.0254 31.9971-59.5957Q31.9971-61.1836 33.106-62.2637Q34.2148-63.3438 35.7852-63.3438Q37.3154-63.3438 38.4199-62.2637Q39.5244-61.1836 39.5244-59.5957Q39.5244-58.0254 38.4199-56.9453Q37.3154-55.8652 35.7852-55.8652ZM46.2578-55.8652Q44.6963-55.8652 43.5874-56.9453Q42.4785-58.0254 42.4785-59.5957Q42.4785-61.1836 43.5874-62.2637Q44.6963-63.3438 46.2578-63.3438Q47.7881-63.3438 48.9014-62.2637Q50.0146-61.1836 50.0146-59.5957Q50.0146-58.0254 48.9014-56.9453Q47.7881-55.8652 46.2578-55.8652ZM66.3486-57.0908Q65.249-57.0908 64.542-57.8022Q63.835-58.5137 63.835-59.6045Q63.835-60.7354 64.542-61.4268Q65.249-62.1182 66.3486-62.1182L77.043-62.1182Q78.1338-62.1182 78.8252-61.4268Q79.5166-60.7354 79.5166-59.6045Q79.5166-58.5137 78.8252-57.8022Q78.1338-57.0908 77.043-57.0908ZM18.4932-0.194336L81.2314-0.194336Q85.1475-0.194336 87.5776-2.67773Q90.0078-5.16113 90.0078-9.16602L90.0078-44.9375L9.76562-44.9375L9.76562-9.16602Q9.76562-5.16113 12.1958-2.67773Q14.626-0.194336 18.4932-0.194336ZM24.9863-8.83496Q23.3662-8.83496 22.3564-9.82031Q21.3467-10.8057 21.3467-12.4346L21.3467-34.9268Q21.3467-36.5957 22.3564-37.6011Q23.3662-38.6064 24.9863-38.6064L74.8359-38.6064Q76.4648-38.6064 77.4502-37.6011Q78.4355-36.5957 78.4355-34.9268L78.4355-12.4346Q78.4355-10.8057 77.4502-9.82031Q76.4648-8.83496 74.8359-8.83496ZM26.5664-28.999L73.2559-28.999L73.2559-32.6221Q73.2559-33.4834 72.3945-33.4834L27.4277-33.4834Q26.5664-33.4834 26.5664-32.6221ZM27.4277-14.0459L72.3945-14.0459Q73.2559-14.0459 73.2559-14.876L73.2559-24.2539L26.5664-24.2539L26.5664-14.876Q26.5664-14.0459 27.4277-14.0459Z"/>
  </g>
  <g id="Regular-S" transform="matrix(1 0 0 1 1401.07 696)">
   <path d="M9.76562-50.3418L87.793-50.3418L87.793-60.9375Q87.793-64.5996 85.5957-66.8457Q83.3984-69.0918 79.834-69.0918L17.6758-69.0918Q14.1602-69.0918 11.9629-66.8457Q9.76562-64.5996 9.76562-60.9375ZM24.1699-55.5664Q22.7051-55.5664 21.6797-56.5674Q20.6543-57.5684 20.6543-59.0332Q20.6543-60.498 21.6797-61.499Q22.7051-62.5 24.1699-62.5Q25.5859-62.5 26.6113-61.499Q27.6367-60.498 27.6367-59.0332Q27.6367-57.5684 26.6113-56.5674Q25.5859-55.5664 24.1699-55.5664ZM34.3262-55.5664Q32.8613-55.5664 31.8359-56.5674Q30.8105-57.5684 30.8105-59.0332Q30.8105-60.498 31.8359-61.499Q32.8613-62.5 34.3262-62.5Q35.7422-62.5 36.7676-61.499Q37.793-60.498 37.793-59.0332Q37.793-57.5684 36.7676-56.5674Q35.7422-55.5664 34.3262-55.5664ZM44.4824-55.5664Q43.0176-55.5664 41.9922-56.5674Q40.9668-57.5684 40.9668-59.0332Q40.9668-60.498 41.9922-61.499Q43.0176-62.5 44.4824-62.5Q45.8984-62.5 46.9238-61.499Q47.9492-60.498 47.9492-59.0332Q47.9492-57.5684 46.9238-56.5674Q45.8984-55.5664 44.4824-55.5664ZM65.4785-56.8359Q64.502-56.8359 63.8916-57.4463Q63.2812-58.0566 63.2812-59.0332Q63.2812-60.0586 63.8916-60.6445Q64.502-61.2305 65.4785-61.2305L76.2695-61.2305Q77.2461-61.2305 77.832-60.6445Q78.418-60.0586 78.418-59.0332Q78.418-58.0566 77.832-57.4463Q77.2461-56.8359 76.2695-56.8359ZM17.6758-1.41602L79.834-1.41602Q83.3984-1.41602 85.5957-3.66211Q87.793-5.9082 87.793-9.57031L87.793-45.6055L9.76562-45.6055L9.76562-9.57031Q9.76562-5.9082 11.9629-3.66211Q14.1602-1.41602 17.6758-1.41602ZM24.0723-9.86328Q22.4609-9.86328 21.46-10.8398Q20.459-11.8164 20.459-13.4277L20.459-35.9375Q20.459-37.5977 21.46-38.5986Q22.4609-39.5996 24.0723-39.5996L73.5352-39.5996Q75.1465-39.5996 76.123-38.5986Q77.0996-37.5977 77.0996-35.9375L77.0996-13.4277Q77.0996-11.8164 76.123-10.8398Q75.1465-9.86328 73.5352-9.86328ZM25.1953-30.2734L72.4121-30.2734L72.4121-33.9844Q72.4121-34.8633 71.5332-34.8633L26.0742-34.8633Q25.1953-34.8633 25.1953-33.9844ZM26.0742-14.5996L71.5332-14.5996Q72.4121-14.5996 72.4121-15.4297L72.4121-25.5371L25.1953-25.5371L25.1953-15.4297Q25.1953-14.5996 26.0742-14.5996Z"/>
  </g>
  <g id="Light-S" transform="matrix(1 0 0 1 1105.76 696)">
   <path d="M9.76562-49.04L84.9775-49.04L84.9775-59.7115Q84.9775-63.2525 82.9014-65.4153Q80.8253-67.5781 77.4574-67.5781L17.2518-67.5781Q13.9181-67.5781 11.8418-65.4153Q9.76562-63.2525 9.76562-59.7115ZM23.7762-54.068Q22.3419-54.068 21.3468-55.0462Q20.3517-56.0244 20.3517-57.459Q20.3517-58.8936 21.3468-59.8794Q22.3419-60.8653 23.7762-60.8653Q25.1923-60.8653 26.1874-59.8794Q27.1825-58.8936 27.1825-57.459Q27.1825-56.0244 26.1874-55.0462Q25.1923-54.068 23.7762-54.068ZM33.9478-54.068Q32.5132-54.068 31.518-55.0462Q30.5229-56.0244 30.5229-57.459Q30.5229-58.8936 31.518-59.8794Q32.5132-60.8653 33.9478-60.8653Q35.3638-60.8653 36.3589-59.8794Q37.354-58.8936 37.354-57.459Q37.354-56.0244 36.3589-55.0462Q35.3638-54.068 33.9478-54.068ZM44.104-54.068Q42.6694-54.068 41.6743-55.0462Q40.6792-56.0244 40.6792-57.459Q40.6792-58.8936 41.6743-59.8794Q42.6694-60.8653 44.104-60.8653Q45.52-60.8653 46.5151-59.8794Q47.5103-58.8936 47.5103-57.459Q47.5103-56.0244 46.5151-55.0462Q45.52-54.068 44.104-54.068ZM63.3141-55.6552Q62.5191-55.6552 62.0071-56.1672Q61.4952-56.6793 61.4952-57.474Q61.4952-58.3028 62.0071-58.7903Q62.5191-59.2779 63.3141-59.2779L73.9385-59.2779Q74.7335-59.2779 75.221-58.7903Q75.7085-58.3028 75.7085-57.474Q75.7085-56.6793 75.221-56.1672Q74.7335-55.6552 73.9385-55.6552ZM17.2518-2.91443L77.4574-2.91443Q80.8253-2.91443 82.9014-5.07736Q84.9775-7.2403 84.9775-10.7814L84.9775-45.1815L9.76562-45.1815L9.76562-10.7814Q9.76562-7.2403 11.8418-5.07736Q13.9181-2.91443 17.2518-2.91443ZM23.1791-11.1651Q21.4923-11.1651 20.4762-12.1719Q19.46-13.1788 19.46-14.8656L19.46-35.453Q19.46-37.1737 20.4762-38.1975Q21.4923-39.2212 23.1791-39.2212L71.5825-39.2212Q73.2697-39.2212 74.2688-38.1975Q75.268-37.1737 75.268-35.453L75.268-14.8656Q75.268-13.1788 74.2688-12.1719Q73.2697-11.1651 71.5825-11.1651ZM23.3032-30.8487L71.4584-30.8487L71.4584-34.1207Q71.4584-35.378 70.2164-35.378L24.5455-35.378Q23.3032-35.378 23.3032-34.1207ZM24.5455-15.0235L70.2164-15.0235Q71.4584-15.0235 71.4584-16.232L71.4584-26.9903L23.3032-26.9903L23.3032-16.232Q23.3032-15.0235 24.5455-15.0235Z"/>
  </g>
  <g id="Thin-S" transform="matrix(1 0 0 1 810.912 696)">
   <path d="M9.76562-47.3182L81.2537-47.3182L81.2537-58.0899Q81.2537-61.4709 79.3379-63.5235Q77.4221-65.5762 74.3142-65.5762L16.6911-65.5762Q13.5978-65.5762 11.6817-63.5235Q9.76562-61.4709 9.76562-58.0899ZM23.2556-52.0862Q21.8616-52.0862 20.9065-53.0343Q19.9514-53.9824 19.9514-55.377Q19.9514-56.7716 20.9065-57.7374Q21.8616-58.7032 23.2556-58.7032Q24.6716-58.7032 25.6267-57.7374Q26.5818-56.7716 26.5818-55.377Q26.5818-53.9824 25.6267-53.0343Q24.6716-52.0862 23.2556-52.0862ZM33.4473-52.0862Q32.0527-52.0862 31.0976-53.0343Q30.1425-53.9824 30.1425-55.377Q30.1425-56.7716 31.0976-57.7374Q32.0527-58.7032 33.4473-58.7032Q34.8633-58.7032 35.8184-57.7374Q36.7735-56.7716 36.7735-55.377Q36.7735-53.9824 35.8184-53.0343Q34.8633-52.0862 33.4473-52.0862ZM43.6035-52.0862Q42.209-52.0862 41.2539-53.0343Q40.2988-53.9824 40.2988-55.377Q40.2988-56.7716 41.2539-57.7374Q42.209-58.7032 43.6035-58.7032Q45.0195-58.7032 45.9746-57.7374Q46.9297-56.7716 46.9297-55.377Q46.9297-53.9824 45.9746-53.0343Q45.0195-52.0862 43.6035-52.0862ZM60.4514-54.0935Q59.8966-54.0935 59.5148-54.4756Q59.133-54.8576 59.133-55.4118Q59.133-55.9807 59.5148-56.338Q59.8966-56.6954 60.4514-56.6954L70.8555-56.6954Q71.4103-56.6954 71.7677-56.338Q72.125-55.9807 72.125-55.4118Q72.125-54.8576 71.7677-54.4756Q71.4103-54.0935 70.8555-54.0935ZM16.6911-4.8962L74.3142-4.8962Q77.4221-4.8962 79.3379-6.94915Q81.2537-9.00209 81.2537-12.383L81.2537-44.6208L9.76562-44.6208L9.76562-12.383Q9.76562-9.00209 11.6817-6.94915Q13.5978-4.8962 16.6911-4.8962ZM21.9979-12.8869Q20.2111-12.8869 19.175-13.9337Q18.1389-14.9806 18.1389-16.7673L18.1389-34.8123Q18.1389-36.613 19.175-37.6669Q20.2111-38.7207 21.9979-38.7207L69-38.7207Q70.7874-38.7207 71.8165-37.6669Q72.8457-36.613 72.8457-34.8123L72.8457-16.7673Q72.8457-14.9806 71.8165-13.9337Q70.7874-12.8869 69-12.8869ZM20.8008-31.6095L70.1971-31.6095L70.1971-34.301Q70.1971-36.0588 68.4748-36.0588L22.5237-36.0588Q20.8008-36.0588 20.8008-34.301ZM22.5237-15.5842L68.4748-15.5842Q70.1971-15.5842 70.1971-17.2932L70.1971-28.9122L20.8008-28.9122L20.8008-17.2932Q20.8008-15.5842 22.5237-15.5842Z"/>
  </g>
  <g id="Ultralight-S" transform="matrix(1 0 0 1 515.155 696)">
   <path d="M9.76562-46.4363L79.3465-46.4363L79.3465-57.2594Q79.3465-60.5583 77.5127-62.5546Q75.679-64.5508 72.7043-64.5508L16.404-64.5508Q13.4338-64.5508 11.5997-62.5546Q9.76562-60.5583 9.76562-57.2594ZM22.9889-51.0712Q21.6156-51.0712 20.681-52.0039Q19.7464-52.9366 19.7464-54.3106Q19.7464-55.6847 20.681-56.6402Q21.6156-57.5958 22.9889-57.5958Q24.4049-57.5958 25.3395-56.6402Q26.2741-55.6847 26.2741-54.3106Q26.2741-52.9366 25.3395-52.0039Q24.4049-51.0712 22.9889-51.0712ZM33.1909-51.0712Q31.8169-51.0712 30.8823-52.0039Q29.9477-52.9366 29.9477-54.3106Q29.9477-55.6847 30.8823-56.6402Q31.8169-57.5958 33.1909-57.5958Q34.6069-57.5958 35.5415-56.6402Q36.4761-55.6847 36.4761-54.3106Q36.4761-52.9366 35.5415-52.0039Q34.6069-51.0712 33.1909-51.0712ZM43.3472-51.0712Q41.9731-51.0712 41.0385-52.0039Q40.1039-52.9366 40.1039-54.3106Q40.1039-55.6847 41.0385-56.6402Q41.9731-57.5958 43.3472-57.5958Q44.7632-57.5958 45.6978-56.6402Q46.6324-55.6847 46.6324-54.3106Q46.6324-52.9366 45.6978-52.0039Q44.7632-51.0712 43.3472-51.0712ZM58.9851-53.2936Q58.5533-53.2936 58.2382-53.6091Q57.9231-53.9246 57.9231-54.3556Q57.9231-54.7913 58.2382-55.0819Q58.5533-55.3726 58.9851-55.3726L69.2764-55.3726Q69.7083-55.3726 69.9989-55.0819Q70.2896-54.7913 70.2896-54.3556Q70.2896-53.9246 69.9989-53.6091Q69.7083-53.2936 69.2764-53.2936ZM16.404-5.91125L72.7043-5.91125Q75.679-5.91125 77.5127-7.90787Q79.3465-9.90448 79.3465-13.2034L79.3465-44.3336L9.76562-44.3336L9.76562-13.2034Q9.76562-9.90448 11.5997-7.90787Q13.4338-5.91125 16.404-5.91125ZM21.3928-13.7688Q19.5549-13.7688 18.5085-14.8361Q17.4622-15.9035 17.4622-17.7414L17.4622-34.4841Q17.4622-36.3258 18.5085-37.3951Q19.5549-38.4644 21.3928-38.4644L67.6773-38.4644Q69.516-38.4644 70.5605-37.3951Q71.6049-36.3258 71.6049-34.4841L71.6049-17.7414Q71.6049-15.9035 70.5605-14.8361Q69.516-13.7688 67.6773-13.7688ZM19.519-31.9992L69.5511-31.9992L69.5511-34.3933Q69.5511-36.4075 67.5827-36.4075L21.4882-36.4075Q19.519-36.4075 19.519-34.3933ZM21.4882-15.8714L67.5827-15.8714Q69.5511-15.8714 69.5511-17.8368L69.5511-29.8965L19.519-29.8965L19.519-17.8368Q19.519-15.8714 21.4882-15.8714Z"/>
  </g>
 </g>
</svg>
